<?xml version="1.0" encoding="utf-8"?>
<!-- Generator: Adobe Illustrator 16.0.0, SVG Export Plug-In . SVG Version: 6.00 Build 0)  -->
<!DOCTYPE svg PUBLIC "-//W3C//DTD SVG 1.1//EN" "http://www.w3.org/Graphics/SVG/1.1/DTD/svg11.dtd">
<svg version="1.1" id="Layer_1" xmlns="http://www.w3.org/2000/svg" xmlns:xlink="http://www.w3.org/1999/xlink" x="0px" y="0px"
	 width="585px" height="185px" viewBox="0 0 585 185" enable-background="new 0 0 585 185" xml:space="preserve">
<g>
	<path fill="#326CE5" d="M179.514,38.647L110.257,5.295L40.999,38.647L23.894,113.59l47.928,60.1h76.871l47.927-60.1L179.514,38.647
		z M145.279,166.216H75.233L31.561,111.45l15.587-68.289l63.109-30.392l63.108,30.392l15.587,68.289L145.279,166.216z"/>
	<g>
		<path fill="#326CE5" d="M174.846,102.776l-8.21-35.973l-39.124-9.07v-1.828l30.848-6.789L113.287,27.41l-3.03-1.459l-3.029,1.459
			L62.443,48.977l31.269,6.881v1.829l-39.863,9.242l-8.182,35.847l-1.333,5.84l16.243,20.368l18.143,22.751
			c2.487-2.265,6.251-6.328,9.441-10.886c3.963-5.656,5.842-8.734,8.652-10.395c0.842-0.568,1.809-0.955,2.845-1.145
			c0.03-0.008,0.054-0.02,0.083-0.025c-0.001,0.006-0.002,0.012-0.003,0.018c0.418-0.072,0.842-0.129,1.28-0.129
			c3.277,0,6.039,2.102,7.083,5.02c-1.326-0.641-4-1.426-6.521,0.926c-3.526,3.289-1.488,9.059-1.488,9.059
			c0.132,0.416,0.279,0.777,0.435,1.113c-1.916,2.338-6.845,6.289-8.949,7.742h2.262c2.481-1.852,9.544-7.434,14.186-14.059
			c4.574-6.529,6.743-10.084,9.987-12.002c0.973-0.652,2.088-1.102,3.284-1.32c0.034-0.008,0.062-0.023,0.097-0.029
			c-0.002,0.006-0.003,0.014-0.005,0.021c0.482-0.084,0.972-0.15,1.479-0.15c3.783,0,6.972,2.424,8.177,5.795
			c-1.531-0.74-4.618-1.645-7.527,1.068c-4.071,3.797-1.718,10.459-1.718,10.459c0.348,1.1,0.766,1.984,1.261,2.531
			c-1.846,2.291-6.737,6.219-8.849,7.686h2.212c1.947-1.488,7.144-5.66,10.331-10.211c3.331-4.752,4.908-7.34,7.27-8.736
			c0.708-0.475,1.521-0.801,2.391-0.961c0.025-0.006,0.046-0.016,0.07-0.021c-0.002,0.006-0.002,0.012-0.004,0.016
			c0.352-0.061,0.708-0.109,1.076-0.109c2.754,0,5.074,1.766,5.951,4.219c-1.113-0.537-3.36-1.197-5.479,0.775
			c-2.963,2.766-1.25,7.613-1.25,7.613c0.253,0.801,0.558,1.445,0.917,1.844c-0.006,0.006-0.014,0.014-0.02,0.021
			c0.316,0.528,1.5,2.929,3.825,4.618l18.433-23.113l16.244-20.371L174.846,102.776z M88.313,131.354l1.845-15.604l37.91-21.973
			l1.609,13.607L88.313,131.354z M91.486,104.508l1.743-14.748h23.805L91.486,104.508z M120.772,122.98v-1.969l10.694-6.174
			l1.467,12.41C129.253,121.441,120.772,122.98,120.772,122.98z M128.299,86.339h-13.823h-7.219H93.434
			c0-8.539-5.185-15.919-5.185-15.919h9.87V51.665h-2.893l15.64-12.473l15.639,12.473h-2.892V70.42h9.87
			C133.483,70.42,128.299,77.8,128.299,86.339z"/>
		<rect x="111.501" y="51.574" fill="#326CE5" width="10.491" height="12.137"/>
		<rect x="99.668" y="51.574" fill="#326CE5" width="9.882" height="12.137"/>
	</g>
</g>
<path fill="#326CE5" d="M219.124,63.09c1.927,0,3.519,0.162,4.781,0.481c1.261,0.322,2.327,0.666,3.199,1.033l-1.788,8.048
	c-0.735-0.319-1.549-0.551-2.442-0.688c-0.895-0.137-1.801-0.205-2.717-0.205c-1.239,0-2.283,0.171-3.132,0.515
	c-0.849,0.345-1.513,0.815-1.994,1.411c-0.481,0.597-0.826,1.308-1.033,2.134c-0.206,0.823-0.31,1.719-0.31,2.681v1.789h12.659v8.53
	h-12.659v27.657h-10.25V78.363c0-4.678,1.318-8.392,3.956-11.144C210.031,64.467,213.939,63.09,219.124,63.09 M246.78,117.164
	c-2.981-0.048-5.399-0.369-7.257-0.964c-1.857-0.596-3.326-1.433-4.404-2.511c-1.077-1.078-1.813-2.384-2.201-3.922
	c-0.391-1.537-0.585-3.269-0.585-5.196V64.741l10.251-1.651v39.419c0,0.919,0.068,1.745,0.207,2.478
	c0.137,0.734,0.4,1.353,0.791,1.856c0.389,0.507,0.952,0.918,1.685,1.24c0.734,0.321,1.72,0.525,2.959,0.618L246.78,117.164z"/>
<path fill="#326CE5" d="M269.278,79.326c3.028,0,5.548,0.344,7.569,1.033c2.016,0.686,3.634,1.674,4.849,2.956
	c1.215,1.285,2.074,2.844,2.581,4.681c0.504,1.833,0.756,3.874,0.756,6.12v21.325c-1.467,0.322-3.508,0.7-6.123,1.138
	c-2.615,0.434-5.781,0.651-9.495,0.651c-2.338,0-4.459-0.203-6.364-0.617c-1.903-0.412-3.544-1.091-4.918-2.03
	c-1.378-0.938-2.432-2.166-3.166-3.681c-0.734-1.513-1.1-3.371-1.1-5.571c0-2.111,0.423-3.9,1.273-5.366
	c0.849-1.467,1.983-2.638,3.404-3.511c1.422-0.87,3.052-1.5,4.885-1.89c1.834-0.39,3.737-0.586,5.711-0.586
	c1.33,0,2.511,0.057,3.544,0.172c1.03,0.114,1.867,0.266,2.511,0.447v-0.963c0-1.743-0.529-3.139-1.584-4.195
	c-1.056-1.055-2.889-1.584-5.504-1.584c-1.741,0-3.463,0.129-5.159,0.381c-1.697,0.251-3.163,0.607-4.404,1.063l-1.307-8.255
	c0.596-0.182,1.344-0.378,2.237-0.585c0.896-0.204,1.867-0.39,2.925-0.549c1.053-0.159,2.167-0.299,3.337-0.414
	C266.904,79.385,268.084,79.326,269.278,79.326 M270.103,109.32c1.008,0,1.971-0.022,2.889-0.067
	c0.919-0.047,1.652-0.115,2.203-0.207v-7.774c-0.414-0.093-1.032-0.185-1.859-0.276c-0.826-0.09-1.582-0.138-2.27-0.138
	c-0.963,0-1.87,0.059-2.718,0.174c-0.849,0.114-1.593,0.333-2.234,0.651c-0.644,0.322-1.148,0.756-1.515,1.309
	c-0.366,0.551-0.551,1.236-0.551,2.062c0,1.608,0.54,2.719,1.618,3.337C266.744,109.012,268.222,109.32,270.103,109.32"/>
<path fill="#326CE5" d="M293.464,81.526c1.744-0.504,3.992-0.974,6.743-1.408c2.752-0.437,5.643-0.655,8.667-0.655
	c3.074,0,5.63,0.403,7.674,1.204c2.038,0.803,3.655,1.94,4.85,3.407c1.191,1.467,2.04,3.211,2.544,5.226
	c0.506,2.021,0.758,4.265,0.758,6.743v20.432h-10.251V97.28c0-3.302-0.437-5.64-1.307-7.014c-0.87-1.377-2.5-2.066-4.886-2.066
	c-0.732,0-1.515,0.036-2.338,0.103c-0.825,0.071-1.561,0.152-2.203,0.242v27.93h-10.25V81.526z"/>
<path fill="#326CE5" d="M343.771,93.283c1.008-1.095,2.051-2.233,3.127-3.417c1.078-1.187,2.119-2.36,3.127-3.524
	c1.009-1.162,1.96-2.268,2.853-3.318c0.894-1.047,1.661-1.96,2.304-2.735h12.19c-2.435,2.794-4.808,5.459-7.122,7.998
	c-2.316,2.539-4.853,5.158-7.604,7.859c1.378,1.241,2.8,2.722,4.268,4.446c1.466,1.721,2.888,3.502,4.266,5.341
	c1.374,1.836,2.637,3.675,3.784,5.512c1.146,1.839,2.109,3.517,2.89,5.03h-11.789c-0.732-1.195-1.566-2.516-2.505-3.966
	c-0.939-1.448-1.934-2.896-2.986-4.342c-1.057-1.45-2.164-2.839-3.331-4.174c-1.167-1.333-2.323-2.458-3.47-3.38v15.861h-10.251
	V64.741l10.251-1.651V93.283z"/>
<path fill="#326CE5" d="M383.423,113.313c2.566,0,4.688-0.427,6.362-1.273c1.675-0.849,2.512-2.283,2.512-4.3
	c0-0.964-0.147-1.789-0.447-2.479c-0.301-0.688-0.789-1.307-1.479-1.855c-0.688-0.551-1.595-1.078-2.718-1.585
	c-1.125-0.504-2.51-1.101-4.163-1.788c-1.329-0.549-2.591-1.112-3.784-1.687c-1.191-0.57-2.245-1.236-3.164-1.992
	c-0.918-0.759-1.65-1.663-2.2-2.719c-0.551-1.054-0.824-2.339-0.824-3.851c0-2.891,1.089-5.229,3.266-7.018
	c2.178-1.788,5.171-2.684,8.978-2.684c2.431,0,4.438,0.207,6.021,0.618c1.582,0.415,2.694,0.781,3.337,1.103l-1.033,3.989
	c-0.551-0.274-1.479-0.641-2.785-1.1c-1.308-0.459-3.225-0.689-5.747-0.689c-1.008,0-1.96,0.104-2.853,0.311
	c-0.896,0.207-1.688,0.529-2.374,0.966c-0.688,0.437-1.24,0.988-1.651,1.655c-0.414,0.666-0.618,1.481-0.618,2.446
	c0,0.966,0.182,1.792,0.549,2.483c0.367,0.689,0.906,1.297,1.618,1.824c0.711,0.528,1.581,1.021,2.613,1.478
	c1.03,0.457,2.212,0.958,3.542,1.506c1.377,0.549,2.695,1.109,3.955,1.68c1.264,0.571,2.374,1.258,3.337,2.061
	c0.963,0.801,1.744,1.764,2.341,2.889c0.597,1.122,0.893,2.533,0.893,4.23c0,3.211-1.204,5.641-3.611,7.293
	c-2.407,1.65-5.699,2.477-9.87,2.477c-3.122,0-5.504-0.266-7.154-0.792c-1.653-0.525-2.752-0.926-3.305-1.204l1.17-4.059
	c0.139,0.092,0.436,0.241,0.894,0.448c0.459,0.207,1.078,0.436,1.858,0.688c0.778,0.252,1.708,0.472,2.785,0.653
	C380.749,113.219,382,113.313,383.423,113.313"/>
<path fill="#326CE5" d="M434.932,98.725c0,2.799-0.402,5.344-1.207,7.637c-0.801,2.296-1.926,4.244-3.37,5.847
	c-1.443,1.608-3.151,2.856-5.126,3.752c-1.971,0.894-4.15,1.341-6.532,1.341c-2.387,0-4.567-0.447-6.537-1.341
	c-1.975-0.896-3.682-2.144-5.126-3.752c-1.445-1.603-2.57-3.551-3.37-5.847c-0.804-2.293-1.205-4.838-1.205-7.637
	c0-2.797,0.401-5.341,1.205-7.635c0.8-2.293,1.925-4.253,3.37-5.882c1.444-1.626,3.151-2.889,5.126-3.782
	c1.97-0.896,4.15-1.344,6.537-1.344c2.382,0,4.562,0.448,6.532,1.344c1.975,0.893,3.683,2.156,5.126,3.782
	c1.444,1.629,2.569,3.589,3.37,5.882C434.529,93.384,434.932,95.928,434.932,98.725 M430.184,98.725
	c0-4.448-1.033-7.988-3.096-10.628c-2.063-2.637-4.863-3.955-8.392-3.955c-3.533,0-6.33,1.318-8.396,3.955
	c-2.063,2.64-3.096,6.18-3.096,10.628c0,4.45,1.033,7.98,3.096,10.596c2.066,2.615,4.863,3.922,8.396,3.922
	c3.528,0,6.328-1.307,8.392-3.922C429.15,106.705,430.184,103.175,430.184,98.725"/>
<path fill="#326CE5" d="M471.553,115.238c-1.329,0.366-3.118,0.777-5.366,1.236c-2.247,0.459-5,0.689-8.255,0.689
	c-2.66,0-4.886-0.393-6.674-1.17c-1.789-0.778-3.232-1.881-4.334-3.305c-1.1-1.419-1.892-3.14-2.374-5.158
	c-0.48-2.019-0.722-4.241-0.722-6.674V80.907h4.474v18.506c0,2.521,0.183,4.654,0.548,6.398c0.367,1.744,0.965,3.153,1.789,4.231
	c0.826,1.077,1.894,1.857,3.2,2.34c1.307,0.481,2.9,0.722,4.781,0.722c2.107,0,3.944-0.114,5.503-0.345
	c1.56-0.229,2.545-0.436,2.959-0.618V80.907h4.471V115.238z"/>
<path fill="#326CE5" d="M495.724,80.219c1.467,0,2.854,0.118,4.162,0.344c1.308,0.233,2.212,0.459,2.719,0.689l-0.896,3.852
	c-0.366-0.182-1.111-0.378-2.236-0.585c-1.123-0.204-2.603-0.308-4.437-0.308c-1.927,0-3.475,0.137-4.645,0.411
	c-1.171,0.278-1.938,0.507-2.305,0.689v31.164h-4.469V82.559c1.144-0.504,2.726-1.019,4.744-1.548
	C490.379,80.485,492.834,80.219,495.724,80.219"/>
<path fill="#326CE5" d="M524.481,117.231c-2.752,0-5.185-0.438-7.292-1.309c-2.11-0.87-3.865-2.119-5.264-3.748
	c-1.399-1.626-2.465-3.577-3.199-5.847c-0.732-2.271-1.1-4.782-1.1-7.534c0-2.796,0.377-5.344,1.133-7.635
	c0.759-2.293,1.848-4.266,3.27-5.918c1.421-1.649,3.142-2.923,5.16-3.816c2.019-0.896,4.288-1.343,6.812-1.343
	c1.925,0,3.725,0.162,5.399,0.481c1.675,0.322,2.971,0.736,3.889,1.24l-1.17,3.852c-0.918-0.459-1.951-0.825-3.097-1.1
	c-1.147-0.277-2.685-0.414-4.61-0.414c-3.945,0-6.938,1.274-8.979,3.818c-2.041,2.547-3.062,6.157-3.062,10.835
	c0,2.111,0.229,4.048,0.688,5.815c0.459,1.766,1.204,3.276,2.237,4.54c1.033,1.26,2.363,2.248,3.99,2.956
	c1.629,0.714,3.612,1.066,5.951,1.066c1.926,0,3.544-0.215,4.851-0.652c1.307-0.437,2.259-0.814,2.855-1.137l0.964,3.855
	c-0.826,0.459-2.122,0.903-3.89,1.341C528.253,117.013,526.408,117.231,524.481,117.231"/>
<path fill="#326CE5" d="M539.503,98.657c0-3.119,0.445-5.836,1.341-8.151c0.894-2.318,2.063-4.255,3.509-5.814
	c1.443-1.56,3.095-2.718,4.955-3.474c1.854-0.759,3.77-1.137,5.743-1.137c4.355,0,7.83,1.422,10.423,4.266
	c2.592,2.844,3.888,7.223,3.888,13.139c0,0.367-0.013,0.734-0.036,1.101c-0.022,0.369-0.056,0.712-0.1,1.033h-24.978
	c0.141,4.359,1.215,7.703,3.233,10.044s5.229,3.509,9.633,3.509c2.43,0,4.356-0.229,5.781-0.688c1.419-0.459,2.452-0.847,3.093-1.17
	l0.826,3.853c-0.642,0.366-1.846,0.804-3.611,1.308s-3.841,0.756-6.226,0.756c-3.119,0-5.778-0.459-7.981-1.375
	c-2.2-0.918-4.015-2.203-5.433-3.852c-1.423-1.651-2.456-3.614-3.098-5.885C539.822,103.851,539.503,101.364,539.503,98.657
	 M564.751,95.836c-0.093-3.713-0.963-6.604-2.614-8.667c-1.652-2.066-3.989-3.096-7.019-3.096c-1.604,0-3.037,0.322-4.3,0.963
	c-1.259,0.641-2.363,1.504-3.3,2.578c-0.941,1.081-1.675,2.329-2.204,3.752c-0.526,1.422-0.836,2.909-0.926,4.469H564.751z"/>
</svg>
