<?xml version="1.0" encoding="utf-8"?>
<!-- Generator: Adobe Illustrator 24.1.3, SVG Export Plug-In . SVG Version: 6.00 Build 0)  -->
<svg version="1.1" xmlns="http://www.w3.org/2000/svg" xmlns:xlink="http://www.w3.org/1999/xlink" x="0px" y="0px"
	 viewBox="0 0 730.84 461.22" style="enable-background:new 0 0 730.84 461.22;" xml:space="preserve">
<style type="text/css">
	.st0{fill:#FFE1B3;}
	.st1{fill:#F2F3F3;}
	.st2{fill:#E6E7E8;}
	.st3{fill:none;stroke:#404041;stroke-width:2;stroke-miterlimit:10;}
	.st4{fill:none;stroke:#404041;stroke-width:2;stroke-linejoin:round;stroke-miterlimit:10;}
	.st5{fill:#8EC2EA;stroke:#404041;stroke-width:2;stroke-miterlimit:10;}
	.st6{fill:#FFE1B3;stroke:#404041;stroke-width:2;stroke-miterlimit:10;}
	.st7{fill:#1E86D5;stroke:#404041;stroke-width:2;stroke-miterlimit:10;}
	.st8{fill:#E6E7E8;stroke:#404041;stroke-width:2;stroke-miterlimit:10;}
	.st9{fill:#FAFBFB;stroke:#404041;stroke-width:2;stroke-miterlimit:10;}
	.st10{fill:#404041;}
	.st11{display:none;}
	.st12{display:inline;}
</style>
<g id="Layer_2">
</g>
<g id="Layer_1">
	<polygon class="st0" points="487.94,130.55 475.82,130.55 475.76,101.29 463.69,101.3 481.78,80.64 499.95,101.27 487.88,101.28 	
		"/>
	<polygon class="st0" points="230.03,180.6 217.91,180.6 217.85,151.34 205.78,151.35 223.87,130.69 242.04,151.32 229.97,151.33 	
		"/>
	<polygon class="st0" points="120.3,282.03 108.18,282.03 108.13,252.78 96.06,252.79 114.15,232.13 132.32,252.76 120.25,252.77 	
		"/>
</g>
<g id="Layer_4">
</g>
<g id="Layer_3">
	<path class="st1" d="M391.81,203.94v162.04c0.28-0.01,0.56-0.02,0.84-0.02c2.08,0,4.04,0.3,5.87,0.84
		c-2.96-6.41,0.68-15.42,10.9-15.42c4.8,0,8.14,1.99,10.04,4.75c1.56-7.59,9.98-13.56,18.74-13.56c5.69,0,10.58,2.2,13.98,5.63
		c5.51-3.49,12.15-5.57,18.92-5.57c12.4,0,22.61,6.08,28.11,14.85V203.94H391.81z"/>
	<path class="st0" d="M534.8,407.05c0,10.09-3.73,19.31-9.9,26.35c-5.19,5.93-12.1,10.31-19.95,12.37c-0.35,0.1-0.71,0.19-1.07,0.27
		c-2.93,0.69-5.98,1.05-9.12,1.05H207.49c-11.08,0-20.06-8.98-20.06-20.06c0-7.9,4.56-14.72,11.19-17.99
		c-6.03-3.87-10.03-10.64-10.03-18.35c0-12.04,9.77-21.81,21.81-21.81c1.36,0,2.69,0.12,3.98,0.37c-0.01-0.36-0.02-0.71-0.02-1.07
		c0-14.03,11.38-25.41,25.42-25.41c11.71,0,21.57,7.93,24.51,18.71c1.27-10.54,10.24-18.71,21.12-18.71
		c9.55,0,17.64,6.29,20.33,14.96c2.53-2.87,6.22-4.68,10.34-4.68c7.26,0,13.22,5.62,13.74,12.74c1.37-1.65,3.44-2.7,5.75-2.7
		c4.13,0,7.47,3.34,7.47,7.46v-80.73h19.29v87.23c0-0.43,0.04-0.85,0.11-1.26c0.46-2.82,2.46-5.13,5.11-6.03
		c0.78-0.27,1.62-0.42,2.49-0.42c3.05,0,5.68,1.76,6.93,4.33c3.77-4.83,9.66-7.94,16.27-7.94c1.55,0,3.05,0.17,4.5,0.5
		c-0.55-1.4-0.84-2.92-0.84-4.52c0-6.98,5.66-12.65,12.65-12.65c3.85,0,7.29,1.72,9.61,4.44c2.27-8.32,9.88-14.43,18.91-14.43
		c5.51,0,10.49,2.27,14.06,5.93c5.34-3.74,11.85-5.93,18.86-5.93c10.2,0,19.32,4.64,25.36,11.93c3.92,4.74,6.55,10.59,7.32,17.01
		c8.38,1.91,15.76,6.44,21.23,12.69c2.26,2.58,4.19,5.46,5.73,8.56C533.3,394.62,534.8,400.66,534.8,407.05z"/>
	<path class="st2" d="M367.55,309.35v60.41c-2.65,0.9-4.65,3.21-5.11,6.03h-0.24v-66.44H367.55z"/>
	<path class="st1" d="M258.72,309.35v42.07c0.38,0.43,0.75,0.88,1.1,1.34c0.16,0.2,0.31,0.4,0.45,0.62c1.57,2.24,2.74,4.8,3.41,7.54
		c0.19,0.46,0.4,0.92,0.59,1.38c0.38-10.18,9.62-18.67,19.58-19.3c0.65-0.07,1.3-0.11,1.96-0.11c9.53,0,17.04,6.38,19.72,14.87
		c2.59-2.76,6.06-4.56,10.6-4.63c2.9-0.04,5.47,0.97,7.52,2.63c1.98,1.11,3.75,2.84,4.8,4.64c0.84,1.43,1.48,3.46,1.67,5.45
		c1.31-1.63,3.3-2.66,5.62-2.76c3.51-0.16,6.79,2.88,7.23,6.31v-60.06H258.72z"/>
	<path class="st1" d="M187.89,428.91c-0.01-0.09-0.01-0.17-0.02-0.26c-0.05-0.45-0.1-0.91-0.12-1.37c-0.02-0.49-0.02-0.97,0-1.45
		c0.01-0.19,0.01-0.39,0.03-0.58c0.01-0.12,0.02-0.23,0.03-0.35c0.58-6.9,5.2-12.92,11.26-16.11c0,0,0,0,0,0
		c-0.46-0.26-0.91-0.55-1.35-0.85c-0.18-0.12-0.36-0.25-0.54-0.38c-0.32-0.23-0.63-0.47-0.93-0.72c-0.15-0.12-0.3-0.24-0.44-0.36
		c-0.4-0.35-0.79-0.72-1.17-1.09c-0.14-0.14-0.28-0.29-0.42-0.44c-0.28-0.29-0.54-0.6-0.8-0.91c-0.12-0.14-0.24-0.28-0.36-0.43
		c-0.34-0.43-0.66-0.87-0.97-1.33c-0.1-0.14-0.19-0.29-0.28-0.44c-0.24-0.37-0.46-0.74-0.67-1.12c-0.09-0.15-0.17-0.31-0.26-0.46
		c-0.27-0.5-0.52-1.02-0.75-1.54c-0.05-0.12-0.1-0.24-0.14-0.36c-0.19-0.45-0.36-0.9-0.51-1.36c-0.05-0.16-0.11-0.31-0.16-0.47
		c-0.18-0.57-0.34-1.14-0.48-1.73c-0.02-0.07-0.03-0.15-0.04-0.22c-0.12-0.53-0.21-1.07-0.29-1.61c-0.02-0.16-0.05-0.32-0.07-0.48
		c-0.08-0.61-0.14-1.23-0.17-1.86c-0.02-0.37-0.02-0.73-0.01-1.09c0-0.12,0.01-0.23,0.02-0.35c0.01-0.25,0.02-0.49,0.04-0.74
		c0.01-0.13,0.03-0.27,0.04-0.4c0.02-0.22,0.05-0.45,0.08-0.67c0.02-0.14,0.04-0.27,0.07-0.41c0.04-0.22,0.07-0.43,0.12-0.65
		c0.03-0.13,0.06-0.27,0.09-0.4c0.05-0.22,0.1-0.43,0.16-0.65c0.03-0.13,0.07-0.25,0.11-0.38c0.06-0.22,0.13-0.44,0.21-0.66
		c0.04-0.11,0.08-0.23,0.12-0.34c0.08-0.23,0.17-0.46,0.26-0.69c0.04-0.1,0.08-0.2,0.12-0.3c0.1-0.24,0.21-0.49,0.32-0.73
		c0.04-0.08,0.07-0.16,0.11-0.23c0.13-0.27,0.27-0.54,0.41-0.8c0.02-0.04,0.05-0.09,0.07-0.13c1.23-2.24,2.89-4.24,4.84-5.92h-69.79
		v71.99h76.67C194.42,444.57,188.87,437.35,187.89,428.91z"/>
	<path class="st1" d="M632.29,37.45v409.64H524.9V433.4c6.17-7.04,9.9-16.26,9.9-26.35c0-6.39-1.5-12.43-4.17-17.79
		c-1.54-3.1-3.47-5.98-5.73-8.56V37.45H632.29z"/>
	<g>
		<g>
			<g>
				<line class="st3" x1="412.45" y1="85.32" x2="417.45" y2="85.32"/>
				<line class="st3" x1="420.87" y1="85.32" x2="425.87" y2="85.32"/>
			</g>
		</g>
		<g>
			<g>
				<line class="st3" x1="415.8" y1="91.13" x2="418.3" y2="86.8"/>
				<line class="st3" x1="420.01" y1="83.84" x2="422.51" y2="79.51"/>
			</g>
		</g>
		<g>
			<g>
				<line class="st3" x1="422.51" y1="91.13" x2="420.01" y2="86.8"/>
				<line class="st3" x1="418.3" y1="83.84" x2="415.8" y2="79.51"/>
			</g>
		</g>
	</g>
	<g>
		<g>
			<g>
				<line class="st3" x1="683.03" y1="35.45" x2="688.03" y2="35.45"/>
				<line class="st3" x1="691.45" y1="35.45" x2="696.45" y2="35.45"/>
			</g>
		</g>
		<g>
			<g>
				<line class="st3" x1="686.39" y1="41.26" x2="688.89" y2="36.93"/>
				<line class="st3" x1="690.6" y1="33.97" x2="693.1" y2="29.64"/>
			</g>
		</g>
		<g>
			<g>
				<line class="st3" x1="693.1" y1="41.26" x2="690.6" y2="36.93"/>
				<line class="st3" x1="688.89" y1="33.97" x2="686.39" y2="29.64"/>
			</g>
		</g>
	</g>
	<g>
		<circle class="st3" cx="701.03" cy="311.8" r="3.81"/>
	</g>
	<circle class="st2" cx="412.16" cy="37.83" r="3.67"/>
	<circle class="st2" cx="163.96" cy="211.23" r="3.67"/>
	<rect x="155.54" y="156.63" class="st3" width="9.51" height="9.51"/>
	<g>
		<g>
			<g>
				<line class="st3" x1="218.78" y1="257.08" x2="223.78" y2="257.08"/>
				<line class="st3" x1="227.21" y1="257.08" x2="232.21" y2="257.08"/>
			</g>
		</g>
		<g>
			<g>
				<line class="st3" x1="222.14" y1="262.89" x2="224.64" y2="258.56"/>
				<line class="st3" x1="226.35" y1="255.6" x2="228.85" y2="251.27"/>
			</g>
		</g>
		<g>
			<g>
				<line class="st3" x1="228.85" y1="262.89" x2="226.35" y2="258.56"/>
				<line class="st3" x1="224.64" y1="255.6" x2="222.14" y2="251.27"/>
			</g>
		</g>
	</g>
	<g>
		<g>
			<g>
				<line class="st3" x1="98.21" y1="156.63" x2="103.21" y2="156.63"/>
				<line class="st3" x1="106.63" y1="156.63" x2="111.63" y2="156.63"/>
			</g>
		</g>
		<g>
			<g>
				<line class="st3" x1="101.56" y1="162.44" x2="104.06" y2="158.11"/>
				<line class="st3" x1="105.77" y1="155.15" x2="108.27" y2="150.82"/>
			</g>
		</g>
		<g>
			<g>
				<line class="st3" x1="108.27" y1="162.44" x2="105.77" y2="158.11"/>
				<line class="st3" x1="104.06" y1="155.15" x2="101.56" y2="150.82"/>
			</g>
		</g>
	</g>
	<g>
		<g>
			<g>
				<line class="st3" x1="202.43" y1="29.83" x2="207.43" y2="29.83"/>
				<line class="st3" x1="210.85" y1="29.83" x2="215.85" y2="29.83"/>
			</g>
		</g>
		<g>
			<g>
				<line class="st3" x1="205.78" y1="35.64" x2="208.28" y2="31.31"/>
				<line class="st3" x1="209.99" y1="28.34" x2="212.49" y2="24.01"/>
			</g>
		</g>
		<g>
			<g>
				<line class="st3" x1="212.49" y1="35.64" x2="209.99" y2="31.31"/>
				<line class="st3" x1="208.28" y1="28.34" x2="205.78" y2="24.01"/>
			</g>
		</g>
	</g>
	<polygon class="st4" points="210.4,303.8 204.96,313.22 215.84,313.22 	"/>
	<circle class="st3" cx="454.35" cy="24.01" r="3.81"/>
	<circle class="st3" cx="29.81" cy="38.03" r="3.81"/>
	<circle class="st3" cx="63.88" cy="323.35" r="3.81"/>
	<g>
		<line class="st3" x1="136.51" y1="67.04" x2="145.3" y2="67.04"/>
		<line class="st3" x1="140.9" y1="71.44" x2="140.9" y2="62.65"/>
	</g>
	<g>
		<line class="st3" x1="657.98" y1="142.04" x2="666.77" y2="142.04"/>
		<line class="st3" x1="662.38" y1="146.43" x2="662.38" y2="137.64"/>
	</g>
	<rect x="32.15" y="206.48" class="st2" width="9.51" height="9.51"/>
	<line class="st3" x1="29.81" y1="447.09" x2="701.03" y2="447.09"/>
	<path class="st3" d="M331.74,289.73v25.94c0,6.41-5.2,11.61-11.61,11.61h0"/>
	<path class="st3" d="M374.32,312.87v24.39c0,6.41,5.2,11.61,11.61,11.61l0,0"/>
	<line class="st3" x1="374.32" y1="289.73" x2="374.32" y2="337.25"/>
	<g>
		<path class="st3" d="M494.76,447.09c3.14,0,6.19-0.36,9.12-1.05c0.36-0.08,0.72-0.17,1.07-0.27c7.85-2.06,14.76-6.44,19.95-12.37
			c6.17-7.04,9.9-16.26,9.9-26.35c0-6.39-1.5-12.43-4.17-17.79c-1.54-3.1-3.47-5.98-5.73-8.56c-5.47-6.25-12.85-10.78-21.23-12.69"
			/>
		<path class="st3" d="M503.91,371.99c0-1.35-0.08-2.68-0.24-3.98c-0.77-6.42-3.4-12.27-7.32-17.01
			c-6.04-7.29-15.16-11.93-25.36-11.93c-7.01,0-13.52,2.19-18.86,5.93c-3.57-3.66-8.55-5.93-14.06-5.93
			c-10.83,0-19.61,8.78-19.61,19.62"/>
		<path class="st3" d="M388.49,432.85c-3.79,1.35-8.03,1.54-12.18,0.29c-10.37-3.12-16.26-14.05-13.14-24.42"/>
		<path class="st3" d="M345.9,427.13c0.32,2.81-0.21,5.75-1.72,8.4c-3.77,6.63-12.2,8.94-18.83,5.16"/>
		<path class="st3" d="M372.58,386.39c0-11.41,9.25-20.66,20.66-20.66c1.55,0,3.05,0.17,4.5,0.5"/>
		<path class="st3" d="M400.48,370.53c-2.22-2.27-3.58-5.39-3.58-8.82c0-6.98,5.66-12.65,12.65-12.65c3.85,0,7.29,1.72,9.61,4.44"/>
		<path class="st3" d="M428,365.67c-0.26-2.2,0.31-4.51,1.77-6.41c2.97-3.87,8.52-4.6,12.39-1.63c2.13,1.64,3.31,4.05,3.43,6.55"/>
		<path class="st3" d="M400.32,384.78c2.16-3.87,6.3-6.48,11.04-6.48c6.99,0,12.65,5.66,12.65,12.65c0,2.02-0.47,3.93-1.31,5.62"/>
		<path class="st3" d="M442.51,382.54c2.16-3.87,6.3-6.48,11.04-6.48c6.99,0,12.65,5.66,12.65,12.65c0,0.08,0,0.15-0.01,0.23"/>
		<path class="st3" d="M422.19,396.57c9.23,0,16.72,7.48,16.72,16.72c0,9.23-7.48,16.72-16.72,16.72"/>
		<path class="st3" d="M376.97,373.67c-1.25-2.57-3.88-4.33-6.93-4.33c-0.87,0-1.71,0.15-2.49,0.42c-2.65,0.9-4.65,3.21-5.11,6.03
			c-0.07,0.41-0.11,0.83-0.11,1.26"/>
		<path class="st3" d="M464.21,396.57c0-8.66,7.02-15.68,15.68-15.68s15.68,7.02,15.68,15.68c0,6.9-4.46,12.76-10.66,14.85"/>
		<path class="st3" d="M478.45,408.96c5.34,0,9.68,4.33,9.68,9.68c0,5.34-4.33,9.68-9.68,9.68"/>
		<path class="st3" d="M207.49,447.09c-11.08,0-20.06-8.98-20.06-20.06c0-11.08,8.98-20.06,20.06-20.06"/>
		<path class="st3" d="M264.29,361.48c1.27-10.54,10.24-18.71,21.12-18.71c11.76,0,21.29,9.53,21.29,21.29"/>
		<path class="st3" d="M198.62,409.04c-6.03-3.87-10.03-10.64-10.03-18.35c0-12.04,9.77-21.81,21.81-21.81
			c12.05,0,21.81,9.77,21.81,21.81"/>
		<path class="st3" d="M214.38,369.25c-0.01-0.36-0.02-0.71-0.02-1.07c0-14.03,11.38-25.41,25.42-25.41
			c14.03,0,25.41,11.38,25.41,25.41"/>
		<path class="st3" d="M305.74,357.73c2.53-2.87,6.22-4.68,10.34-4.68c7.26,0,13.22,5.62,13.74,12.74"/>
		<path class="st3" d="M343.04,370.56c0-4.13-3.34-7.47-7.47-7.47s-7.47,3.34-7.47,7.47"/>
		<path class="st3" d="M218.32,402.12c-5.51,0-9.97-4.46-9.97-9.97c0-5.51,4.46-9.97,9.97-9.97"/>
		<path class="st3" d="M286.86,386.93c1.93-3.95,5.99-6.68,10.69-6.68c6.57,0,11.89,5.33,11.89,11.89"/>
		<path class="st4" d="M242.58,427.53c-7.27,0-13.16-5.89-13.16-13.16c0-7.27,5.89-13.16,13.16-13.16c2.21,0,6.12,1.51,6.12,1.51
			s-1.54-5.06-1.54-7.83c0-11.4,9.24-20.65,20.64-20.65s20.65,9.25,20.65,20.65"/>
		<path class="st3" d="M266,423.98c0,8.02,6.5,14.52,14.52,14.52c7.6,0,13.84-5.84,14.47-13.29"/>
		<path class="st3" d="M312.42,413.28c0,7.07-5.73,12.8-12.8,12.8c-4.34,0-8.17-2.16-10.49-5.46"/>
		<line class="st4" x1="343.04" y1="372" x2="343.04" y2="289.73"/>
		<line class="st4" x1="362.33" y1="382.73" x2="362.33" y2="289.73"/>
		<line class="st3" x1="524.9" y1="433.4" x2="524.9" y2="447.09"/>
	</g>
	<g>
		<line class="st3" x1="53.5" y1="447.09" x2="53.5" y2="415.27"/>
		<circle class="st5" cx="53.03" cy="404.82" r="16.13"/>
	</g>
	<g>
		<line class="st3" x1="101.42" y1="447.09" x2="101.42" y2="415.27"/>
		<circle class="st5" cx="100.95" cy="404.82" r="16.13"/>
	</g>
	<g>
		<line class="st5" x1="602.08" y1="447.28" x2="602.08" y2="395.31"/>
		<path class="st5" d="M602.77,400.01L602.77,400.01c-12.93,0-23.42-10.48-23.42-23.42v-32.18c0-12.93,10.48-23.42,23.42-23.42l0,0
			c12.93,0,23.42,10.48,23.42,23.42v32.18C626.19,389.53,615.7,400.01,602.77,400.01z"/>
	</g>
	<g>
		<line class="st5" x1="665.64" y1="447.28" x2="665.64" y2="395.31"/>
		<path class="st5" d="M666.33,400.01L666.33,400.01c-12.93,0-23.42-10.48-23.42-23.42v-32.18c0-12.93,10.48-23.42,23.42-23.42h0
			c12.93,0,23.42,10.48,23.42,23.42v32.18C689.74,389.53,679.26,400.01,666.33,400.01z"/>
	</g>
	<g>
		<polyline class="st3" points="507.36,302.57 507.36,90.7 518.55,90.7 481.82,53.06 445.09,90.7 456.28,90.7 456.28,185.78 		"/>
	</g>
	<g>
		<polyline class="st3" points="252.18,201.6 252.18,147.9 264.57,147.9 223.91,106.24 183.25,147.9 195.64,147.9 195.64,281.6 		
			"/>
	</g>
	<g>
		<polyline class="st3" points="142.46,315.98 142.46,249.34 154.85,249.34 114.19,207.67 73.53,249.34 85.91,249.34 85.91,355.53 
					"/>
	</g>
	<circle class="st6" cx="317.78" cy="311.8" r="8.26"/>
	<circle class="st6" cx="390.9" cy="331.2" r="10.77"/>
	<polyline class="st3" points="701.03,447.09 541.94,447.09 524.9,447.09 494.76,447.09 207.49,447.09 168.78,447.09 29.81,447.09 	
		"/>
	<g>
		<path class="st7" d="M302.89,182.08c0,0-69.42-1.79-30.66,134.79c0.9,3.18,5.28,3.54,6.64,0.52c7.26-16.01,25.57-45.95,56.91-41.2
			c-0.47-1.07-10.91-90.71-10.91-90.71L302.89,182.08z"/>
		<path class="st7" d="M401.08,182.08c0,0,69.42-1.79,30.66,134.79c-0.9,3.18-5.28,3.54-6.64,0.52
			c-7.26-16.01-25.57-45.95-56.91-41.2c0.47-1.07,10.91-90.71,10.91-90.71L401.08,182.08z"/>
		<path class="st5" d="M376.01,278.88c16.63-23.71,35.77-59.78,35.77-100.2c0-36.85-15.93-70.1-31.35-93.66
			c-14.44-22.08-28.45-35.64-28.45-35.64s-14,13.56-28.45,35.64c-15.43,23.56-31.35,56.81-31.35,93.66
			c0,40.41,19.15,76.49,35.77,100.2H376.01z"/>
		<circle class="st8" cx="351.99" cy="132.14" r="19.73"/>
		<circle class="st9" cx="351.99" cy="132.14" r="15.24"/>
		<path class="st7" d="M380.43,85.02h-56.89c14.44-22.08,28.45-35.64,28.45-35.64S365.99,62.94,380.43,85.02z"/>
		<path class="st7" d="M351.99,326.98L351.99,326.98c-1.34,0-2.45-1.05-2.52-2.39l-4.65-89.54c-0.21-4.11,3.06-7.55,7.17-7.55l0,0
			c4.11,0,7.38,3.45,7.17,7.55l-4.65,89.54C354.43,325.93,353.33,326.98,351.99,326.98z"/>
	</g>
	<g>
		<polyline class="st3" points="685.94,284.76 685.94,218.12 698.32,218.12 657.66,176.45 617,218.12 629.39,218.12 629.39,272.32 
					"/>
	</g>
	<polygon class="st0" points="663.78,250.81 651.66,250.81 651.6,221.56 639.53,221.57 657.62,200.91 675.79,221.54 663.72,221.55 	
		"/>
	<g>
		<g>
			<line class="st3" x1="675.79" y1="98.19" x2="675.79" y2="65.27"/>
			<g>
				<polygon class="st10" points="683.97,71.9 682.51,73.26 675.79,66.04 669.08,73.26 667.61,71.9 675.79,63.1 				"/>
			</g>
		</g>
	</g>
	<g>
		<g>
			<line class="st3" x1="48" y1="121.82" x2="48" y2="93.3"/>
			<g>
				<polygon class="st10" points="56.18,99.93 54.71,101.29 48,94.07 41.29,101.29 39.82,99.93 48,91.13 				"/>
			</g>
		</g>
	</g>
	<g>
		<g>
			<line class="st3" x1="274.3" y1="67.2" x2="274.3" y2="38.07"/>
			<g>
				<polygon class="st10" points="282.48,44.7 281.01,46.06 274.3,38.84 267.59,46.06 266.12,44.7 274.3,35.9 				"/>
			</g>
		</g>
	</g>
</g>
<g id="Layer_5" class="st11">
	<g class="st12">
		<path class="st3" d="M503.67,368.01c8.38,1.91,15.76,6.44,21.23,12.69c2.26,2.58,4.19,5.46,5.73,8.56
			c2.67,5.36,4.17,11.4,4.17,17.79c0,10.09-3.73,19.31-9.9,26.35c-5.19,5.93-12.1,10.31-19.95,12.37c-0.35,0.1-0.71,0.19-1.07,0.27
			c-2.93,0.69-5.98,1.05-9.12,1.05"/>
		<path class="st3" d="M418.46,358.69c0-1.8,0.24-3.54,0.7-5.19c2.27-8.32,9.88-14.43,18.91-14.43c5.51,0,10.49,2.27,14.06,5.93
			c5.34-3.74,11.85-5.93,18.86-5.93c10.2,0,19.32,4.64,25.36,11.93c3.92,4.74,6.55,10.59,7.32,17.01c0.16,1.3,0.24,2.63,0.24,3.98"
			/>
		<path class="st3" d="M397.74,366.23c-1.45-0.33-2.95-0.5-4.5-0.5c-6.61,0-12.5,3.11-16.27,7.94c-2.76,3.51-4.39,7.93-4.39,12.72"
			/>
		<path class="st3" d="M419.16,353.5c-2.32-2.72-5.76-4.44-9.61-4.44c-6.99,0-12.65,5.67-12.65,12.65c0,1.6,0.29,3.12,0.84,4.52
			c0.61,1.63,1.55,3.09,2.74,4.3"/>
		<path class="st3" d="M362.33,377.05c0-0.43,0.04-0.85,0.11-1.26c0.46-2.82,2.46-5.13,5.11-6.03c0.78-0.27,1.62-0.42,2.49-0.42
			c3.05,0,5.68,1.76,6.93,4.33"/>
		<path class="st3" d="M207.49,406.97c-3.18,0-6.19,0.74-8.87,2.07c-6.63,3.27-11.19,10.09-11.19,17.99
			c0,11.08,8.98,20.06,20.06,20.06"/>
		<path class="st3" d="M306.7,364.06c0-2.21-0.33-4.33-0.96-6.33c-2.69-8.67-10.78-14.96-20.33-14.96
			c-10.88,0-19.85,8.17-21.12,18.71"/>
		<path class="st3" d="M232.21,390.69c0-10.68-7.68-19.58-17.83-21.44c-1.29-0.25-2.62-0.37-3.98-0.37
			c-12.04,0-21.81,9.77-21.81,21.81c0,7.71,4,14.48,10.03,18.35"/>
		<path class="st3" d="M265.19,368.18c0-2.32-0.31-4.57-0.9-6.7c-2.94-10.78-12.8-18.71-24.51-18.71
			c-14.04,0-25.42,11.38-25.42,25.41c0,0.36,0.01,0.71,0.02,1.07"/>
		<path class="st3" d="M305.74,357.73c2.53-2.87,6.22-4.68,10.34-4.68c7.26,0,13.22,5.62,13.74,12.74"/>
		<path class="st3" d="M328.1,370.55c0-1.81,0.65-3.46,1.72-4.76c1.37-1.65,3.44-2.7,5.75-2.7c4.13,0,7.47,3.34,7.47,7.46"/>
		<polyline class="st4" points="343.04,289.73 343.04,292.82 343.04,370.55 343.04,371.99 		"/>
		<polyline class="st4" points="362.33,289.73 362.33,292.82 362.33,377.05 362.33,382.73 		"/>
	</g>
</g>
</svg>
