<?xml version="1.0" encoding="utf-8"?>
<!-- Generator: Adobe Illustrator 24.1.3, SVG Export Plug-In . SVG Version: 6.00 Build 0)  -->
<svg version="1.1" id="Layer_1" xmlns="http://www.w3.org/2000/svg" xmlns:xlink="http://www.w3.org/1999/xlink" x="0px" y="0px"
	 viewBox="0 0 90 90" style="enable-background:new 0 0 90 90;" xml:space="preserve">
<style type="text/css">
	.st0{fill:#404041;}
	.st1{fill:#326CE5;}
</style>
<g>
	<g>
		<path class="st0" d="M80.24,16.15c-4.14-4.17-9.65-6.46-15.52-6.46c-5.86,0-11.37,2.3-15.52,6.46l-2.11,2.12l-2.11-2.12
			c-2.07-2.08-4.49-3.7-7.11-4.79c-2.64-1.09-5.48-1.67-8.41-1.67c-5.86,0-11.38,2.3-15.52,6.46C6.7,23.4,5.89,31.79,11.49,42.98
			c1.17-0.63,2.39-1.16,3.67-1.57c-4.95-9.73-4.4-16.39,1.61-22.44c3.39-3.4,7.9-5.28,12.69-5.28c4.79,0,9.3,1.88,12.69,5.28
			l4.94,4.97l4.94-4.97c3.39-3.4,7.9-5.28,12.69-5.28c4.79,0,9.3,1.88,12.69,5.28c7.06,7.1,5.25,18.32-0.2,25.75
			c-6.74,9.19-26.53,29.04-30.11,29.6c-0.86-0.05-2.74-1.17-5.19-3.04c-0.55,1.23-1.21,2.4-1.97,3.5c3.03,2.19,5.57,3.54,7.15,3.54
			c6,0,28.56-24.71,33.35-31.24c3.41-4.65,5.58-10.61,5.58-16.48C86.01,25.38,84.31,20.24,80.24,16.15z"/>
	</g>
	<g>
		<path class="st1" d="M21.89,44.34c-1.65,0-3.24,0.22-4.75,0.65c-1.32,0.36-2.58,0.87-3.75,1.51c-5.6,3.04-9.41,9-9.41,15.83
			c0,9.92,8.03,17.99,17.91,17.99c6.19,0,11.66-3.18,14.88-7.99c0.76-1.14,1.39-2.36,1.88-3.66c0.74-1.97,1.15-4.11,1.15-6.34
			C39.81,52.41,31.76,44.34,21.89,44.34z M35.37,65.8c-0.35,1.4-0.91,2.71-1.66,3.9c-2.45,3.97-6.83,6.62-11.81,6.62
			c-7.67,0-13.91-6.28-13.91-13.99c0-5.42,3.08-10.13,7.58-12.45c1.21-0.63,2.54-1.09,3.93-1.33c0.78-0.14,1.58-0.21,2.4-0.21
			c7.67,0,13.91,6.28,13.91,13.99C35.81,63.53,35.65,64.68,35.37,65.8z"/>
		<path class="st1" d="M24.63,64.22c0.4-0.1,0.77-0.26,1.11-0.46c0.36-0.21,0.69-0.47,0.97-0.78c0.27-0.29,0.5-0.62,0.69-1
			c0.38-0.77,0.58-1.66,0.58-2.67c0-0.27-0.01-0.53-0.05-0.79c-0.07-0.69-0.25-1.32-0.53-1.88c-0.39-0.77-0.94-1.36-1.65-1.78
			c-0.5-0.29-1.05-0.49-1.66-0.57c-0.26-0.04-0.53-0.06-0.81-0.06h-4.24h-1.93h-1.27v17h3.2v-6.84h1.94l3.83,6.84h3.88l-0.63-1.08
			L24.63,64.22z M19.04,57.31h3.98c0.34,0,0.63,0.08,0.88,0.25c0.25,0.16,0.44,0.39,0.58,0.7c0.13,0.3,0.2,0.65,0.2,1.05
			c0,0.4-0.08,0.75-0.21,1.05c-0.03,0.06-0.06,0.12-0.09,0.17c-0.13,0.22-0.29,0.4-0.49,0.53c-0.25,0.17-0.54,0.25-0.87,0.25h-3.98
			V57.31z"/>
	</g>
</g>
</svg>
