<?xml version="1.0" encoding="utf-8"?>
<!-- Generator: Adobe Illustrator 24.0.0, SVG Export Plug-In . SVG Version: 6.00 Build 0)  -->
<svg version="1.1" xmlns="http://www.w3.org/2000/svg" xmlns:xlink="http://www.w3.org/1999/xlink" x="0px" y="0px"
	 viewBox="0 0 730.84 461.22" style="enable-background:new 0 0 730.84 461.22;" xml:space="preserve">
<style type="text/css">
	.st0{fill:#FAFBFB;}
	.st1{fill:#E5E9F7;}
	.st2{fill:#EFF1F7;}
	.st3{fill:#8ED1D8;}
	.st4{fill:#76B5ED;}
	.st5{fill:#A6E0F4;}
	.st6{fill:none;stroke:#76B5ED;stroke-width:5;stroke-linecap:round;stroke-miterlimit:10;stroke-dasharray:0,8;}
	.st7{fill:#DCDDE3;}
	.st8{fill:#659BCC;}
	.st9{fill:#BBD9F9;}
	.st10{fill:none;stroke:#76B5ED;stroke-miterlimit:10;}
	.st11{fill:#FFFFFF;}
	.st12{fill:none;stroke:#FFFFFF;stroke-width:4.9636;stroke-miterlimit:10;}
	.st13{fill:none;stroke:#76B5ED;stroke-width:5;stroke-miterlimit:10;}
	.st14{fill:#326CE5;}
	.st15{fill:none;stroke:#717888;stroke-width:2;stroke-miterlimit:10;}
	.st16{fill:#717888;}
	.st17{opacity:0.5;}
	.st18{fill:#E1E4F9;}
	.st19{fill:#CDDEFF;}
	.st20{fill:#FBD2D3;}
	.st21{fill:#D6F8ED;}
	.st22{fill:#FFFFFF;stroke:#717888;stroke-width:2;stroke-miterlimit:10;}
	.st23{fill:#FFE1B3;}
	.st24{fill:#BBBDBF;}
	.st25{fill:#E6E7E8;}
	.st26{fill:#C8B9DC;}
	.st27{fill:#FFE1B3;stroke:#717888;stroke-width:2;stroke-miterlimit:10;}
	.st28{fill:#FBD2D3;stroke:#717888;stroke-width:2;stroke-miterlimit:10;}
	.st29{fill:#EDC6C7;}
	.st30{fill:none;stroke:#717888;stroke-width:4;stroke-linecap:round;stroke-miterlimit:10;}
	.st31{fill:#CDDEFF;stroke:#717888;stroke-width:2;stroke-miterlimit:10;}
	.st32{fill:none;stroke:#717888;stroke-width:2;stroke-linejoin:round;stroke-miterlimit:10;}
	.st33{fill:#D6F8ED;stroke:#717888;stroke-width:2;stroke-miterlimit:10;}
	.st34{fill:#E6E7E8;stroke:#717888;stroke-width:2;stroke-miterlimit:10;}
	.st35{fill:none;stroke:#404041;stroke-width:2;stroke-miterlimit:10;}
	.st36{fill:#404041;}
	.st37{fill:#8EC2EA;}
	.st38{fill:#1E86D5;}
	.st39{fill:#FFE1B3;stroke:#404041;stroke-width:2;stroke-miterlimit:10;}
	.st40{fill:#FFFFFF;stroke:#404041;stroke-width:2;stroke-miterlimit:10;}
	.st41{fill:none;stroke:#404041;stroke-width:4;stroke-linecap:round;stroke-miterlimit:10;}
	.st42{fill:none;stroke:#404041;stroke-width:2;stroke-linejoin:round;stroke-miterlimit:10;}
	.st43{fill:#8EC2EA;stroke:#404041;stroke-width:2;stroke-miterlimit:10;}
	.st44{fill:#E6E7E8;stroke:#404041;stroke-width:2;stroke-miterlimit:10;}
	.st45{fill-rule:evenodd;clip-rule:evenodd;fill:#FFFFFF;}
	.st46{fill:none;stroke:#404041;stroke-width:2;stroke-miterlimit:10;stroke-dasharray:1.9017,3.8035;}
	.st47{fill:none;stroke:#404041;stroke-width:2;stroke-miterlimit:10;stroke-dasharray:2.0745,4.1489;}
	.st48{fill:none;stroke:#404041;stroke-width:2;stroke-miterlimit:10;stroke-dasharray:2,4;}
	.st49{fill:none;stroke:#FFFFFF;stroke-width:2;stroke-miterlimit:10;}
	.st50{fill:none;stroke:#404041;stroke-width:2;stroke-linecap:round;stroke-miterlimit:10;}
	.st51{fill:none;stroke:#E6E7E8;stroke-width:5;stroke-miterlimit:10;}
	.st52{fill-rule:evenodd;clip-rule:evenodd;fill:#E6E7E8;stroke:#404041;stroke-width:2;stroke-miterlimit:10;}
	.st53{fill:none;stroke:#8EC2EA;stroke-width:4;stroke-miterlimit:10;}
	.st54{fill:none;stroke:#404041;stroke-width:4;stroke-miterlimit:10;}
	.st55{fill:none;stroke:#1E86D5;stroke-width:4;stroke-miterlimit:10;}
	.st56{fill:#FFFFFF;stroke:#1E86D5;stroke-width:4;stroke-miterlimit:10;}
	.st57{fill:#FFFFFF;stroke:#8EC2EA;stroke-width:4;stroke-miterlimit:10;}
	.st58{fill:#FFFFFF;stroke:#404041;stroke-width:4;stroke-miterlimit:10;}
	.st59{fill:#1E86D5;stroke:#404041;stroke-width:2;stroke-miterlimit:10;}
	.st60{fill:#8EC2EA;stroke:#404041;stroke-width:2;stroke-linejoin:round;stroke-miterlimit:10;}
	.st61{fill-rule:evenodd;clip-rule:evenodd;fill:#FFE1B3;stroke:#404041;stroke-width:2;stroke-miterlimit:10;}
	.st62{fill-rule:evenodd;clip-rule:evenodd;fill:none;stroke:#404041;stroke-width:2;stroke-miterlimit:10;}
	.st63{fill:#FFE1B3;stroke:#404041;stroke-width:2;stroke-miterlimit:9.9999;}
	.st64{fill:#1E86D5;stroke:#404041;stroke-width:2;stroke-linejoin:round;stroke-miterlimit:9.9999;}
	.st65{fill:#FFE1B3;stroke:#404041;stroke-width:1.9999;stroke-miterlimit:9.9997;}
	.st66{fill:#1E86D5;stroke:#404041;stroke-width:1.9999;stroke-linejoin:round;stroke-miterlimit:9.9997;}
	.st67{fill:#1E86D5;stroke:#404041;stroke-width:2;stroke-linejoin:round;stroke-miterlimit:10;}
	.st68{fill:#C1D2F7;}
	.st69{fill:none;}
	.st70{fill:url(#SVGID_1_);}
	.st71{fill:#696566;}
	.st72{clip-path:url(#SVGID_3_);}
	.st73{fill:url(#path46_2_);}
	.st74{clip-path:url(#SVGID_5_);}
	.st75{fill:url(#path64_2_);}
	.st76{clip-path:url(#SVGID_7_);}
	.st77{fill:url(#path82_2_);}
	.st78{clip-path:url(#SVGID_9_);}
	.st79{fill:url(#path100_2_);}
	.st80{clip-path:url(#SVGID_11_);}
	.st81{fill:url(#path118_2_);}
	.st82{clip-path:url(#SVGID_13_);}
	.st83{fill:url(#path142_2_);}
	.st84{clip-path:url(#SVGID_15_);}
	.st85{fill:url(#path160_2_);}
	.st86{clip-path:url(#SVGID_17_);}
	.st87{fill:url(#path178_2_);}
	.st88{fill:#466BB0;}
	.st89{fill-rule:evenodd;clip-rule:evenodd;fill:#343741;}
	.st90{fill-rule:evenodd;clip-rule:evenodd;fill:#FEC514;}
	.st91{fill-rule:evenodd;clip-rule:evenodd;fill:#00BFB3;}
	.st92{fill:#BFBFBF;}
	.st93{fill:#566366;}
	.st94{fill:#7D9199;}
	.st95{stroke:#000000;stroke-width:9.9791;}
	.st96{fill:#336791;}
	.st97{fill:none;stroke:#FFFFFF;stroke-width:3.3264;stroke-linecap:round;stroke-linejoin:round;}
	.st98{fill:none;stroke:#FFFFFF;stroke-width:3.3264;stroke-linecap:round;stroke-linejoin:bevel;}
	.st99{fill:#FFFFFF;stroke:#FFFFFF;stroke-width:1.1088;}
	.st100{fill:#FFFFFF;stroke:#FFFFFF;stroke-width:0.5544;}
	.st101{fill:none;stroke:#FFFFFF;stroke-width:0.8006;stroke-linecap:round;stroke-linejoin:round;}
	.st102{fill:#E65123;}
	.st103{fill:#FDFDFD;}
	.st104{fill:#FEFEFE;}
	.st105{fill:#6D41FF;}
	.st106{fill-rule:evenodd;clip-rule:evenodd;fill:#E6E7E8;}
	.st107{fill-rule:evenodd;clip-rule:evenodd;fill:#E6E7E8;stroke:#FAFBFB;stroke-width:2;stroke-miterlimit:10;}
	.st108{fill:#BBBDBF;stroke:#FAFBFB;stroke-width:2;stroke-miterlimit:10;}
	.st109{fill-rule:evenodd;clip-rule:evenodd;fill:#8EC2EA;stroke:#404041;stroke-width:2;stroke-miterlimit:10;}
	.st110{fill-rule:evenodd;clip-rule:evenodd;fill:#1E86D5;stroke:#404041;stroke-width:2;stroke-miterlimit:10;}
	.st111{fill:none;stroke:#404041;stroke-width:2;stroke-linecap:round;stroke-miterlimit:10;stroke-dasharray:0,11.9092;}
	
		.st112{fill-rule:evenodd;clip-rule:evenodd;fill:#8EC2EA;stroke:#404041;stroke-width:2;stroke-linecap:round;stroke-miterlimit:10;}
	.st113{fill:none;stroke:#404041;stroke-width:2;stroke-miterlimit:10;stroke-dasharray:7.8998,2.8727;}
	.st114{fill-rule:evenodd;clip-rule:evenodd;fill:none;stroke:#404041;stroke-width:2;stroke-linecap:round;stroke-miterlimit:10;}
	.st115{fill:none;stroke:#404041;stroke-width:2;stroke-linecap:round;stroke-miterlimit:10;stroke-dasharray:0,11.9271;}
	.st116{fill-rule:evenodd;clip-rule:evenodd;fill:#FFFFFF;stroke:#404041;stroke-width:2;stroke-miterlimit:10;}
	.st117{fill-rule:evenodd;clip-rule:evenodd;fill:#1E86D5;}
	.st118{fill:none;stroke:#404041;stroke-width:2;stroke-miterlimit:10;stroke-dasharray:7,5;}
	.st119{fill-rule:evenodd;clip-rule:evenodd;fill:#404041;}
	.st120{fill:none;stroke:#FAFBFB;stroke-width:0.8621;stroke-linecap:round;stroke-linejoin:round;}
	.st121{fill:none;stroke:#FAFBFB;stroke-width:0.8621;stroke-linecap:round;stroke-linejoin:bevel;}
	.st122{fill:#FFFFFF;stroke:#FAFBFB;stroke-width:0.2874;}
	.st123{fill:#FFFFFF;stroke:#FAFBFB;stroke-width:0.1437;}
	.st124{fill-rule:evenodd;clip-rule:evenodd;fill:#FAFBFB;}
	.st125{fill:#F2F3F3;}
	.st126{fill:#FFE1B3;stroke:#404041;stroke-width:1.8693;stroke-miterlimit:10;}
	
		.st127{fill-rule:evenodd;clip-rule:evenodd;fill:#FFE1B3;stroke:#404041;stroke-width:2;stroke-linejoin:round;stroke-miterlimit:10;}
	
		.st128{fill-rule:evenodd;clip-rule:evenodd;fill:#E6E7E8;stroke:#404041;stroke-width:2;stroke-linejoin:round;stroke-miterlimit:10;}
	
		.st129{fill-rule:evenodd;clip-rule:evenodd;fill:#1E86D5;stroke:#404041;stroke-width:2;stroke-linejoin:round;stroke-miterlimit:10;}
	.st130{fill-rule:evenodd;clip-rule:evenodd;fill:#BBBDBF;}
	.st131{fill:none;stroke:#F2F3F3;stroke-width:2;stroke-miterlimit:10;}
</style>
<g id="Layer_2">
</g>
<g id="Layer_1">
</g>
<g id="Layer_4">
</g>
<g id="Layer_3">
	<g>
		<polygon class="st52" points="209.02,446.05 230.95,337.14 218.57,334.83 203.93,446.05 		"/>
		<g>
			<path class="st125" d="M501.38,446.03c6.65-12.02,10.44-25.85,10.44-40.56c0-46.36-37.59-83.95-83.95-83.95
				c-46.36,0-83.95,37.59-83.95,83.95c0,14.71,3.79,28.54,10.44,40.56H501.38z"/>
			<circle class="st125" cx="288.26" cy="275.05" r="62.38"/>
			<circle class="st125" cx="395.59" cy="220.62" r="28.81"/>
			<circle class="st125" cx="99.09" cy="198.86" r="28.81"/>
			<circle class="st125" cx="536.38" cy="364" r="53.44"/>
			<circle class="st125" cx="531.82" cy="347.01" r="13.18"/>
		</g>
		<g>
			<rect x="111.71" y="125.22" class="st44" width="198.01" height="135.29"/>
			<rect x="111.71" y="125.22" class="st40" width="198.01" height="127.43"/>
			<rect x="125.17" y="138.05" class="st25" width="20.85" height="20.85"/>
			
				<rect x="169.73" y="138.63" transform="matrix(0.9985 0.0549 -0.0549 0.9985 8.4394 -9.6507)" class="st23" width="20.29" height="20.29"/>
			<rect x="142.9" y="156.06" class="st25" width="21.52" height="21.52"/>
			<rect x="248.9" y="136.46" class="st25" width="47.91" height="64.52"/>
			<rect x="203.1" y="210.45" class="st37" width="20.33" height="20.33"/>
			<rect x="260.86" y="210.45" class="st37" width="20.33" height="20.33"/>
			
				<rect x="230.95" y="221.14" transform="matrix(0.9858 0.1679 -0.1679 0.9858 42.2584 -37.1996)" class="st37" width="20.33" height="20.33"/>
			
				<rect x="125.17" y="189.9" transform="matrix(0.9969 -0.0792 0.0792 0.9969 -15.4937 11.4254)" class="st23" width="22.15" height="22.15"/>
			<rect x="169.71" y="210.45" class="st23" width="20.33" height="20.33"/>
			<rect x="222.77" y="136.46" class="st23" width="20.54" height="20.54"/>
			
				<rect x="197.45" y="158.45" transform="matrix(0.9832 -0.1827 0.1827 0.9832 -27.332 40.7957)" class="st23" width="20.54" height="20.54"/>
		</g>
		<g>
			<path class="st126" d="M438.26,274.97c-0.68-0.72-1.67-1.02-2.58-1.38c-0.56-0.22-1.26-0.42-1.59-0.95
				c-0.42-0.68,0.1-1.37,0.53-1.9c0.2-0.25,0.39-0.5,0.49-0.8c0.19-0.6-0.12-1.05-0.78-0.99c-1.87,0.16-3.24,1.48-4.82,2.28
				c-0.96,0.48-1.84,0.62-2.92,0.58c-1.23-0.05-2.44-0.29-3.63-0.61c-1.41-0.38-2.81-0.83-4.16-1.4c-0.23,0.68-0.49,1.48-0.9,2.08
				c-0.17,0.25-1.08,0.78-0.76,1.17c0.09,0.1,0.23,0.14,0.36,0.18c1.16,0.33,2.32,0.7,3.51,0.92c1.85,0.34,3.71,0.53,5.55,0.94
				c1.87,0.42,3.71,0.96,5.5,1.62c0.53,0.19,1.07,0.35,1.6,0.53c0.87,0.28,1.78,0.5,2.7,0.53c0.78,0.03,1.67-0.03,2.14-0.75
				C438.91,276.38,438.77,275.51,438.26,274.97z"/>
			<path class="st39" d="M392.79,409.26l13.16,25.94c0,0,3.61-1.81,3.74-2.19c0.13-0.39-10.06-27.87-10.06-27.87L392.79,409.26z"/>
			<polygon class="st43" points="405.77,434.45 408.21,444.48 422.99,444.48 413.12,437.77 409.51,432.31 			"/>
			<path class="st39" d="M345.29,411.23l5.34,25.86c0,0,3.68,0.29,3.58,0c-0.1-0.29-1.28-26.49-1.28-26.49L345.29,411.23z"/>
			<polygon class="st43" points="356.15,446.03 333.31,446.03 348.66,440.48 350.39,435.84 354.21,435.84 			"/>
			<path class="st59" d="M369.7,281.77l5.72,15.4c6.31,17,10.13,34.82,11.35,52.91v0c1.01,14.93,4.31,29.62,9.79,43.54l5.14,13.05
				l-9.29,4.9l-17.29-39.48l-18.29-40.37c-0.46-1.02-1.98-0.81-2.14,0.3l-3.87,26.6c-1.17,8.02-0.61,16.21,1.63,24l0.23,0.81
				c1.18,4.12,1.76,8.38,1.72,12.67l-0.15,18.18l-9.96-0.26l-13.32-70.92c-1.96-9.68-2.39-19.6-1.27-29.41l3.35-29.58L369.7,281.77z
				"/>
			<path class="st39" d="M341.35,211.56c-0.97,0.44-2.05,0.77-2.72,1.6c-0.84,1.04-0.76,2.53-0.63,3.87
				c0.21,2.09,0.49,4.29,1.73,5.99c0.99,1.36,2.52,2.27,4.14,2.76c1.61,0.49,3.32,0.59,5.01,0.58c4.09-0.01,8.25-0.64,11.9-2.48
				c3.65-1.84,6.76-4.98,7.96-8.89c0.42-1.38,0.57-2.98-0.26-4.16c-0.73-1.04-2.03-1.47-3.21-1.93c-1.85-0.72-3.66-1.69-5.01-3.15
				c-1.35-1.46-2.19-3.5-1.86-5.46c-0.12,0.71-4.41,1.02-5.02,1.04c-0.89,0.03-1.79-0.02-2.68-0.15c-0.56-0.08-1.56-0.51-2.11-0.23
				c-0.95,0.48-0.84,2.69-1.13,3.61c-0.45,1.42-1.17,2.75-2.11,3.91C344.26,209.77,342.9,210.86,341.35,211.56z"/>
			<path class="st60" d="M368.15,209.9c0,0-13.55,21.87-29.23,2.71c-0.14,0.28-17.46,7.53-27.06,11.53
				c-3.64,1.52-7.85,0.31-10.13-2.92l-21.27-30.1l-4.06,3.1l19.38,36.54c1.52,2.86,4.55,4.6,7.79,4.47l23.15-0.94l5.04,18.63
				c0.89,3.3,1.2,6.73,0.91,10.13l-2.07,24.08l42.39-3.87l-5.71-12.93c-3.38-7.65-3.32-16.39,0.18-23.99l4.38-9.53l9.19,20.55
				c0.94,2.1,2.59,3.8,4.66,4.8l33.34,12.31l1.97-4.57l-27.67-15.01c-2.63-1.36-4.5-3.84-5.08-6.75
				C386.24,238.02,380.29,214.15,368.15,209.9z"/>
			<path class="st67" d="M339.25,176.3c-2.43,2.21-2.95,6.47-3.08,9.53c-0.16,3.87,0.56,7.78,2.16,11.3
				c0.58,1.27,1.32,2.55,2.53,3.25c0.98,0.56,2.17,0.68,3.3,0.55c2.93-0.32,5.57-2.17,7.23-4.61s2.39-5.42,2.49-8.37
				c0.09-2.74-0.36-5.56-1.81-7.89c-2.27-3.65-8.63-7.08-12.51-4.03C339.45,176.12,339.35,176.21,339.25,176.3z"/>
			<ellipse class="st39" cx="352.79" cy="189.9" rx="12.52" ry="17.55"/>
			<path class="st67" d="M371.14,179.43c-1.2-3.41-3.26-6.45-6.01-8.81c-2.9-2.49-6.48-3.21-10.2-3.51
				c-3.17-0.26-6.35-0.31-9.53-0.26c-2.69,0.04-6.03-0.33-8.52,0.81c-2.08,0.95-3.97,2.92-3.83,5.35c0.11,1.78,1.25,3.32,2.46,4.63
				c7.51,8.15,19.53,11.86,30.33,9.37c1.34,2.01,0.36,4.74-0.92,6.78s-2.93,4.12-2.86,6.53c0.06,2.43,1.91,4.51,4.04,5.69
				c2.13,1.18,4.73,1.79,6.16,3.76c1.07,1.48,1.23,3.42,1.25,5.25c0.06,5.52-0.78,11.04-2.48,16.3c3.22-6.36,9.39-11.5,10.16-18.59
				c0.37-3.42-0.61-6.84-1.95-10.01s-3.04-6.17-4.22-9.4C373.35,188.8,372.73,183.96,371.14,179.43z"/>
			<path class="st39" d="M281.03,183.12c0.02-0.46,0-0.99-0.36-1.26c-0.61-0.45-1.42,0.29-1.69,1.01c-0.27,0.72-0.5,1.62-1.24,1.81
				c-0.7-0.81-1.06-1.86-1.4-2.87c-0.35-1.02-0.72-2.06-1.45-2.84c-0.96-1.03-2.46-1.13-2.96,0.41c-0.18,0.55-0.16,1.14-0.12,1.71
				c0.12,2.09,0.39,4.17,0.8,6.23c0.39,1.97,0.61,3.6,2.14,5.04c0.84,0.78,1.78,1.48,2.4,2.44c0.04,0.06,3.18-3.5,3.36-4.02
				C281.3,188.49,280.93,185.51,281.03,183.12z"/>
		</g>
		<g>
			<g>
				<rect x="388.15" y="306.78" class="st37" width="15.23" height="22.64"/>
				<polygon class="st23" points="401.96,303.29 389.56,303.29 388.15,306.78 403.38,306.78 				"/>
				<polygon class="st23" points="401.96,332.89 389.56,332.89 388.15,329.41 403.38,329.41 				"/>
				<polygon class="st11" points="398.05,311.91 391.7,319.3 395.42,319.3 393.9,324.27 399.82,316.93 396.15,316.93 				"/>
			</g>
			<polygon class="st35" points="401.96,303.29 389.56,303.29 388.15,306.78 388.15,329.41 389.56,332.89 401.96,332.89 
				403.38,329.41 403.38,306.78 			"/>
		</g>
		<g>
			<path class="st106" d="M543.87,309.82c1.97-0.31,3.94-0.62,5.92-0.94c3.38,21.35,3.38,43.09,0,64.44
				c-1.97-0.31-3.94-0.62-5.92-0.94C547.15,351.65,547.15,330.54,543.87,309.82z"/>
			<path class="st35" d="M543.87,309.82c1.97-0.31,3.94-0.62,5.92-0.94c3.38,21.35,3.38,43.09,0,64.44
				c-1.97-0.31-3.94-0.62-5.92-0.94C547.15,351.65,547.15,330.54,543.87,309.82z"/>
		</g>
		<g>
			<path class="st39" d="M116.05,322.03l2.7,2.51c2.83,2.63,7.33,2.14,9.53-1.06c3.13-4.54,6.36-9.2,9.52-13.79
				c3.14-4.56,6.02-9.48,9.7-13.63c1.42-1.59,2.85-3.18,4.29-4.75c1.03-1.11,2.16-2.14,3.03-3.39c0.72-1.03,1.86-3.14,0.88-4.34
				c-0.37-0.45-1.04-0.59-1.61-0.48c-0.58,0.11-1.09,0.43-1.59,0.75c-1.01,0.66-1.99,1.36-2.94,2.1c-0.61,0.48-1.53,1.34-2.27,0.48
				c-0.33-0.38-0.24-0.95-0.22-1.45c0.03-0.5-0.12-1.13-0.61-1.25c-0.52-0.12-0.93,0.42-1.17,0.9c-0.79,1.65-1.26,3.45-1.37,5.28
				c-0.05,0.78,0.11,1.48-0.31,2.15c-0.47,0.77-1.11,1.4-1.68,2.09c-1.92,2.32-3.89,4.59-5.88,6.84c-3.99,4.5-8.08,8.92-12.04,13.44
				c-0.74,0.85-2.03,0.94-2.88,0.21c-0.99-0.85-2.52-0.57-3.14,0.58l-2.35,4.31C115.2,320.37,115.36,321.39,116.05,322.03z"/>
			<path class="st39" d="M180.84,438.27l-9.2-81.21l-47.49,18.98l29.84,3.78c3.9,0.49,7.11,3.32,8.09,7.12l13.29,51.32H180.84z"/>
			<path class="st39" d="M199.74,405.79l-6.3,4.77l-25.28-40.32c-2.55-4.07-7.84-5.46-12.06-3.15l-13.2,7.21l2.47-27.5l17.01-1.65
				c4.52-0.44,8.84,1.98,10.83,6.07L199.74,405.79z"/>
			<path class="st43" d="M194.82,446.05h-19.46v-7.78h11.78c4.24,0,7.67,3.44,7.67,7.67V446.05z"/>
			<path class="st43" d="M213.6,404.99l-15.69,11.84l-4.48-6.28l9.58-7.23C206.39,400.78,211.13,401.52,213.6,404.99L213.6,404.99z"
				/>
			<path class="st59" d="M87.21,363.7c3.22,5.47,8.36,9.77,14.28,12.04c5.49,2.11,12.61,2.21,18.46,2.44
				c8.44,0.34,16.91-0.12,25.31-0.99c0.02,0,3.7-32.68,3.32-32.65c-0.39,0.04-43.29,4.64-43.29,4.64"/>
			<path class="st60" d="M84.79,291.01c-4.93,1.56-9.46,4.68-11.95,9.2c-1.99,3.59-1.04,7.37-0.18,11.14
				c2.41,10.54,4.88,21.08,7.3,31.62c0.87,3.79,3.1,25.52,8.62,23.58c2.39-0.84,4.79-2.94,6.97-4.27
				c5.93-3.61,11.75-8.28,15.02-14.53c0.59,1.17-5.27-20.2,0-31.91c-0.29,0.59,3.22,7.32,3.22,7.32s6.73-9.36,6.73-9.37
				c0.35-0.48-3.69-5.6-4.02-6.05c-3.15-4.31-6.69-8.44-10.84-11.83c-3.99-3.26-8.91-6.18-14.24-6.03
				C89.22,289.94,86.96,290.32,84.79,291.01z"/>
			<path class="st35" d="M74.24,344.55h47.22c4.67,0,8.83,3.07,10.4,7.67l8.34,24.55"/>
			<path class="st39" d="M94.04,281.07c0.8-1.03,2.54-1.95,3.24-2.79c2.99-3.57,4.01-8.55,3.71-13.1
				c-0.57-8.79-6.04-15.6-12.21-15.19s-10.71,7.86-10.14,16.65c0.23,3.56,1.26,8.12,3.9,10.69c1.79,1.75,3.02,4.22,2.75,6.77
				c-0.26,2.5-2.52,4.32-2.52,6.88c0,2.99,3.11,4.71,5.54,5.66c2.78,1.09,6.47,1.1,8.46-1.47c1.61-2.07,1.23-4.74,0.23-6.98
				c-0.82-1.85-3.47-4.04-3.36-6.17C93.65,281.69,93.8,281.37,94.04,281.07z"/>
			<path class="st67" d="M64.61,245.4c-0.86,0.89-1.52,1.99-1.85,3.19c-1.33,4.86,2.48,9.32,7.51,8.41
				c-2.67,0.5,1.64,13.89,2.17,15.14c1.63,3.78,6.84,11.2,11.74,7.73c1.31-0.93,1.81-2.6,2.17-4.16c0.97-4.17,1.58-8.43,1.81-12.7
				c5.83,1.74,12.07,2.04,18.04,0.89c0.7-7.57-3.57-15.36-10.32-18.84c-3.6-1.86-7.56-2.24-11.52-1.57
				c-3.41,0.58-7.12,0.54-8.55,4.43c-0.28-1.62-1.31-3.09-2.72-3.92C70.4,242.39,66.7,243.24,64.61,245.4z"/>
			<path class="st39" d="M82.11,330.06c0.98,3.38,4.17,6.48,7.75,6.91c2.78,0.34,5.65,0.23,8.46,0.31
				c7.29,0.21,14.6,0.34,21.85,1.18c2.96,0.34,6,0.78,8.6,2.25c0.72,0.41,1.43,0.92,1.85,1.64c0.49,0.83,0.73,1.92,0.08,2.7
				c-0.6,0.71-1.56,1.1-2.48,1.14c-2.27,0.11-4.34-1.17-6.53-1.53c-3.16-0.51-6.32-0.21-9.5-0.04c-9.31,0.51-18.64,0.7-27.96,0.86
				c-1.86,0.03-3.8-0.15-5.48-0.99c-1.66-0.83-2.54-2.8-3.3-4.41c-0.88-1.84-1.75-3.68-2.63-5.52"/>
			<path class="st60" d="M74.56,297.66c-3.55,4.29-4.57,9.8-4.87,15.21c-0.39,6.93-0.42,13.89,1.11,20.69
				c0.69,3.06,2.87,3.14,5.42,2c2.97-1.32,8.39-3.22,7.33-7.43c-0.24-0.97-0.72-1.85-1.12-2.77c-1.68-3.92-1.25-8.32,0.64-12.09"/>
		</g>
		<g>
			<path class="st35" d="M149.04,446.05c-10.94-12.05-26.74-19.62-44.3-19.62c-17.56,0-33.35,7.57-44.3,19.62"/>
			<line class="st35" x1="104.74" y1="445.14" x2="104.74" y2="383.66"/>
			<ellipse class="st36" cx="104.74" cy="384.46" rx="16.66" ry="5.61"/>
			<g>
				<path class="st44" d="M146.34,392.12c-0.87,0-1.75-0.18-2.59-0.57c-21.95-10.08-48.26-10.32-70.4-0.66
					c-2.28,1-4.94,0.53-6.75-1.18c-1.81-1.71-2.42-4.34-1.55-6.68c4.98-13.34-0.52-29.16-6.55-42.89l-1.29-2.92
					c-6.33-14.32-13.51-30.55-11.21-47.52c0.46-3.4,3.58-5.78,6.99-5.32c3.4,0.46,5.78,3.59,5.32,6.99
					c-1.83,13.49,4.32,27.38,10.26,40.83l1.3,2.95c5.46,12.44,10.49,26.52,9.4,40.38c22.77-6.79,48.06-5.19,69.66,4.73
					c3.12,1.43,4.48,5.12,3.05,8.23C150.94,390.77,148.69,392.12,146.34,392.12z"/>
			</g>
		</g>
		<g>
			<path class="st35" d="M320.12,446.05c-8.81-9.71-21.53-15.8-35.68-15.8c-14.14,0-26.86,6.09-35.68,15.8"/>
			<line class="st35" x1="284.44" y1="445.32" x2="284.44" y2="395.8"/>
			<ellipse class="st36" cx="284.44" cy="396.44" rx="13.42" ry="4.52"/>
			<g>
				<path class="st44" d="M317.95,402.61c-0.7,0-1.41-0.15-2.08-0.46c-17.68-8.12-38.87-8.31-56.7-0.53
					c-1.84,0.8-3.98,0.43-5.44-0.95c-1.46-1.38-1.95-3.5-1.25-5.38c4.01-10.74-0.42-23.49-5.27-34.54l-1.04-2.35
					c-5.1-11.53-10.88-24.61-9.03-38.27c0.37-2.74,2.89-4.65,5.63-4.28c2.74,0.37,4.65,2.89,4.28,5.63
					c-1.47,10.86,3.48,22.06,8.26,32.88l1.05,2.37c4.4,10.02,8.45,21.36,7.57,32.53c18.34-5.46,38.71-4.18,56.1,3.81
					c2.51,1.15,3.61,4.12,2.46,6.63C321.65,401.53,319.84,402.61,317.95,402.61z"/>
			</g>
		</g>
		<polygon class="st52" points="179.37,446.05 201.3,337.14 188.92,334.83 174.28,446.05 		"/>
		<polygon class="st52" points="476.51,446.05 461.88,334.83 449.49,337.14 471.42,446.05 		"/>
		<line class="st40" x1="20.13" y1="446.05" x2="704.13" y2="446.05"/>
		<g>
			<g>
				<g>
					<line class="st35" x1="666.16" y1="85.32" x2="671.16" y2="85.32"/>
					<line class="st35" x1="674.59" y1="85.32" x2="679.59" y2="85.32"/>
				</g>
			</g>
			<g>
				<g>
					<line class="st35" x1="669.52" y1="91.13" x2="672.02" y2="86.8"/>
					<line class="st35" x1="673.73" y1="83.84" x2="676.23" y2="79.51"/>
				</g>
			</g>
			<g>
				<g>
					<line class="st35" x1="676.23" y1="91.13" x2="673.73" y2="86.8"/>
					<line class="st35" x1="672.02" y1="83.84" x2="669.52" y2="79.51"/>
				</g>
			</g>
		</g>
		<g>
			<g>
				<g>
					<line class="st35" x1="525.11" y1="231.29" x2="530.11" y2="231.29"/>
					<line class="st35" x1="533.53" y1="231.29" x2="538.53" y2="231.29"/>
				</g>
			</g>
			<g>
				<g>
					<line class="st35" x1="528.46" y1="237.1" x2="530.96" y2="232.77"/>
					<line class="st35" x1="532.68" y1="229.81" x2="535.18" y2="225.48"/>
				</g>
			</g>
			<g>
				<g>
					<line class="st35" x1="535.18" y1="237.1" x2="532.68" y2="232.77"/>
					<line class="st35" x1="530.96" y1="229.81" x2="528.46" y2="225.48"/>
				</g>
			</g>
		</g>
		<g>
			<circle class="st35" cx="715.57" cy="395.8" r="3.81"/>
		</g>
		<circle class="st125" cx="715.57" cy="349.32" r="3.67"/>
		<circle class="st125" cx="217.44" cy="63.81" r="3.67"/>
		<circle class="st25" cx="602.21" cy="54.97" r="3.67"/>
		<g>
			<line class="st35" x1="36.79" y1="33.64" x2="45.57" y2="33.64"/>
			<line class="st35" x1="41.18" y1="38.03" x2="41.18" y2="29.25"/>
		</g>
		<rect x="464.86" y="162.07" class="st35" width="9.51" height="9.51"/>
		<g>
			<path class="st125" d="M694.46,198.11c-0.06-0.01-0.13-0.02-0.19-0.01c-0.11,0.01-0.22,0.03-0.32,0.08
				c-0.41,0.2-0.59,0.68-0.41,1.09l-0.01,0.01l1.93,4.66c1.85-1.18,3.25-2.94,3.98-5l-4.97-0.84L694.46,198.11z M686.72,198.77
				c-0.09-0.38-0.42-0.65-0.81-0.65c-0.06,0-0.11,0-0.17,0.01l-0.01-0.01l-4.93,0.84c0.74,2.05,2.13,3.79,3.97,4.96l1.91-4.61
				l-0.01-0.02C686.75,199.13,686.76,198.95,686.72,198.77z M690.85,200.58c-0.22-0.41-0.73-0.56-1.14-0.34
				c-0.15,0.08-0.27,0.2-0.34,0.35h0l-2.42,4.38c1.73,0.59,3.6,0.69,5.39,0.28c0.33-0.08,0.65-0.17,0.97-0.27l-2.43-4.39
				L690.85,200.58z M698.52,190.41l-3.73,3.34l0,0.01c-0.35,0.31-0.39,0.84-0.08,1.19c0.11,0.12,0.25,0.21,0.41,0.26l0,0.02
				l4.83,1.39C700.16,194.44,699.66,192.26,698.52,190.41L698.52,190.41z M691.59,190.78c0.02,0.46,0.42,0.82,0.88,0.8
				c0.16-0.01,0.32-0.06,0.46-0.16l0.01,0.01l4.08-2.89c-1.55-1.52-3.56-2.49-5.72-2.76L691.59,190.78L691.59,190.78z
				 M687.27,191.44c0.38,0.27,0.9,0.19,1.18-0.19c0.1-0.13,0.15-0.29,0.16-0.46l0.02-0.01l0.28-5.01c-0.34,0.04-0.68,0.1-1.02,0.18
				c-1.79,0.4-3.43,1.3-4.73,2.58L687.27,191.44L687.27,191.44z M685.09,195.22c0.45-0.12,0.71-0.58,0.59-1.03
				c-0.04-0.16-0.13-0.3-0.26-0.41l0-0.02l-3.75-3.35c-1.14,1.86-1.63,4.05-1.39,6.22l4.8-1.39L685.09,195.22z M688.73,196.7
				l1.38,0.66l1.38-0.66l0.34-1.49l-0.95-1.19h-1.54l-0.96,1.19L688.73,196.7z"/>
			<path class="st125" d="M712.97,199.63l-3.94-17.11c-0.21-0.9-0.82-1.65-1.65-2.05l-15.95-7.61c-0.84-0.4-1.81-0.4-2.65,0
				l-15.94,7.62c-0.83,0.4-1.44,1.15-1.65,2.05l-3.93,17.11c-0.1,0.43-0.1,0.88,0,1.31c0.03,0.13,0.07,0.26,0.11,0.39
				c0.08,0.22,0.18,0.42,0.3,0.62c0.05,0.08,0.11,0.16,0.17,0.24l11.04,13.72c0.05,0.06,0.1,0.11,0.15,0.17
				c0.17,0.18,0.37,0.35,0.58,0.48c0.27,0.17,0.56,0.3,0.87,0.38c0.25,0.07,0.51,0.11,0.78,0.11h0.17l17.53,0
				c0.11,0,0.21-0.01,0.32-0.02c0.15-0.02,0.3-0.05,0.45-0.09c0.11-0.03,0.21-0.06,0.31-0.1c0.08-0.03,0.16-0.06,0.24-0.1
				c0.12-0.06,0.23-0.12,0.33-0.19c0.28-0.17,0.52-0.39,0.73-0.65l0.34-0.42l10.7-13.31c0.2-0.26,0.37-0.55,0.48-0.86
				c0.05-0.13,0.08-0.26,0.11-0.39C713.06,200.51,713.06,200.06,712.97,199.63L712.97,199.63z M696.42,206.28
				c0.04,0.13,0.1,0.26,0.16,0.39c-0.1,0.17-0.12,0.37-0.07,0.56c0.23,0.53,0.52,1.04,0.85,1.52c0.19,0.24,0.36,0.5,0.51,0.76
				c0.04,0.07,0.09,0.18,0.13,0.26c0.27,0.45,0.12,1.04-0.33,1.32s-1.04,0.12-1.32-0.33c-0.03-0.05-0.06-0.11-0.08-0.17
				c-0.04-0.07-0.09-0.17-0.12-0.24c-0.11-0.29-0.2-0.58-0.28-0.87c-0.17-0.56-0.38-1.09-0.65-1.6c-0.12-0.16-0.29-0.26-0.49-0.3
				c-0.03-0.05-0.14-0.26-0.2-0.37c-2.84,1.08-5.97,1.07-8.81-0.02l-0.22,0.39c-0.15,0.02-0.3,0.09-0.41,0.2
				c-0.33,0.53-0.57,1.11-0.74,1.71c-0.07,0.3-0.17,0.59-0.28,0.87c-0.03,0.07-0.08,0.17-0.12,0.24v0l0,0
				c-0.18,0.5-0.73,0.76-1.22,0.58s-0.76-0.73-0.58-1.22c0.02-0.06,0.05-0.12,0.08-0.17c0.04-0.08,0.08-0.19,0.12-0.26
				c0.16-0.26,0.33-0.52,0.51-0.76c0.34-0.49,0.63-1.01,0.86-1.55c0.03-0.18,0-0.37-0.09-0.54l0.17-0.42
				c-2.61-1.54-4.57-3.99-5.5-6.87l-0.42,0.07c-0.16-0.11-0.35-0.18-0.55-0.19c-0.57,0.11-1.13,0.27-1.66,0.49
				c-0.28,0.13-0.56,0.23-0.86,0.33c-0.07,0.02-0.17,0.04-0.25,0.06c-0.01,0-0.01,0-0.02,0.01c0,0-0.01,0-0.01,0
				c-0.5,0.17-1.04-0.11-1.21-0.61c-0.17-0.5,0.11-1.04,0.61-1.21c0.06-0.02,0.12-0.03,0.17-0.04l0.01,0l0.01,0
				c0.08-0.02,0.18-0.05,0.25-0.06c0.3-0.04,0.61-0.07,0.92-0.07c0.58-0.04,1.15-0.13,1.71-0.28c0.17-0.11,0.31-0.25,0.41-0.41
				l0.4-0.12c-0.43-3.01,0.26-6.08,1.95-8.61l-0.31-0.27c-0.01-0.2-0.08-0.39-0.19-0.55c-0.44-0.38-0.91-0.71-1.42-1
				c-0.27-0.14-0.54-0.29-0.79-0.46c-0.06-0.04-0.13-0.11-0.2-0.16l-0.01-0.01c-0.45-0.32-0.56-0.95-0.23-1.41
				c0.19-0.23,0.47-0.35,0.76-0.34c0.24,0.01,0.48,0.1,0.67,0.25c0.06,0.05,0.15,0.12,0.21,0.17c0.22,0.21,0.43,0.43,0.63,0.67
				c0.39,0.43,0.82,0.82,1.29,1.16c0.17,0.09,0.38,0.11,0.57,0.05c0.11,0.08,0.23,0.16,0.34,0.24c1.68-1.78,3.85-3.02,6.24-3.56
				c0.57-0.13,1.14-0.22,1.73-0.27l0.02-0.4c0.15-0.13,0.26-0.3,0.31-0.49c0.02-0.58-0.01-1.16-0.11-1.73
				c-0.06-0.3-0.1-0.6-0.13-0.91c0-0.07,0-0.17,0-0.24c0-0.01,0-0.02,0-0.03c-0.05-0.53,0.33-1,0.86-1.05
				c0.53-0.05,1,0.33,1.05,0.86c0.01,0.06,0.01,0.13,0,0.19c0,0.08,0.01,0.19,0,0.27c-0.03,0.3-0.07,0.61-0.13,0.91
				c-0.09,0.57-0.13,1.15-0.11,1.73c0.04,0.19,0.15,0.36,0.31,0.48c0,0.07,0.01,0.3,0.02,0.43c3.02,0.27,5.83,1.63,7.92,3.83
				l0.36-0.26c0.2,0.03,0.4,0.01,0.58-0.06c0.47-0.35,0.9-0.74,1.29-1.16c0.2-0.23,0.41-0.46,0.63-0.67
				c0.06-0.05,0.15-0.12,0.21-0.17c0.38-0.37,0.98-0.37,1.36,0.01c0.37,0.38,0.37,0.98-0.01,1.36c-0.05,0.05-0.1,0.09-0.16,0.13
				c-0.06,0.05-0.15,0.12-0.21,0.17c-0.26,0.17-0.52,0.32-0.79,0.46c-0.5,0.29-0.98,0.62-1.42,1c-0.13,0.15-0.19,0.34-0.18,0.54
				c-0.05,0.05-0.24,0.21-0.34,0.3c1.69,2.52,2.4,5.58,1.99,8.59l0.39,0.11c0.1,0.17,0.24,0.32,0.41,0.41
				c0.56,0.15,1.13,0.24,1.71,0.28c0.31,0.01,0.61,0.03,0.91,0.07c0.08,0.01,0.2,0.05,0.28,0.07c0.52,0.07,0.89,0.55,0.82,1.07
				c-0.07,0.52-0.55,0.89-1.07,0.82c-0.06-0.01-0.12-0.02-0.17-0.04l-0.01,0c-0.01,0-0.01,0-0.02-0.01
				c-0.08-0.02-0.18-0.03-0.25-0.05c-0.29-0.09-0.58-0.2-0.86-0.33c-0.54-0.22-1.1-0.38-1.67-0.49c-0.2-0.01-0.39,0.06-0.53,0.2
				c-0.14-0.03-0.27-0.05-0.41-0.07C701,202.27,699.04,204.73,696.42,206.28L696.42,206.28z"/>
		</g>
		<g>
			<g>
				<g>
					<line class="st35" x1="102.53" y1="58.64" x2="107.53" y2="58.64"/>
					<line class="st35" x1="110.96" y1="58.64" x2="115.96" y2="58.64"/>
				</g>
			</g>
			<g>
				<g>
					<line class="st35" x1="105.89" y1="64.45" x2="108.39" y2="60.12"/>
					<line class="st35" x1="110.1" y1="57.16" x2="112.6" y2="52.83"/>
				</g>
			</g>
			<g>
				<g>
					<line class="st35" x1="112.6" y1="64.45" x2="110.1" y2="60.12"/>
					<line class="st35" x1="108.39" y1="57.16" x2="105.89" y2="52.83"/>
				</g>
			</g>
		</g>
		<g>
			<g>
				<g>
					<line class="st35" x1="18.85" y1="195.69" x2="23.85" y2="195.69"/>
					<line class="st35" x1="27.28" y1="195.69" x2="32.28" y2="195.69"/>
				</g>
			</g>
			<g>
				<g>
					<line class="st35" x1="22.21" y1="201.5" x2="24.71" y2="197.17"/>
					<line class="st35" x1="26.42" y1="194.21" x2="28.92" y2="189.88"/>
				</g>
			</g>
			<g>
				<g>
					<line class="st35" x1="28.92" y1="201.5" x2="26.42" y2="197.17"/>
					<line class="st35" x1="24.71" y1="194.21" x2="22.21" y2="189.88"/>
				</g>
			</g>
		</g>
		<polygon class="st42" points="25.57,358.85 20.13,368.27 31,368.27 		"/>
		<circle class="st35" cx="281.19" cy="44.8" r="3.81"/>
		<circle class="st35" cx="706.93" cy="33.64" r="3.81"/>
		<g>
			<line class="st35" x1="228.65" y1="84.96" x2="237.44" y2="84.96"/>
			<line class="st35" x1="233.05" y1="89.35" x2="233.05" y2="80.56"/>
		</g>
		<g>
			<line class="st35" x1="536.37" y1="54.97" x2="545.16" y2="54.97"/>
			<line class="st35" x1="540.77" y1="59.36" x2="540.77" y2="50.57"/>
		</g>
		<g>
			<line class="st35" x1="715.93" y1="263.02" x2="724.71" y2="263.02"/>
			<line class="st35" x1="720.32" y1="267.41" x2="720.32" y2="258.62"/>
		</g>
		<rect x="50.93" y="104.2" class="st25" width="9.51" height="9.51"/>
		<rect x="577.58" y="233.34" class="st25" width="9.51" height="9.51"/>
		<g>
			<g>
				<polygon class="st127" points="306.71,332.89 290.29,332.89 288.26,310.5 308.74,310.5 				"/>
			</g>
			<g>
				<polygon class="st127" points="306.71,332.89 290.29,332.89 288.26,310.5 308.74,310.5 				"/>
			</g>
			<g>
				<polygon class="st128" points="306.71,304.31 290.29,304.31 288.26,310.5 308.74,310.5 				"/>
			</g>
		</g>
		<g>
			
				<rect x="191.45" y="327.38" transform="matrix(-1 -4.488422e-11 4.488422e-11 -1 439.0193 660.2709)" class="st129" width="56.13" height="5.52"/>
			
				<rect x="226.39" y="303.61" transform="matrix(0.3204 -0.9473 0.9473 0.3204 -116.6081 448.7702)" class="st129" width="56.13" height="4.09"/>
		</g>
		<g>
			<rect x="304.19" y="279.02" class="st52" width="60.44" height="48.35"/>
			<rect x="304.19" y="327.38" class="st52" width="60.44" height="5.52"/>
		</g>
		<circle class="st130" cx="332.13" cy="305.65" r="3.82"/>
		<path class="st52" d="M617.68,376.1c-0.76,5.08-1.16,10.44-1.16,15.97c0,23.91,7.57,44.52,18.48,53.99h26.91
			c10.91-9.46,18.48-30.08,18.48-53.99c0-5.53-0.41-10.89-1.16-15.97H617.68z"/>
		<path class="st43" d="M628.92,287.86c0.03-1.66-0.02-3.32-0.19-4.99c-0.56-5.56-2.36-10.9-3.47-16.38s-1.49-11.34,0.7-16.48
			c2.19-5.14,7.56-9.24,13.09-8.45c5.72,0.81,9.69,6.41,10.93,12.05c2.46,11.2-4.96,35.21,10.79,39.73
			c2.19,0.63,4.51,0.64,6.77,1.02c10.75,1.78,8.97,14.7,8.45,22.78c-0.87,13.57-2.43,34.18-13.82,43.51
			c-16.71,13.7-33.76-1.98-39.07-18.68C617.25,323.63,628.55,306.11,628.92,287.86z"/>
		<line class="st43" x1="648.45" y1="376.1" x2="648.45" y2="294.64"/>
		<path class="st35" d="M648.45,331.79c-8.66,0-15.68-7.02-15.68-15.68"/>
		<path class="st35" d="M648.45,303.67c-7.43,0-13.45-15.54-13.45-34.71"/>
		<path class="st35" d="M664.13,331.79c0,8.66-7.02,15.68-15.68,15.68"/>
		<path class="st35" d="M659.46,303.15c0,6.08-4.93,11.01-11.01,11.01"/>
		<g>
			<g>
				<rect x="204.17" y="306.78" class="st37" width="15.23" height="22.64"/>
				<polygon class="st23" points="217.98,303.29 205.58,303.29 204.17,306.78 219.39,306.78 				"/>
				<polygon class="st23" points="217.98,332.89 205.58,332.89 204.17,329.41 219.39,329.41 				"/>
				<polygon class="st11" points="214.07,311.91 207.72,319.3 211.43,319.3 209.92,324.27 215.84,316.93 212.17,316.93 				"/>
			</g>
			<polygon class="st35" points="217.98,303.29 205.58,303.29 204.17,306.78 204.17,329.41 205.58,332.89 217.98,332.89 
				219.39,329.41 219.39,306.78 			"/>
		</g>
		<path class="st67" d="M473.64,437.99h-6.38l-20.36-68.65c-2.11-7.13,1.86-14.64,8.94-16.9c6.66-2.13,13.61-3.21,20.6-3.21h36.4
			c0,0,6.82,12.26-3.98,19.79c-3.26,2.27-7.21,3.35-11.18,3.35c-5.8,0-11.6,0-17.39,0c-2.56,0-5.13,0-7.69,0
			c-1.89,0-3.92-0.17-5.78,0.23c-0.2,0.04-0.4,0.1-0.57,0.2c-0.83,0.52-0.16,1.7,0.14,2.33c3.74,7.79,6.22,16.2,7.27,24.78
			c1.23,10.04,0.59,20,0.59,30.07C474.25,429.97,473.64,437.99,473.64,437.99z"/>
		<polyline class="st35" points="543.87,446.03 543.87,376.83 488.46,376.83 488.46,446.03 		"/>
		<polyline class="st35" points="549.86,446.03 549.86,376.83 482.47,376.83 482.47,446.03 		"/>
		<rect x="488.3" y="371.32" class="st52" width="61.56" height="5.51"/>
		<path class="st67" d="M499.25,437.99h-6.38l-20.36-68.65c-2.11-7.13,1.86-14.64,8.94-16.9c6.66-2.13,13.61-3.21,20.6-3.21h36.4
			c0,0,6.82,12.26-3.98,19.79c-3.26,2.27-7.21,3.35-11.18,3.35c-5.8,0-11.6,0-17.39,0c-2.56,0-5.13,0-7.69,0
			c-1.89,0-3.92-0.17-5.78,0.23c-0.2,0.04-0.4,0.1-0.57,0.2c-0.83,0.52-0.16,1.7,0.14,2.33c3.74,7.79,6.22,16.2,7.27,24.78
			c1.23,10.04,0.59,20,0.59,30.07L499.25,437.99z"/>
		<g>
			<circle class="st40" cx="602.21" cy="148.16" r="39.21"/>
			<circle class="st35" cx="602.21" cy="148.16" r="35.06"/>
			<polyline class="st35" points="625.23,135.49 602.21,147.76 585.63,137.56 			"/>
			<circle class="st44" cx="602.21" cy="148.16" r="2.95"/>
			<line class="st44" x1="584.67" y1="117.8" x2="587.56" y2="122.8"/>
			<line class="st44" x1="571.84" y1="130.63" x2="576.84" y2="133.52"/>
			<line class="st44" x1="571.84" y1="165.69" x2="576.84" y2="162.81"/>
			<line class="st44" x1="584.67" y1="178.53" x2="587.56" y2="173.52"/>
			<line class="st44" x1="619.74" y1="178.53" x2="616.85" y2="173.52"/>
			<line class="st44" x1="632.57" y1="165.69" x2="627.57" y2="162.81"/>
			<line class="st44" x1="632.57" y1="130.63" x2="627.57" y2="133.52"/>
			<line class="st44" x1="619.74" y1="117.8" x2="616.85" y2="122.8"/>
			<line class="st35" x1="602.21" y1="113.1" x2="602.21" y2="124.96"/>
			<line class="st35" x1="602.21" y1="183.23" x2="602.21" y2="171.37"/>
			<line class="st35" x1="567.14" y1="148.16" x2="579" y2="148.16"/>
			<line class="st35" x1="637.27" y1="148.16" x2="625.41" y2="148.16"/>
		</g>
		<polygon class="st39" points="473.19,437.6 473.32,442.47 467.25,441.17 468.19,436.96 		"/>
		<polygon class="st39" points="498.84,437.6 498.97,442.47 492.9,441.17 493.84,436.96 		"/>
		<path class="st43" d="M474.92,446.05c-0.6-0.05-24.53,0-24.53,0l15.39-5.39l8.31,1.13L474.92,446.05z"/>
		<path class="st43" d="M500.57,446.05c-0.6-0.05-24.53,0-24.53,0l15.39-5.39l8.31,1.13L500.57,446.05z"/>
		<g>
			<path class="st39" d="M438.92,319.12c-0.55-0.07-1.1-0.16-1.59-0.34c-0.72-0.26-1.45-0.54-2.18-0.8
				c-1.54-0.54-3.13-1.02-4.77-0.98c-2.19,0.06-4.33,1.11-5.72,2.8c-0.35,0.42-0.66,0.9-0.75,1.44c-0.09,0.54,0.07,1.15,0.51,1.48
				c0.58,0.43,1.42,0.23,2.02-0.16c0.61-0.39,1.11-0.94,1.75-1.26c0.68-0.34,1.47-0.41,2.22-0.31c1.53,0.19,2.91,1,4.33,1.61
				c0.03,0.01,0.06,0.02,0.09,0.04c1.28,0.54,3.04,1.05,4.39,0.45c0.56-0.25,1.01-1.16,1.28-1.67c0.1-0.18,0.84-2.01,0.9-2.01
				c-0.5-0.04-1.01-0.09-1.51-0.16C439.59,319.2,439.26,319.16,438.92,319.12z"/>
			<path class="st43" d="M482.3,270.36c-4.89,0.44-9.62,2.56-13.19,5.93c-2.89,2.72-5.01,6.25-6.1,10.06
				c-2.18,7.62-2.02,16.09-3.18,23.97c-0.07,0.45-1.08,8.3-1.45,8.3c-0.02,0-19.13,0-19.13,0v5.36c0,0,17.08,3.65,22.55,5.24
				c0.11,0,12.54-10.37,15.16-30.77"/>
			<path class="st43" d="M497.91,332.85c3.46,4.89,3.7,11.03,1.33,16.37c3.15,0,6.3,0,9.45,0c6.11,0,12.21,0,18.32,0
				c3.64,0,7.42,0.29,11.04-0.08c3.08-0.32-3.6-21.13-4.24-23.17c-4.87-15.4-10.86-31.61-20.4-44.8
				c-6.24-8.63-15.52-16.7-26.85-15.6c-4.31,0.42-11.62,3.06-13.74,7.31c-1.6,3.19-9.8,36.01,8.66,46.27
				C487.69,322.59,493.76,326.97,497.91,332.85z"/>
			<path class="st39" d="M450.2,263.14c0.6,2.61,1.96,5.1,4.07,6.74c3.33,2.58,7.91,2.71,12.1,2.36c0.98-0.08,2.03-0.17,2.87,0.33
				c2.05,1.19,1.45,4.7,3.4,6.04c0.85,0.58,2,0.57,2.96,0.21c0.96-0.36,1.78-1.03,2.54-1.71c2.07-1.84,4.08-4.11,4.29-6.87
				c0.07-0.88-0.11-1.87-0.81-2.41c-0.57-0.43-1.33-0.47-2.03-0.62c-1.76-0.39-3.21-1.65-4.29-3.09c-1.66-2.21-2.61-4.85-3.75-7.37
				s-2.58-5.03-4.87-6.57c-2.07-1.38-4.67-1.82-7.14-1.55c-3.04,0.34-6.03,1.84-7.96,4.24C449.35,255.65,449.44,259.78,450.2,263.14
				z"/>
			<path class="st67" d="M445.78,247.16c-1.33,0.21-2.92,0.48-3.48,1.71c-0.51,1.13,0.16,2.43,0.94,3.4
				c0.94,1.18,2.07,2.2,3.33,3.04c1.32,0.87,2.85,1.54,4.43,1.47c1.74-0.08,3.3-1.04,4.91-1.71s3.58-1.05,5.01-0.04
				c1.67,1.17,1.77,3.63,1.25,5.6c-0.24,0.91-0.55,1.95,0,2.71c0.45,0.63,1.33,0.79,2.09,0.7c0.77-0.08,1.51-0.36,2.28-0.39
				c2.39-0.1,3.46,1.66,4.99,3.03c1.75,1.56,5.09,1.65,7.21,1.08c-0.02-4.01-0.04-8.04-0.58-12.02c-0.46-3.41-1.28-6.96-2.89-10.03
				c-1.27-2.42-4.61-4.36-7.17-5.1c-3.77-1.09-7.96-0.17-11.26,1.84C453.3,244.61,449.97,246.49,445.78,247.16z"/>
		</g>
		<polygon class="st52" points="497.05,339.13 484.48,339.13 506.08,446.05 511.16,446.05 		"/>
		<rect x="183.25" y="332.89" class="st52" width="318.94" height="6.24"/>
		<g>
			<rect x="410.26" y="327.38" class="st129" width="56.13" height="5.52"/>
			
				<rect x="375.31" y="303.61" transform="matrix(-0.3204 -0.9473 0.9473 -0.3204 243.0695 785.6915)" class="st129" width="56.13" height="4.09"/>
		</g>
		<path class="st39" d="M446.37,311.25c-0.85,0.26-1.78-0.19-2.36-0.85c-0.58-0.66-0.91-1.51-1.27-2.32c-1-2.22-2.42-4.32-4.45-5.66
			s-4.72-1.82-6.94-0.82c-0.26,0.92,0.44,1.86,1.25,2.37c0.82,0.51,1.78,0.77,2.54,1.35c1.15,0.87,1.7,2.47,1.34,3.87
			c-0.58,0.27-1.26,0.14-1.88-0.03c-0.62-0.17-1.25-0.38-1.88-0.27c-0.63,0.11-1.24,0.67-1.13,1.3c0.1,0.61,0.76,0.93,1.33,1.15
			c4.16,1.63,8.31,3.26,12.47,4.89L446.37,311.25z"/>
		<path class="st43" d="M497.14,288.53c-5.3,28.72-19.49,42.74-19.83,42.57c-9.57-0.85-32.82-14.19-32.82-14.19l2.22-6.5
			c0,0,19.25,12.19,26.67,10.26c1.88-3.08,6.5-13.85,7.18-32.14"/>
		<line class="st131" x1="353.25" y1="65.41" x2="353.25" y2="10.25"/>
		<line class="st131" x1="412.81" y1="96.18" x2="412.81" y2="10.25"/>
		<line class="st131" x1="472.36" y1="119.6" x2="472.36" y2="10.25"/>
		<polygon class="st125" points="328.21,88.85 353.25,63.81 378.29,88.85 		"/>
		<polygon class="st125" points="387.77,114.7 412.81,89.66 437.85,114.7 		"/>
		<polygon class="st125" points="447.32,140.55 472.36,115.51 497.4,140.55 		"/>
	</g>
</g>
</svg>
