<?xml version="1.0" encoding="utf-8"?>
<!-- Generator: Adobe Illustrator 16.0.0, SVG Export Plug-In . SVG Version: 6.00 Build 0)  -->
<!DOCTYPE svg PUBLIC "-//W3C//DTD SVG 1.1//EN" "http://www.w3.org/Graphics/SVG/1.1/DTD/svg11.dtd">
<svg version="1.1" id="Layer_1" xmlns="http://www.w3.org/2000/svg" xmlns:xlink="http://www.w3.org/1999/xlink" x="0px" y="0px"
	 width="60px" height="60px" viewBox="0 0 60 60" enable-background="new 0 0 60 60" xml:space="preserve">
<g>
	<g>
		<path fill="#8EC2EA" stroke="#3F3F3F" stroke-linecap="round" stroke-linejoin="round" stroke-miterlimit="10" d="M32.199,32.173
			c1.711-1.329,0.777-4.304-1.877-4.297c-0.768,0.005-1.534,0.013-2.302-0.002c-2.58-0.051-4.159-0.442-4.021-3.064
			c0.142-2.771-1.3-4.987-2.743-5.566c-1.387-0.556-2.298,0.283-1.822,1.68c0.472,1.399,0.315,0.894,0.495,1.886
			c0.45,2.477-0.419,6.532-6.465,8.037v10.869c4.309,0.518,6.634,3.233,13.916,3.233c2.934-0.095,3.598-1.837,3.042-3.515
			c2.555-0.474,2.889-3.244,1.567-4.516C34.272,36.256,34.354,32.667,32.199,32.173z"/>
		<path fill="#1E86D5" stroke="#3F3F3F" stroke-linecap="round" stroke-linejoin="round" stroke-miterlimit="10" d="M7.736,44.687
			C7.736,45.146,8.148,46,8.615,46h4.411C13.491,46,13,44.518,13,44.061V30.686C13,30.227,13.491,29,13.026,29H8.615
			c-0.467,0-0.879,1.051-0.879,1.509"/>
	</g>
</g>
<g>
	<path fill="none" stroke="#3F3F3F" stroke-linecap="round" stroke-linejoin="round" stroke-miterlimit="10" d="M13,27.5V13
		c0-1.65,1.35-3,3-3h32c1.65,0,3,1.35,3,3v36c0,1.65-1.35,3-3,3H16c-1.65,0-3-0.787-3-1.75s0-1.75,0-1.75"/>
</g>
<g>
	<g>
		<polyline fill="none" stroke="#3F3F3F" stroke-linecap="round" stroke-linejoin="round" stroke-miterlimit="10" points="
			40.334,18.275 41.827,20.552 47.167,16 		"/>
	</g>
	<polyline fill="none" stroke="#3F3F3F" stroke-linecap="round" stroke-linejoin="round" stroke-miterlimit="10" points="45,20.5 
		45,23 38,23 38,16 44.5,16 	"/>
</g>
<g>
	<g>
		<polyline fill="none" stroke="#3F3F3F" stroke-linecap="round" stroke-linejoin="round" stroke-miterlimit="10" points="
			40.334,29.275 41.827,31.552 47.167,27 		"/>
	</g>
	<polyline fill="none" stroke="#3F3F3F" stroke-linecap="round" stroke-linejoin="round" stroke-miterlimit="10" points="45,31.5 
		45,34 38,34 38,27 44.5,27 	"/>
</g>
<g>
	<g>
		<polyline fill="none" stroke="#3F3F3F" stroke-linecap="round" stroke-linejoin="round" stroke-miterlimit="10" points="
			40.334,40.275 41.827,42.552 47.167,38 		"/>
	</g>
	<polyline fill="none" stroke="#3F3F3F" stroke-linecap="round" stroke-linejoin="round" stroke-miterlimit="10" points="45,42.5 
		45,45 38,45 38,38 44.5,38 	"/>
</g>
</svg>
