<svg xmlns="http://www.w3.org/2000/svg"  viewBox="0 0 50 50" width="50px" height="50px"><path d="M 28.494141 4 C 23.988284 4 20.322634 6.4742072 18.447266 10.199219 C 17.472714 9.5253881 16.362393 9 15.060547 9 C 11.748299 9 9.4261346 11.775086 9.1992188 14.925781 C 7.6903173 15.438764 6.230203 16.217015 5.109375 17.486328 C 3.8213363 18.945004 3 20.965794 3 23.486328 C 3 28.181002 6.8606944 32 11.585938 32 L 24 32 L 24 40 L 6 40 A 1.0001 1.0001 0 1 0 6 42 L 24.832031 42 A 1.0001 1.0001 0 0 0 25.158203 42 L 44 42 A 1.0001 1.0001 0 1 0 44 40 L 26 40 L 26 32 L 39.085938 32 C 43.439982 32 47 28.480766 47 24.152344 C 47 20.148297 43.879028 16.749148 39.953125 16.210938 C 39.967752 15.924198 40 15.63437 40 15.400391 C 40 9.0541205 34.88669 4 28.494141 4 z M 28.494141 6 C 33.845591 6 38 10.11666 38 15.400391 C 38 15.786584 37.960939 16.53303 37.917969 16.880859 L 37.779297 18.003906 L 38.910156 18.003906 C 39.039266 18.003906 39.054049 18 38.960938 18 C 42.191825 18 45 20.936795 45 24.152344 C 45 27.389921 42.369892 30 39.085938 30 L 25.154297 30 A 1.0001 1.0001 0 0 0 24.984375 29.986328 A 1.0001 1.0001 0 0 0 24.839844 30 L 11.585938 30 C 7.9311796 30 5 27.089654 5 23.486328 C 5 21.386862 5.6366637 19.912121 6.609375 18.810547 C 7.5820863 17.708973 8.9320009 16.980379 10.388672 16.582031 L 11.146484 16.375 L 11.125 15.589844 C 11.1212 15.452489 11.113281 15.39331 11.113281 15.400391 C 11.113281 12.997965 12.735978 11 15.060547 11 C 16.195283 11 17.278103 11.554341 18.076172 12.345703 L 19.175781 13.435547 L 19.71875 11.984375 C 21.0821 8.3336188 24.301071 6 28.494141 6 z M 6 44 A 1.0001 1.0001 0 1 0 6 46 L 44 46 A 1.0001 1.0001 0 1 0 44 44 L 6 44 z"/></svg>