<svg xmlns="http://www.w3.org/2000/svg" width="160" height="160" viewBox="0 0 160 160">
  <g id="Group_1" data-name="Group 1" transform="translate(-819 533)">
    <g id="Group_2" data-name="Group 2">
      <rect id="Rectangle_1" data-name="Rectangle 1" width="160" height="160" transform="translate(819 -533)" fill="none"/>
      <path id="Path_11" data-name="Path 11" d="M151,158.2h.1a3.553,3.553,0,0,1,1-.2,28.347,28.347,0,0,0,3.5-1.4,39.263,39.263,0,0,1,6.9-2,3.956,3.956,0,0,1,2.3.8l1.7-.3a51.968,51.968,0,0,0,22.8,28.5l-.7,1.7a4.493,4.493,0,0,1,.4,2.2,38.757,38.757,0,0,1-3.6,6.4,25.283,25.283,0,0,0-2.1,3.2,5.359,5.359,0,0,0-.5,1.1,4.118,4.118,0,0,0,1.7,5.6,4.331,4.331,0,0,0,5.5-2.2,4.671,4.671,0,0,0,.5-1,29.151,29.151,0,0,0,1.1-3.6c1-2.6,1.6-5.4,3.1-7.1a2.491,2.491,0,0,1,1.7-.8l.9-1.6a50.661,50.661,0,0,0,29.7,2.1,53.052,53.052,0,0,0,6.8-2,11.547,11.547,0,0,1,.8,1.5,2.885,2.885,0,0,1,2,1.2,34.654,34.654,0,0,1,2.7,6.6c.4,1.2.6,2.3,1.1,3.6a4.672,4.672,0,0,0,.5,1,4,4,0,1,0,7.2-3.4,5.361,5.361,0,0,1-.5-1.1c-.7-1.2-1.4-2.1-2.1-3.1a37.079,37.079,0,0,1-3.5-6.3,3.343,3.343,0,0,1,.3-2.3c-.1-.2-.5-1.1-.7-1.6A51.888,51.888,0,0,0,264.4,155c.5.1,1.4.2,1.7.3a2.947,2.947,0,0,1,2.2-.8,39.262,39.262,0,0,1,6.9,2,36.462,36.462,0,0,0,3.5,1.4c.3.1.7.1,1,.2h.2a4.23,4.23,0,0,0,5.1-2.9,4.119,4.119,0,0,0-3.3-4.8c-.3-.1-.8-.2-1.1-.3a25.316,25.316,0,0,0-3.8-.3,32.666,32.666,0,0,1-7.1-1.2c-.8-.3-1.4-1.3-1.7-1.7l-1.6-.5a52.707,52.707,0,0,0-.8-18.5,50.477,50.477,0,0,0-7.4-17.1c.4-.4,1.2-1.1,1.4-1.3a3.2,3.2,0,0,1,.7-2.2,31.922,31.922,0,0,1,5.9-4.1c1.1-.7,2.2-1.1,3.3-1.9.3-.2.6-.5.9-.7a3.972,3.972,0,1,0-4.9-6.2c-.3.2-.6.5-.9.7a22.714,22.714,0,0,0-2.6,2.8,37.051,37.051,0,0,1-5.3,4.8,5.427,5.427,0,0,1-2.4.3l-1.5,1.1A51.565,51.565,0,0,0,220,88.3c0-.5-.1-1.5-.1-1.8a3.352,3.352,0,0,1-1.3-2,37.522,37.522,0,0,1,.4-7.2,23.2,23.2,0,0,0,.5-3.8V72.4a4.018,4.018,0,1,0-8,0v1.1c.1,1.4.4,2.5.5,3.8a37.129,37.129,0,0,1,.4,7.2,4.644,4.644,0,0,1-1.3,2l-.1,1.7a55.246,55.246,0,0,0-7.1,1.1,49.929,49.929,0,0,0-25.8,14.8c-.4-.3-1.2-.8-1.4-1a3.151,3.151,0,0,1-2.3-.2,32.378,32.378,0,0,1-5.3-4.8c-.9-.9-1.5-1.8-2.6-2.8a7.05,7.05,0,0,0-.9-.7,4.192,4.192,0,0,0-2.8-1,3.661,3.661,0,0,0-3.1,1.4,4.125,4.125,0,0,0,1,5.8h.1a5.715,5.715,0,0,1,.8.7,27.909,27.909,0,0,0,3.3,1.9,45.772,45.772,0,0,1,5.9,4.1,4.553,4.553,0,0,1,.8,2.3l1.3,1.1a51.4,51.4,0,0,0-8.1,35.7l-1.7.5a4.612,4.612,0,0,1-1.7,1.7,40.118,40.118,0,0,1-7.1,1.2,25.312,25.312,0,0,0-3.8.3,3.6,3.6,0,0,1-1.1.2h-.1a4.169,4.169,0,0,0-3.3,4.8,3.93,3.93,0,0,0,5,2.9Zm50.3-3.4-7.9,19.1A40.154,40.154,0,0,1,177,153.3l20.4-3.5c.2,0,.5-.1.7-.1a3.326,3.326,0,0,1,3.3,2.7A4.776,4.776,0,0,1,201.3,154.8Zm23.3,24.6a41.926,41.926,0,0,1-22.3-1.1l10-18.1a3.338,3.338,0,0,1,2.9-1.8,4.529,4.529,0,0,1,1.6.3,3.861,3.861,0,0,1,1.6,1.5h.1l10.1,18.2c-1.3.3-2.6.7-4,1Zm13-5.4-8-19.3a3.49,3.49,0,0,1,1.7-4.5,3.079,3.079,0,0,1,1.3-.3,2.2,2.2,0,0,1,.8.1l20.6,3.5A40.734,40.734,0,0,1,237.6,174Zm17.8-43.6a42.434,42.434,0,0,1,.9,13.2l-20-5.8v-.1a3.487,3.487,0,0,1-2.5-4.1,3.67,3.67,0,0,1,1.1-1.8L250.3,118a42.631,42.631,0,0,1,5.1,12.4Zm-11.3-20.2-16.9,12h-.1a3.57,3.57,0,0,1-4.8-.6,3.861,3.861,0,0,1-.8-2l-1.2-20.7a40.611,40.611,0,0,1,23.8,11.3Zm-31.8,22.7h6.4l4,4.9-1.4,6.2-5.7,2.7-5.7-2.8-1.4-6.2,3.8-4.8Zm-6-33.4a30.668,30.668,0,0,1,4.2-.7l-1.2,20.7h-.1a3.438,3.438,0,0,1-3.5,3.3,3.139,3.139,0,0,1-2.1-.7l-17-12.1a43.688,43.688,0,0,1,19.7-10.5Zm-25.8,18.4L196,131.8v.1a3.446,3.446,0,0,1,.4,4.8,3.6,3.6,0,0,1-1.8,1.2v.1l-19.9,5.7a40.878,40.878,0,0,1,5.8-25.8Z" transform="translate(683.496 -592.372)" fill="#fff"/>
    </g>
  </g>
</svg>
