<svg xmlns="http://www.w3.org/2000/svg" width="427.095" height="414.525" viewBox="0 0 427.095 414.525">
  <g id="kubernetes-kcsp-color" transform="translate(-1.894 -8.475)">
    <path id="Path_1" data-name="Path 1" d="M215.4,26.7l156.8,74.9,38.7,168.2-108.4,135h0l108.4-135L372.2,101.6Z" fill="none"/>
    <path id="Path_2" data-name="Path 2" d="M428.3,260.7,391.6,101.3a28.5,28.5,0,0,0-15.4-19.1L227.7,11.3a29.726,29.726,0,0,0-13.8-2.8A27.486,27.486,0,0,0,203,11.3L54.5,82.3a28.714,28.714,0,0,0-15.4,19.1L2.6,260.8a27.959,27.959,0,0,0,3.9,21.6,17.686,17.686,0,0,0,1.6,2.2L110.9,412.4A28.879,28.879,0,0,0,133.1,423H297.9a28.879,28.879,0,0,0,22.2-10.6L422.9,284.6a28.861,28.861,0,0,0,5.4-23.9Zm-17.4,9.1-108.4,135h-174L19.9,269.9,49.7,140.3l8.9-38.7L215.4,26.7l156.8,74.9,38.7,168.2Z" fill="#3e76f8"/>
    <path id="Path_3" data-name="Path 3" d="M218.5,160.1a3.346,3.346,0,0,0-1.6-1.5,2.318,2.318,0,0,0-1.6-.3,3.338,3.338,0,0,0-2.9,1.8l-10,18.1a40.022,40.022,0,0,0,22.3,1.1c1.4-.3,2.7-.7,4-1.1Zm3.1-40.6a3.176,3.176,0,0,0,.8,2,3.471,3.471,0,0,0,4.8.6h.1l16.9-12a41.357,41.357,0,0,0-23.7-11.4l1.1,20.8Zm-31.1,114a2.94,2.94,0,0,0-1.2-1,3.576,3.576,0,0,0-1.9-.4,3.425,3.425,0,0,0-1.8.4,4.134,4.134,0,0,0-2.1,2.4,8.469,8.469,0,0,0-.4,1.7h8.4a4.146,4.146,0,0,0-.3-1.6,3.479,3.479,0,0,0-.7-1.5Zm42.9-83.6c-.3,0-.5-.1-.8-.1a3.079,3.079,0,0,0-1.3.3,3.49,3.49,0,0,0-1.7,4.5l8,19.3a40.571,40.571,0,0,0,16.5-20.7Zm68.4,83.6a2.94,2.94,0,0,0-1.2-1,3.576,3.576,0,0,0-1.9-.4,3.425,3.425,0,0,0-1.8.4,6.42,6.42,0,0,0-1.3,1,3.923,3.923,0,0,0-.8,1.4,8.469,8.469,0,0,0-.4,1.7h8.4a4.146,4.146,0,0,0-.3-1.6,6.892,6.892,0,0,0-.7-1.5Z" fill="#427af4"/>
    <path id="Path_4" data-name="Path 4" d="M366.9,105.8,215.4,33.5,63.9,105.9l-8.2,35.8L26.5,268.4,131.3,398.7H299.5L404.3,268.3,366.9,105.8ZM322.6,242.6a16.853,16.853,0,0,0-2.9-1.3q-1.5-.6-2.7-1.2a8.008,8.008,0,0,1-2.1-1.5,5.71,5.71,0,0,1-1.3-2.1,7.948,7.948,0,0,1-.5-2.9,6.316,6.316,0,0,1,2.4-5.2,9.876,9.876,0,0,1,6.5-1.9,16.112,16.112,0,0,1,3.9.4,24.627,24.627,0,0,1,3,.8l-1.1,5.1a13.7,13.7,0,0,0-2.4-.7,12.921,12.921,0,0,0-2.9-.3c-2,0-3,.6-3,1.7a1.483,1.483,0,0,0,.1.7,2.652,2.652,0,0,0,.5.6,8.8,8.8,0,0,0,1,.6,9.759,9.759,0,0,0,1.7.7,29.567,29.567,0,0,1,3.5,1.6,9.841,9.841,0,0,1,2.2,1.7,5.64,5.64,0,0,1,1.1,2,9.78,9.78,0,0,1,.3,2.6,5.9,5.9,0,0,1-2.5,5.2c-1.7,1.2-4,1.8-7.1,1.8a22.7,22.7,0,0,1-5-.5,23.488,23.488,0,0,1-2.8-.9l1.1-5.3a20.74,20.74,0,0,0,3.3,1,13.167,13.167,0,0,0,3.4.4,5.143,5.143,0,0,0,2.5-.4c.5-.2.7-.7.7-1.4a1.742,1.742,0,0,0-.9-1.3Zm-26.4,1.7a7.185,7.185,0,0,0,4.4,1.2,18.7,18.7,0,0,0,3.4-.3,15.791,15.791,0,0,0,2.8-.8l.9,5.3a3.755,3.755,0,0,1-1.4.5,18.031,18.031,0,0,0-1.9.5c-.7.1-1.4.2-2.2.3a19.267,19.267,0,0,1-2.4.1,14.351,14.351,0,0,1-5.3-.9,10.976,10.976,0,0,1-3.7-2.5,10.267,10.267,0,0,1-2.2-3.8,15.071,15.071,0,0,1-.7-4.8,14.533,14.533,0,0,1,.9-5.4,12.8,12.8,0,0,1,2.4-3.9,9.756,9.756,0,0,1,3.4-2.3,10.973,10.973,0,0,1,4-.8,9.941,9.941,0,0,1,7.6,3c1.9,2,2.8,5,2.8,8.9v1.3c0,.5-.1.9-.1,1.2H294.5a3.854,3.854,0,0,0,1.7,3.2Zm-11.7-17v5.5h-7.6V241a6.228,6.228,0,0,0,.7,3.3,3,3,0,0,0,2.8,1.2,14.92,14.92,0,0,0,2.1-.2,6.637,6.637,0,0,0,2-.6l.9,5.1a16.925,16.925,0,0,1-6.1,1.2,10.754,10.754,0,0,1-4.3-.7,7.07,7.07,0,0,1-2.7-2,6.684,6.684,0,0,1-1.4-3.2,17.282,17.282,0,0,1-.4-4.1V221.5l6.4-1.1v6.8h7.6Zm-31.4,17a7.185,7.185,0,0,0,4.4,1.2,18.7,18.7,0,0,0,3.4-.3,15.791,15.791,0,0,0,2.8-.8l.9,5.3a3.755,3.755,0,0,1-1.4.5c-.6.2-1.2.3-1.9.5a14.6,14.6,0,0,1-2.2.3,19.267,19.267,0,0,1-2.4.1,14.351,14.351,0,0,1-5.3-.9,10.976,10.976,0,0,1-3.7-2.5,10.267,10.267,0,0,1-2.2-3.8,15.071,15.071,0,0,1-.7-4.8,14.533,14.533,0,0,1,.9-5.4,12.8,12.8,0,0,1,2.4-3.9,9.756,9.756,0,0,1,3.4-2.3,10.974,10.974,0,0,1,4-.8,9.941,9.941,0,0,1,7.6,3c1.9,2,2.8,5,2.8,8.9v1.3c0,.5-.1.9-.1,1.2H251.4a3.854,3.854,0,0,0,1.7,3.2Zm-20.3-10.6a3.2,3.2,0,0,0-3-1.3,8.084,8.084,0,0,0-1.5.1,5.9,5.9,0,0,0-1.4.2v17.9h-6.4V228.2q1.65-.45,4.2-.9a31.17,31.17,0,0,1,5.4-.4,13.367,13.367,0,0,1,4.8.8,6.22,6.22,0,0,1,3,2.2,8.93,8.93,0,0,1,1.6,3.4,18.8,18.8,0,0,1,.5,4.3v13.1h-6.4V238.4c0-2.3-.2-3.8-.8-4.7Zm-15.6-6-1.1,5.4c-.6-.1-1.2-.3-2-.5a10.145,10.145,0,0,0-2.5-.2,7.084,7.084,0,0,0-1.4.1,10.5,10.5,0,0,1-1.3.2v17.7h-6.4v-22c1.1-.4,2.5-.8,4-1.2a21.208,21.208,0,0,1,5.2-.6,5.284,5.284,0,0,1,1.2.1,7.72,7.72,0,0,1,1.5.2l1.5.3C216.4,227.4,216.8,227.5,217.2,227.7Zm-32.3,16.6a7.185,7.185,0,0,0,4.4,1.2,18.7,18.7,0,0,0,3.4-.3,15.791,15.791,0,0,0,2.8-.8l.9,5.3a3.755,3.755,0,0,1-1.4.5c-.6.2-1.2.3-1.9.5a14.605,14.605,0,0,1-2.2.3,19.268,19.268,0,0,1-2.4.1,14.351,14.351,0,0,1-5.3-.9,10.976,10.976,0,0,1-3.7-2.5,10.267,10.267,0,0,1-2.2-3.8,15.071,15.071,0,0,1-.7-4.8,14.533,14.533,0,0,1,.9-5.4,12.8,12.8,0,0,1,2.4-3.9,9.756,9.756,0,0,1,3.4-2.3,10.974,10.974,0,0,1,4-.8,9.941,9.941,0,0,1,7.6,3c1.9,2,2.8,5,2.8,8.9v1.3c0,.5-.1.9-.1,1.2H183.2A3.854,3.854,0,0,0,184.9,244.3Zm-24.5-17.2a10.075,10.075,0,0,1,2.5-.3,9.279,9.279,0,0,1,4.2.9,10.342,10.342,0,0,1,3.1,2.4,11.3,11.3,0,0,1,1.9,3.8,19.037,19.037,0,0,1,.6,5,15.418,15.418,0,0,1-.8,5,9.7,9.7,0,0,1-2.3,3.8,8.5,8.5,0,0,1-3.7,2.4,15.358,15.358,0,0,1-5,.9,19.267,19.267,0,0,1-2.4-.1c-.8-.1-1.7-.2-2.5-.3s-1.6-.3-2.3-.4c-.7-.2-1.4-.3-2-.5V217.3l6.4-1.1v11.6a10.1,10.1,0,0,1,2.3-.7ZM133.6,244a3.253,3.253,0,0,0,3,1.4,8.084,8.084,0,0,0,1.5-.1,5.9,5.9,0,0,0,1.4-.2V227.2h6.4v22.4q-1.65.45-4.2.9a31.17,31.17,0,0,1-5.4.4,13.367,13.367,0,0,1-4.8-.8,6.921,6.921,0,0,1-3-2.2,9.7,9.7,0,0,1-1.6-3.4,19.714,19.714,0,0,1-.5-4.4V227.2h6.4v12.1A10.42,10.42,0,0,0,133.6,244Zm-23-10.6c.7-.8,1.3-1.5,1.9-2.3.6-.7,1.2-1.5,1.8-2.1.6-.7,1-1.3,1.4-1.8h7.6c-1.5,1.8-3,3.5-4.4,5.1s-3,3.3-4.7,5a18.926,18.926,0,0,1,2.6,2.9c.9,1.1,1.8,2.2,2.6,3.4.9,1.2,1.6,2.4,2.3,3.5.7,1.2,1.3,2.3,1.8,3.2h-7.3c-.5-.8-1-1.6-1.6-2.5s-1.2-1.9-1.9-2.8-1.3-1.8-2.1-2.7a11.448,11.448,0,0,0-2.2-2.2v10.2H102V217.1l6.4-1.1v19.4a7.032,7.032,0,0,0,2.2-2ZM100.4,334.3V259.6H330.5v74.7H100.4Z" fill="#427af4"/>
    <path id="Path_5" data-name="Path 5" d="M258.7,233.5a2.94,2.94,0,0,0-1.2-1,3.576,3.576,0,0,0-1.9-.4,3.425,3.425,0,0,0-1.8.4,4.134,4.134,0,0,0-2.1,2.4,8.469,8.469,0,0,0-.4,1.7h8.4a4.146,4.146,0,0,0-.3-1.6,6.892,6.892,0,0,0-.7-1.5ZM158.2,245.2c.3.1.7.1,1.2.2.5,0,1,.1,1.6.1a4.412,4.412,0,0,0,3.9-1.9,8.121,8.121,0,0,0,1.3-4.9c0-4.2-1.5-6.4-4.5-6.4a5.822,5.822,0,0,0-1.9.3,5.928,5.928,0,0,0-1.6.7v11.9Zm43.2-92.6a3.493,3.493,0,0,0-3.3-2.7,1.7,1.7,0,0,0-.7.1L177,153.5a40.975,40.975,0,0,0,16.4,20.6l7.9-19.1-.1-.1a3.714,3.714,0,0,0,.2-2.3Zm8.3-8.6,5.7,2.7,5.7-2.7,1.5-6.2-4-4.9h-6.3l-4,4.9Zm-6-21.8a3.771,3.771,0,0,0,2.1.7,3.508,3.508,0,0,0,3.5-3.3h.1l1.2-20.7c-1.4.2-2.8.4-4.2.7a39.716,39.716,0,0,0-19.6,10.7l16.9,11.9Zm31.1,9.6a4.185,4.185,0,0,0-1.1,1.8,3.487,3.487,0,0,0,2.5,4.1v.1l20,5.8a39.443,39.443,0,0,0-.9-13.2,40.049,40.049,0,0,0-5.1-12.4l-15.4,13.8ZM194.6,138a4.628,4.628,0,0,0,1.8-1.3,3.446,3.446,0,0,0-.4-4.8v-.1l-15.5-13.9a40.878,40.878,0,0,0-5.8,25.8l19.9-5.7Z" fill="#427af4"/>
    <path id="Path_6" data-name="Path 6" d="M410.9,269.8,372.2,101.5,215.4,26.7,58.6,101.6l-8.9,38.7L19.9,269.9,128.4,404.8h174l108.5-135ZM131.4,398.7,26.5,268.4,55.6,141.7l8.2-35.8L215.3,33.5l151.5,72.3,37.4,162.5L299.5,398.7H131.4Z" fill="#fff"/>
    <path id="Path_7" data-name="Path 7" d="M283,309.1h-2.4v8.5H283a3.989,3.989,0,0,0,4.2-4.2A4.069,4.069,0,0,0,283,309.1ZM177.4,277.7h-5.6V285h5.7c2.7,0,4.3-1.5,4.3-3.6v-.1c0-2.3-1.6-3.6-4.4-3.6Z" fill="#fff"/>
    <path id="Path_8" data-name="Path 8" d="M330.5,259.7H100.4v74.7H330.5Zm-68.7,13v25.5h-5.6V272.7Zm-73.5,25.5h-6.6l-5.5-8.2h-4.4v8.2h-5.6V272.7h11.7c3.2,0,5.8.9,7.4,2.6a8,8,0,0,1,2.2,5.8v.1a7.886,7.886,0,0,1-5.5,7.9l6.3,9.1Zm-29.8-15.3v5h-12v5.4h13.8v5H140.9V272.8h19.2v5H146.4V283h12.1Zm-34.2,33.3c0,2.8-2.1,4.3-5.1,4.3a9.093,9.093,0,0,1-6-2.2l1.8-2.2a6.777,6.777,0,0,0,4.2,1.7c1.3,0,2-.5,2-1.3s-.5-1.2-2.8-1.8c-2.8-.7-4.6-1.5-4.6-4.3,0-2.5,2-4.2,4.9-4.2a7.833,7.833,0,0,1,5.2,1.8l-1.6,2.3a6.308,6.308,0,0,0-3.6-1.4c-1.2,0-1.8.5-1.8,1.2,0,.9.6,1.2,3,1.8,2.8.8,4.4,1.8,4.4,4.3ZM112,285.5a13.045,13.045,0,0,1,13.3-13.3,13.432,13.432,0,0,1,10.1,3.9l-3.6,4.1c-2-1.8-4-2.9-6.5-2.9-4.3,0-7.4,3.6-7.4,7.9v.1c0,4.4,3,8,7.4,8,2.9,0,4.7-1.2,6.7-3l3.6,3.6a13.023,13.023,0,0,1-10.5,4.6,12.693,12.693,0,0,1-13.1-13Zm25.6,34.8H127v-14h10.6V309H130v2.8h6.6v2.7H130v2.9h7.6Zm11.3,0-3-4.5h-2.4v4.5h-3.1v-14h6.4a5.643,5.643,0,0,1,4.1,1.4,4.378,4.378,0,0,1,1.2,3.2,4.193,4.193,0,0,1-3,4.3l3.4,5h-3.6Zm13.2.1h-2.7l-5.7-14.1h3.4l3.7,9.9,3.7-9.9h3.3Zm11-.1H170v-14h3.1Zm10.1.3a7.25,7.25,0,0,1,.1-14.5,7.186,7.186,0,0,1,5.5,2.2l-2,2.3a5.187,5.187,0,0,0-3.6-1.6,4.411,4.411,0,0,0,0,8.8,5.061,5.061,0,0,0,3.7-1.6l2,2a7.4,7.4,0,0,1-5.7,2.4Zm18.9-.3H191.4v-14H202V309h-7.5v2.8h6.6v2.7h-6.6v2.9h7.6Zm2.9-22.1h-5.6V277.9h-7.8v-5.2h21.1v5.2H205Zm16.9,13c0,3.2-2.5,4.9-5.7,4.9h-2.3v4.2h-3.1v-14h5.7c3.4,0,5.4,2,5.4,4.9Zm2-13h-5.6V272.7h5.6Zm8.8,22.1-3-4.5h-2.4v4.5h-3.1v-14h6.4a5.643,5.643,0,0,1,4.1,1.4,4.378,4.378,0,0,1,1.2,3.2,4.193,4.193,0,0,1-3,4.3l3.4,5h-3.6Zm4.1-22.1h-5.6V272.7h19.4v5.1H236.8v5.4H249v5.1H236.8ZM253,313.3a7.262,7.262,0,0,1-7.5,7.3,7.156,7.156,0,0,1-7.4-7.2,7.262,7.262,0,0,1,7.5-7.3A7.156,7.156,0,0,1,253,313.3Zm9.9,7.1h-2.7l-5.7-14.1h3.4l3.7,9.9,3.7-9.9h3.3Zm6.2-47.7h19.2v5H274.6v5.2h12v5h-12v5.4h13.8v5H269V272.7Zm4.9,47.6h-3.1v-14H274Zm16.4-7c0,3.9-3,7-7.5,7h-5.5v-14h5.5C287.4,306.3,290.4,309.3,290.4,313.3Zm13.4,7H293.1v-14h10.6V309h-7.5v2.8h6.6v2.7h-6.6v2.9h7.6Zm-9.4-22.1V272.7h9.9c8,0,13.6,5.5,13.6,12.7v.1c0,7.2-5.5,12.8-13.6,12.8h-9.9Zm20.7,22.1-3-4.5h-2.4v4.5h-3.1v-14H313a5.643,5.643,0,0,1,4.1,1.4,4.378,4.378,0,0,1,1.2,3.2,4.193,4.193,0,0,1-3,4.3l3.4,5h-3.6Z" fill="#fff"/>
    <path id="Path_9" data-name="Path 9" d="M312.7,309.1h-3.1v4h3.1c1.5,0,2.4-.8,2.4-2C315.2,309.8,314.2,309.1,312.7,309.1Zm-166.2,0h-3.1v4h3.1c1.5,0,2.4-.8,2.4-2C149,309.8,148,309.1,146.5,309.1Zm69.8,0h-2.4v4.3h2.4a2.14,2.14,0,0,0,2.4-2.1c.1-1.5-.8-2.2-2.4-2.2Zm14.1,0h-3.1v4h3.1c1.5,0,2.4-.8,2.4-2C232.8,309.8,231.9,309.1,230.4,309.1Zm15.1-.2a4.209,4.209,0,0,0-4.2,4.4,4.271,4.271,0,0,0,4.2,4.4,4.209,4.209,0,0,0,4.2-4.4A4.149,4.149,0,0,0,245.5,308.9Zm58.8-31.2H300v15.4h4.3c4.6,0,7.7-3.1,7.7-7.6v-.1a7.349,7.349,0,0,0-7.7-7.7Z" fill="#fff"/>
    <path id="Path_10" data-name="Path 10" d="M135.5,294.1l-3.6-3.6c-2,1.8-3.8,3-6.7,3-4.4,0-7.4-3.6-7.4-8v-.1c0-4.4,3.1-7.9,7.4-7.9a9.115,9.115,0,0,1,6.5,2.9l3.6-4.1a13.271,13.271,0,0,0-10.1-3.9,12.963,12.963,0,0,0-13.3,13.2v.1A12.894,12.894,0,0,0,125,298.8,13.718,13.718,0,0,0,135.5,294.1Zm24.6-16.4v-5H140.9v25.5h19.4v-5H146.5v-5.4h12v-4.9h-12v-5.2Zm27.4,3.5a8.081,8.081,0,0,0-2.2-5.9c-1.7-1.7-4.2-2.6-7.4-2.6H166.2v25.5h5.6V290h4.4l5.5,8.2h6.6l-6.2-9.1a7.925,7.925,0,0,0,5.4-7.9Zm-5.7.3c0,2.1-1.6,3.6-4.3,3.6h-5.7v-7.3h5.6c2.8-.1,4.4,1.2,4.4,3.7Zm31-8.8H191.7v5.2h7.7v20.3H205V277.9h7.8Zm5.4,0h5.6v25.5h-5.6Zm30.7,10.5H236.8v-5.4h13.8v-5.1H231.1v25.5h5.7v-9.9h12.1Zm7.3-10.5h5.6v25.5h-5.6Zm32.3,20.5H274.7v-5.4h12v-4.9h-12v-5.2h13.6v-5H269.1v25.5h19.4Zm29.4-7.8c0-7.3-5.5-12.8-13.6-12.8h-9.9v25.5h9.9C312.3,298.2,317.9,292.6,317.9,285.4Zm-5.9.1c0,4.5-3.1,7.6-7.7,7.6H300V277.7h4.3c4.6,0,7.7,3.2,7.7,7.8ZM119.8,312c-2.4-.6-3-.9-3-1.8,0-.7.6-1.2,1.8-1.2a6.064,6.064,0,0,1,3.6,1.4l1.6-2.3a8.393,8.393,0,0,0-5.2-1.8c-2.9,0-4.9,1.7-4.9,4.2,0,2.8,1.8,3.6,4.6,4.3,2.3.6,2.8,1,2.8,1.8s-.8,1.3-2,1.3a6.777,6.777,0,0,1-4.2-1.7l-1.8,2.2a8.91,8.91,0,0,0,6,2.2c3,0,5.1-1.6,5.1-4.3.1-2.6-1.5-3.6-4.4-4.3Zm10.2,2.7h6.6v-2.8H130v-2.8h7.5v-2.8H127v14h10.6v-2.7H130Zm22.1-3.7a4.076,4.076,0,0,0-1.2-3.2,5.643,5.643,0,0,0-4.1-1.4h-6.4v14h3.1v-4.5h2.4l3,4.5h3.6l-3.4-5a4.4,4.4,0,0,0,3-4.4Zm-3.1.2c0,1.2-.9,2-2.4,2h-3.1v-4h3.1C148,309.1,149,309.8,149,311.2Zm11.7,5-3.6-9.9h-3.4l5.6,14.1h2.8l5.6-14.1h-3.3Zm9.3-9.9h3.1v14H170Zm13.3,11.4a4.411,4.411,0,0,1,0-8.8,5.187,5.187,0,0,1,3.6,1.6l2-2.3a7.5,7.5,0,0,0-12.8,5.1,7.108,7.108,0,0,0,7.2,7.2,7.5,7.5,0,0,0,5.8-2.5l-2-2a5.166,5.166,0,0,1-3.8,1.7Zm11.2-3h6.6v-2.8h-6.6v-2.8H202v-2.8H191.4v14h10.7v-2.7h-7.6Zm22.1-8.4h-5.7v14H214v-4.2h2.3c3.1,0,5.7-1.7,5.7-4.9-.1-2.9-2.1-4.9-5.4-4.9Zm2.2,5a2.14,2.14,0,0,1-2.4,2.1H214v-4.3h2.4c1.5,0,2.4.7,2.4,2.2Zm17.1-.3a4.076,4.076,0,0,0-1.2-3.2,5.643,5.643,0,0,0-4.1-1.4h-6.4v14h3.1v-4.5h2.4l3,4.5h3.6l-3.4-5a4.4,4.4,0,0,0,3-4.4Zm-3.1.2c0,1.2-.9,2-2.4,2h-3.1v-4h3.1C231.9,309.1,232.8,309.8,232.8,311.2Zm12.8-5.1a7.323,7.323,0,0,0-7.5,7.3,7.156,7.156,0,0,0,7.4,7.2,7.323,7.323,0,0,0,7.5-7.3A7.156,7.156,0,0,0,245.6,306.1Zm4.2,7.3a4.2,4.2,0,1,1-4.2-4.4A4.153,4.153,0,0,1,249.8,313.4Zm11.8,2.8-3.7-9.9h-3.4l5.7,14.1h2.7l5.7-14.1h-3.3Zm9.3-9.9H274v14h-3.1Zm12.1,0h-5.5v14H283c4.4,0,7.5-3.1,7.5-7C290.4,309.3,287.4,306.3,283,306.3Zm4.2,7.1a3.989,3.989,0,0,1-4.2,4.2h-2.4v-8.5H283A4.069,4.069,0,0,1,287.2,313.4Zm9,1.3h6.6v-2.8h-6.6v-2.8h7.5v-2.8H293.2v14h10.6v-2.7h-7.6Zm22.1-3.7a4.076,4.076,0,0,0-1.2-3.2,5.643,5.643,0,0,0-4.1-1.4h-6.4v14h3.1v-4.5h2.4l3,4.5h3.6l-3.4-5A4.4,4.4,0,0,0,318.3,311Zm-3.1.2c0,1.2-.9,2-2.4,2h-3.1v-4h3.1C314.2,309.1,315.2,309.8,315.2,311.2Z" fill="#427af4"/>
    <path id="Path_11" data-name="Path 11" d="M102.3,217.3v33.2h6.4V240.3a22.738,22.738,0,0,1,2.2,2.2c.7.9,1.4,1.7,2.1,2.7.7.9,1.3,1.9,1.9,2.8s1.1,1.8,1.6,2.5h7.3c-.5-1-1.1-2-1.8-3.2s-1.5-2.4-2.3-3.5c-.9-1.2-1.7-2.3-2.6-3.4s-1.8-2.1-2.6-2.9c1.7-1.7,3.3-3.4,4.7-5s2.9-3.3,4.4-5.1H116c-.4.5-.9,1.1-1.4,1.8-.6.7-1.1,1.4-1.8,2.1-.6.7-1.3,1.5-1.9,2.3-.7.8-1.3,1.5-1.9,2.2V216.4l-6.7.9Zm24.1,10v12.9a20.429,20.429,0,0,0,.5,4.4,7.668,7.668,0,0,0,1.6,3.4,6.22,6.22,0,0,0,3,2.2,13.367,13.367,0,0,0,4.8.8,31.171,31.171,0,0,0,5.4-.4q2.55-.45,4.2-.9V227.3h-6.4v17.9c-.4.1-.9.1-1.4.2-.5,0-1,.1-1.5.1a3.146,3.146,0,0,1-3-1.4,10.224,10.224,0,0,1-.8-4.6V227.4h-6.4Zm25.4-10v32.4c.6.2,1.2.3,2,.5a15.718,15.718,0,0,0,2.3.4c.8.1,1.6.2,2.5.3a19.268,19.268,0,0,0,2.4.1,13.11,13.11,0,0,0,5-.9,10.77,10.77,0,0,0,3.7-2.4,10.476,10.476,0,0,0,2.3-3.8,15.88,15.88,0,0,0,.8-5,19.581,19.581,0,0,0-.6-5,10.435,10.435,0,0,0-1.9-3.8,7.257,7.257,0,0,0-3.1-2.4,9.279,9.279,0,0,0-4.2-.9,10.075,10.075,0,0,0-2.5.3,14.16,14.16,0,0,0-2.2.7V216.2l-6.5,1.1Zm7.9,15.3a6.279,6.279,0,0,1,1.9-.3c3,0,4.5,2.1,4.5,6.4a8.121,8.121,0,0,1-1.3,4.9,4.653,4.653,0,0,1-3.9,1.9,8.083,8.083,0,0,1-1.6-.1,3.73,3.73,0,0,1-1.2-.2v-12c.5-.2,1-.4,1.6-.6Zm37.9,7.2v-1.3c0-3.9-.9-6.9-2.8-8.9a9.941,9.941,0,0,0-7.6-3,10.974,10.974,0,0,0-4,.8,9.756,9.756,0,0,0-3.4,2.3,10.767,10.767,0,0,0-2.4,3.9,14.533,14.533,0,0,0-.9,5.4,15.071,15.071,0,0,0,.7,4.8,10.267,10.267,0,0,0,2.2,3.8,9.7,9.7,0,0,0,3.7,2.5,14.351,14.351,0,0,0,5.3.9,19.267,19.267,0,0,0,2.4-.1c.8-.1,1.5-.2,2.2-.3a10.549,10.549,0,0,0,1.9-.5c.6-.2,1-.4,1.4-.5l-.9-5.3a11.985,11.985,0,0,1-2.8.8,19.53,19.53,0,0,1-3.4.3,7.391,7.391,0,0,1-4.4-1.2A4.233,4.233,0,0,1,183,241h14.4a2.165,2.165,0,0,0,.2-1.2Zm-14.5-3.3a10.462,10.462,0,0,1,.4-1.7,3.923,3.923,0,0,1,.8-1.4,4.486,4.486,0,0,1,1.3-1,4.777,4.777,0,0,1,1.8-.4,3.807,3.807,0,0,1,1.9.4,4,4,0,0,1,1.2,1,3.694,3.694,0,0,1,.7,1.4,9.006,9.006,0,0,1,.3,1.6h-8.4Zm29.9-9.6c-.5,0-.9-.1-1.2-.1a21.207,21.207,0,0,0-5.2.6,40.19,40.19,0,0,0-4,1.2v22H209V232.9a3.918,3.918,0,0,1,1.3-.2,7.6,7.6,0,0,1,1.4-.1,19.483,19.483,0,0,1,2.5.2c.8.2,1.4.3,2,.5l1.1-5.4c-.3-.1-.8-.3-1.2-.4l-1.5-.3A4.973,4.973,0,0,0,213,226.9Zm27,23.6V237.4a18.8,18.8,0,0,0-.5-4.3,8.221,8.221,0,0,0-1.6-3.4,6.921,6.921,0,0,0-3-2.2,13.367,13.367,0,0,0-4.8-.8,31.171,31.171,0,0,0-5.4.4q-2.55.45-4.2.9v22.4h6.4V232.5c.4-.1.9-.1,1.4-.2.5,0,1-.1,1.5-.1,1.5,0,2.5.4,3,1.3a9.736,9.736,0,0,1,.8,4.5v12.3H240Zm25.8-10.7v-1.3c0-3.9-.9-6.9-2.8-8.9a9.941,9.941,0,0,0-7.6-3,10.974,10.974,0,0,0-4,.8,9.756,9.756,0,0,0-3.4,2.3,10.767,10.767,0,0,0-2.4,3.9,14.533,14.533,0,0,0-.9,5.4,15.071,15.071,0,0,0,.7,4.8,10.267,10.267,0,0,0,2.2,3.8,9.7,9.7,0,0,0,3.7,2.5,14.351,14.351,0,0,0,5.3.9,19.267,19.267,0,0,0,2.4-.1c.8-.1,1.5-.2,2.2-.3a10.549,10.549,0,0,0,1.9-.5c.6-.2,1-.4,1.4-.5l-.9-5.3a11.985,11.985,0,0,1-2.8.8,19.529,19.529,0,0,1-3.4.3,7.391,7.391,0,0,1-4.4-1.2,4.233,4.233,0,0,1-1.8-3.2h14.4c.1-.3.1-.7.2-1.2Zm-14.6-3.3a10.462,10.462,0,0,1,.4-1.7,3.923,3.923,0,0,1,.8-1.4,4.486,4.486,0,0,1,1.3-1,4.777,4.777,0,0,1,1.8-.4,3.807,3.807,0,0,1,1.9.4,4,4,0,0,1,1.2,1,3.694,3.694,0,0,1,.7,1.4c.1.5.2,1.1.3,1.6h-8.4Zm19.3-15V241a17.282,17.282,0,0,0,.4,4.1,8.442,8.442,0,0,0,1.4,3.2,6.829,6.829,0,0,0,2.7,2,10.754,10.754,0,0,0,4.3.7,12.037,12.037,0,0,0,3.5-.4,19.753,19.753,0,0,0,2.6-.8l-.9-5.1c-.6.2-1.3.4-2,.6a7.487,7.487,0,0,1-2.1.2c-1.4,0-2.4-.4-2.8-1.2a6.228,6.228,0,0,1-.7-3.3v-8.2h7.6v-5.5h-7.6v-6.8Zm38.4,18.3v-1.3c0-3.9-.9-6.9-2.8-8.9a9.941,9.941,0,0,0-7.6-3,10.973,10.973,0,0,0-4,.8,9.756,9.756,0,0,0-3.4,2.3,10.767,10.767,0,0,0-2.4,3.9,14.533,14.533,0,0,0-.9,5.4,15.071,15.071,0,0,0,.7,4.8,10.267,10.267,0,0,0,2.2,3.8,9.7,9.7,0,0,0,3.7,2.5,14.351,14.351,0,0,0,5.3.9,19.267,19.267,0,0,0,2.4-.1c.8-.1,1.5-.2,2.2-.3a10.549,10.549,0,0,0,1.9-.5c.6-.2,1-.4,1.4-.5l-.9-5.3a11.985,11.985,0,0,1-2.8.8,19.529,19.529,0,0,1-3.4.3,7.391,7.391,0,0,1-4.4-1.2,4.233,4.233,0,0,1-1.8-3.2h14.4a3.729,3.729,0,0,0,.2-1.2Zm-14.5-3.3a10.464,10.464,0,0,1,.4-1.7,3.924,3.924,0,0,1,.8-1.4,6.42,6.42,0,0,1,1.3-1,4.777,4.777,0,0,1,1.8-.4,3.807,3.807,0,0,1,1.9.4,4,4,0,0,1,1.2,1,3.694,3.694,0,0,1,.7,1.4c.1.5.2,1.1.3,1.6h-8.4Zm28.4,8.9a6.733,6.733,0,0,1-2.5.4,13.69,13.69,0,0,1-3.4-.4,31.8,31.8,0,0,1-3.3-1l-1.1,5.3c.5.2,1.4.5,2.8.9a17.914,17.914,0,0,0,5,.5,12.227,12.227,0,0,0,7.1-1.8,5.9,5.9,0,0,0,2.5-5.2,10.32,10.32,0,0,0-.3-2.6,5.64,5.64,0,0,0-1.1-2,6.714,6.714,0,0,0-2.2-1.7c-.9-.5-2.1-1-3.5-1.6-.7-.3-1.2-.5-1.7-.7a4.372,4.372,0,0,1-1-.6,1.333,1.333,0,0,1-.5-.6,1.483,1.483,0,0,1-.1-.7c0-1.1,1-1.7,3-1.7a12.31,12.31,0,0,1,2.9.3,13.7,13.7,0,0,1,2.4.7l1.1-5.1a12.611,12.611,0,0,0-3-.8,17.223,17.223,0,0,0-3.9-.4,10.059,10.059,0,0,0-6.5,1.9,6.316,6.316,0,0,0-2.4,5.2,8.362,8.362,0,0,0,.5,2.9,7.434,7.434,0,0,0,1.3,2.1,8.008,8.008,0,0,0,2.1,1.5q1.2.6,2.7,1.2a21.443,21.443,0,0,1,2.9,1.3,1.74,1.74,0,0,1,.9,1.4,1.269,1.269,0,0,1-.7,1.3Z" fill="#fff"/>
  </g>
</svg>
