<?xml version="1.0" encoding="utf-8"?>
<!-- Generator: Adobe Illustrator 16.0.0, SVG Export Plug-In . SVG Version: 6.00 Build 0)  -->
<!DOCTYPE svg PUBLIC "-//W3C//DTD SVG 1.1//EN" "http://www.w3.org/Graphics/SVG/1.1/DTD/svg11.dtd">
<svg version="1.1" id="Layer_1" xmlns="http://www.w3.org/2000/svg" xmlns:xlink="http://www.w3.org/1999/xlink" x="0px" y="0px"
	 width="60px" height="60px" viewBox="0 0 60 60" enable-background="new 0 0 60 60" xml:space="preserve">
<path fill="none" stroke="#3F3F3F" stroke-linecap="round" stroke-linejoin="round" stroke-miterlimit="10" d="M23.047,42.593
	c9.865,0.035,24.458-0.105,25.188-0.325c1.214-0.366,4.071-1.868,4.187-6.489c0.148-5.862-4.956-6.149-5.714-6.297
	c-0.759-0.146-0.779-5.296-4.431-8.181c-2.638-2.083-6.881-1.096-6.881-1.096s-3.673-7.452-10.729-6.94
	c-9.108,0.658-10.322,13.483-10.322,13.483s-6.122,0.353-6.529,6.207c-0.41,5.855,2.507,8.801,4.839,9.313
	c0.616,0.136-0.43,0.224,3.22,0.274"/>
<rect x="26" y="24" fill="#1E86D5" stroke="#3F3F3F" stroke-linecap="round" stroke-linejoin="round" stroke-miterlimit="10" width="15" height="26"/>
<g>
	<g>
		<path fill="none" stroke="#3F3F3F" stroke-width="2" stroke-linecap="round" stroke-linejoin="round" d="M19.074,33.102
			l0.329,10.275C19.456,45.025,20.625,46.5,22,46.5s2.5,0,2.5,0"/>
		<g>
			<polygon fill="#3F3F3F" points="15.814,36.942 19.093,33.441 22.592,36.723 22.499,33.846 19,30.566 15.721,34.065 			"/>
		</g>
	</g>
</g>
<rect x="29" y="27" fill="#8EC2EA" stroke="#3F3F3F" stroke-linecap="round" stroke-linejoin="round" stroke-miterlimit="10" width="9" height="4"/>
<circle fill="#8EC2EA" stroke="#3F3F3F" stroke-linecap="round" stroke-linejoin="round" stroke-miterlimit="10" cx="33.31" cy="38.625" r="1.625"/>
</svg>
