<svg height='100px' width='100px'  fill="#000000" xmlns="http://www.w3.org/2000/svg" xmlns:xlink="http://www.w3.org/1999/xlink" version="1.1" x="0px" y="0px" viewBox="0 0 60 60" style="enable-background:new 0 0 60 60;" xml:space="preserve"><path d="M49.5830078,5c-2.9863281,0-5.4160156,2.4296875-5.4160156,5.4165039c0,1.1326904,0.350708,2.1842651,0.9473877,3.0545654  l-8.9158325,8.9158325C34.5063477,21.0065308,32.348938,20.1757813,30,20.1757813  c-1.4882202,0-2.8947144,0.3422852-4.1600342,0.9371338l-3.986084-6.651123  c1.1175537-0.9929199,1.8267822-2.4360962,1.8267822-4.0452881C23.6806641,7.4296875,21.2509766,5,18.2646484,5  c-2.9873047,0-5.4169922,2.4296875-5.4169922,5.4165039s2.4296875,5.4165039,5.4169922,5.4165039  c0.6599121,0,1.289856-0.1245117,1.8751831-0.3416138l3.9867554,6.6522217  C21.7338257,23.9371338,20.1757813,26.786438,20.1757813,30c0,1.3106689,0.2628174,2.5598755,0.7307129,3.7041626  l-6.2644043,3.3322144C13.6486816,35.796936,12.1251831,35,10.4169922,35C7.4296875,35,5,37.4296875,5,40.4165039  s2.4296875,5.4165039,5.4169922,5.4165039c2.9863281,0,5.4160156-2.4296875,5.4160156-5.4165039  c0-0.5630493-0.086731-1.1061401-0.2468262-1.6170044l6.2585449-3.3290405  C23.6104126,38.0939941,26.6066895,39.8237305,30,39.8237305c1.864624,0,3.6032104-0.5316162,5.0899658-1.4373779  l5.7209473,7.5617065c-0.8743896,0.9622803-1.4124756,2.2353516-1.4124756,3.6349487  C39.3984375,52.5698242,41.828125,55,44.8154297,55c2.9863281,0,5.4160156-2.4301758,5.4160156-5.4169922  s-2.4296875-5.4165039-5.4160156-5.4165039c-0.8665161,0-1.6831665,0.2095337-2.4101563,0.5726929l-5.7203979-7.5609131  C38.6108398,35.383667,39.8242188,32.8339233,39.8242188,30c0-2.3491821-0.8309326-4.5068359-2.2115479-6.1990967  l8.9156494-8.9156494c0.8703613,0.5969238,1.9219971,0.9477539,3.0546875,0.9477539  C52.5703125,15.8330078,55,13.4033203,55,10.4165039S52.5703125,5,49.5830078,5z M14.8476563,10.4165039  C14.8476563,8.5327148,16.3808594,7,18.2646484,7s3.4160156,1.5327148,3.4160156,3.4165039  s-1.5322266,3.4165039-3.4160156,3.4165039S14.8476563,12.300293,14.8476563,10.4165039z M10.4169922,43.8330078  C8.5332031,43.8330078,7,42.300293,7,40.4165039S8.5332031,37,10.4169922,37s3.4160156,1.5327148,3.4160156,3.4165039  S12.3007813,43.8330078,10.4169922,43.8330078z M48.2314453,49.5830078C48.2314453,51.4672852,46.6992188,53,44.8154297,53  s-3.4169922-1.5327148-3.4169922-3.4169922c0-1.8837891,1.5332031-3.4165039,3.4169922-3.4165039  S48.2314453,47.6992188,48.2314453,49.5830078z M30,37.8237305c-4.3144531,0-7.8242188-3.5097656-7.8242188-7.8237305  c0-4.3144531,3.5097656-7.8242188,7.8242188-7.8242188S37.8242188,25.6855469,37.8242188,30  C37.8242188,34.3139648,34.3144531,37.8237305,30,37.8237305z M49.5830078,13.8330078  c-1.8837891,0-3.4160156-1.5327148-3.4160156-3.4165039S47.6992188,7,49.5830078,7S53,8.5327148,53,10.4165039  S51.4667969,13.8330078,49.5830078,13.8330078z"></path></svg>