<svg height='100px' width='100px'  fill="#000000" xmlns:dc="http://purl.org/dc/elements/1.1/" xmlns:cc="http://creativecommons.org/ns#" xmlns:rdf="http://www.w3.org/1999/02/22-rdf-syntax-ns#" xmlns:svg="http://www.w3.org/2000/svg" xmlns="http://www.w3.org/2000/svg" xmlns:sodipodi="http://sodipodi.sourceforge.net/DTD/sodipodi-0.dtd" xmlns:inkscape="http://www.inkscape.org/namespaces/inkscape" version="1.1" x="0px" y="0px" viewBox="0 0 100 100"><g transform="translate(0,-952.36218)"><path style="text-indent:0;text-transform:none;direction:ltr;block-progression:tb;baseline-shift:baseline;color:#000000;enable-background:accumulate;" d="m 50.718801,976.49098 45,17 c 0.7396,0.2932 1.263,1.0637 1.263,1.8594 0,0.7956 -0.5234,1.5661 -1.263,1.8593 l -5.7188,2.1563 0,10.78122 c 0.6089,0.5491 1,1.3343 1,2.2188 0,1.6569 -1.3432,3 -3,3 -1.6568,0 -3,-1.3431 -3,-3 0,-0.8845 0.3911,-1.6697 1,-2.2188 l 0,-9.2812 -6.9062,2.625 0.9062,12.7188 c 0.1493,2.0898 -1.1697,3.7006 -2.8125,5.0312 -1.642799,1.3306 -3.8456,2.4892 -6.5313,3.5312 -5.3712,2.0841 -12.6499,3.5938 -20.6562,3.5938 -8.0063,0 -15.285,-1.5097 -20.6562,-3.5938 -2.6857,-1.042 -4.888499,-2.2006 -6.5313,-3.5312 -1.642799,-1.3306 -2.9618,-2.9414 -2.8125,-5.0312 l 0.9062,-12.7188 -16.6249993,-6.28132 c -0.7396,-0.2932 -1.263003,-1.0637 -1.263003,-1.8593 0,-0.7957 0.523403,-1.5662 1.263003,-1.8594 l 44.9999993,-17 c 0.5914,-0.24275 1.1017,-0.0963 1.4376,0 z m -0.7188,4 -39.375,14.875 39.375,14.84382 39.375,-14.84382 z m 25.1875,24.46882 -24.4687,9.25 c -0.4574,0.1761 -0.980199,0.1761 -1.4376,0 l -24.4687,-9.25 -0.8125,11.5312 c 10e-5,0 0.1571,0.6892 1.3125,1.625 1.1554,0.9358 3.0563,2.0015 5.4687,2.9375 4.8253,1.8721 11.7131,3.3125 19.2188,3.3125 7.5057,0 14.3935,-1.4404 19.2188,-3.3125 2.412401,-0.936 4.3133,-2.0017 5.4687,-2.9375 1.1554,-0.9358 1.3124,-1.627 1.3125,-1.625 z" fill="#000000" fill-opacity="1" stroke="none" marker="none" visibility="visible" display="inline" overflow="visible"></path></g></svg>