<svg height='100px' width='100px'  fill="#000000" xmlns:dc="http://purl.org/dc/elements/1.1/" xmlns:cc="http://creativecommons.org/ns#" xmlns:rdf="http://www.w3.org/1999/02/22-rdf-syntax-ns#" xmlns:svg="http://www.w3.org/2000/svg" xmlns="http://www.w3.org/2000/svg" xmlns:sodipodi="http://sodipodi.sourceforge.net/DTD/sodipodi-0.dtd" xmlns:inkscape="http://www.inkscape.org/namespaces/inkscape" version="1.1" x="0px" y="0px" viewBox="0 0 100 100"><g transform="translate(0,-952.36218)"><path style="text-indent:0;text-transform:none;direction:ltr;block-progression:tb;baseline-shift:baseline;color:#000000;enable-background:accumulate;" d="m 17.997124,968.36218 c -4.393015,0 -7.997134,3.60541 -7.997134,8 0,4.39459 3.604119,8 7.997134,8 4.393014,0 7.997134,-3.60541 7.997134,-8 0,-4.39459 -3.60412,-8 -7.997134,-8 z m 25.772015,0.96875 a 1.9994834,2.0002 0 0 0 -1.187075,3.4375 l 4.592105,4.59375 -4.592105,4.5625 a 1.9994834,2.0002 0 1 0 2.811493,2.84375 l 4.592103,-4.59375 4.592105,4.59375 a 1.9994834,2.0002 0 1 0 2.811493,-2.84375 l -4.592105,-4.5625 4.592105,-4.59375 a 1.9994834,2.0002 0 0 0 -1.655657,-3.4375 1.9994834,2.0002 0 0 0 -1.155836,0.59375 l -4.592105,4.59375 -4.592103,-4.59375 a 1.9994834,2.0002 0 0 0 -1.624418,-0.59375 z m -25.772015,3.03125 c 2.232029,0 3.998568,1.76717 3.998568,4 0,2.23283 -1.766539,4 -3.998568,4 -2.232028,0 -3.998567,-1.76717 -3.998567,-4 0,-2.23283 1.766539,-4 3.998567,-4 z m 6.810059,15 a 1.9994834,2.0002 0 0 0 -1.81185,2 l 0,11.00002 a 1.9994834,2.0002 0 1 0 3.998567,0 l 0,-5.90627 c 5.650683,6.53267 10.642445,9.79327 15.244537,11.18747 5.02454,1.5223 9.410314,0.8097 13.182776,0.375 3.772462,-0.4346 6.86462,-0.6245 10.340044,1.25 3.271734,1.7648 7.084607,5.6324 11.620836,13.5625 -2.059141,1.4543 -3.40503,3.8396 -3.40503,6.5313 0,4.3946 3.604119,8 7.997134,8 4.393016,0 7.997135,-3.6054 7.997135,-8 0,-4.3946 -3.604119,-8 -7.997135,-8 -0.274563,0 -0.544449,0 -0.812208,0.031 -4.870739,-8.6549 -9.200537,-13.3231 -13.526403,-15.6562 -4.496503,-2.4252 -8.790309,-2.136 -12.682955,-1.6875 -3.892646,0.4485 -7.477018,1.0176 -11.558358,-0.2188 -3.828052,-1.1597 -8.268801,-4.0073 -13.745074,-10.46872 l 5.341835,0 a 1.9994834,2.0002 0 1 0 0,-4 l -9.996417,0 a 1.9994834,2.0002 0 0 0 -0.187434,0 z m 57.167014,0 c -4.393015,0 -7.997134,3.60541 -7.997134,8 0,4.39459 3.604119,8.00002 7.997134,8.00002 4.393016,0 7.997135,-3.60543 7.997135,-8.00002 0,-4.39459 -3.604119,-8 -7.997135,-8 z m 0,4 c 2.232029,0 3.998568,1.76717 3.998568,4 0,2.23283 -1.766539,4 -3.998568,4 -2.232028,0 -3.998567,-1.76717 -3.998567,-4 0,-2.23283 1.766539,-4 3.998567,-4 z m -70.193595,14.96872 a 1.9994834,2.0002 0 0 0 -1.187075,3.4375 l 4.592105,4.5938 -4.592105,4.5625 a 1.9994834,2.0002 0 1 0 2.811493,2.8437 l 4.592104,-4.5937 4.592105,4.5937 a 1.9994834,2.0002 0 1 0 2.811492,-2.8437 l -4.592104,-4.5625 4.592104,-4.5938 a 1.9994834,2.0002 0 0 0 -1.655656,-3.4375 1.9994834,2.0002 0 0 0 -1.155836,0.5938 l -4.592105,4.5937 -4.592104,-4.5937 a 1.9994834,2.0002 0 0 0 -1.624418,-0.5938 z m 38.205058,14.0313 c -4.393014,0 -7.997133,3.6054 -7.997133,8 0,4.3946 3.604119,8 7.997133,8 4.393016,0 7.997135,-3.6054 7.997135,-8 0,-4.3946 -3.604119,-8 -7.997135,-8 z m 31.988537,3 c 2.232029,0 3.998568,1.7671 3.998568,4 0,2.2328 -1.766539,4 -3.998568,4 -2.232028,0 -3.998567,-1.7672 -3.998567,-4 0,-2.2329 1.766539,-4 3.998567,-4 z m -31.988537,1 c 2.232029,0 3.998568,1.7671 3.998568,4 0,2.2328 -1.766539,4 -3.998568,4 -2.232027,0 -3.998566,-1.7672 -3.998566,-4 0,-2.2329 1.766539,-4 3.998566,-4 z" fill="#000000" fill-opacity="1" stroke="none" marker="none" visibility="visible" display="inline" overflow="visible"></path></g></svg>