<svg height='100px' width='100px'  fill="#000000" xmlns="http://www.w3.org/2000/svg" xmlns:xlink="http://www.w3.org/1999/xlink" version="1.1" x="0px" y="0px" viewBox="0 0 139 139" enable-background="new 0 0 139 139" xml:space="preserve"><path d="M69.5,8.666c-33.544,0-60.834,27.29-60.834,60.834s27.29,60.834,60.834,60.834s60.834-27.29,60.834-60.834  S103.044,8.666,69.5,8.666z M69.5,124.334c-30.235,0-54.834-24.599-54.834-54.834S39.265,14.666,69.5,14.666  s54.834,24.599,54.834,54.834S99.735,124.334,69.5,124.334z"></path><path d="M97.676,41.324c-7.525-7.526-17.531-11.67-28.175-11.67c-10.644,0-20.65,4.145-28.176,11.671  c-15.537,15.536-15.537,40.815,0,56.351c7.525,7.526,17.532,11.671,28.175,11.671c10.644,0,20.65-4.146,28.176-11.672  c7.526-7.525,11.671-17.531,11.671-28.175C109.346,58.856,105.201,48.85,97.676,41.324z M95.454,91.212L84.146,79.903  c4.414-6.21,4.414-14.597,0-20.807l11.31-11.31C105.945,60.31,105.945,78.689,95.454,91.212z M57.517,69.5  c0-3.201,1.247-6.21,3.51-8.473c2.264-2.263,5.273-3.51,8.474-3.51c3.201,0,6.21,1.247,8.474,3.51  c4.672,4.672,4.672,12.274,0,16.947c-2.264,2.264-5.272,3.51-8.473,3.51c-3.201,0-6.21-1.246-8.474-3.51  C58.763,75.71,57.517,72.7,57.517,69.5z M91.216,43.542l-11.31,11.309c-3.021-2.156-6.619-3.334-10.406-3.334  c-3.786,0-7.385,1.178-10.406,3.334L47.786,43.543c6.08-5.104,13.682-7.89,21.715-7.89S85.136,38.439,91.216,43.542z M43.545,47.788  l11.306,11.306c-2.156,3.021-3.334,6.619-3.334,10.406c0,3.788,1.178,7.385,3.334,10.407L43.545,91.213  C33.054,78.69,33.054,60.311,43.545,47.788z M47.785,95.457l11.309-11.309c3.021,2.156,6.62,3.335,10.407,3.335  s7.385-1.179,10.406-3.335l11.309,11.309c-6.08,5.104-13.683,7.89-21.716,7.89C61.466,103.347,53.864,100.562,47.785,95.457z"></path></svg>