<svg height='100px' width='100px'  fill="#000000" xmlns="http://www.w3.org/2000/svg" xmlns:xlink="http://www.w3.org/1999/xlink" version="1.1" x="0px" y="0px" viewBox="0 0 100 100" style="enable-background:new 0 0 100 100;" xml:space="preserve"><g><path d="M88.6879883,71.2104492c-0.2333984-2.0527344-1.1318359-3.9189453-2.6015625-5.3994141   c-0.625-0.6254883-1.340332-1.1547852-2.1157227-1.5683594c-0.2027588-0.1105347-0.4168701-0.197876-0.6276245-0.2921753   c0.4024658-0.3397217,0.7658691-0.730896,1.0675659-1.1799927c0.6376953-0.9506836,0.9746094-2.0571289,0.9746094-3.199707   s-0.3369141-2.2490234-0.9750977-3.2006836c-1.0668945-1.5878906-2.8466797-2.5356445-4.7612305-2.5356445   c-3.1630859,0-5.7363281,2.5732422-5.7363281,5.7363281c0,1.7515869,0.7911987,3.3199463,2.0325317,4.3729858   c-1.7360229,0.7774658-3.1813354,2.0824585-4.1389771,3.7110596c-0.3883057-0.6627808-0.8630371-1.2814331-1.4213867-1.843811   c-0.625-0.6254883-1.340332-1.1547852-2.1157227-1.5683594c-0.2027588-0.1105347-0.4168701-0.197876-0.6276245-0.2921753   c0.4024658-0.3397217,0.7658691-0.730896,1.0675659-1.1799927c0.6376953-0.9506836,0.9746094-2.0571289,0.9746094-3.199707   s-0.3369141-2.2490234-0.9750977-3.2006836c-1.0668945-1.5878906-2.8466797-2.5356445-4.7612305-2.5356445   c-3.1630859,0-5.7363281,2.5732422-5.7363281,5.7363281c0,1.7515869,0.7911987,3.3199463,2.0325317,4.3729858   c-1.7360229,0.7774658-3.1813354,2.0824585-4.1389771,3.7110596c-0.3883057-0.6627808-0.8630371-1.2814331-1.4213867-1.843811   c-0.625-0.6254883-1.340332-1.1547852-2.1157227-1.5683594c-0.2027588-0.1105347-0.4168701-0.197876-0.6276245-0.2921753   c0.4024658-0.3397217,0.7658691-0.730896,1.0675659-1.1799927c0.6376953-0.9506836,0.9746094-2.0571289,0.9746094-3.199707   s-0.3369141-2.2490234-0.9750977-3.2006836c-1.0668945-1.5878906-2.8466797-2.5356445-4.7612305-2.5356445   c-3.1630859,0-5.7363281,2.5732422-5.7363281,5.7363281c0,1.7515259,0.7911377,3.3198242,2.0324097,4.3728638   c-3.1758423,1.4220581-5.3971558,4.6063843-5.3971558,8.3053589v7.8505859c0,0.6904297,0.5595703,1.25,1.25,1.25h15.7021484   h15.7016602H87.5c0.6904297,0,1.25-0.5595703,1.25-1.25v-7.8505859C88.75,71.8920898,88.7290039,71.5458984,88.6879883,71.2104492z    M79.6489258,56.3344727c1.0805664,0,2.0844727,0.534668,2.6855469,1.4291992   c0.3603516,0.5371094,0.5507813,1.1621094,0.5507813,1.8071289s-0.1904297,1.2700195-0.550293,1.8061523   c-0.6015625,0.8955078-1.6054688,1.4301758-2.6860352,1.4301758c-1.784668,0-3.2363281-1.4516602-3.2363281-3.2363281   S77.8642578,56.3344727,79.6489258,56.3344727z M63.9472656,56.3344727c1.0805664,0,2.0844727,0.534668,2.6855469,1.4291992   c0.3603516,0.5371094,0.5507813,1.1621094,0.5507813,1.8071289s-0.1904297,1.2700195-0.550293,1.8061523   c-0.6015625,0.8955078-1.6054688,1.4301758-2.6860352,1.4301758c-1.784668,0-3.2363281-1.4516602-3.2363281-3.2363281   S62.1625977,56.3344727,63.9472656,56.3344727z M48.2456055,56.3344727c1.0805664,0,2.0844727,0.534668,2.6855469,1.4291992   c0.3603516,0.5371094,0.5507813,1.1621094,0.5507813,1.8071289s-0.1904297,1.2700195-0.550293,1.8061523   c-0.6015625,0.8955078-1.6054688,1.4301758-2.6860352,1.4301758c-1.784668,0-3.2363281-1.4516602-3.2363281-3.2363281   S46.4609375,56.3344727,48.2456055,56.3344727z M41.6445313,72.2490234c0-3.6396484,2.9614258-6.6010742,6.6010742-6.6010742   c1.0966797,0,2.1772461,0.2729492,3.1352539,0.7954102c0.5673828,0.3027344,1.0839844,0.6845703,1.53125,1.1318359   c1.065918,1.0742188,1.7192383,2.4291992,1.8896484,3.9277344c0.0297852,0.2460938,0.0449219,0.4926758,0.0449219,0.7460938   v6.6005859H41.6445313V72.2490234z M57.3466797,72.2490234c0-3.6396484,2.9609375-6.6010742,6.6005859-6.6010742   c1.0966797,0,2.1772461,0.2729492,3.1352539,0.7954102c0.5673828,0.3027344,1.0839844,0.6845703,1.53125,1.1318359   c1.065918,1.0742188,1.7192383,2.4291992,1.8896484,3.9277344c0.0297852,0.2460938,0.0449219,0.4926758,0.0449219,0.7460938   v6.6005859H57.3466797V72.2490234z M86.25,78.8496094H73.0483398v-6.6005859c0-3.6396484,2.9609375-6.6010742,6.6005859-6.6010742   c1.0966797,0,2.1772461,0.2729492,3.1352539,0.7954102c0.5673828,0.3027344,1.0839844,0.6845703,1.53125,1.1318359   c1.065918,1.0742188,1.7192383,2.4291992,1.8896484,3.9277344C86.2348633,71.7490234,86.25,71.9956055,86.25,72.2490234V78.8496094   z"></path><path d="M76.121582,52.1201172c0.6904297,0,1.25-0.5595703,1.25-1.25V19.9003906c0-0.6904297-0.5595703-1.25-1.25-1.25H29.9990234   c-0.6904297,0-1.25,0.5595703-1.25,1.25v6.43573c-1.28479-0.836853-2.7962036-1.3097534-4.3793945-1.3097534   c-4.4291992,0-8.0327148,3.6035156-8.0327148,8.0327148c0,2.852478,1.4989624,5.355896,3.7461548,6.7814941   C14.9503174,41.6226196,11.25,46.4952393,11.25,52.2270508v11.8696289c0,0.6904297,0.5595703,1.25,1.25,1.25h23.7392578   c0.6904297,0,1.25-0.5595703,1.25-1.25V52.2270508c0-0.036438-0.0060425-0.0706787-0.0063477-0.1069336H76.121582z    M31.2490234,21.1503906H74.871582v28.4697266H37.2260742c-0.0673218-0.3369751-0.1495972-0.6689453-0.2423096-0.9970703   c-0.0306396-0.1082764-0.0683594-0.213623-0.1017456-0.3208008c-0.0690308-0.222168-0.1400757-0.4435425-0.2207642-0.6610718   c-0.0452271-0.1220703-0.0960083-0.2415771-0.1449585-0.3620605c-0.0806274-0.1987305-0.1639404-0.3961182-0.2543335-0.5905151   c-0.057251-0.1230469-0.1176147-0.2444458-0.178772-0.3657227c-0.0948486-0.1882324-0.1942139-0.3740845-0.2983398-0.5578003   c-0.0258789-0.0455933-0.0476074-0.0932007-0.0740356-0.1384888l5.8311768-13.4771729   c0.2739258-0.6337891-0.0175781-1.3696289-0.6508789-1.644043c-0.6352539-0.2739258-1.3696289,0.0170898-1.644043,0.6508789   l-5.2588501,12.1553955c-0.1125488-0.1218872-0.2202148-0.2468872-0.3378296-0.3653564   c-0.3233032-0.3234863-0.6687622-0.6223145-1.0237427-0.9089355c-0.0737305-0.0595093-0.1466064-0.1193237-0.2216187-0.1771851   c-0.3535156-0.2728271-0.7189941-0.5290527-1.0988159-0.7637939c-0.0197754-0.0122681-0.0372925-0.0275879-0.0571899-0.0397339   v-3.8496094c0.0789185-0.1309204,0.1373901-0.270813,0.2084961-0.4053345   c0.0750732-0.1420288,0.1536255-0.2816772,0.2198486-0.4274292c0.0951538-0.2095337,0.1719971-0.4250488,0.2485352-0.6412964   c0.0499268-0.1409912,0.1071167-0.2788696,0.1490479-0.4223633c0.0710449-0.2432251,0.1193848-0.4918213,0.1670532-0.7411499   c0.0236206-0.1234741,0.0582275-0.2440186,0.0760498-0.3687134c0.053772-0.3762817,0.0842896-0.7571411,0.0842896-1.1416626   c0-0.3846436-0.0305176-0.765625-0.0842896-1.1420288c-0.0177612-0.1240234-0.0521851-0.2438965-0.0756226-0.3666992   c-0.0478516-0.2502441-0.0964355-0.4998779-0.1677246-0.7439575c-0.0414429-0.1419067-0.0980835-0.2782593-0.1473999-0.4177246   c-0.0771484-0.2181396-0.1546631-0.4354248-0.2506714-0.6466675c-0.0654907-0.144043-0.1431885-0.2820435-0.2173462-0.4225464   c-0.0715942-0.1356812-0.1306763-0.2767944-0.2102661-0.4088135V21.1503906z M28.6442261,39.8460693   c0.034668-0.0218506,0.0704346-0.0418701,0.1047974-0.06427v0.0978394   C28.7144775,39.8673706,28.678894,39.8580322,28.6442261,39.8460693z M24.3696289,27.5263672   c1.847168,0,3.5634766,0.9140625,4.5913086,2.4443359c0.6157227,0.9174805,0.9414063,1.9853516,0.9414063,3.0883789   c0,0.2756348-0.0203247,0.5491333-0.0604858,0.8186035c-0.1204834,0.8085327-0.4191284,1.5811768-0.8809204,2.2692871   c-0.0003662,0.0005493-0.0004272,0.0010986-0.0007935,0.0016479c-1.0285645,1.5296631-2.7440796,2.4431763-4.5905151,2.4431763   c-3.0507813,0-5.5327148-2.4819336-5.5327148-5.5327148S21.3188477,27.5263672,24.3696289,27.5263672z M34.9892578,62.8466797   H13.75V52.2270508c0-5.855957,4.7641602-10.6201172,10.6196289-10.6201172c1.7636719,0,3.503418,0.4399414,5.0410156,1.2773438   c0.9135742,0.4873047,1.7456055,1.1030273,2.46875,1.8266602c0.6862183,0.6912842,1.2606812,1.4578857,1.7268066,2.2792969   c0.5522461,0.9736328,0.9503784,2.0259399,1.1716309,3.1381836c0.0577393,0.2907715,0.1038208,0.5853271,0.1376953,0.8833008   c0,0.0002441,0.0001831,0.0003662,0.0001831,0.0006104c0.0003052,0.0027466,0.0009766,0.0054321,0.0012817,0.0081787   c0.0483398,0.402832,0.0722656,0.7973633,0.0722656,1.206543V62.8466797z"></path><path d="M44.012207,40.0429688h23.6083984c0.6904297,0,1.25-0.5595703,1.25-1.25s-0.5595703-1.25-1.25-1.25H44.012207   c-0.6904297,0-1.25,0.5595703-1.25,1.25S43.3217773,40.0429688,44.012207,40.0429688z"></path></g></svg>