<svg height='100px' width='100px'  fill="#fff" xmlns="http://www.w3.org/2000/svg" xmlns:xlink="http://www.w3.org/1999/xlink" version="1.1" x="0px" y="0px" viewBox="0 0 60 60" style="enable-background:new 0 0 60 60;" xml:space="preserve"><path d="M49.7910156,24.7915039c-2.5296631,0-4.638855,1.8139038-5.1069336,4.2084961h-3.9847412  c-0.2054443-2.2142944-1.0818481-4.236145-2.4281616-5.8572998l2.8189697-2.8195801  c0.8753662,0.5891113,1.8890381,0.8878174,2.9049683,0.8878174c1.3330078,0,2.6669922-0.5078125,3.6826172-1.5234375  c0.9833984-0.9833984,1.5253906-2.2915039,1.5253906-3.6826172s-0.5419922-2.6987305-1.5253906-3.6826172  c-2.03125-2.03125-5.3349609-2.0302734-7.3662109,0c-0.9833984,0.9838867-1.5253906,2.2915039-1.5253906,3.6826172  c0,1.0518188,0.3116455,2.0544434,0.8875122,2.9066162l-2.8165283,2.8171997  C35.236084,20.3825073,33.2142334,19.5061035,31,19.3006592v-3.9852905  c2.3944702-0.4682007,4.2080078-2.5776978,4.2080078-5.1073608C35.2080078,7.3364258,32.8720703,5,30,5  s-5.2089844,2.3364258-5.2089844,5.2080078c0,2.5296631,1.81427,4.6391602,4.2089844,5.1073608v3.9852905  c-2.2142334,0.2054443-4.236084,1.0818481-5.8571777,2.4281006l-2.8173218-2.8173218  c0.5758057-0.8521118,0.8873901-1.8547363,0.8873901-2.9065552c0-1.3911133-0.5419922-2.6987305-1.5253906-3.6826172  c-2.03125-2.03125-5.3339844-2.03125-7.3652344,0c-0.9833984,0.9838867-1.5253906,2.2915039-1.5253906,3.6826172  c0,1.3916016,0.5419922,2.6992188,1.5253906,3.6826172c1.015625,1.015625,2.3486328,1.5229492,3.6826172,1.5229492  c1.0158691,0,2.0289917-0.2987061,2.9039917-0.8875122l2.8198853,2.8198853  C20.3825073,24.763916,19.5061035,26.7857666,19.3006592,29h-3.9857178  c-0.4680786-2.3945923-2.5772705-4.2084961-5.1069336-4.2084961C7.3359375,24.7915039,5,27.1279297,5,30  c0,2.871582,2.3359375,5.2080078,5.2080078,5.2080078c2.5296021,0,4.6387939-1.8137817,5.1069336-4.2080078h3.9857178  c0.2054443,2.2141113,1.0817261,4.2359009,2.4278564,5.8569336l-2.819519,2.819519  c-2.024292-1.3626099-4.7976074-1.1535645-6.586731,0.6355591c-0.9833984,0.9833984-1.5253906,2.2910156-1.5253906,3.6826172  c0,1.3911133,0.5419922,2.6987305,1.5253906,3.6826172c1.015625,1.015625,2.3486328,1.5229492,3.6826172,1.5229492  s2.6669922-0.5073242,3.6826172-1.5229492c0.9833984-0.9838867,1.5253906-2.2915039,1.5253906-3.6826172  c0-1.0518188-0.3115845-2.0544434-0.8873901-2.9065552l2.8170776-2.8170776  C24.7637329,39.6173706,26.7856445,40.4938965,29,40.6993408v3.9848022  c-2.3947144,0.4682007-4.2089844,2.5776978-4.2089844,5.1073608C24.7910156,52.6635742,27.1279297,55,30,55  s5.2080078-2.3364258,5.2080078-5.2084961c0-2.5296631-1.8135376-4.6391602-4.2080078-5.1073608v-3.9848022  c2.2143555-0.2054443,4.2362671-1.0818481,5.8573608-2.4282227l2.8162231,2.8168945  c-0.5758057,0.8521118-0.8874512,1.8547974-0.8874512,2.9066162c0,1.3911133,0.5419922,2.6987305,1.5253906,3.6826172  c1.015625,1.015625,2.3496094,1.5234375,3.6835938,1.5234375c1.3330078,0,2.6669922-0.5078125,3.6826172-1.5234375  c0.9833984-0.9838867,1.5253906-2.2915039,1.5253906-3.6826172c0-1.3916016-0.5419922-2.6992188-1.5253906-3.6826172  c-1.7891846-1.7891846-4.5632935-1.9990234-6.5877686-0.6358032l-2.8185425-2.8192139  C39.6176147,35.2359619,40.4938965,33.2141724,40.6993408,31h3.9847412  c0.4681396,2.3942261,2.5773315,4.2080078,5.1069336,4.2080078C52.6630859,35.2080078,55,32.871582,55,30  C55,27.1279297,52.6630859,24.7915039,49.7910156,24.7915039z M41.7255859,13.7363281  c0.6259766-0.6254883,1.4472656-0.9384766,2.2685547-0.9384766c0.8222656,0,1.6435547,0.3129883,2.2695313,0.9384766  c0.6054688,0.605957,0.9394531,1.4116211,0.9394531,2.2685547s-0.3330078,1.6625977-0.9394531,2.2685547  c-1.2539063,1.2509766-3.2880859,1.25-4.5380859,0c-0.6064453-0.605957-0.9394531-1.4116211-0.9394531-2.2685547  S41.1201172,14.3422852,41.7255859,13.7363281z M26.7910156,10.2080078C26.7910156,8.4389648,28.2304688,7,30,7  c1.7685547,0,3.2080078,1.4389648,3.2080078,3.2080078S31.7685547,13.4165039,30,13.4165039  C28.2304688,13.4165039,26.7910156,11.9770508,26.7910156,10.2080078z M13.7363281,18.2734375  c-0.6064453-0.605957-0.9394531-1.4116211-0.9394531-2.2685547s0.3339844-1.6625977,0.9394531-2.2685547  c0.6259766-0.6254883,1.4472656-0.9379883,2.2685547-0.9379883s1.6425781,0.3125,2.2685547,0.9379883  c0.6054688,0.605957,0.9394531,1.4116211,0.9394531,2.2685547s-0.3330078,1.6625977-0.9394531,2.2685547  C17.0214844,19.5244141,14.9863281,19.5244141,13.7363281,18.2734375z M10.2080078,33.2080078  C8.4394531,33.2080078,7,31.769043,7,30s1.4394531-3.2084961,3.2080078-3.2084961S13.4160156,28.230957,13.4160156,30  S11.9765625,33.2080078,10.2080078,33.2080078z M18.2734375,46.2631836c-1.2519531,1.2509766-3.2851563,1.2509766-4.5371094,0  c-0.6054688-0.605957-0.9394531-1.4116211-0.9394531-2.2685547s0.3330078-1.6625977,0.9394531-2.2685547  c0.6259766-0.6254883,1.4472656-0.9379883,2.2685547-0.9379883s1.6435547,0.3125,2.2685547,0.9379883  c0.6064453,0.605957,0.9394531,1.4116211,0.9394531,2.2685547S18.8789063,45.6572266,18.2734375,46.2631836z M33.2080078,49.7915039  C33.2080078,51.5605469,31.7685547,53,30,53c-1.7695313,0-3.2089844-1.4394531-3.2089844-3.2084961  S28.2304688,46.5830078,30,46.5830078C31.7685547,46.5830078,33.2080078,48.0224609,33.2080078,49.7915039z M46.2636719,41.7260742  c0.6064453,0.605957,0.9394531,1.4116211,0.9394531,2.2685547s-0.3339844,1.6625977-0.9394531,2.2685547  c-1.2519531,1.2504883-3.2861328,1.2514648-4.5380859,0c-0.6054688-0.605957-0.9394531-1.4116211-0.9394531-2.2685547  s0.3330078-1.6625977,0.9394531-2.2685547c0.6259766-0.6254883,1.4472656-0.9384766,2.2685547-0.9384766  C44.8164063,40.7875977,45.6376953,41.1005859,46.2636719,41.7260742z M30,38.75c-4.8251953,0-8.75-3.925293-8.75-8.75  s3.9248047-8.75,8.75-8.75s8.75,3.925293,8.75,8.75S34.8251953,38.75,30,38.75z M49.7910156,33.2080078  c-1.7685547,0-3.2080078-1.4389648-3.2080078-3.2080078s1.4394531-3.2084961,3.2080078-3.2084961  C51.5605469,26.7915039,53,28.230957,53,30S51.5605469,33.2080078,49.7910156,33.2080078z"></path></svg>