<?xml version="1.0" encoding="utf-8"?>
<!-- Generator: Adobe Illustrator 16.0.0, SVG Export Plug-In . SVG Version: 6.00 Build 0)  -->
<!DOCTYPE svg PUBLIC "-//W3C//DTD SVG 1.1//EN" "http://www.w3.org/Graphics/SVG/1.1/DTD/svg11.dtd">
<svg version="1.1" id="Layer_1" xmlns="http://www.w3.org/2000/svg" xmlns:xlink="http://www.w3.org/1999/xlink" x="0px" y="0px"
	 width="60px" height="60px" viewBox="0 0 60 60" enable-background="new 0 0 60 60" xml:space="preserve">
<g>
	<g>
		<g>
			
				<ellipse fill="none" stroke="#344154" stroke-linecap="round" stroke-linejoin="round" stroke-miterlimit="10" cx="32.358" cy="24.292" rx="10.882" ry="10.972"/>
			<g>
				
					<line fill="none" stroke="#344154" stroke-linecap="round" stroke-linejoin="round" stroke-miterlimit="10" x1="18.256" y1="27.407" x2="29.044" y2="25.069"/>
				
					<line fill="none" stroke="#344154" stroke-linecap="round" stroke-linejoin="round" stroke-miterlimit="10" x1="32.062" y1="9.968" x2="32.162" y2="20.797"/>
				
					<line fill="none" stroke="#344154" stroke-linecap="round" stroke-linejoin="round" stroke-miterlimit="10" x1="21.136" y1="15.234" x2="29.044" y2="22.675"/>
				
					<line fill="none" stroke="#344154" stroke-linecap="round" stroke-linejoin="round" stroke-miterlimit="10" x1="43.572" y1="15.719" x2="35.367" y2="22.675"/>
				
					<line fill="none" stroke="#344154" stroke-linecap="round" stroke-linejoin="round" stroke-miterlimit="10" x1="45.85" y1="28.204" x2="35.106" y2="25.604"/>
				
					<line fill="none" stroke="#344154" stroke-linecap="round" stroke-linejoin="round" stroke-miterlimit="10" x1="37.868" y1="37.453" x2="33.593" y2="27.203"/>
				
					<line fill="none" stroke="#344154" stroke-linecap="round" stroke-linejoin="round" stroke-miterlimit="10" x1="25.846" y1="37.272" x2="30.446" y2="27.045"/>
			</g>
			
				<circle fill="none" stroke="#344154" stroke-linecap="round" stroke-linejoin="round" stroke-miterlimit="10" cx="32.162" cy="24.002" r="3.205"/>
		</g>
		<polygon fill="none" stroke="#344154" stroke-linecap="round" stroke-linejoin="round" stroke-miterlimit="10" points="23.976,42 
			13.663,29.029 17.344,12.885 32.246,5.698 47.15,12.872 50.831,29.032 40.519,42 		"/>
	</g>
	<g>
		<polyline fill="#1E86D5" stroke="#344154" stroke-linecap="round" stroke-linejoin="round" stroke-miterlimit="10" points="
			8.569,37.272 15.707,37.144 15.936,49.938 8.796,50.066 		"/>
		<path fill="#8EC2EA" stroke="#344154" stroke-linecap="round" stroke-linejoin="round" stroke-miterlimit="10" d="M15.449,38.494
			c0,0,6.486-0.025,9.202,0.541c3.121,0.651,3.859,2.337,3.859,2.337s1.838-0.033,4.24-0.006c2.407,0.028,3.895,0.214,4.212,2.118
			c0.237,1.437-0.669,2.274-2.01,2.368c-0.779,0.056-8.558-0.13-8.558-0.13l8.558,0.13c0,0,6.169-3.079,7.222-3.522
			c1.052-0.442,2.881-1.04,3.377-0.837c0.499,0.203,2.147,1.376,1.316,2.381s-12.681,7.518-14.21,8.031
			c-1.336,0.446-4.309,0.217-5.87-0.108c-1.563-0.328-10.812-3.485-10.812-3.485L15.449,38.494z"/>
	</g>
</g>
</svg>
