<?xml version="1.0" encoding="utf-8"?>
<!-- Generator: Adobe Illustrator 16.0.0, SVG Export Plug-In . SVG Version: 6.00 Build 0)  -->
<!DOCTYPE svg PUBLIC "-//W3C//DTD SVG 1.1//EN" "http://www.w3.org/Graphics/SVG/1.1/DTD/svg11.dtd">
<svg version="1.1" id="Layer_1" xmlns="http://www.w3.org/2000/svg" xmlns:xlink="http://www.w3.org/1999/xlink" x="0px" y="0px"
	 width="60px" height="60px" viewBox="0 0 60 60" enable-background="new 0 0 60 60" xml:space="preserve">
<g>
	<g>
		
			<circle fill="#FFFFFF" stroke="#3F3F3F" stroke-width="0.8727" stroke-linecap="round" stroke-linejoin="round" cx="27.199" cy="24.09" r="10.032"/>
		
			<circle fill="#1E86D5" stroke="#3F3F3F" stroke-width="0.8727" stroke-linecap="round" stroke-linejoin="round" stroke-miterlimit="10" cx="27.199" cy="24.09" r="6.477"/>
		
			<path fill="#8EC2EA" stroke="#3F3F3F" stroke-width="0.8727" stroke-linecap="round" stroke-linejoin="round" stroke-miterlimit="10" d="
			M31.329,44.697c-0.823-0.755-4.047-7.127-3.654-8.154c0.246-0.649,1.91-1.459,2.913-0.201c1.049,1.319,1.286,2.407,2.506,3.628
			c1.168,1.168,1.929,0.442,1.688-1.291c0,0-0.739-1.932-1.157-2.471c-0.7-0.907-5.093-7.194-7.49-9.815
			c-2.714-2.964-0.49-4.425,0.416-4.001c1.937,0.909,10.516,11.201,10.516,11.201l-2.211-2.714
			c-0.539-1.198,2.879-2.556,4.149-1.464l1.866,2.467c0,0-1.929-2.211-1.691-2.803c0.212-0.518,2.4-1.024,3.39-0.461
			c0.677,0.388,2.104,1.555,2.104,1.555s-2.334-1.087-1.406-1.769c1.215-0.896,2.433-0.249,3.474,0.394
			c3.378,2.077,4.303,5.694,5.407,9.547c0.792,2.759-0.068,5.921,1.048,6.426c1.132,0.512,0.254,3.077-0.176,3.272l-7.636,4.8
			c-0.396,0.181-3.123-3.418-3.546-3.52C37.755,48.334,34.338,47.45,31.329,44.697z"/>
	</g>
	<g>
		<path fill="none" stroke="#3F3F3F" stroke-linecap="round" stroke-linejoin="round" stroke-miterlimit="10" d="M34.5,52H11.576
			C10.106,52,9,50.631,9,49.161V11.904C9,10.435,10.106,9,11.576,9h35.751C48.797,9,50,10.435,50,11.904V27.5"/>
	</g>
</g>
</svg>
