<?xml version="1.0" encoding="utf-8"?>
<!-- Generator: Adobe Illustrator 16.0.0, SVG Export Plug-In . SVG Version: 6.00 Build 0)  -->
<!DOCTYPE svg PUBLIC "-//W3C//DTD SVG 1.1//EN" "http://www.w3.org/Graphics/SVG/1.1/DTD/svg11.dtd">
<svg version="1.1" id="Layer_1" xmlns="http://www.w3.org/2000/svg" xmlns:xlink="http://www.w3.org/1999/xlink" x="0px" y="0px"
	 width="5.76px" height="5.76px" viewBox="0 0 5.76 5.76" enable-background="new 0 0 5.76 5.76" xml:space="preserve">
<polygon fill-rule="evenodd" clip-rule="evenodd" fill="#FFFFFF" points="2.875,0.239 3.928,0.747 4.981,1.254 5.242,2.395 
	5.502,3.534 4.773,4.448 4.044,5.363 2.875,5.363 1.705,5.363 0.976,4.448 0.247,3.534 0.507,2.395 0.767,1.254 1.821,0.747 "/>
<path fill-rule="evenodd" clip-rule="evenodd" fill="#326CE5" d="M2.875-0.021l2.31,1.113l0.57,2.499L4.156,5.594H1.593L-0.005,3.59
	l0.57-2.499L2.875-0.021L2.875-0.021z M3.884,3.031c0.309,0.14,0.132,0.385-0.125,0.531C3.417,3.755,2.81,3.899,2.191,3.942
	C2.97,3.95,3.526,3.806,3.833,3.628C4.127,3.457,4.266,3.121,3.884,3.031L3.884,3.031z M2.197,2.957
	c0.269-0.147,0.448-0.233,0.927-0.215C2.361,2.766,2.44,3.073,2.029,3.172c0.187-0.073,0.229-0.127,0.301-0.24
	C2.124,3.055,2.07,3.071,1.825,3.087C1.648,3.098,0.501,3.001,0.487,3.193c-0.006,0.084,0.102,0.1,0.588,0.128
	C0.629,3.315,0.398,3.346,0.398,3.446c0,0.134,0.279,0.118,0.86,0.04C0.663,3.585,0.614,3.612,0.642,3.692
	C0.698,3.855,1.458,3.672,1.93,3.573c0.597-0.126,0.429-0.45,1.261-0.566C2.664,3.097,2.28,3.448,1.797,4.022
	c1.78,0.125,2.045-0.187,2.337-0.349c0.45,0.148,0.93,0.116,1.067-0.204c0.111-0.261-0.046-0.528-0.319-0.566
	C4.842,2.81,4.822,2.786,4.772,2.735c-0.026,0.047-0.043,0.1-0.059,0.18c-0.195,0.043-0.242-0.003-0.717-0.27
	C3.905,2.593,3.541,2.467,3.041,2.553C2.989,2.562,2.915,2.501,2.912,2.384C2.907,2.164,2.905,1.8,2.924,1.785
	c0.084-0.058,0.216-0.186,0.174-0.292C3.088,1.54,3.069,1.586,3.033,1.601c0.031-0.059-0.003-0.16-0.019-0.173
	c0.011,0.057,0.004,0.098-0.03,0.164C2.97,1.529,2.968,1.504,2.905,1.447c0.051,0.085,0.053,0.176-0.015,0.271
	C2.87,1.748,2.826,1.742,2.776,1.728c0.021-0.04,0.028-0.082,0.014-0.121C2.779,1.654,2.758,1.701,2.724,1.715
	c0.031-0.06-0.003-0.16-0.02-0.173c0.01,0.057,0.004,0.099-0.03,0.165C2.66,1.644,2.658,1.618,2.595,1.562
	c0.051,0.084,0.053,0.175-0.015,0.271C2.558,1.866,2.503,1.854,2.443,1.836C2.478,1.863,2.516,1.878,2.56,1.888
	C2.557,2.074,2.545,2.327,2.526,2.519C2.366,2.609,2.425,2.771,2.197,2.957L2.197,2.957z M3.029,2.593
	c0.642-0.021,1.093,0.079,1.255,0.505C4.274,2.691,3.686,2.501,3.029,2.593L3.029,2.593z M2.71,2.599
	c0.016-0.076,0.048-0.144,0.126-0.205c0.019-0.19,0.03-0.438,0.033-0.621c-0.036-0.008-0.073-0.011-0.103-0.03
	C2.73,1.811,2.666,1.864,2.614,1.9C2.597,1.914,2.576,2.229,2.599,2.449C2.608,2.536,2.604,2.567,2.71,2.599L2.71,2.599z
	 M4.864,3.132L4.799,3.031C4.776,3,4.73,3.033,4.75,3.063l0.066,0.101l-0.1,0.066C4.685,3.251,4.716,3.299,4.748,3.278l0.1-0.066
	l0.066,0.101c0.021,0.031,0.07,0,0.048-0.032L4.896,3.18l0.101-0.066c0.032-0.019,0-0.069-0.031-0.048L4.864,3.132z"/>
</svg>
