<svg xmlns="http://www.w3.org/2000/svg" width="105" height="105" stroke="none" stroke-linecap="round" stroke-linejoin="round" fill="#fff" fill-rule="nonzero"><path d="M6.87 51.81c0-25.0851 20.1948-45.28 45.2799-45.28s45.28 20.1949 45.28 45.28-20.1948 45.28-45.28 45.28S6.87 76.8951 6.87 51.81z"/><path d="M3.59 51.92c0-26.9022 21.6577-48.56 48.5599-48.56S100.71 25.0178 100.71 51.92s-21.6577 48.56-48.5601 48.56S3.59 78.8222 3.59 51.92z" fill="#1e4489"/><path d="M51.96 0C23.26 0 0 23.27 0 51.96s23.2699 51.96 51.96 51.96 51.9599-23.27 51.9599-51.96S80.6599 0 51.96 0zm0 94.36c-23.4101 0-42.3901-18.98-42.3901-42.39S28.5499 9.58 51.96 9.58s42.39 18.98 42.39 42.39-18.97 42.39-42.39 42.39z" fill="#727174"/><path d="M23.2 83.09l.52.47c7.5 6.71 17.39 10.79 28.25 10.79 23.41 0 42.39-18.98 42.39-42.39 0-5.49-1.05-10.73-2.9501-15.54C87.47 37.1 83.39 37.7 79.24 38.29l.7699-10.95c1.7101-.27 3.4201-.57 5.0901-.91.21-.04.4099-.09.61-.13-2.8001-3.68-6.1801-6.89-10.02-9.48l-.09.57c-.25 1.69-.46 3.41-.64 5.14l-10.51 1.3 1.0699-12.04c-4.25-1.43-8.8099-2.22-13.5399-2.22-23.41 0-42.39 18.98-42.39 42.39 0 10.1 3.54 19.37 9.4399 26.65l.61.73.3401.39 1.19 1.32c.05.05.0999.11.16.16l1.03 1.05c.26.29.5499.56.84.83zm-.2901-22.47c-.01-9.42 2.37-15.4 6.37-19.64h0c.3901 3.68.24 8.04-.7199 13.4099l.0899.0101c-2.2899 2.25-4.2299 4.87-5.74 7.86-.01-.53 0-1.07 0-1.64zM34.1 37.07c2.6-1.63 5.62-2.9 8.96-3.93-.2901 4.36-.7 8.72-1.3001 13.03-2.5 1.02-4.8799 2.2-7.0899 3.57.43-4.88.16-9.04-.57-12.67zm1.94 18.17c1.43-.98 3-1.87 4.67-2.68-.6801 3.54-1.51 7.02-2.57 10.44-4.29 1.63-8.39 3.6-12.22 6.03 1.67-6.2 5.21-10.44 10.12-13.79zm-5.5201 24.69c-1.0799-.5-2.1399-1.13-3.24-1.92-.62-.78-1.1499-1.55-1.6099-2.32 3.06-2.25 6.41-4.13 9.97-5.74-1.42 3.43-3.1101 6.76-5.1201 9.98zM42.42 67.28c3.2299-1.1 6.5899-2.03 10.04-2.82-.65 1.57-1.37 3.04-2.1801 4.41C47.17 74.17 43.05 78.03 36.71 79.99c2.34-4.11 4.1999-8.37 5.71-12.71zm21.3599 7.06c-3.87 3.95-9.3999 6.5-18.0499 7.1 2.45-1.66 4.59-3.64 6.41-5.89 4.54-.99 8.35-1.34 11.6399-1.21zM56.12 69.33c.99-1.96 1.85-4.01 2.59-6.16 3.93-.72 7.9499-1.32 12-1.84-.82 2.92-1.85 5.59-3.17 7.94-3.34-.45-7.1-.49-11.42.06zm20.86 10.83c-5.11 5.11-12.34 8.56-23.9501 9.16-4.1899.22-8.4699-.62-12.5799-2.26 1.39.03 2.84 0 4.37-.08 11.9399-.62 20.12-5.06 25.2099-11.76 3.12.8 5.7701 2.06 8.2801 3.49h0a30.453 30.453 0 0 1-1.33 1.45zm1.65-32.95l.29-3.42 13.15-1.96-2.84 11.91-7.03.78-4.5401.49c.4001-2.55.7101-5.17.9701-7.8zm-2.1201 13.4299L82.49 59.98l5.22-.55c-.0501.19-.1.38-.16.56-1.55 5.24-3.41 10.06-5.94 14.21-2.54-1.42-5.36-2.76-8.61-3.73 1.55-3.05 2.67-6.36 3.5099-9.8301zM63.1599 40.26c.37-3.62.6601-7.28.9301-10.94l10.41-1.23L73.79 39l-10.35 1.55c-.1.02-.21.04-.31.05l.0299-.34zm-.7099 5.99l1.62-.28c3.05-.52 6.18-.98 9.32-1.42l-.2 2.4c-.2901 3.01-.6601 5.93-1.1701 8.7-3.87.47-7.74.9899-11.5799 1.63.87-3.54 1.5-7.24 2.01-11.03zM49.1599 20.14l.1901-5.41 10.72-3.13c-.45 4.21-.78 8.51-1.09 12.83l-3.7201.52c-2.1399.32-4.2599.69-6.3399 1.1l.2399-5.91zM48.63 31.69c2.3-.5 4.7-.94 7.16-1.31.92-.14 1.85-.25 2.78-.38l-.85 9.97-.18 1.66c-3.44.69-6.79 1.5-10 2.48.51-4.15.84-8.3 1.09-12.42zm-1.94 18.43c3.15-1.08 6.55-1.9801 10.11-2.76-.58 3.88-1.32 7.59-2.2701 11.01-3.4399.7-6.8299 1.53-10.1399 2.51.95-3.55 1.71-7.15 2.3-10.76zM42.3 16.99c.5-.18 1.01-.34 1.52-.51l-.13 3.75-.3 7.15c-3.8601 1.07-7.51 2.45-10.82 4.36-1.13-3.07-2.56-5.72-4.0501-8.1C32.49 20.88 37.17 18.79 42.3 16.99zM22.88 28.54c.42-.48.87-.93 1.32-1.38 1.49 2.34 2.84 4.81 3.8 7.73-6.5 5.45-10.56 13.91-10.56 26.02 0 1.25.03 2.44.0899 3.59-1.5999-3.78-2.5-7.66-2.5-11.35 0-11.78 3.0601-19.23 7.8501-24.61z" fill="#19bfd3"/></svg>