<svg xmlns="http://www.w3.org/2000/svg" width="339" height="312" stroke="none" stroke-linecap="round" stroke-linejoin="round" fill="#fff" fill-rule="nonzero"><path d="M168.8 310.9663h0l62.199-191.322H106.692l62.108 191.322h0z" fill="#e24329"/><path d="M19.572 119.6453h0L.6311 177.7713c-1.7141 5.2781.137 11.104 4.661 14.394l163.5089 118.801-149.229-191.321h0z" fill="#fca326"/><path d="M19.572 119.6453h87.12L69.198 4.4213c-1.919-5.8951-10.282-5.8951-12.2699 0L19.572 119.6453h0z" fill="#e24329"/><path d="M318.1199 119.6453h0l18.8731 58.126c1.714 5.2781-.137 11.104-4.661 14.394L168.8 310.9663l149.3199-191.321h0z" fill="#fca326"/><path d="M318.12 119.6453h-87.1199L268.425 4.4213c1.9191-5.8951 10.282-5.8951 12.27 0l37.425 115.224h0z" fill="#e24329"/><g fill="#fc6d26"><path d="M168.8 310.9663l62.199-191.321h87.1209z"/><path d="M168.8 310.9663L19.572 119.6453h87.12z"/></g></svg>