<svg xmlns="http://www.w3.org/2000/svg" width="50" height="80" stroke="none" stroke-linecap="round" stroke-linejoin="round" fill="#fff" fill-rule="evenodd"><path d="M17.0706 42.4284s-2.533 1.283 1.7621 1.6495c5.1762.5498 7.9295.4583 13.6563-.4582 0 0 1.5419.8248 3.6343 1.4663-12.8853 4.5819-29.1849-.275-19.0527-2.6576h0zm-1.652-5.9564s-2.7533 1.7411 1.5418 2.1076c5.6168.4583 10.022.5498 17.6212-.7331 0 0 .9911.9164 2.6431 1.3746-15.5286 3.8488-32.9294.3666-21.806-2.7491h-.0001zM45.815 46.9187s1.8722 1.283-2.0925 2.2909c-7.3789 1.8328-30.9472 2.3826-37.5552 0-2.3127-.8247 2.0926-2.016 3.5243-2.1993 1.4317-.2748 2.2026-.2748 2.2026-.2748-2.5329-1.4663-16.8502 3.024-7.2687 4.3069 26.3215 3.5739 48.0177-1.5578 41.1893-4.1237h.0002zM18.282 30.2406s-12.0044 2.3826-4.2951 3.2073c3.304.3665 9.8017.275 15.859-.0916 4.9558-.3666 9.9119-1.0997 9.9119-1.0997s-1.7621.6415-2.9736 1.283c-12.2246 2.6574-35.6828 1.4662-28.9648-1.283 5.7269-2.291 10.4625-2.016 10.4625-2.016h.0001zm21.4758 9.9885c12.3348-5.315 6.6079-10.4467 2.6432-9.8052-.9913.1833-1.4317.3665-1.4317.3665s.3304-.5498 1.1013-.7331c7.8194-2.2909 13.9867 6.8728-2.533 10.4467 0 0 .11-.0916.2202-.2749h0zM19.4936 54.7079c11.8942.6415 30.066-.3665 30.5064-5.04 0 0-.881 1.8328-9.8017 3.2072-10.1322 1.5579-22.687 1.3746-30.066.3666 0 0 1.5418 1.0997 9.3611 1.4662h.0002z" fill="#4e7896"/><path d="M32.2687 0s6.8282 5.7732-6.4978 14.4788c-10.6828 7.0561-2.4229 11.0882 0 15.6701-6.2775-4.6735-10.7929-8.7973-7.7092-12.6461C22.5771 11.8213 35.022 9.0722 32.2687 0h0zm-3.5241 26.3001c3.1937 3.0241-.8812 5.7733-.8812 5.7733s8.1498-3.4823 4.4053-7.7893c-3.4141-4.1237-6.0573-6.1397 8.2599-13.0126 0 0-22.577 4.6736-11.784 15.0286h0zm-8.1499 49.2097v-8.9806c0-2.291-1.5418-3.8488-5.3964-3.8488-2.2027 0-4.075.4582-5.727 1.008l.5508 1.6495c1.2113-.3666 2.7532-.7332 4.4052-.7332 2.0926 0 3.0837.7332 3.0837 2.1994v1.1913h-1.1013c-5.2864 0-7.7093 1.6495-7.7093 4.307 0 2.1993 1.652 3.4822 4.6256 3.4822 1.8723 0 3.304-.7331 4.6256-1.6494l.2202 1.3746h2.4229 0zm-3.0837-2.9325c-1.1013.8247-2.3127 1.283-3.4141 1.283-1.4316 0-2.3126-.7331-2.3126-2.0161s.881-2.1993 4.4051-2.1993h1.3216v2.9324h0zm13.4361 2.9325h-3.8547L22.467 62.9553h3.304l2.8633 7.6976.6608 2.2909c1.4318-3.2989 2.5332-6.6896 2.9736-9.9885h3.304c-.881 4.1237-2.4229 8.614-4.6256 12.5545h0zm17.8415 0v-8.9806c0-2.291-1.5419-3.8488-5.3966-3.8488-2.2027 0-4.0749.4582-5.7268 1.008l.4405 1.6495c1.3216-.3666 2.8634-.7332 4.5154-.7332 2.0926 0 3.0838.7332 3.0838 2.1994v1.1913h-1.1013c-5.2865 0-7.7093 1.6495-7.7093 4.307 0 2.1993 1.5418 3.4822 4.5154 3.4822 1.9823 0 3.414-.7331 4.7357-1.6494l.2203 1.3746h2.4229 0zm-3.0837-2.9325c-1.1013.8247-2.3129 1.283-3.4143 1.283-1.4316 0-2.3126-.7331-2.3126-2.0161s.881-2.1993 4.4053-2.1993h1.3216v2.9324h0zM5.2863 77.6174C4.4053 78.717 3.0837 79.5418 1.4318 80L0 78.5337c1.1013-.5498 2.2027-1.3745 2.6431-2.1076.4406-.6414.5508-1.5579.5508-3.6655V58.4651h3.3039v14.1122c0 2.8408-.3304 3.9404-1.2115 5.0401h0z" fill="#f58219"/></svg>