<svg xmlns="http://www.w3.org/2000/svg" width="62" height="85" stroke="#000" stroke-linecap="round" stroke-linejoin="round" fill="#fff" fill-rule="evenodd"><style><![CDATA[.B{fill-rule:nonzero}.C{fill:#dcd9d8}.D{fill:#231f20}]]></style><g stroke="none"><path d="M59.4585 40.2211c0 16.5371-13.1068 29.9435-29.2746 29.9435S.9098 56.7585.9098 40.2211s13.1066-29.9436 29.2741-29.9436 29.2744 13.4061 29.2744 29.9436" fill="#d33833"/><g class="B"><path d="M2.1027 47.6372S-.0165 16.4113 28.756 15.5189l-2.0072-3.3456-15.6127 5.2417-4.461 5.1298-3.9031 7.4723-2.2306 8.6986.6691 5.7989" fill="#ef3d3a"/><path d="M10.1335 19.7943c-5.3544 5.493-8.3399 12.8676-8.3147 20.5386-.0251 7.6704 2.9604 15.0444 8.3147 20.5369a27.945 27.945 0 0 0 20.0499 8.4967c7.5574-.0045 14.7907-3.0699 20.0502-8.4969a29.286 29.286 0 0 0 8.315-20.5367c.0249-7.671-2.9606-15.0455-8.315-20.5386-5.26-5.4261-12.4931-8.4911-20.0502-8.4961-7.557.0052-14.7899 3.0701-20.0499 8.4961zM8.8333 62.1408A31.107 31.107 0 0 1 .0001 40.3329c-.0246-8.1457 3.1469-15.9761 8.8332-21.8088a29.767 29.767 0 0 1 21.3501-9.044 29.765 29.765 0 0 1 21.3499 9.044c5.6867 5.8324 8.8584 13.6629 8.8336 21.8088a31.102 31.102 0 0 1-8.8336 21.8079c-5.6019 5.7761-13.3034 9.0386-21.3499 9.0442a29.772 29.772 0 0 1-21.3501-9.0442" class="D"/></g><path d="M42.5069 40.3872l-4.4612.669-6.0221.6693-3.9035.1114-3.7917-.1114-2.8995-.8924-2.5651-2.7879-2.0075-5.6876-.4459-1.2268-2.6765-.892-1.5615-2.5651-1.115-3.6802 1.2268-3.2342 2.8994-1.0038 2.342 1.1156 1.1154 2.4534 1.3382-.2232.4459-.5575-.4459-2.5651-.1118-3.2342.6693-4.4608-.0263-2.5481 2.0335-3.2508 3.5688-2.5652 6.2454-2.6765 6.9141 1.0038 6.0221 4.3492 2.7886 4.4608 1.784 3.2342.4459 8.0298-1.3381 6.9143-2.4534 6.1335-2.3422 3.2342" fill="#f0d6b7"/><path d="M38.7149 59.6802l-15.9478.6691v2.6765l1.3383 9.3679-.6693.7808-11.1519-3.7921-.7809-1.3381-1.1152-12.6017-2.5645-7.5835-.5579-1.7844 8.9215-6.1335 2.7883-1.1154 2.4534 3.011 2.1188 1.8959 2.4536.7807 1.1152.3345 1.3381 5.7989 1.0038 1.2268 2.5652-.8922-1.7847 3.4576 9.7024 4.5721-1.2264.6691" fill="#335061"/><path d="M12.2842 20.7593l2.8995-1.0038 2.3418 1.1156 1.1156 2.4534 1.3381-.2232.3346-1.3384-.6691-2.5647.6691-6.1339-.5577-3.3456 2.0074-2.3421 4.3492-3.457-1.2268-1.6727-6.1336 3.0111-2.565 2.0072-1.4497 3.1226-2.2304 3.0111-.6693 3.5687.4463 3.7917" fill="#6d6b6d"/><path d="M16.8564 10.2764s1.6727-4.1262 8.3641-6.1337.3347-1.4499.3347-1.4499l-7.2486 2.7881-2.7885 2.7879-1.2264 2.2306 2.5647-.2232m-3.3456 9.7024s-2.342-7.8066 6.5798-8.9217l-.3345-1.338-6.1335 1.4499-1.7847 5.799.4463 3.7917 1.2264-.7807" class="C"/><g fill="#f7e4cd"><path d="M17.0795 30.3502l1.4602-1.4149c.4223.0765.7393.4291.7704.8572.1114.7809.4459 7.8066 5.2412 11.5987.4374.346-3.5685-.5581-3.5685-.5581l-3.5688-5.5758m20.1862-7.026s.2599-3.3804 1.17-3.1203a1.253 1.253 0 0 1 .9106 1.17c.0155.547-2.2108 1.4306-2.0806 1.9503"/><path d="M46.8558 15.8526s-1.8381.3879-2.0074 2.0072 2.0074.3348 2.3419.2232m-13.8285-2.1188s-2.4536.3347-2.4536 1.8959 2.7883 1.4499 3.5688.7806" class="B"/><path d="M18.1947 23.213s-4.238-2.5653-4.6839-.1116-1.4499 4.2381.6691 6.8028l-1.4495-.4459-1.3384-3.4572-.4459-3.3456 2.5647-2.6769 2.8997.2232 1.6727 1.3383.1115 1.6727m2.0072-7.0256S22.0978 6.3734 31.689 4.4773c7.8961-1.5607 12.044.3345 13.6053 2.119 0 0-7.0257-8.3639-13.7173-5.7991S19.9792 8.046 20.0906 11.0569c.1897 5.1282.1113 5.1303.1113 5.1303m25.8734-8.4758s-3.2338-.1114-3.3454 2.7883c.0111.3095.087.6133.2227.8918s2.5654-2.8997 4.1265-1.3382m-15.1654 1.6403s-.5567-4.4508-4.3513-1.8633c-2.4534 1.6727-2.2302 4.0148-1.7843 4.4607s.3247 1.3447.6643.7279.2278-2.6237 1.4545-3.1812 3.238-1.1805 4.017-.1441"/></g><path d="M21.4287 41.8369l-10.4827 4.684s4.3492 17.2858 2.1186 22.6388l-1.5613-.5573-.1114-6.58-2.8992-12.4903-1.227-3.4574 10.9288-7.36 3.2344 3.1222m1.0779 9.5608l1.487 1.8145v6.6914h-1.7845l-.2227-5.2417c0-.5577.2227-2.5649.2227-2.5649m.3347 8.8104l-5.0185.2227 1.4502 1.0037 3.5685.5577" fill="#49728b"/><g fill="#335061"><path d="M39.7186 59.792l4.1263-.1116 1.0035 10.2601-4.238.5575-.8918-10.706"/><path d="M40.8336 59.792l6.2455-.3347 2.5647-6.8027c0-.3348 2.2306-9.3677 2.2306-9.3677l-5.0185-5.2413-1.0036-.8922-2.6765 2.6765v10.3715l-2.3422 9.5906"/></g><path d="M43.6217 59.0111l-3.9031.7809.5573 3.1228c1.4497.6691 3.9035-1.1156 3.9035-1.1156m-.446-22.3038l7.8064 5.7989.2231-2.6765-5.9107-5.4644-2.119 2.342" fill="#49728b"/><path d="M26.4143 81.7628l-2.3088-9.3691-1.1484-6.9131-.1898-5.1313 10.4499-.5563 6.5014-.001-.5911 11.7109 1.0036 9.033-.1113 1.6729-8.4755.669-5.13-1.115"/><path d="M38.2687 59.6806s-.5575 11.5983 1.1154 19.8506a21.306 21.306 0 0 1-8.2529 2.6765l9.3679-.3345 1.1152-.6691-1.3382-18.2895-.3347-3.9037" class="C"/><path d="M45.0385 69.0493l4.3494-1.2267 8.2523-.4462 1.227-3.7917-2.2306-6.5798-2.5647-.3345-3.5688 1.1152-3.424 1.6716-1.8176-.3335-1.4166.5569"/><path d="M44.9599 66.8176s2.8995-1.3379 3.3458-1.2263l-1.2266-6.1339 1.4495-.5575 1.0039 6.468 6.8027.3346s1.3382-2.565 1.0036-5.2415l1.2268 3.5686.1116 2.0074-1.7843 2.6765-2.0074.4463-3.3456-.1116-1.1152-1.4495-3.9033.5573-1.227.4463" class="C"/><path d="M40.5775 58.9009l-2.4534-6.2452-2.5653-3.6804s.5575-1.5613 1.3384-1.5613h2.5653l2.4531.8922-.2227 4.1263-1.1154 6.4684" class="B"/><path d="M41.0568 56.7807s-3.1227-6.0218-3.1227-6.9139c0 0 .5573-1.3383 1.3382-1.0038s2.4537 1.2264 2.4537 1.2264v-2.1186l-3.7919-.7809-2.5649.3345 4.3494 10.2602.892.1118" class="C"/><path d="M27.4181 42.0612l-3.0894-.3357-2.8997-.8925v1.0038l1.4168 1.5624 4.4607 2.0074" class="B"/><path d="M22.433 42.3956s3.4574 1.4499 4.5726 1.1154l.111 1.3369-3.1223-.6678-1.8958-1.3382.3345-.4463" class="C"/><g fill="#d33833"><path d="M45.0266 47.7937c-1.7218-.0261-3.434-.262-5.0988-.7025.1016-.6136-.0886-1.2159.0643-1.6579.4171-.3003 1.1164-.2957 1.7469-.3662-.6052-.2846-1.2873-.3616-1.9407-.2192-.0146-.4259-.2058-.6899-.3216-1.023 1.0639-.3798 3.5756-2.8692 4.9884-2.045.6731.3921.9593 2.6317 1.0116 3.7208.0434.9031-.0822 1.8145-.4501 2.293"/><path d="M45.1552 48.0652l-.1365-.0038a21.536 21.536 0 0 1-5.1634-.7126l-.2307-.0651.0392-.2363c.033-.2581.0373-.519.013-.778a2.399 2.399 0 0 1 .0625-.9235l.0276-.0801.0688-.0496a1.415 1.415 0 0 1 .2774-.1537c-.0844.0101-.1681.0252-.2507.0452l-.3202.0791-.0114-.3295a1.624 1.624 0 0 0-.1813-.6374l-.1255-.3074-.087-.2508.2499-.089c.4384-.209.8552-.4607 1.2443-.7515 1.2655-.8601 2.841-1.9309 3.9689-1.2724.9551.5562 1.1271 3.5946 1.1438 3.9389.0246.5131.025 1.7801-.5051 2.469zm-4.9355-1.1717a21.242 21.242 0 0 0 4.6681.6282c.2438-.4113.3629-1.1457.3214-2.0083-.0709-1.4794-.427-3.239-.8787-3.5022-.8368-.4885-2.3172.518-3.3984 1.2528-.3563.2547-.7269.4886-1.1102.7006l.0171.0388a2.684 2.684 0 0 1 .1888.5304 3.35 3.35 0 0 1 1.8293.293l.8228.4044-.911.1018-.3861.0367c-.4321.0375-.8776.0757-1.1608.2342-.03.2104-.0337.4238-.0109.6351a5.179 5.179 0 0 1 .0086.6545z" class="B"/><path d="M35.9775 44.7004l-.0167.4317c-.5908.3882-1.5448.3836-2.1932.7098a5.697 5.697 0 0 1 2.3594.5965q-.0216.541-.0421 1.0816c-1.083.7414-2.0723 1.8456-3.3474 2.5407-.6028.3289-2.7187 1.1749-3.36 1.0253-.3629-.0842-.3959-.5345-.5408-.959-.3091-.9091-1.0207-2.3561-1.0829-3.7245-.079-1.7284-.2534-4.6249 1.6091-4.2689a16.636 16.636 0 0 1 4.4138 1.6145c.7108.3888 1.1221.8693 2.2008.9523"/><path d="M29.5484 51.3697c-.0779.0012-.1556-.0065-.2317-.0229-.4386-.1018-.5533-.511-.6547-.872l-.0786-.2611-.2701-.7192c-.3462-.8876-.7773-1.9918-.8268-3.0799l-.0052-.1124c-.0663-1.433-.1568-3.3954.7212-4.1567a1.37 1.37 0 0 1 1.2108-.2749c1.5675.3321 3.0799.8851 4.4918 1.6425l.5212.3195a2.975 2.975 0 0 0 1.5718.6007l.2561.0198-.0313.8276-.1151.0755c-.3323.1936-.6959.3273-1.0743.3952.4195.1041.8263.2542 1.2129.4476l.155.0772-.0542 1.3886-.1112.0761c-.4404.3145-.8645.6514-1.2705 1.0093-.6449.5861-1.3486 1.104-2.0999 1.5454-.4525.2468-2.3895 1.0741-3.3172 1.0741zm-.4832-8.9985c-.187-.0063-.3695.0576-.5119.1789-.6822.5913-.595 2.4784-.5372 3.7273l.0052.113c.0455.9995.4588 2.0586.7907 2.9095l.2782.7408.0872.2895c.0886.316.1433.4681.2607.495.4939.1147 2.4548-.6088 3.1712-.9995a12.232 12.232 0 0 0 2.0097-1.4835l1.2034-.9657.0305-.7729c-.6588-.3035-1.3719-.4716-2.0969-.4943l-1.0262-.0448.9177-.4616a4.681 4.681 0 0 1 1.0794-.3316c.3351-.0579.6617-.1571.9723-.2955l.0014-.0368c-.5672-.0906-1.1044-.3162-1.5663-.6578l-.4859-.2982a16.346 16.346 0 0 0-4.3355-1.5866 1.329 1.329 0 0 0-.2477-.0252z" class="B"/><path d="M37.0532 46.7626c-.1653-.9415-.3562-1.2101-.2824-2.0315 2.5112-1.6741 2.9825 2.8757.2824 2.0315"/><path d="M37.688 47.1376a2.392 2.392 0 0 1-.7147-.1195l-.1556-.0486-.0282-.1606-.1535-.7204a3.715 3.715 0 0 1-.132-1.3813l.0117-.1276.1063-.0709c1.1273-.7513 1.8077-.3054 2.0475-.0793a1.721 1.721 0 0 1 .2555 2.027c-.2555.4375-.7307.6993-1.237.6814zm-.4019-.5881c.5469.1313.9615.0041 1.177-.3634.2412-.4438.1769-.9915-.1606-1.3673-.2958-.2785-.745-.2545-1.2748.0661a3.26 3.26 0 0 0 .1289 1.0793l.1293.5855z" class="B"/></g><path d="M40.6888 47.5257s-.7808-1.1154-.2231-1.45 1.1154.0005 1.4499-.5573 0-.8924.1114-1.5615.6695-.7808 1.227-.8922 2.119-.3346 2.342.2231l-.6693-2.0074-1.3382-.4459-4.238 2.4533-.2232 1.2268v2.4534m-10.1481 4.238q-.2011-2.6106-.4336-5.2173c-.2359-2.5962.6236-2.1432 2.874-2.1432.3439 0 2.1165.4098 2.2433.6691.6084 1.2422-1.017.9663.7008 1.9031 1.4499.7905 4.0113-.4801 3.4255-2.2377-.3279-.3906-1.7082-.1218-2.2031-.3783l-2.6138-1.355c-1.1085-.5751-3.6703-1.4135-4.8522-.6099-2.9944 2.0364.189 7.1248 1.2572 9.2492" fill="#ef3d3a"/><path d="M31.9137 11.6936c-3.0392-.7081-4.5499 1.2721-5.4711 3.3256-.8226-.1994-.4954-1.3181-.2874-1.8884.5439-1.4962 2.7366-3.4878 4.5279-3.2177.7711.116 1.8146.8209 1.2308 1.7805m14.8097 3.4613l.1443.0056c.6869 1.427 1.2813 2.9387 2.1479 4.1982-.5805 1.3519-4.3956 2.5485-4.3367.1208.825-.3608 2.2493-.0736 2.9808-.5344-.423-1.1606-1.0333-2.1486-.9363-3.7902m-13.2536.0372c.6517 1.1947.8639 2.45 1.7901 3.3531.4171.4065 1.2284.9018.8265 2.0325-.094.2665-.7808.8611-1.1773.9779-1.4485.4276-4.8233.0882-3.6803-1.7173 1.1978.0557 2.8077.7779 3.703-.0918-.6876-1.0991-1.9133-3.2734-1.462-4.5544m12.7102 12.1426c-2.1807 1.4009-4.6124 2.9241-8.1855 2.5708-.7634-.6637-1.0545-2.1407-.3129-3.1164.3861.6639.1435 1.8846 1.2195 2.0683 2.0275.3469 4.3872-1.2403 5.8455-1.7949.9043-1.5246-.0778-2.0854-.8927-3.0667-1.6677-2.0106-3.905-4.5023-3.8236-7.5119.6741-.4889.7323.746.829.9709.871 2.0381 3.0626 4.6447 4.6623 6.3891.3927.4297 1.0395.8418 1.1112 1.1259.2075.8259-.5395 1.8155-.453 2.3651m-28.7486-1.475c-.6835-.39-.8461-2.1083-1.6485-2.1571-1.1469-.0697-.9377 2.2291-.9331 3.5735-.7894-.7166-.9281-2.9232-.3483-4.0564-.6609-.3245-.9561.3581-1.3227.5986.4714-3.4225 5.0068-1.5876 4.2526 2.0414m30.1371 2.9002c-1.015 1.9322-2.451 4.0599-5.4297 4.1219-.0605-.6241-.107-1.5734.0033-1.9493 2.2771-.2188 3.6831-1.3778 5.4264-2.1726m-14.2703 1.2526c1.9.999 5.3914 1.1064 7.9734 1.0307a9.036 9.036 0 0 1 .1406 1.9545c-3.3191.1656-7.2434-.6557-8.114-2.9852m-.3611 1.8629c1.3138 3.2985 5.829 2.9187 9.6368 2.8277-.1677.4282-.5311.934-.9828 1.1171-1.2201.4964-4.5855.8733-6.2795-.0265-1.0741-.571-1.7644-1.8614-2.353-2.6179-.2843-.3654-1.6996-1.2985-.0215-1.3004" class="D"/><path d="M46.0214 50.07l-4.8458 7.6814c.7669-2.2545 1.095-6.0283 1.2107-8.905 1.6043-.7509 2.9781.1689 3.6353 1.2236" fill="#81b0c4"/><path d="M54.3173 59.5601c-1.726.3456-2.9386 2.0231-4.6226 1.9155.9254-1.3046 2.547-1.8546 4.6226-1.9155m.7614 2.7011c-1.4067.1487-3.0592.3764-4.4862.259.6757-1.0318 3.2782-.6757 4.4862-.259m.4874 2.329c-1.5809.0342-3.5462.0027-5.0493-.1235.8891-.9548 4.024-.3544 5.0493.1235" class="D"/><path d="M43.0465 70.9633c.2269 1.9856 1.014 3.9978.9156 6.1723-.8743.2949-1.3765.5527-2.5478.5512l-.2559-6.4355c.576.0382 1.4255-.4114 1.8881-.288" class="C"/><path d="M40.4974 41.6981c-.7938.5185-1.47 1.1655-2.2325 1.7188-1.6908.0836-2.6135-.117-3.8557-1.0879.0202-.078.1452-.0432.1498-.1389 1.8099.8065 4.1108-.3285 5.9384-.4918" fill="#f0d6b7"/><path d="M30.9956 54.0364c.4974-2.1551 2.446-3.2712 4.2155-4.4579 1.8264 2.318 2.937 5.299 4.1602 8.1755-2.8901-.8712-5.8429-2.2848-8.3757-3.7176" fill="#81b0c4"/><path d="M41.1584 71.2514c-.0741 1.7619.1731 4.5871.2559 6.4354 1.1713.0015 1.6735-.2563 2.5476-.5512.0986-2.1745-.6885-4.1865-.9154-6.1723-.4626-.1234-1.3121.3262-1.8881.2881zM22.9198 61.2315c.7723 7.1006 1.8911 13.0693 3.9429 19.3569 4.5538 1.3828 10.0437 1.5033 14.0687.2555-.7391-3.5488-.4162-7.8692-.848-11.6561-.3255-2.8465-.1597-5.7105-.6061-8.6143-4.8772-1.0147-11.7709-.2374-16.5575.658zm17.7109-.6136c-.0411 3.0496.1364 6.0576.3691 9.1109 1.1711-.1758 1.9658-.293 3.0539-.5316-.3534-2.9395-.31-6.2471-1.0295-8.8473-.8318.0079-1.5642-.0096-2.3935.268zm5.9401-.4914c-.5556-.1274-1.2028-.005-1.7336.0052.2495 2.4861.8552 5.229 1.0683 7.8383.8353.0261 1.2816-.3679 1.9689-.5005.0367-2.2905-.2003-5.4461-1.3036-7.343zm8.9946 8.2179c1.7415-.423 2.8365-2.5558 2.3493-4.7461-.3269-1.4723-.9092-4.2441-1.5322-5.1858-.4602-.6966-1.7085-1.6086-2.705-.9702-1.6214 1.038-4.4777 1.3394-5.6601 2.5962.593 1.9739.7769 4.6852 1.0216 7.1863 2.0254.1262 4.5175-.5573 6.2021.1681-1.1759.3809-2.702.3838-3.7179.9392.8301.401 2.7745.3199 4.042.0123zm-16.194-10.5903c-1.2232-2.8765-2.3338-5.8575-4.1603-8.1755-1.7694 1.1867-3.7181 2.3027-4.2155 4.4578 2.5328 1.4329 5.4857 2.8465 8.3758 3.7177zm3.015-8.9078c-.1158 2.8767-.4438 6.6505-1.2107 8.9051 1.8291-2.3288 3.3041-5.041 4.8458-7.6814-.657-1.0548-2.0308-1.9745-3.6351-1.2237zm-3.4178-1.2145c-.693-.0746-1.2812.7968-2.182.4199-.2064.2281-.3941.4755-.6048.6982 1.9901 2.3981 2.8945 5.8006 4.4316 8.619.8247-2.7072.7295-5.6732.9114-8.6279-1.1333.0717-1.7619-1.0249-2.5562-1.1092zm-2.1978-2.9007c-.0738.8213.1172 1.09.2824 2.0314 2.6998.8443 2.2285-3.7055-.2824-2.0314zm-2.994-.9829a16.64 16.64 0 0 0-4.4138-1.6146c-1.8625-.3564-1.6881 2.5406-1.6091 4.2689.0622 1.3684.7738 2.8157 1.0829 3.7246.1449.4244.1777.8747.5406.959.6415.1495 2.7572-.6966 3.3602-1.0253 1.2751-.6954 2.2644-1.7993 3.3474-2.5408q.0209-.541.0421-1.0816c-.7343-.3664-1.5392-.5699-2.3594-.5965.6486-.3262 1.6024-.3216 2.1932-.7097l.0167-.4317c-1.0787-.0831-1.49-.5636-2.2008-.9523zm-11.1123-2.0185c-.9654.9802 2.7084 2.3165 3.8781 2.3884-.0067-.6202.3535-1.205.2809-1.6499-1.3892-.244-3.215-.083-4.1588-.7383zm11.8945.4605c-.0046.0957-.1293.0609-.1498.1387 1.2422.971 2.1649 1.1717 3.8557 1.088.7625-.5533 1.4387-1.2005 2.2327-1.7185-1.8278.1633-4.1285 1.2983-5.9386.4918zm10.9175 3.3105c-.0521-1.0891-.3383-3.3287-1.0116-3.7208-1.4126-.8246-3.9243 1.6652-4.9882 2.045.1158.3331.3068.5971.3216 1.023.6534-.1425 1.3355-.0655 1.9407.219-.6305.0709-1.3298.0661-1.7469.3664-.1529.4422.0375 1.0443-.0643 1.6579 1.6648.4405 3.377.6764 5.0988.7025.3679-.4785.4935-1.3897.4499-2.293zM21.0392 42.678c-.3033-.2163-2.3543-2.8851-2.6354-2.7743-3.7115 1.4637-7.182 3.9946-10.2833 6.3885 2.957 6.3446 4.1504 14.118 4.3615 21.6103 3.3871 1.584 6.3622 3.868 10.9586 4.1064-.5319-3.7631-1.0174-7.1206-1.3194-10.6635-1.1548-.487-2.8116.0219-3.8924-.151-.0092-1.3025 1.6505-.5705 1.7888-1.4462.1043-.6626-.9133-.7127-.5819-1.7559.8447.3072 1.2885.9855 2.1895 1.2403.8234-1.8014-.0114-4.9884.1072-6.4941.0226-.2826.1412-1.5659.7744-1.3408.5605.1994-.0321 3.4131.0292 4.8381.0564 1.3129-.1585 2.583.3734 3.4073 4.5629-.6252 9.1566-1.0015 13.7604-1.1273-1.0574-.4536-2.3131-.8829-3.6903-1.659-.7464-.4208-3.0993-1.2964-3.3149-2.0055-.3435-1.1298.9018-1.7315 1.1148-2.7001-2.2419 1.2226-2.6793-1.1721-3.2098-2.8686-.3884-1.1642-.68-2.3586-.8719-3.5708-1.9313-.9208-3.9961-1.8531-5.6583-3.0338zm22.4757-2.4515c3.0924-1.4995 3.6499 5.6042 2.4378 7.8927.1872.6827.8317.9438 1.0947 1.5574-1.7259 3.0913-3.6426 5.9771-5.4033 9.0321 1.3098-.8155 3.1806-.146 4.7219-.7562.5636-.2228.9713-1.5126 1.398-2.5445 1.1732-2.8386 2.4052-6.4176 2.9533-9.1264.1237-.6174.4609-1.9624.3852-2.5116-.1347-.9838-1.4693-1.7131-2.1482-2.3213-1.2505-1.1235-2.0381-2.1121-3.3427-3.1627-.5289.7809-1.6641 1.3057-2.0967 1.9405zM13.9669 12.803c-1.4735 1.6214-1.165 4.6593-.9867 6.8205 2.6634-1.6756 6.1986.1324 6.1652 2.9822 1.2716-.0338.4751-1.5882.2451-2.5895-.7517-3.2707 1.2664-6.8242.0915-9.8151-2.2813.1729-4.1552 1.1046-5.5151 2.6019zm10.5434-9.41c-3.3358.9456-7.6111 3.3693-8.9818 6.3662 1.0614-.1544 1.7982-.6895 2.8452-.7559.3959-.0258.9142.1661 1.369.0528.9065-.2248 1.6713-2.2569 2.3552-3.0129.6663-.7383 1.4674-1.0539 2.0157-1.7269.3523-.1702.8731-.1585.8931-.6875-.1527-.1633-.3135-.2878-.4964-.2356zm17.3651.8893c-3.4626-1.9534-9.3232-3.423-13.0061-1.5868-2.972 1.4817-6.989 3.9335-8.3588 7.0401 1.2795 2.9981-.379 5.7451-.4847 8.7889-.0564 1.6197.7625 3.0336.8253 4.797-.4381.7223-1.7756.8113-2.7014.7617-.3118-1.5599-.8574-3.3128-2.4635-3.4889-2.2728-.2486-3.9344 1.6325-4.0379 3.5978-.122 2.3117 1.7755 6.1428 4.4652 5.8767 1.0391-.1026 1.2941-1.1442 2.4262-1.1336.6136 1.2243-.9464 1.6087-1.1068 2.4843-.0417.2263.1293 1.1102.2288 1.5246.4887 2.0185 1.5776 4.6307 2.6496 6.1672 1.3604 1.9493 4.0332 2.2431 6.9089 2.434.5135-1.1062 2.4056-1.0153 3.6384-.7258-1.4775-.5853-2.8511-2.0037-3.9894-3.2595-1.3077-1.4405-2.6321-2.986-2.6988-4.8689 2.4708 3.428 4.512 6.4217 9.0052 7.9296 3.3998 1.1402 7.3706-.5226 9.9827-2.357 1.0839-.7625 1.7311-1.9724 2.5015-3.0796 2.883-4.1469 4.2282-10.0662 3.9325-15.8032-.1218-2.3662-.1164-4.724-.9104-6.316-.8297-1.6643-3.6359-3.1535-5.2787-1.648-.3046-1.6185 1.366-2.6196 3.3282-2.0371-1.399-1.8058-2.8675-3.9752-4.8562-5.0973zm6.4503 53.3857c2.7057-1.3451 7.7609-3.6203 9.4571.005.7025 1.6071 1.266 3.2714 1.6846 4.9747.458 1.9461-.4964 6.0364-2.4969 6.6895-1.7666.5769-3.8284.5416-5.9566.114a3.245 3.245 0 0 1-.7246-.9504c-1.5196-.0588-2.9424.0816-4.1429.7062.1139 1.124-.6463 1.3042-1.359 1.5357-.5283 2.0946 1.057 4.8303.6776 6.7402-.2707 1.3606-1.9449 1.5711-3.1754 1.8257-.02.6787.0261 1.3576.1377 2.0273-.2812 1.0366-1.5434 1.6268-2.7389 1.7713-3.9342.4731-9.9077.6856-13.6918-.6751-1.0558-2.5902-1.8878-5.7405-2.7673-8.698-3.6907.3942-6.6755-1.5926-9.4897-2.894-.9742-.4518-2.3219-.7006-2.6859-1.476-.3529-.7509-.2086-2.19-.2961-3.5492-.2228-3.4717-.4136-6.8205-1.3305-10.3752C9.0156 53.8446 8.298 52.437 7.7974 50.9c-.4626-1.4245-1.2708-3.185-1.4816-4.6055-.3127-2.1055 1.6699-2.2227 2.9376-3.1349 1.9597-1.411 3.4978-2.191 5.6202-3.4643.6286-.3773 2.5245-1.3317 2.7399-1.7713.4288-.8716-.7356-2.1003-1.047-2.7835-.4659-.9598-.7442-1.9998-.8197-3.0641a5.911 5.911 0 0 1-3.9454-2.5357c-1.3486-1.9772-2.2838-5.6354-1.1171-8.4179.0916-.219.548-.6501.6153-.9865.1327-.663-.2498-1.5442-.2736-2.2491-.1227-3.6165.6119-6.7327 3.0465-7.8233.9886-3.9377 4.526-5.2469 7.8591-7.2038 1.2458-.7313 2.6192-1.1987 4.0376-1.7207 5.0882-1.8723 12.8947-1.5198 17.1176 1.674 1.7907 1.3544 4.6528 4.2138 5.6767 6.284 2.7038 5.4659 2.5117 14.6006.6204 21.2494a21.373 21.373 0 0 1-1.1377 3.277c-.3591.7487-1.4747 2.2469-1.3394 2.908.1398.6835 2.5441 2.5092 3.0597 3.0065.9283.8955 2.6921 2.0844 2.835 3.2144.1537 1.2028-.5298 2.8481-.876 4.0088-1.1577 3.873-2.2873 7.4535-3.5998 10.9065" class="D"/><path d="M30.2753 30.8563c.1468-.1952.9538-.4922 2.0829.0515 0 0-1.3383.2232-1.227 2.4544l-.5577-.1118s-.5762-2.023-.2982-2.3941" fill="#f7e4cd"/><path d="M40.0532 50.0341c-.0002.3387-.2748.6132-.6135.6132s-.6133-.2746-.6133-.6133.2745-.6134.6132-.6135a.613.613 0 0 1 .4339.1797c.1151.115.1797.2712.1797.4339m.6133 2.8438c-.0001.3387-.2748.6132-.6135.6132s-.6132-.2746-.6133-.6133.2745-.6134.6132-.6135a.613.613 0 0 1 .4339.1797c.1151.115.1797.2712.1797.4339" fill="#1d1919"/></g></svg>