<svg xmlns="http://www.w3.org/2000/svg" width="81" height="82" stroke="#000" stroke-linecap="round" stroke-linejoin="round" fill="#fff" fill-rule="evenodd"><defs><linearGradient id="A" x1="52%" y1="0%" x2="48%" y2="100%"><stop offset="0%" stop-color="#387eb8"/><stop offset="100%" stop-color="#366994"/></linearGradient><linearGradient id="B" x1="50%" y1="0%" x2="50%" y2="100%"><stop offset="0%" stop-color="#ffe052"/><stop offset="100%" stop-color="#ffc331"/></linearGradient></defs><g stroke="none"><path d="M39.7118 0c-20.309 0-19.0409 8.8532-19.0409 8.8532l.0225 9.1723H40.074v2.7537H12.9958S0 19.2976 0 39.8963s11.343 19.8688 11.343 19.8688h6.7695v-9.5589s-.365-11.4023 11.1619-11.4023h19.2221s10.7994.1754 10.7994-10.4918V10.6743S60.9361 0 39.7118 0zM29.0254 6.1681c.9249-.0008 1.8122.3682 2.4663 1.0256s1.0211 1.5494 1.0202 2.4792-.3662 1.8217-1.0202 2.4792-1.5414 1.0264-2.4663 1.0256-1.8122-.3682-2.4663-1.0256-1.0211-1.5494-1.0202-2.4792.3662-1.8217 1.0202-2.4792 1.5414-1.0264 2.4663-1.0256z" fill="url(#A)"/><path d="M40.2886 80c20.3089 0 19.0408-8.8533 19.0408-8.8533l-.0225-9.1719H39.9261v-2.7536h27.0781S80 60.7027 80 40.1033 68.657 20.2348 68.657 20.2348h-6.7695v9.5586s.3649 11.4023-11.162 11.4023H31.5036s-10.7995-.1754-10.7995 10.4923v17.638S19.0642 80 40.2882 80zm10.6863-6.1676c-.9249.0009-1.8122-.3681-2.4662-1.0256a3.511 3.511 0 0 1-1.0203-2.4791c-.0009-.9299.3662-1.8219 1.0202-2.4794s1.5414-1.0265 2.4663-1.0257 1.8122.3681 2.4663 1.0256 1.0211 1.5494 1.0202 2.4792-.3662 1.8217-1.0202 2.4791a3.474 3.474 0 0 1-2.4663 1.0256z" fill="url(#B)"/></g></svg>