<svg xmlns="http://www.w3.org/2000/svg" width="24" height="24" stroke="none" stroke-linecap="round" stroke-linejoin="round" fill="#fff" fill-rule="evenodd"><g fill="#239de0" fill-rule="nonzero"><path d="M7.4455 21.3495l.8589 1.0771a11.395 11.395 0 0 0 2.83.4309l-1.5142-1.8984a.239.239 0 0 1-.046-.2015l2.1738-9.5236c.0161-.0706.0635-.1301.1288-.1616l8.8011-4.2383a.237.237 0 0 1 .2064 0l1.2602.6068c-.3699-.99-.8738-1.9147-1.489-2.7535L10.0868 9.7771 7.4455 21.3495m6.8408-8.2233l-1.604 7.028 1.8244 2.2876a11.333 11.333 0 0 0 1.6315-.5943l-1.5586-1.9542c-.0734-.0921-.1008-.2127-.0747-.3273l1.1684-5.1189c.0261-.115.1033-.2114.2093-.2625l4.7308-2.2782c.1058-.0511.2295-.0511.3355 0l1.833.8826c.0526-.4451.0831-.8972.0831-1.3564l-.0111-.436-2.0729-.9982-6.4947 3.1278M11.4325 0l-.9088.0394h1.8177L11.4325 0m4.9537 14.8007l-1.0857 4.7557 1.5485 1.9416c2.9717-1.6058 5.1539-4.4899 5.8094-7.9098l-1.8773-.904-4.3949 2.1165"/><path d="M12.1865 11.4516l-2.1227 9.3001 1.6792 2.1056c.717-.0194 1.4182-.1034 2.0968-.2493l-1.7399-2.1818a.312.312 0 0 1-.0602-.2644l1.6709-7.3214a.312.312 0 0 1 .1691-.2119l6.7657-3.2583c.0858-.0413.1855-.0413.2713 0l1.8904.9104a11.351 11.351 0 0 0-.4466-2.2073l-1.5794-.7607-8.5946 4.139m-7.1251 9.4689c.825.5557 1.7272 1.0041 2.6853 1.3314l-.6062-.76a.164.164 0 0 1-.0316-.1385l2.6764-11.726c.0111-.0485.0437-.0895.0885-.111l10.5797-5.0947c-.4515-.5793-.9565-1.1136-1.5087-1.596L7.9871 8.1025l-2.9257 12.818m-.1578-.1111l2.919-12.7886a.089.089 0 0 1 .0483-.0605l10.9269-5.262C17.0243 1.2003 14.7904.2332 12.3414.0394h-1.8177C4.6435.5048 0 5.4351 0 11.4325c0 3.8777 1.9424 7.3088 4.9036 9.3769"/></g><path d="M20.6134 11.9064l-4.7308 2.2782c-.1059.0511-.1832.1475-.2093.2625L14.505 19.566a.387.387 0 0 0 .0747.3273l1.5585 1.9542.7107-.3495-1.5484-1.9416 1.0857-4.7557 4.3949-2.1165 1.8773.904.1235-.7992-1.8329-.8826c-.1061-.0511-.2298-.0511-.3356 0m.0321-2.5361l-6.7657 3.2582c-.0857.0413-.148.1193-.1691.212l-1.671 7.3213a.312.312 0 0 0 .0603.2644l1.7398 2.1818.6669-.1662-1.8243-2.2875 1.604-7.0281 6.4947-3.1278 2.0729.9983-.0468-.716-1.8904-.9104c-.0858-.0413-.1855-.0413-.2713 0m.0323-2.5362l-8.8011 4.2384a.238.238 0 0 0-.1288.1615l-2.1738 9.5237c-.016.0706.0009.1446.0461.2014l1.5141 1.8984.2981.0077.3105-.0078-1.6791-2.1056 2.1227-9.3001 8.5945-4.139 1.5795.7607-.216-.6325-1.2602-.6068c-.0651-.0315-.1411-.0315-.2065 0M9.7852 9.6274l-2.6764 11.726a.164.164 0 0 0 .0316.1385l.6062.76.5578.1746-.8589-1.0771 2.6413-11.5723 10.5686-5.0897-.2021-.2657L9.8737 9.5164c-.0448.0215-.0774.0625-.0885.111M7.8225 8.0208l-2.919 12.7887.1578.111 2.9256-12.818 10.9578-5.2768-.147-.1274-10.9269 5.262a.089.089 0 0 0-.0483.0605" fill-rule="nonzero"/></svg>