<?xml version="1.0" encoding="utf-8"?>
<!-- Generator: Adobe Illustrator 24.0.0, SVG Export Plug-In . SVG Version: 6.00 Build 0)  -->
<svg version="1.1" id="Layer_1" xmlns="http://www.w3.org/2000/svg" xmlns:xlink="http://www.w3.org/1999/xlink" x="0px" y="0px"
	 viewBox="0 0 700.2 450" style="enable-background:new 0 0 700.2 450;" xml:space="preserve">
<style type="text/css">
	.st0{fill:none;stroke:#404041;stroke-width:2;stroke-miterlimit:10;}
	.st1{fill:none;stroke:#404041;stroke-width:2;stroke-linejoin:round;stroke-miterlimit:10;}
	.st2{fill:#E6E7E8;}
	.st3{fill-rule:evenodd;clip-rule:evenodd;fill:#E6E7E8;}
	.st4{fill-rule:evenodd;clip-rule:evenodd;fill:#E6E7E8;stroke:#FAFBFB;stroke-width:2;stroke-miterlimit:10;}
	.st5{fill:#BBBDBF;stroke:#FAFBFB;stroke-width:2;stroke-miterlimit:10;}
	.st6{fill-rule:evenodd;clip-rule:evenodd;fill:#8EC2EA;stroke:#404041;stroke-width:2;stroke-miterlimit:10;}
	.st7{fill-rule:evenodd;clip-rule:evenodd;fill:#E6E7E8;stroke:#404041;stroke-width:2;stroke-miterlimit:10;}
	.st8{fill:#FFFFFF;stroke:#404041;stroke-width:2;stroke-miterlimit:10;}
	.st9{fill-rule:evenodd;clip-rule:evenodd;fill:none;stroke:#404041;stroke-width:2;stroke-miterlimit:10;}
	.st10{fill-rule:evenodd;clip-rule:evenodd;fill:#1E86D5;stroke:#404041;stroke-width:2;stroke-miterlimit:10;}
	.st11{fill-rule:evenodd;clip-rule:evenodd;fill:#FFE1B3;stroke:#404041;stroke-width:2;stroke-miterlimit:10;}
	.st12{fill:#E6E7E8;stroke:#404041;stroke-width:2;stroke-miterlimit:10;}
	.st13{fill:none;stroke:#404041;stroke-width:2;stroke-linecap:round;stroke-miterlimit:10;}
	.st14{fill:none;stroke:#404041;stroke-width:2;stroke-linecap:round;stroke-miterlimit:10;stroke-dasharray:0,11.7138;}
	
		.st15{fill-rule:evenodd;clip-rule:evenodd;fill:#8EC2EA;stroke:#404041;stroke-width:2;stroke-linecap:round;stroke-miterlimit:10;}
	.st16{fill:none;stroke:#404041;stroke-width:2;stroke-miterlimit:10;stroke-dasharray:8.5429,3.1065;}
	.st17{fill-rule:evenodd;clip-rule:evenodd;fill:none;stroke:#404041;stroke-width:2;stroke-linecap:round;stroke-miterlimit:10;}
	.st18{fill:none;stroke:#404041;stroke-width:2;stroke-linecap:round;stroke-miterlimit:10;stroke-dasharray:0,11.5743;}
	.st19{fill:#8EC2EA;stroke:#404041;stroke-width:2;stroke-miterlimit:10;}
	.st20{fill:#8EC2EA;}
	.st21{fill:#FFE1B3;stroke:#404041;stroke-width:2;stroke-miterlimit:10;}
	.st22{fill:#1E86D5;stroke:#404041;stroke-width:2;stroke-miterlimit:10;}
	.st23{fill-rule:evenodd;clip-rule:evenodd;fill:#FFFFFF;stroke:#404041;stroke-width:2;stroke-miterlimit:10;}
	.st24{fill-rule:evenodd;clip-rule:evenodd;fill:#1E86D5;}
	.st25{fill:#FFE1B3;}
	.st26{fill:none;stroke:#404041;stroke-width:2;stroke-miterlimit:10;stroke-dasharray:7,5;}
	.st27{fill-rule:evenodd;clip-rule:evenodd;fill:#FFFFFF;}
	.st28{fill-rule:evenodd;clip-rule:evenodd;fill:#404041;}
	.st29{fill:#8EC2EA;stroke:#404041;stroke-width:2;stroke-linejoin:round;stroke-miterlimit:10;}
	.st30{fill:#1E86D5;stroke:#404041;stroke-width:2;stroke-linejoin:round;stroke-miterlimit:10;}
	.st31{fill:#FAFBFB;}
	.st32{fill:#1E86D5;}
	.st33{fill:none;stroke:#FAFBFB;stroke-width:0.8621;stroke-linecap:round;stroke-linejoin:round;}
	.st34{fill:none;stroke:#FAFBFB;stroke-width:0.8621;stroke-linecap:round;stroke-linejoin:bevel;}
	.st35{fill:#FFFFFF;stroke:#FAFBFB;stroke-width:0.2874;}
	.st36{fill:#FFFFFF;stroke:#FAFBFB;stroke-width:0.1437;}
	.st37{fill-rule:evenodd;clip-rule:evenodd;fill:#FAFBFB;}
</style>
<g>
	<g>
		<g>
			<g>
				<line class="st0" x1="477.2" y1="255.8" x2="482.2" y2="255.8"/>
				<line class="st0" x1="486.2" y1="255.8" x2="491.2" y2="255.8"/>
			</g>
		</g>
		<g>
			<g>
				<line class="st0" x1="480.7" y1="261.8" x2="483.2" y2="257.5"/>
				<line class="st0" x1="485.2" y1="254" x2="487.7" y2="249.7"/>
			</g>
		</g>
		<g>
			<g>
				<line class="st0" x1="487.7" y1="261.8" x2="485.2" y2="257.5"/>
				<line class="st0" x1="483.2" y1="254" x2="480.7" y2="249.7"/>
			</g>
		</g>
	</g>
	<g>
		<g>
			<g>
				<line class="st0" x1="288.1" y1="307.4" x2="293.1" y2="307.4"/>
				<line class="st0" x1="297.1" y1="307.4" x2="302.1" y2="307.4"/>
			</g>
		</g>
		<g>
			<g>
				<line class="st0" x1="291.6" y1="313.5" x2="294.1" y2="309.1"/>
				<line class="st0" x1="296.1" y1="305.6" x2="298.6" y2="301.3"/>
			</g>
		</g>
		<g>
			<g>
				<line class="st0" x1="298.6" y1="313.5" x2="296.1" y2="309.1"/>
				<line class="st0" x1="294.1" y1="305.6" x2="291.6" y2="301.3"/>
			</g>
		</g>
	</g>
	<polygon class="st1" points="170.2,206.7 164.5,216.6 175.9,216.6 	"/>
	<polygon class="st2" points="530.8,382.6 525.1,392.5 536.5,392.5 	"/>
	<g>
		<polygon class="st1" points="526.9,205 529.9,216 537.9,207.9 		"/>
	</g>
	<g>
		<circle class="st0" cx="540.4" cy="344.4" r="4"/>
	</g>
	<g>
		<circle class="st0" cx="252.4" cy="220.2" r="4"/>
	</g>
	<circle class="st2" cx="27.9" cy="224" r="3.8"/>
	<circle class="st2" cx="505.7" cy="163.5" r="3.8"/>
	<circle class="st2" cx="656.5" cy="309.3" r="3.8"/>
	<circle class="st2" cx="660.4" cy="202.4" r="3.8"/>
	<circle class="st2" cx="271.5" cy="174.5" r="3.8"/>
	<circle class="st2" cx="350.6" cy="327.9" r="3.8"/>
	<circle class="st2" cx="31.7" cy="337.5" r="3.8"/>
	<g>
		<line class="st0" x1="377.6" y1="107.2" x2="386.8" y2="107.2"/>
		<line class="st0" x1="382.2" y1="111.8" x2="382.2" y2="102.6"/>
	</g>
	<g>
		<line class="st0" x1="660.4" y1="148.7" x2="669.5" y2="148.7"/>
		<line class="st0" x1="664.9" y1="153.3" x2="664.9" y2="144.1"/>
	</g>
	<g>
		<line class="st0" x1="655.8" y1="380.9" x2="664.9" y2="380.9"/>
		<line class="st0" x1="660.4" y1="385.5" x2="660.4" y2="376.3"/>
	</g>
	<g>
		<line class="st0" x1="333.3" y1="178.5" x2="342.5" y2="178.5"/>
		<line class="st0" x1="337.9" y1="183.1" x2="337.9" y2="173.9"/>
	</g>
	
		<rect x="340.7" y="222.9" transform="matrix(-2.105167e-12 1 -1 -2.105167e-12 573.5156 -117.7501)" class="st2" width="9.9" height="9.9"/>
	<polygon class="st3" points="162.7,372.3 178.4,384 237.8,308.5 231,303.3 	"/>
	<polygon class="st3" points="220.9,312.8 225.6,304.6 109.2,248.1 107.2,251.7 	"/>
	<rect x="132.5" y="432.7" class="st3" width="81.8" height="13.3"/>
	<polygon class="st3" points="147.7,374 139.2,430.5 207.6,430.5 199.1,374 	"/>
	<circle class="st4" cx="173.4" cy="377.1" r="15"/>
	<path class="st4" d="M95.8,246.1c0,0,0,0.1,0,0.1c0,5,4.1,9.1,9.1,9.1c5,0,9.1-4.1,9.1-9.1c0,0,0-0.1,0-0.1H95.8z"/>
	<rect x="14.4" y="35.8" class="st3" width="670" height="6.6"/>
	<rect x="14.4" y="82.6" class="st3" width="670" height="6.6"/>
	<g>
		<g>
			
				<rect x="13.5" y="59.4" transform="matrix(0.7071 -0.7071 0.7071 0.7071 -30.541 51.6912)" class="st3" width="67.3" height="6.6"/>
			
				<rect x="13.5" y="59.4" transform="matrix(0.7071 0.7071 -0.7071 0.7071 58.1469 -14.9555)" class="st3" width="67.3" height="6.6"/>
		</g>
		<g>
			
				<rect x="74" y="59.4" transform="matrix(0.7071 -0.7071 0.7071 0.7071 -12.8328 94.4425)" class="st3" width="67.3" height="6.6"/>
			
				<rect x="74" y="59.4" transform="matrix(0.7071 0.7071 -0.7071 0.7071 75.8551 -57.7068)" class="st3" width="67.3" height="6.6"/>
		</g>
		<g>
			
				<rect x="134.4" y="59.4" transform="matrix(0.7071 -0.7071 0.7071 0.7071 4.8754 137.1938)" class="st3" width="67.3" height="6.6"/>
			
				<rect x="134.4" y="59.4" transform="matrix(0.7071 0.7071 -0.7071 0.7071 93.5633 -100.4581)" class="st3" width="67.3" height="6.6"/>
		</g>
		<g>
			
				<rect x="194.9" y="59.4" transform="matrix(0.7071 -0.7071 0.7071 0.7071 22.5835 179.9451)" class="st3" width="67.3" height="6.6"/>
			
				<rect x="194.9" y="59.4" transform="matrix(0.7071 0.7071 -0.7071 0.7071 111.2715 -143.2094)" class="st3" width="67.3" height="6.6"/>
		</g>
		<g>
			
				<rect x="255.3" y="59.4" transform="matrix(0.7071 -0.7071 0.7071 0.7071 40.2917 222.6964)" class="st3" width="67.3" height="6.6"/>
			
				<rect x="255.3" y="59.4" transform="matrix(0.7071 0.7071 -0.7071 0.7071 128.9796 -185.9607)" class="st3" width="67.3" height="6.6"/>
		</g>
		<g>
			
				<rect x="315.8" y="59.4" transform="matrix(0.7071 -0.7071 0.7071 0.7071 57.9999 265.4478)" class="st3" width="67.3" height="6.6"/>
			
				<rect x="315.8" y="59.4" transform="matrix(0.7071 0.7071 -0.7071 0.7071 146.6878 -228.712)" class="st3" width="67.3" height="6.6"/>
		</g>
		<g>
			
				<rect x="376.3" y="59.4" transform="matrix(0.7071 -0.7071 0.7071 0.7071 75.708 308.199)" class="st3" width="67.3" height="6.6"/>
			
				<rect x="376.3" y="59.4" transform="matrix(0.7071 0.7071 -0.7071 0.7071 164.396 -271.4633)" class="st3" width="67.3" height="6.6"/>
		</g>
		<g>
			
				<rect x="436.7" y="59.4" transform="matrix(0.7071 -0.7071 0.7071 0.7071 93.4162 350.9503)" class="st3" width="67.3" height="6.6"/>
			
				<rect x="436.7" y="59.4" transform="matrix(0.7071 0.7071 -0.7071 0.7071 182.1041 -314.2146)" class="st3" width="67.3" height="6.6"/>
		</g>
		<g>
			
				<rect x="497.2" y="59.4" transform="matrix(0.7071 -0.7071 0.7071 0.7071 111.1244 393.7017)" class="st3" width="67.3" height="6.6"/>
			
				<rect x="497.2" y="59.4" transform="matrix(0.7071 0.7071 -0.7071 0.7071 199.8123 -356.9659)" class="st3" width="67.3" height="6.6"/>
		</g>
		<g>
			
				<rect x="557.6" y="59.4" transform="matrix(0.7071 -0.7071 0.7071 0.7071 128.8326 436.453)" class="st3" width="67.3" height="6.6"/>
			
				<rect x="557.6" y="59.4" transform="matrix(0.7071 0.7071 -0.7071 0.7071 217.5205 -399.7172)" class="st3" width="67.3" height="6.6"/>
		</g>
		<g>
			
				<rect x="618.1" y="59.4" transform="matrix(0.7071 -0.7071 0.7071 0.7071 146.5407 479.2043)" class="st3" width="67.3" height="6.6"/>
			
				<rect x="618.1" y="59.4" transform="matrix(0.7071 0.7071 -0.7071 0.7071 235.2287 -442.4685)" class="st3" width="67.3" height="6.6"/>
		</g>
		
			<rect x="53" y="59.4" transform="matrix(6.123234e-17 -1 1 6.123234e-17 14.6442 140.0679)" class="st3" width="48.7" height="6.6"/>
		
			<rect x="113.5" y="59.4" transform="matrix(6.123234e-17 -1 1 6.123234e-17 75.1037 200.5274)" class="st3" width="48.7" height="6.6"/>
		
			<rect x="173.9" y="59.4" transform="matrix(6.123234e-17 -1 1 6.123234e-17 135.5632 260.9868)" class="st3" width="48.7" height="6.6"/>
		
			<rect x="234.4" y="59.4" transform="matrix(6.123234e-17 -1 1 6.123234e-17 196.0226 321.4463)" class="st3" width="48.7" height="6.6"/>
		
			<rect x="294.8" y="59.4" transform="matrix(6.123234e-17 -1 1 6.123234e-17 256.4821 381.9058)" class="st3" width="48.7" height="6.6"/>
		
			<rect x="355.3" y="59.4" transform="matrix(-2.239818e-13 -1 1 -2.239818e-13 316.9416 442.3653)" class="st3" width="48.7" height="6.6"/>
		
			<rect x="415.7" y="59.4" transform="matrix(6.123234e-17 -1 1 6.123234e-17 377.4011 502.8248)" class="st3" width="48.7" height="6.6"/>
		
			<rect x="476.2" y="59.4" transform="matrix(6.123234e-17 -1 1 6.123234e-17 437.8606 563.2842)" class="st3" width="48.7" height="6.6"/>
		
			<rect x="536.7" y="59.4" transform="matrix(6.123234e-17 -1 1 6.123234e-17 498.32 623.7437)" class="st3" width="48.7" height="6.6"/>
		
			<rect x="597.1" y="59.4" transform="matrix(6.123234e-17 -1 1 6.123234e-17 558.7795 684.2032)" class="st3" width="48.7" height="6.6"/>
	</g>
	<g>
		<rect x="640.5" y="87.1" class="st3" width="6.6" height="358.8"/>
		<rect x="593.7" y="87.1" class="st3" width="6.6" height="358.8"/>
		<g>
			<g>
				
					<rect x="586.5" y="116.5" transform="matrix(0.7071 0.7071 -0.7071 0.7071 266.3313 -403.4307)" class="st3" width="67.3" height="6.6"/>
				
					<rect x="586.5" y="116.5" transform="matrix(-0.7071 0.7071 -0.7071 -0.7071 1143.3552 -234.0434)" class="st3" width="67.3" height="6.6"/>
			</g>
			<g>
				
					<rect x="586.5" y="177" transform="matrix(0.7071 0.7071 -0.7071 0.7071 309.0826 -385.7226)" class="st3" width="67.3" height="6.6"/>
				
					<rect x="586.5" y="177" transform="matrix(-0.7071 0.7071 -0.7071 -0.7071 1186.1066 -130.8327)" class="st3" width="67.3" height="6.6"/>
			</g>
			<g>
				
					<rect x="586.5" y="237.4" transform="matrix(0.7071 0.7071 -0.7071 0.7071 351.8339 -368.0144)" class="st3" width="67.3" height="6.6"/>
				
					<rect x="586.5" y="237.4" transform="matrix(-0.7071 0.7071 -0.7071 -0.7071 1228.8579 -27.6219)" class="st3" width="67.3" height="6.6"/>
			</g>
			<g>
				
					<rect x="586.5" y="297.9" transform="matrix(0.7071 0.7071 -0.7071 0.7071 394.5852 -350.3062)" class="st3" width="67.3" height="6.6"/>
				
					<rect x="586.5" y="297.9" transform="matrix(-0.7071 0.7071 -0.7071 -0.7071 1271.6091 75.5889)" class="st3" width="67.3" height="6.6"/>
			</g>
			<g>
				
					<rect x="586.5" y="358.3" transform="matrix(0.7071 0.7071 -0.7071 0.7071 437.3365 -332.5981)" class="st3" width="67.3" height="6.6"/>
				
					<rect x="586.5" y="358.3" transform="matrix(-0.7071 0.7071 -0.7071 -0.7071 1314.3605 178.7997)" class="st3" width="67.3" height="6.6"/>
			</g>
			<g>
				<polygon class="st3" points="643.9,445.9 646.2,443.5 598.7,396 594.1,400.6 639.3,445.9 				"/>
				<polygon class="st3" points="601,445.9 646.2,400.6 641.6,396 594.1,443.5 596.4,445.9 				"/>
			</g>
			<rect x="595.8" y="146.7" class="st3" width="48.7" height="6.6"/>
			<rect x="595.8" y="207.2" class="st3" width="48.7" height="6.6"/>
			<rect x="595.8" y="267.6" class="st3" width="48.7" height="6.6"/>
			<rect x="595.8" y="328.1" class="st3" width="48.7" height="6.6"/>
			<rect x="595.8" y="388.6" class="st3" width="48.7" height="6.6"/>
		</g>
	</g>
	<g>
		<rect x="67.6" y="240" class="st3" width="76.1" height="7.8"/>
		<rect x="71.5" y="178.3" class="st2" width="68.2" height="59.5"/>
		<line class="st5" x1="69" y1="187.9" x2="143.7" y2="187.9"/>
		<line class="st5" x1="69" y1="228.3" x2="143.7" y2="228.3"/>
		<line class="st5" x1="100.6" y1="228.3" x2="100.6" y2="187.9"/>
		<line class="st5" x1="110.6" y1="228.3" x2="110.6" y2="187.9"/>
		<line class="st5" x1="120.7" y1="228.3" x2="120.7" y2="187.9"/>
		<line class="st5" x1="90.6" y1="228.3" x2="90.6" y2="187.9"/>
		<line class="st5" x1="80.5" y1="228.3" x2="80.5" y2="187.9"/>
		<line class="st5" x1="130.7" y1="228.3" x2="130.7" y2="187.9"/>
	</g>
	<circle class="st4" cx="229.1" cy="311.7" r="11.5"/>
	<rect x="22.1" y="404.2" class="st6" width="41.8" height="41.8"/>
	<rect x="35.3" y="429.4" class="st7" width="21.5" height="8.3"/>
	<rect x="69.4" y="404.2" class="st6" width="41.8" height="41.8"/>
	<rect x="77.1" y="429.4" class="st7" width="21.5" height="8.3"/>
	<line class="st8" x1="12.6" y1="446" x2="687.6" y2="446"/>
	<line class="st8" x1="12.6" y1="21.1" x2="687.6" y2="21.1"/>
	<line class="st8" x1="12.6" y1="9.6" x2="687.6" y2="9.6"/>
	<line class="st8" x1="12.6" y1="260.9" x2="394.7" y2="260.9"/>
	<g>
		<circle class="st9" cx="295.2" cy="80.6" r="6.7"/>
		<g>
			<polyline class="st9" points="270.3,109.9 259.7,92.6 273.9,85.6 			"/>
			<circle class="st7" cx="260" cy="92.5" r="2.8"/>
			<path class="st7" d="M273.7,119c-2.9,0-5.2-2.3-5.2-5.2c0-2.9,2.3-5.2,5.2-5.2"/>
		</g>
		<g>
			<polyline class="st9" points="320,109.9 330.7,92.6 316.4,85.6 			"/>
			<circle class="st7" cx="330.3" cy="92.5" r="2.8"/>
			<path class="st7" d="M316.6,119c2.9,0,5.2-2.3,5.2-5.2c0-2.9-2.3-5.2-5.2-5.2"/>
		</g>
		<g>
			<rect x="274.3" y="101.5" class="st10" width="41.8" height="41.8"/>
		</g>
		<rect x="271.8" y="80.6" class="st7" width="46.7" height="9.3"/>
		<circle class="st7" cx="295.2" cy="21.2" r="4.6"/>
		<line class="st7" x1="295.2" y1="25.8" x2="295.2" y2="73.9"/>
	</g>
	<g>
		<rect x="89.8" y="76.2" class="st10" width="41.8" height="41.8"/>
	</g>
	<g>
		<rect x="556.5" y="384.5" class="st10" width="41.8" height="41.8"/>
	</g>
	<g>
		<rect x="604.8" y="384.5" class="st10" width="41.8" height="41.8"/>
	</g>
	<g>
		
			<rect x="350.2" y="345.1" transform="matrix(0.957 0.29 -0.29 0.957 122.068 -91.8796)" class="st11" width="41.8" height="41.8"/>
	</g>
	<g>
		<path class="st12" d="M390.2,402.4L355,391.7c-0.4-0.1-0.8-0.2-1.2-0.2H200.3c-2.3,0-4.2-1.9-4.2-4.2v0c0-2.3,1.9-4.2,4.2-4.2H355
			c0.4,0,0.8,0.1,1.2,0.2l36.4,11.1c2.2,0.7,3.5,3,2.8,5.2l0,0C394.7,401.8,392.4,403.1,390.2,402.4z"/>
	</g>
	<polygon class="st7" points="243.4,446 218.9,446 227.8,440.7 234.6,440.7 	"/>
	<polygon class="st7" points="310.7,446 335.3,446 326.4,440.7 319.6,440.7 	"/>
	<g>
		<rect x="203.4" y="341.4" class="st11" width="41.8" height="41.8"/>
		<rect x="216.7" y="366.5" class="st7" width="21.5" height="8.3"/>
	</g>
	<g>
		<rect x="274.9" y="341.4" class="st6" width="41.8" height="41.8"/>
		<rect x="288.2" y="366.5" class="st7" width="21.5" height="8.3"/>
	</g>
	<g>
		<rect x="401.5" y="169.8" class="st10" width="41.8" height="41.8"/>
	</g>
	<line class="st7" x1="231.4" y1="438.4" x2="231.4" y2="391.9"/>
	<line class="st7" x1="323" y1="438.4" x2="323" y2="391.9"/>
	<g>
		<g>
			<line class="st13" x1="200.3" y1="387.5" x2="200.3" y2="387.5"/>
			<polyline class="st14" points="212,387.5 355,387.5 392,398.5 			"/>
			<line class="st13" x1="397.6" y1="400.1" x2="397.6" y2="400.1"/>
		</g>
	</g>
	<line class="st7" x1="273.1" y1="391.9" x2="273.1" y2="400.1"/>
	<line class="st7" x1="289.1" y1="391.9" x2="289.1" y2="400.1"/>
	<path class="st15" d="M261.3,411.9h38.1c0.9,0,1.7-0.7,2-1.8l1.6-6.8c0.4-1.6-0.6-3.2-2-3.2h-41.3c-1.4,0-2.4,1.6-2,3.2l1.6,6.8
		C259.6,411.1,260.4,411.9,261.3,411.9z"/>
	<g>
		<g>
			<line class="st0" x1="263.4" y1="404.1" x2="268.9" y2="404.1"/>
			<line class="st16" x1="272" y1="404.1" x2="282.1" y2="404.1"/>
			<line class="st0" x1="283.6" y1="404.1" x2="289.1" y2="404.1"/>
		</g>
	</g>
	<g>
		<g>
			<line class="st0" x1="263.4" y1="408" x2="268.9" y2="408"/>
			<line class="st16" x1="272" y1="408" x2="282.1" y2="408"/>
			<line class="st0" x1="283.6" y1="408" x2="289.1" y2="408"/>
		</g>
	</g>
	<circle class="st17" cx="295" cy="406" r="1.8"/>
	<g>
		<g>
			<circle class="st9" cx="423.3" cy="143.7" r="6.7"/>
			<g>
				<polyline class="st9" points="389.5,178.5 387.3,154.7 402,148.7 				"/>
				<circle class="st7" cx="387.6" cy="154.5" r="2.8"/>
				<path class="st7" d="M392.5,185.2c-2.8-0.8-4.4-3.6-3.6-6.4s3.6-4.4,6.4-3.6L392.5,185.2z"/>
			</g>
			<g>
				<polyline class="st9" points="457,178.5 459.3,154.7 444.6,148.7 				"/>
				<circle class="st7" cx="458.9" cy="154.5" r="2.8"/>
				<path class="st7" d="M454,185.2c2.8-0.8,4.4-3.6,3.6-6.4s-3.6-4.4-6.4-3.6L454,185.2z"/>
			</g>
			<rect x="399.9" y="143.7" class="st7" width="46.7" height="9.3"/>
		</g>
		<circle class="st7" cx="423.3" cy="21.5" r="4.6"/>
		<line class="st7" x1="423.3" y1="26.1" x2="423.3" y2="137"/>
	</g>
	<g>
		<path class="st7" d="M216.1,159.8h-164c-2.4,0-4.4,2-4.4,4.4v0c0,2.4,2,4.4,4.4,4.4h164c2.3,0,4.1-1.8,4.1-4.1v-0.5
			C220.2,161.6,218.4,159.8,216.1,159.8z"/>
		<g>
			<g>
				<line class="st13" x1="53.1" y1="164.2" x2="53.1" y2="164.2"/>
				<line class="st18" x1="64.7" y1="164.2" x2="209.4" y2="164.2"/>
				<line class="st13" x1="215.1" y1="164.2" x2="215.1" y2="164.2"/>
			</g>
		</g>
		<circle class="st7" cx="59.3" cy="9.6" r="4.6"/>
		<line class="st7" x1="59.3" y1="14.1" x2="59.3" y2="159.5"/>
		<circle class="st7" cx="209.3" cy="9.6" r="4.6"/>
		<line class="st7" x1="209.3" y1="14.1" x2="209.3" y2="159.5"/>
	</g>
	<g>
		<g>
			<path class="st7" d="M551.8,118.1c-2.6,0-4.7,2.1-4.7,4.7c0,2.6,2.1,4.7,4.7,4.7"/>
			<line class="st0" x1="547.1" y1="122.8" x2="547.1" y2="98.5"/>
			<path class="st7" d="M594.6,118.1c2.6,0,4.7,2.1,4.7,4.7c0,2.6-2.1,4.7-4.7,4.7"/>
			<line class="st0" x1="599.3" y1="122.8" x2="599.3" y2="98.5"/>
			<g>
				<rect x="552.3" y="109.9" class="st10" width="41.8" height="41.8"/>
			</g>
		</g>
		<path class="st12" d="M586.2,86.5h-26c-3,0-5.4-2.4-5.4-5.4v0c0-3,2.4-5.4,5.4-5.4h26c3,0,5.4,2.4,5.4,5.4v0
			C591.6,84.1,589.2,86.5,586.2,86.5z"/>
		<g>
			
				<rect x="527.1" y="89.1" transform="matrix(0.9888 0.1493 -0.1493 0.9888 19.6494 -79.0401)" class="st19" width="18.4" height="4.5"/>
			<g>
				<path class="st19" d="M525,89.6h-6.3l1.6-10.3c0.1-0.3,0.3-0.5,0.6-0.5h1.7c0.3,0,0.6,0.2,0.6,0.5L525,89.6z"/>
				<g>
					<path class="st20" d="M525.3,98c-2.3,0.7-4.7,0.7-7,0c-3.2-1.1-5.1-5.8-5.2-8.5l0,0c-0.1-2.7,2.4-5.2,5.4-5.4
						c2.2,0,4.3,0,6.5,0c3,0.2,5.5,2.7,5.4,5.4l0,0C530.5,92.3,528.5,97,525.3,98z"/>
					<path class="st0" d="M525.3,98c-2.3,0.7-4.7,0.7-7,0c-3.2-1.1-5.1-5.8-5.2-8.5l0,0c-0.1-2.7,2.4-5.2,5.4-5.4c2.2,0,4.3,0,6.5,0
						c3,0.2,5.5,2.7,5.4,5.4l0,0C530.5,92.3,528.5,97,525.3,98z"/>
				</g>
				<line class="st19" x1="521.9" y1="78.8" x2="521.9" y2="75.8"/>
				<path class="st21" d="M521.9,75.8c0,0-5.3,2.6-11.9,2.6S498,77.2,498,75.8s5.3-2.6,11.9-2.6S521.9,75.8,521.9,75.8z"/>
				<path class="st21" d="M521.9,75.8c0,0,5.3,2.6,11.9,2.6c6.6,0,11.9-1.2,11.9-2.6s-5.3-2.6-11.9-2.6
					C527.2,73.2,521.9,75.8,521.9,75.8z"/>
			</g>
		</g>
		<g>
			
				<rect x="597.8" y="89.1" transform="matrix(-0.9888 0.1493 -0.1493 -0.9888 1220.7952 91.0575)" class="st19" width="18.4" height="4.5"/>
			<g>
				<path class="st19" d="M618.3,89.6h6.3l-1.6-10.3c0-0.3-0.3-0.5-0.6-0.5h-1.7c-0.3,0-0.6,0.2-0.6,0.5L618.3,89.6z"/>
				<g>
					<path class="st20" d="M617.9,98c2.3,0.7,4.7,0.7,7,0c3.2-1.1,5.1-5.8,5.2-8.5l0,0c0.1-2.7-2.4-5.2-5.4-5.4c-2.2,0-4.3,0-6.5,0
						c-3,0.2-5.5,2.7-5.4,5.4l0,0C612.8,92.3,614.7,97,617.9,98z"/>
					<path class="st0" d="M617.9,98c2.3,0.7,4.7,0.7,7,0c3.2-1.1,5.1-5.8,5.2-8.5l0,0c0.1-2.7-2.4-5.2-5.4-5.4c-2.2,0-4.3,0-6.5,0
						c-3,0.2-5.5,2.7-5.4,5.4l0,0C612.8,92.3,614.7,97,617.9,98z"/>
				</g>
				<line class="st19" x1="621.4" y1="78.8" x2="621.4" y2="75.8"/>
				<path class="st21" d="M621.4,75.8c0,0,5.3,2.6,11.9,2.6c6.6,0,11.9-1.2,11.9-2.6s-5.3-2.6-11.9-2.6
					C626.7,73.2,621.4,75.8,621.4,75.8z"/>
				<path class="st21" d="M621.4,75.8c0,0-5.3,2.6-11.9,2.6c-6.6,0-11.9-1.2-11.9-2.6s5.3-2.6,11.9-2.6
					C616.1,73.2,621.4,75.8,621.4,75.8z"/>
			</g>
		</g>
		<path class="st19" d="M595.4,99.9H551c-5.4,0-9.8-4.4-9.8-9.8v0c0-5.4,4.4-9.8,9.8-9.8h44.4c5.4,0,9.8,4.4,9.8,9.8v0
			C605.2,95.5,600.8,99.9,595.4,99.9z"/>
		<circle class="st12" cx="573.2" cy="93.9" r="9.2"/>
		<circle class="st22" cx="573.2" cy="93.9" r="2.7"/>
	</g>
	<path class="st7" d="M582.2,301.3c-2.6,0-4.7,2.1-4.7,4.7c0,2.6,2.1,4.7,4.7,4.7"/>
	<path class="st12" d="M616.6,269h-26c-3,0-5.4-2.4-5.4-5.4l0,0c0-3,2.4-5.4,5.4-5.4h26c3,0,5.4,2.4,5.4,5.4l0,0
		C622,266.6,619.6,269,616.6,269z"/>
	
		<rect x="557.5" y="271.6" transform="matrix(0.9888 0.1493 -0.1493 0.9888 47.243 -81.5364)" class="st12" width="18.4" height="4.5"/>
	<path class="st12" d="M555.4,272.1h-6.3l1.6-10.3c0.1-0.3,0.3-0.5,0.6-0.5h1.7c0.3,0,0.6,0.2,0.6,0.5L555.4,272.1z"/>
	<g>
		<path class="st12" d="M555.8,280.6c-2.3,0.7-4.7,0.7-7,0c-3.2-1.1-5.1-5.8-5.2-8.5l0,0c-0.1-2.7,2.4-5.2,5.4-5.4
			c2.2,0,4.3,0,6.5,0c3,0.2,5.5,2.7,5.4,5.4l0,0C560.9,274.8,558.9,279.5,555.8,280.6z"/>
		<path class="st12" d="M555.8,280.6c-2.3,0.7-4.7,0.7-7,0c-3.2-1.1-5.1-5.8-5.2-8.5l0,0c-0.1-2.7,2.4-5.2,5.4-5.4
			c2.2,0,4.3,0,6.5,0c3,0.2,5.5,2.7,5.4,5.4l0,0C560.9,274.8,558.9,279.5,555.8,280.6z"/>
	</g>
	<line class="st19" x1="552.3" y1="261.3" x2="552.3" y2="258.3"/>
	<path class="st21" d="M552.3,258.3c0,0-5.3,2.6-11.9,2.6s-11.9-1.2-11.9-2.6s5.3-2.6,11.9-2.6S552.3,258.3,552.3,258.3z"/>
	<path class="st21" d="M552.3,258.3c0,0,5.3,2.6,11.9,2.6c6.6,0,11.9-1.2,11.9-2.6s-5.3-2.6-11.9-2.6
		C557.6,255.8,552.3,258.3,552.3,258.3z"/>
	
		<rect x="628.2" y="271.6" transform="matrix(-0.9888 0.1493 -0.1493 -0.9888 1308.5532 449.5404)" class="st12" width="18.4" height="4.5"/>
	<path class="st12" d="M648.7,272.1h6.3l-1.6-10.3c0-0.3-0.3-0.5-0.6-0.5H651c-0.3,0-0.6,0.2-0.6,0.5L648.7,272.1z"/>
	<g>
		<path class="st12" d="M648.3,280.6c2.3,0.7,4.7,0.7,7,0c3.2-1.1,5.1-5.8,5.2-8.5l0,0c0.1-2.7-2.4-5.2-5.4-5.4c-2.2,0-4.3,0-6.5,0
			c-3,0.2-5.5,2.7-5.4,5.4l0,0C643.2,274.8,645.2,279.5,648.3,280.6z"/>
		<path class="st12" d="M648.3,280.6c2.3,0.7,4.7,0.7,7,0c3.2-1.1,5.1-5.8,5.2-8.5l0,0c0.1-2.7-2.4-5.2-5.4-5.4c-2.2,0-4.3,0-6.5,0
			c-3,0.2-5.5,2.7-5.4,5.4l0,0C643.2,274.8,645.2,279.5,648.3,280.6z"/>
	</g>
	<line class="st19" x1="651.8" y1="261.3" x2="651.8" y2="258.3"/>
	<path class="st21" d="M651.8,258.3c0,0,5.3,2.6,11.9,2.6c6.6,0,11.9-1.2,11.9-2.6s-5.3-2.6-11.9-2.6
		C657.1,255.8,651.8,258.3,651.8,258.3z"/>
	<path class="st21" d="M651.8,258.3c0,0-5.3,2.6-11.9,2.6s-11.9-1.2-11.9-2.6s5.3-2.6,11.9-2.6S651.8,258.3,651.8,258.3z"/>
	<path class="st12" d="M625.8,282.4h-44.4c-5.4,0-9.8-4.4-9.8-9.8v0c0-5.4,4.4-9.8,9.8-9.8h44.4c5.4,0,9.8,4.4,9.8,9.8v0
		C635.7,278,631.3,282.4,625.8,282.4z"/>
	<circle class="st12" cx="603.6" cy="276.4" r="9.2"/>
	<circle class="st19" cx="601.5" cy="278.5" r="2.7"/>
	<line class="st0" x1="577.5" y1="306.1" x2="577.5" y2="281.8"/>
	<path class="st7" d="M625,301.3c2.6,0,4.7,2.1,4.7,4.7c0,2.6-2.1,4.7-4.7,4.7"/>
	<line class="st0" x1="629.7" y1="306.1" x2="629.7" y2="281.8"/>
	<g>
		
			<rect x="402.1" y="229.8" transform="matrix(6.123234e-17 -1 1 6.123234e-17 190.4339 656.0755)" class="st7" width="42.4" height="6.1"/>
		<polygon class="st19" points="455.5,296.2 455.5,446 389.2,446 389.2,296.2 395.4,296.2 395.4,239.3 449.4,239.3 449.4,296.2 		
			"/>
		<line class="st7" x1="398.9" y1="211.6" x2="446.2" y2="211.6"/>
		<rect x="399.9" y="350.4" class="st23" width="45" height="34"/>
		
			<rect x="424.8" y="377.9" transform="matrix(-1 -1.224647e-16 1.224647e-16 -1 865.6914 758.7709)" class="st24" width="16.2" height="3"/>
		
			<rect x="424.8" y="373.1" transform="matrix(-1 -1.224647e-16 1.224647e-16 -1 865.6914 749.1833)" class="st24" width="16.2" height="3"/>
		
			<rect x="424.8" y="368.3" transform="matrix(-1 -1.224647e-16 1.224647e-16 -1 865.6914 739.5956)" class="st24" width="16.2" height="3"/>
		
			<rect x="424.8" y="363.5" transform="matrix(-1 -1.224647e-16 1.224647e-16 -1 865.6914 730.008)" class="st3" width="16.2" height="3"/>
		
			<rect x="424.8" y="358.7" transform="matrix(-1 -1.224647e-16 1.224647e-16 -1 865.6914 720.4203)" class="st3" width="16.2" height="3"/>
		
			<rect x="424.8" y="353.9" transform="matrix(-1 -1.224647e-16 1.224647e-16 -1 865.6914 710.8327)" class="st3" width="16.2" height="3"/>
		<rect x="403.6" y="376.7" class="st2" width="4.2" height="4.2"/>
		<rect x="409.4" y="376.7" class="st25" width="4.2" height="4.2"/>
		<rect x="415.2" y="376.7" class="st2" width="4.2" height="4.2"/>
		<rect x="403.6" y="371" class="st25" width="4.2" height="4.2"/>
		<rect x="415.2" y="371" class="st25" width="4.2" height="4.2"/>
		<rect x="403.6" y="365.4" class="st2" width="4.2" height="4.2"/>
		<rect x="409.4" y="365.4" class="st25" width="4.2" height="4.2"/>
		<rect x="415.2" y="365.4" class="st2" width="4.2" height="4.2"/>
		<rect x="409.4" y="359.7" class="st25" width="4.2" height="4.2"/>
		<rect x="415.2" y="359.7" class="st25" width="4.2" height="4.2"/>
		<rect x="403.6" y="354" class="st25" width="4.2" height="4.2"/>
		<rect x="415.2" y="354" class="st2" width="4.2" height="4.2"/>
		<line class="st12" x1="399.9" y1="397.4" x2="444.9" y2="397.4"/>
		<line class="st26" x1="399.9" y1="391.9" x2="444.9" y2="391.9"/>
		<line class="st12" x1="399.9" y1="428.5" x2="444.9" y2="428.5"/>
		<line class="st12" x1="399.9" y1="433.5" x2="444.9" y2="433.5"/>
		<path class="st27" d="M442.5,340.4L442.5,340.4c1.3,0,2.4-1.1,2.4-2.4l0,0c0-1.3-1.1-2.4-2.4-2.4l0,0c-1.3,0-2.4,1.1-2.4,2.4l0,0
			C440.2,339.4,441.2,340.4,442.5,340.4z"/>
		<path class="st24" d="M435.9,340.4L435.9,340.4c1.3,0,2.4-1.1,2.4-2.4l0,0c0-1.3-1.1-2.4-2.4-2.4l0,0c-1.3,0-2.4,1.1-2.4,2.4l0,0
			C433.5,339.4,434.6,340.4,435.9,340.4z"/>
		<path class="st27" d="M429.2,340.4L429.2,340.4c1.3,0,2.4-1.1,2.4-2.4l0,0c0-1.3-1.1-2.4-2.4-2.4h0c-1.3,0-2.4,1.1-2.4,2.4l0,0
			C426.8,339.4,427.9,340.4,429.2,340.4z"/>
		<path class="st24" d="M422.5,340.4L422.5,340.4c1.3,0,2.4-1.1,2.4-2.4l0,0c0-1.3-1.1-2.4-2.4-2.4l0,0c-1.3,0-2.4,1.1-2.4,2.4l0,0
			C420.2,339.4,421.2,340.4,422.5,340.4z"/>
		<path class="st24" d="M415.8,340.4L415.8,340.4c1.3,0,2.4-1.1,2.4-2.4l0,0c0-1.3-1.1-2.4-2.4-2.4l0,0c-1.3,0-2.4,1.1-2.4,2.4l0,0
			C413.5,339.4,414.5,340.4,415.8,340.4z"/>
		<path class="st27" d="M409.2,340.4L409.2,340.4c1.3,0,2.4-1.1,2.4-2.4l0,0c0-1.3-1.1-2.4-2.4-2.4l0,0c-1.3,0-2.4,1.1-2.4,2.4l0,0
			C406.8,339.4,407.9,340.4,409.2,340.4z"/>
		<path class="st27" d="M402.5,340.4L402.5,340.4c1.3,0,2.4-1.1,2.4-2.4l0,0c0-1.3-1.1-2.4-2.4-2.4l0,0c-1.3,0-2.4,1.1-2.4,2.4l0,0
			C400.1,339.4,401.2,340.4,402.5,340.4z"/>
		<g>
			<g>
				<line class="st12" x1="422.4" y1="402" x2="422.4" y2="422.9"/>
				<circle class="st28" cx="422.4" cy="412.9" r="2.5"/>
			</g>
			<g>
				<line class="st12" x1="431.5" y1="402" x2="431.5" y2="422.9"/>
				<circle class="st28" cx="431.5" cy="408.9" r="2.5"/>
			</g>
			<g>
				<line class="st12" x1="440.7" y1="402" x2="440.7" y2="422.9"/>
				<circle class="st28" cx="440.7" cy="417.6" r="2.5"/>
			</g>
			<g>
				<line class="st12" x1="413.2" y1="402" x2="413.2" y2="422.9"/>
				<circle class="st28" cx="413.2" cy="410.3" r="2.5"/>
			</g>
			<g>
				<line class="st12" x1="404.1" y1="402" x2="404.1" y2="422.9"/>
				<circle class="st28" cx="404.1" cy="416.2" r="2.5"/>
			</g>
		</g>
		<line class="st19" x1="401.2" y1="250.5" x2="415.5" y2="250.5"/>
		<line class="st19" x1="401.2" y1="257.4" x2="415.5" y2="257.4"/>
		<line class="st19" x1="401.2" y1="264.3" x2="415.5" y2="264.3"/>
		<line class="st19" x1="401.2" y1="271.2" x2="415.5" y2="271.2"/>
		<line class="st19" x1="427.2" y1="250.5" x2="441.5" y2="250.5"/>
		<line class="st19" x1="427.2" y1="257.4" x2="441.5" y2="257.4"/>
		<line class="st19" x1="427.2" y1="264.3" x2="441.5" y2="264.3"/>
		<line class="st19" x1="427.2" y1="271.2" x2="441.5" y2="271.2"/>
		<g>
			<polyline class="st19" points="450,303.7 443.9,303.7 443.9,327.5 436.2,327.5 			"/>
			<polyline class="st19" points="436.2,303.7 430.1,303.7 430.1,327.5 422.4,327.5 			"/>
			<polyline class="st19" points="422.4,303.7 416.2,303.7 416.2,327.5 408.6,327.5 			"/>
			<polyline class="st19" points="408.6,303.7 402.4,303.7 402.4,327.5 394.7,327.5 			"/>
		</g>
	</g>
	<g>
		<path class="st21" d="M444.8,355.2c-1.7-1-2.2-3.2-1.2-4.8s3.2-2.2,4.8-1.2"/>
		<polyline class="st19" points="483.6,354.8 463.2,358 449.3,349.7 445.7,355.7 461.8,365.4 484.6,363.9 		"/>
		<path class="st21" d="M498.9,346.7c-0.4-0.8-0.8-1.6-0.8-2.4c0-0.6,0.1-1.3,0.1-1.9c0-0.9,0-1.8,0-2.7c0-0.5-3.8,0.7-4.1,0.9
			c-0.3,0.1-0.5,0.3-0.8,0.4c-0.3,0.1-0.6,0-0.9,0c-0.6,0-1.2,0.2-1.6,0.6c-0.4,0.3-0.6,0.7-0.8,1.2c-0.4,0.9-0.6,1.9-0.8,2.8
			c-0.3,0.9-0.5,1.7-1.5,2.4c-0.4,0.3-0.8,0.7-1.1,1.1c-0.4,0.6-0.2,1.5,0.2,2s1.1,0.9,1.8,1c0.9,0.1,1.8,0,2.7-0.2
			c1.3-0.2,2.6-0.5,4-0.7c0.6-0.1,1.2,0.1,1.8,0.1c0.7,0,1.3,0,2,0c0.7,0,1.4-0.1,1.7-0.7c0.3-0.7-0.1-1.4-0.5-2.1
			C499.8,348.1,499.3,347.4,498.9,346.7z"/>
		<path class="st29" d="M500.2,446h-14.4v-2.7c0-2.3,1.9-4.2,4.2-4.2h10.2V446z"/>
		<polygon class="st30" points="502.5,394.5 490,394.5 487.8,412.9 490,439.1 498.9,439.1 498.8,418.4 		"/>
		<path class="st29" d="M493.9,446h-14.4v-2.7c0-2.3,1.9-4.2,4.2-4.2h10.2V446z"/>
		<circle class="st21" cx="494.3" cy="332" r="11.4"/>
		<polygon class="st30" points="496.3,394.5 483.7,394.5 481.6,412.9 483.7,439.1 492.6,439.1 492.5,418.4 		"/>
		<path class="st19" d="M505.7,354.2c-0.2-2-1.6-3.7-3.6-4.1c-1.1-0.2-2.1-0.4-3.2-0.6c-1.3,0.9-3.4,1.4-5.8,1.4
			c-3.2,0-5.9-1-6.8-2.4c-3.4,1.3-5.9,4.5-6.2,8.6c-0.5,12.6,0.6,25.1,3.1,37.3c6.2,1.8,13.7,2.8,20.3,1.5
			C506.2,383.8,506.8,366.9,505.7,354.2z"/>
		<path class="st22" d="M506.2,332.1l-24.4-2l0.4-5.2c0.4-4.4,4.2-7.7,8.7-7.3l12,1c2.5,0.2,4.3,2.4,4.1,4.8L506.2,332.1z"/>
		<line class="st22" x1="481.7" y1="330.1" x2="474.6" y2="329.5"/>
		<circle class="st12" cx="495.6" cy="331.2" r="4.4"/>
		<path class="st0" d="M495.9,326.9c0,0,1.5-8.8-1.8-9.1"/>
		
			<rect x="465.1" y="354" transform="matrix(0.9675 -0.2527 0.2527 0.9675 -78.4403 130.2282)" class="st8" width="5.2" height="32.9"/>
		<g>
			<path class="st21" d="M468,379.6c-1.9-0.6-2.9-2.5-2.4-4.4s2.5-2.9,4.4-2.4"/>
			<polyline class="st19" points="493.9,358.4 487.5,378.1 471,373.1 469,379.9 492,386.7 502.4,361.6 			"/>
		</g>
	</g>
	<g>
		<rect x="648.9" y="434" class="st7" width="10.1" height="6.8"/>
		<circle class="st7" cx="648.9" cy="440.9" r="3.2"/>
		<circle class="st7" cx="659" cy="440.9" r="3.2"/>
	</g>
	<g>
		
			<rect x="556.5" y="434" transform="matrix(-1 -4.466351e-11 4.466351e-11 -1 1123.099 874.8926)" class="st7" width="10.1" height="6.8"/>
		<circle class="st7" cx="566.6" cy="440.9" r="3.2"/>
		<circle class="st7" cx="556.5" cy="440.9" r="3.2"/>
	</g>
	<rect x="551.1" y="426.3" class="st7" width="113.3" height="7.7"/>
	<polyline class="st9" points="664.4,434 664.4,396 672.6,396 	"/>
	<g>
		<g>
			<g>
				<rect x="65.7" y="118" class="st10" width="41.8" height="41.8"/>
			</g>
		</g>
		<path class="st31" d="M99.5,136.4c0-0.5-0.1-1-0.3-1.6c-0.2-0.6-0.4-1.2-0.7-1.9c-0.3-0.7-0.8-1.4-1.3-2.1
			c-0.2-0.3-0.5-0.5-0.7-0.8c0.4-1.6-0.5-2.9-0.5-2.9c-1.5-0.1-2.5,0.5-2.8,0.7c-0.1,0-0.1-0.1-0.2-0.1c-0.3-0.1-0.5-0.2-0.8-0.3
			c-0.3-0.1-0.5-0.2-0.8-0.2c-0.3-0.1-0.6-0.1-0.9-0.2c-0.1,0-0.1,0-0.2,0c-0.7-2.1-2.5-3-2.5-3c-2.1,1.3-2.5,3.2-2.5,3.2s0,0,0,0.1
			c-0.1,0-0.2,0.1-0.3,0.1c-0.2,0-0.3,0.1-0.5,0.2c-0.2,0.1-0.3,0.1-0.5,0.2c-0.3,0.1-0.6,0.3-0.9,0.5c-0.3,0.2-0.6,0.4-0.9,0.5
			c0,0-0.1,0-0.1,0c-2.9-1.1-5.5,0.2-5.5,0.2c-0.2,3.1,1.2,5.1,1.4,5.4c-0.1,0.2-0.1,0.4-0.2,0.6c-0.2,0.7-0.4,1.4-0.5,2.2
			c0,0.1,0,0.2,0,0.3c-2.7,1.3-3.5,4.1-3.5,4.1c2.2,2.6,4.9,2.7,4.9,2.7l0,0c0.3,0.6,0.7,1.2,1.1,1.7c0.2,0.2,0.4,0.4,0.6,0.6
			c-0.8,2.3,0.1,4.3,0.1,4.3c2.5,0.1,4.1-1.1,4.5-1.4c0.2,0.1,0.5,0.2,0.8,0.2c0.8,0.2,1.6,0.3,2.3,0.3c0.2,0,0.4,0,0.6,0h0.1h0.1
			h0.1l0.1,0v0c1.2,1.7,3.2,1.9,3.2,1.9c1.5-1.6,1.6-3.1,1.6-3.4l0,0c0,0,0,0,0,0c0,0,0,0,0,0l0,0c0,0,0,0,0-0.1
			c0.3-0.2,0.6-0.4,0.9-0.7c0.6-0.5,1.1-1.1,1.5-1.8c0-0.1,0.1-0.1,0.1-0.2c1.7,0.1,2.8-1,2.8-1c-0.3-1.7-1.3-2.6-1.5-2.7l0,0
			c0,0,0,0,0,0c0,0,0,0,0,0l0,0c0,0,0,0,0,0c0-0.1,0-0.2,0-0.3c0-0.2,0-0.4,0-0.6v-0.1v-0.1v0c0,0,0,0,0,0l0-0.1l0-0.2
			c0-0.1,0-0.1,0-0.1s0-0.1,0-0.1l0-0.1l0-0.1c0-0.2-0.1-0.4-0.1-0.6c-0.2-0.7-0.5-1.5-0.8-2.1c-0.4-0.6-0.9-1.2-1.4-1.7
			c-0.5-0.5-1.1-0.9-1.8-1.1c-0.6-0.3-1.3-0.5-2-0.6c-0.3,0-0.7-0.1-1-0.1h-0.1h0c0,0,0,0,0,0h-0.1l-0.1,0c0,0-0.1,0-0.1,0
			c-0.2,0-0.3,0-0.5,0.1c-0.7,0.1-1.3,0.4-1.8,0.7c-0.5,0.3-1,0.7-1.4,1.2c-0.4,0.5-0.7,1-0.9,1.5c-0.2,0.5-0.3,1.1-0.4,1.6
			c0,0.1,0,0.3,0,0.4c0,0,0,0.1,0,0.1l0,0.1c0,0.1,0,0.1,0,0.2c0,0.3,0.1,0.5,0.1,0.8c0.1,0.5,0.4,1,0.7,1.3c0.3,0.4,0.6,0.7,1,1
			c0.4,0.2,0.8,0.4,1.1,0.5c0.4,0.1,0.8,0.2,1.1,0.2c0,0,0.1,0,0.1,0c0,0,0,0,0.1,0c0,0,0,0,0.1,0c0,0,0.1,0,0.1,0c0,0,0,0,0,0l0,0
			c0,0,0,0,0.1,0c0,0,0.1,0,0.1,0c0,0,0.1,0,0.1,0c0.1,0,0.2,0,0.2-0.1c0.2-0.1,0.3-0.1,0.4-0.2c0.1-0.1,0.3-0.2,0.4-0.2
			c0,0,0.1,0,0.1-0.1c0.1-0.1,0.1-0.3,0-0.4c-0.1-0.1-0.2-0.1-0.4-0.1c0,0-0.1,0-0.1,0c-0.1,0.1-0.2,0.1-0.3,0.1
			c-0.1,0-0.2,0.1-0.4,0.1c-0.1,0-0.1,0-0.2,0c0,0-0.1,0-0.1,0c0,0-0.1,0-0.1,0c0,0-0.1,0-0.1,0c0,0-0.1,0-0.1,0c0,0,0,0,0,0h0h0
			c0,0,0,0-0.1,0c0,0-0.1,0-0.1,0c-0.3,0-0.6-0.1-0.8-0.2c-0.3-0.1-0.5-0.3-0.8-0.5s-0.4-0.5-0.6-0.8c-0.2-0.3-0.3-0.6-0.3-1
			c0-0.2,0-0.3,0-0.5c0,0,0-0.1,0-0.1c0,0,0,0,0,0v0v0c0,0,0,0,0-0.1c0-0.1,0-0.2,0-0.3c0.1-0.7,0.5-1.5,1.1-2
			c0.1-0.1,0.3-0.3,0.5-0.4c0.2-0.1,0.3-0.2,0.5-0.3c0.2-0.1,0.4-0.2,0.6-0.2c0.2-0.1,0.4-0.1,0.6-0.1c0.1,0,0.2,0,0.3,0
			c0,0,0,0,0.1,0h0.1h0.1c0,0,0,0,0,0h0l0.1,0c0.2,0,0.4,0,0.7,0.1c0.4,0.1,0.9,0.3,1.2,0.5c0.8,0.4,1.5,1.1,1.9,1.9
			c0.2,0.4,0.4,0.8,0.4,1.3c0,0.1,0,0.2,0,0.3l0,0.1l0,0.1c0,0,0,0.1,0,0.1c0,0,0,0.1,0,0.1v0.1v0.1c0,0.1,0,0.1,0,0.2
			c0,0.1,0,0.3,0,0.4s0,0.2-0.1,0.4c0,0.1-0.1,0.2-0.1,0.4c-0.1,0.2-0.1,0.5-0.2,0.7c-0.2,0.5-0.4,0.9-0.7,1.3
			c-0.6,0.8-1.4,1.5-2.3,1.9c-0.5,0.2-0.9,0.4-1.5,0.4c-0.2,0-0.5,0.1-0.8,0.1h0h0h-0.1h-0.1h-0.1c0,0,0,0,0,0h0c-0.1,0-0.3,0-0.4,0
			c-0.5,0-1.1-0.1-1.6-0.3c-0.5-0.1-1-0.4-1.5-0.6c-0.9-0.5-1.8-1.2-2.5-2c-0.3-0.4-0.6-0.9-0.9-1.3c-0.2-0.5-0.4-1-0.6-1.5
			c-0.1-0.5-0.2-1-0.3-1.6l0-0.1v0v0v0v-0.1v0v0v-0.1v-0.1v0c0,0,0,0,0,0v0c0-0.1,0-0.1,0-0.2c0-0.3,0-0.5,0.1-0.8s0.1-0.5,0.1-0.8
			s0.1-0.5,0.2-0.8c0.1-0.5,0.3-1,0.5-1.5c0.4-0.9,1-1.8,1.7-2.5c0.2-0.2,0.3-0.3,0.5-0.5c0.2-0.1,0.4-0.3,0.6-0.4
			c0.2-0.1,0.4-0.2,0.6-0.4c0.1-0.1,0.2-0.1,0.3-0.2c0.1,0,0.1,0,0.2-0.1c0.1,0,0.1,0,0.2-0.1c0.2-0.1,0.4-0.2,0.7-0.2
			c0.1,0,0.1,0,0.2-0.1c0.1,0,0.1,0,0.2,0c0.1,0,0.2-0.1,0.3-0.1c0.1,0,0.1,0,0.2,0s0.1,0,0.2,0c0.1,0,0.1,0,0.2,0l0.1,0l0.1,0
			c0.1,0,0.1,0,0.2,0c0.1,0,0.1,0,0.2,0c0.1,0,0.1,0,0.2,0c0,0,0.1,0,0.1,0l0.1,0l0,0h0c0.1,0,0.1,0,0.2,0l0.1,0c0,0,0,0,0,0h0h0
			c0.1,0,0.1,0,0.2,0c0.2,0,0.5,0,0.7,0c0.4,0,0.9,0.1,1.3,0.1c0.9,0.2,1.7,0.4,2.4,0.8c0.7,0.4,1.4,0.8,2,1.3c0,0,0.1,0.1,0.1,0.1
			c0,0,0.1,0.1,0.1,0.1c0.1,0.1,0.1,0.1,0.2,0.2s0.1,0.1,0.2,0.2s0.1,0.1,0.2,0.2c0.2,0.3,0.5,0.5,0.7,0.8c0.4,0.5,0.7,1,1,1.5
			c0,0,0,0.1,0,0.1c0,0,0,0.1,0,0.1c0,0.1,0.1,0.1,0.1,0.2c0,0.1,0.1,0.1,0.1,0.2c0,0.1,0.1,0.1,0.1,0.2c0.1,0.2,0.2,0.5,0.3,0.7
			c0.1,0.3,0.2,0.6,0.3,0.9c0,0.1,0.1,0.2,0.2,0.2c0.1,0,0.2-0.1,0.2-0.2C99.5,137.1,99.5,136.7,99.5,136.4z"/>
	</g>
	<g id="logo_1_">
		<path class="st31" d="M564.4,391.9V419h27.2v-27.2H564.4z M576.2,402v9.3l-5.1,0.9L576.2,402z M576.2,415.6l-5.1-2.5h13.6
			L576.2,415.6z M577.1,411.4v-16.1l7.6,17L577.1,411.4z"/>
	</g>
	<g>
		<path class="st31" d="M615.5,397.3c-0.1-1.7,1.5-7.4,1.6-7.7c-0.3,0.4-5.3,6.6-5.7,9.1c-0.2,1.5,1.6,4.2,2.7,5.7
			c0.6-1.9,1.6-3.6,2.9-4.9C616.4,398.9,615.6,398,615.5,397.3z M634.3,389.6c0.1,0.3,1.8,6,1.6,7.7c-0.1,0.7-0.8,1.5-1.4,2.1
			c0.1,0.1,0.3,0.3,0.4,0.5c1.1,1.3,1.9,2.7,2.5,4.4c1.1-1.5,2.8-4,2.6-5.5C639.7,396.2,634.6,390,634.3,389.6z"/>
		<path class="st31" d="M636.7,405.2C636.7,405.2,636.7,405.2,636.7,405.2L636.7,405.2c-0.5-1.8-1.3-3.3-2.4-4.6
			c-0.2-0.2-0.3-0.4-0.5-0.5h0v0c-2.1-2.2-4.9-3.5-7.9-3.5v0c-3.1,0-5.9,1.3-8,3.5c-1.3,1.4-2.3,3.2-2.9,5.2h0v7.6
			c0,0,4.4,1.7,6.2,3.1c1.5,1.1,4.4,5.2,4.4,5.2h0.3v0h0.2c0,0,2.9-4.2,4.4-5.3c1.8-1.4,6.2-3.1,6.2-3.1V405.2L636.7,405.2
			C636.7,405.3,636.7,405.2,636.7,405.2z M627.1,405.2c0,0.2-0.1,0.4-0.3,0.6c-0.1,0.1-0.1,0.1-0.2,0.2c-0.1,0-0.1,0.1-0.2,0.1
			c-0.2,0.1-0.4,0.2-0.6,0.2h0c-0.6,0-1.1-0.4-1.3-1c0-0.1-0.1-0.2-0.1-0.4c0-0.8,0.6-1.4,1.4-1.4h0c0.1,0,0.2,0,0.3,0
			c0.3,0.1,0.5,0.2,0.7,0.4c0.2,0.2,0.4,0.6,0.4,1C627.2,405,627.2,405.1,627.1,405.2z"/>
	</g>
	<path class="st31" d="M282.5,109.1v26.6h18.8c4.3,0,7.8-3.5,7.8-7.8v-18.8H282.5z M303.3,125.9h1v1h-1V125.9z M303,121.6h1.6v1.6
		H303V121.6z M302.7,117.4h2.1v2.1h-2.1L302.7,117.4z M299.3,129.8h1v1h-1L299.3,129.8z M299,125.5h1.6v1.6H299V125.5z M298.8,121.3
		h2.1v2.1h-2.1L298.8,121.3z M299,119.2v-1.6h1.6v1.6L299,119.2z M291.4,129.8h1v1h-1V129.8z M291.1,125.5h1.6v1.6h-1.6V125.5z
		 M291.4,122.9v-1h1v1H291.4z M291.1,117.6h1.6v1.6h-1.6V117.6z M287.4,129.8h1v1h-1V129.8z M287.4,125.9h1v1h-1V125.9z
		 M287.1,121.6h1.6v1.6h-1.6V121.6z M286.9,117.4h2.1v2.1h-2.1V117.4z M285.9,112.5h19.8v4h-7.9v15.9h-4v-15.9h-7.9L285.9,112.5z"/>
	<g id="Layer_2_1_">
		<g id="Logo_1_">
			<path class="st31" d="M96.9,83.3l13.7,27.6l13.8-27.6H96.9z M112.3,88.8h1.6v1.6h-1.6V88.8z M109.1,95.2h-1.6v-1.6h1.6V95.2z
				 M109.1,92.8h-1.6v-1.6h1.6V92.8z M109.1,90.4h-1.6v-1.6h1.6V90.4z M111.5,97.6h-1.6V96h1.6V97.6z M111.5,95.2h-1.6v-1.6h1.6
				V95.2z M111.5,92.8h-1.6v-1.6h1.6V92.8z M111.5,90.4h-1.6v-1.6h1.6V90.4z M112.3,91.2h1.6v1.6h-1.6L112.3,91.2z M112.3,95.2v-1.6
				h1.6v1.6L112.3,95.2z"/>
		</g>
	</g>
	<g>
		<g>
			<rect x="159.8" y="118" class="st10" width="41.8" height="41.8"/>
		</g>
		<g>
			<path class="st31" d="M191.2,131.6c-0.1,0.1-0.2,0.2-0.3,0.3l-9.2,6v-4.3c0-0.3,0.2-0.5,0.5-0.5h0.7c0.3,0,0.5-0.2,0.5-0.5
				c0-0.1,0-0.2-0.1-0.3l-2.2-3.8c-0.1-0.2-0.5-0.3-0.7-0.2c-0.1,0-0.1,0.1-0.2,0.2l-2.2,3.8c-0.1,0.2-0.1,0.6,0.2,0.7
				c0.1,0,0.2,0.1,0.3,0.1h0.7c0.3,0,0.5,0.2,0.5,0.5v4.3l-9.2-6c-0.4-0.3-0.5-0.8-0.3-1.2c0.1-0.1,0.2-0.2,0.3-0.3l9.7-6.3
				c0.3-0.2,0.7-0.2,0.9,0l9.7,6.3C191.3,130.7,191.4,131.2,191.2,131.6z"/>
			<path class="st31" d="M179.9,153.5l0.3,0.2c0.1,0.1,0.2,0.1,0.3,0.1C180.3,153.7,180.1,153.6,179.9,153.5z"/>
			<path class="st31" d="M176.7,151.4l3.3,2.1c0.2,0.1,0.4,0.2,0.6,0.3c0.2,0,0.5,0,0.7-0.1l0.5-0.3
				C180.1,152.3,178.4,151.8,176.7,151.4z M177.5,149.4c-2.5-0.6-4.9-1.2-6.9-3.1c-0.1-0.1-0.2-0.2-0.3-0.3c-0.3,0.3-0.3,0.9,0,1.2
				c0,0,0.1,0.1,0.1,0.1l2.9,1.9c1.3,0.5,2.6,0.9,3.9,1.2c2,0.5,4,1,5.7,2.2l0.9-0.6C181.9,150.5,179.6,150,177.5,149.4z
				 M179.2,147.7c-2.5-0.6-4.9-1.2-6.8-3.1l-0.8,0.5c0,0,0.1,0.1,0.1,0.1c2.1,2.1,4.8,2.8,7.3,3.4c2.2,0.5,4.3,1.1,6.1,2.5l0.8-0.6
				C183.9,148.9,181.5,148.3,179.2,147.7z M181.7,146.2v1c2,0.5,3.8,1.1,5.4,2.5l0.8-0.5C186.1,147.5,183.9,146.8,181.7,146.2z
				 M174.5,143.3l-0.8,0.5c1.8,1.7,3.9,2.3,6,2.9v-1C177.8,145.2,176,144.6,174.5,143.3z M176.6,141.9l-0.9,0.6c1.2,1,2.6,1.6,4,2.1
				v-1C178.6,143.2,177.5,142.6,176.6,141.9z M189.9,147.7c-2.1-2.1-4.8-2.8-7.3-3.4c-0.3-0.1-0.6-0.1-0.9-0.2v1
				c0.2,0.1,0.4,0.1,0.6,0.2c2.5,0.6,4.9,1.2,6.9,3.1c0,0,0,0,0,0l0.8-0.5C190,147.8,189.9,147.8,189.9,147.7z M178.7,140.5
				l-0.9,0.6c0.6,0.4,1.2,0.8,1.8,1.1v-1.1C179.3,140.9,179,140.7,178.7,140.5z M190.9,145.9l-3.8-2.5c-0.9-0.3-1.9-0.5-2.8-0.8
				c-0.9-0.2-1.7-0.4-2.6-0.7v1c0.8,0.2,1.6,0.4,2.3,0.6c2.5,0.6,4.9,1.2,6.9,3.1c0.1,0.1,0.2,0.2,0.3,0.3
				C191.4,146.6,191.3,146.1,190.9,145.9z M181.7,139.9v0.7c0.8,0.3,1.5,0.6,2.3,0.8L181.7,139.9z"/>
		</g>
	</g>
	<g>
		<path class="st31" d="M436.2,187.4c-0.7-2.6-2-4.9-3.9-6.7c-1.1-1.1-2.4-1.9-3.8-2.6c-2-1-4.1-1.4-6.3-1.4c-0.9,0-1.7,0.1-2.6,0.3
			c-1.2,0.2-2.4,0.6-3.6,1.2c-1.6,0.8-2.9,1.8-4.1,3c-0.9,1-1.7,2-2.3,3.2c-1.1,2.1-1.6,4.3-1.5,6.6c0,0.7,0.1,1.3,0.2,2
			c0.2,1.4,0.7,2.6,1.3,3.9c0.7,1.5,1.7,2.8,2.9,3.9c1.1,1,2.2,1.8,3.5,2.5c2,1,4,1.4,6.2,1.4c0.2,0,0.3,0,0.5,0
			c0.7,0,1.5-0.1,2.2-0.2c1.3-0.2,2.6-0.6,3.8-1.2c1.5-0.7,2.9-1.7,4-2.9c0.9-1,1.7-2.1,2.3-3.3c1.1-2.1,1.6-4.4,1.5-6.8
			C436.6,189.3,436.4,188.4,436.2,187.4z M425.9,201.3c-0.5,0.7-1.3,1.2-2.1,1.5c-0.6,0.2-1.3,0.2-1.9,0.1c-0.7-0.1-1.3-0.3-1.8-0.6
			c-0.6-0.3-1-0.8-1.3-1.4c-0.2-0.4-0.3-0.8-0.3-1.2c0-0.1,0-0.1,0.1-0.1h3.9c1.3,0,2.6,0,3.9,0c0.1,0,0.1,0,0.1,0.1
			C426.4,200.4,426.2,200.9,425.9,201.3z M428.9,198.5c-4.4,0-8.7,0-13.1,0c-0.1,0-0.1,0-0.1-0.1c0-0.7,0-1.4,0-2.1
			c0-0.1,0-0.1,0.1-0.1c2.2,0,4.4,0,6.6,0h6.5c0.1,0,0.1,0,0.1,0.1C429,197,429,197.7,428.9,198.5C429,198.5,429,198.5,428.9,198.5z
			 M431,191.8c-0.4,1.2-1.1,2.2-1.9,3.1c-0.1,0.1-0.2,0.1-0.3,0.1c-0.1,0-0.1,0-0.2,0c-1.3,0-2.6,0-3.8,0c-1.2,0-2.5,0-3.7,0
			c-1.4,0-2.8,0-4.2,0c-0.3,0-0.6,0-0.9,0c-0.2,0-0.4-0.1-0.6-0.3c-0.5-0.6-1-1.2-1.3-1.9c-0.2-0.3-0.3-0.6-0.4-1c0-0.1,0-0.2,0-0.2
			c0-0.1,0-0.1,0.1-0.1c0.4,0.1,0.7,0.1,1.1,0.2c1,0.2,2,0.4,3.1,0.6c0,0,0,0,0,0c0,0,0-0.1,0-0.1c-0.4-0.5-0.7-1.1-1-1.7
			c-0.3-0.7-0.4-1.5-0.2-2.2c0.1-0.8,0.4-1.7,0.6-2.5c0.1-0.5,0.3-1,0.5-1.4c0.2-0.5,0.3-1,0.4-1.5c0.1-0.4,0.1-0.8,0-1.2
			c0,0,0,0,0-0.1c0.2,0.1,0.3,0.2,0.4,0.4c0.4,0.5,0.7,1,0.8,1.6c0.1,0.5,0.2,0.9,0.2,1.4c0,0.1,0,0.3,0.1,0.5
			c0.1-0.2,0.2-0.4,0.3-0.5c0.3-0.5,0.4-1.1,0.5-1.6c0.1-0.7,0.2-1.5,0.3-2.2c0.1-0.7,0.3-1.4,0.7-2c0.2-0.3,0.5-0.5,0.9-0.7
			c0,0,0,0,0,0c0,0.1-0.1,0.2-0.1,0.3c-0.1,0.5-0.1,1,0.1,1.5c0.1,0.4,0.3,0.8,0.5,1.2c0.4,1,0.7,2,0.9,3c0.1,0.6,0.2,1.2,0.2,1.8
			c0,0.1,0,0.2,0,0.3c0,0,0,0.1,0.1,0.1c0-0.3,0.1-0.6,0.1-0.9c0.1-1,0.3-2,0.5-3c0.2-0.6,0.4-1.2,0.8-1.7c0.1-0.1,0.2-0.2,0.3-0.3
			c0,0.1,0,0.1,0,0.1c-0.1,0.7-0.1,1.4,0.1,2.1c0.2,0.7,0.5,1.3,0.8,1.9c0.3,0.5,0.6,1,0.8,1.6c0.3,0.8,0.4,1.6,0.4,2.5
			c-0.1,1-0.3,1.9-0.8,2.7c-0.1,0.2-0.2,0.4-0.3,0.6c0,0,0,0.1,0,0.1c1.5-0.3,3-0.6,4.5-0.9C431.1,191.6,431.1,191.7,431,191.8z"/>
	</g>
	<g>
		<g>
			<rect x="136.8" y="76.2" class="st10" width="41.8" height="41.8"/>
		</g>
		<g>
			<path class="st32" d="M171.6,101.3c-3.5,0.7-3.8-0.5-3.8-0.5c3.7-5.5,5.3-12.5,3.9-14.2c-3.7-4.7-10-2.5-10.1-2.4l0,0
				c-0.7-0.1-1.5-0.2-2.4-0.2c-1.6,0-2.8,0.4-3.7,1.1c0,0-11.3-4.7-10.8,5.9c0.1,2.2,3.2,16.9,6.9,12.5c1.3-1.6,2.7-3,2.7-3
				c0.6,0.4,1.4,0.6,2.2,0.6l0.1-0.1c0,0.2,0,0.4,0,0.6c-1,1.1-0.7,1.2-2.6,1.6c-1.9,0.4-0.8,1.1-0.1,1.3c0.9,0.2,3,0.5,4.4-1.4
				l-0.1,0.2c0.4,0.3,0.6,1.9,0.6,3.4c0,1.5-0.1,2.5,0.2,3.3c0.3,0.8,0.6,2.6,3.1,2.1c2.1-0.4,3.2-1.6,3.3-3.5
				c0.1-1.4,0.3-1.2,0.4-2.4l0.2-0.6c0.2-1.9,0-2.5,1.3-2.2l0.3,0c0.9,0,2.2-0.2,2.9-0.5C172.2,102.2,173.1,101,171.6,101.3
				L171.6,101.3z"/>
			<path class="st33" d="M158.5,102.4c-0.1,3.5,0,7,0.4,7.8c0.3,0.8,1.1,2.5,3.6,2c2.1-0.4,2.8-1.3,3.2-3.2c0.2-1.4,0.7-5.3,0.8-6.1
				"/>
			<path class="st33" d="M155.5,85c0,0-11.3-4.6-10.8,5.9c0.1,2.2,3.2,16.9,6.9,12.5c1.3-1.6,2.6-2.9,2.6-2.9"/>
			<path class="st33" d="M161.6,84.2c-0.4,0.1,6.3-2.4,10.1,2.4c1.3,1.7-0.2,8.7-3.9,14.2"/>
			<path class="st34" d="M167.8,100.8c0,0,0.2,1.2,3.8,0.5c1.5-0.3,0.6,0.9-1,1.6c-1.3,0.6-4.2,0.7-4.2-0.1
				C166.3,100.7,167.9,101.4,167.8,100.8c-0.1-0.5-0.8-1-1.3-2.1c-0.4-1-5.8-8.9,1.5-7.7c0.3-0.1-1.9-6.9-8.7-7
				c-6.8-0.1-6.6,8.4-6.6,8.4"/>
			<path class="st33" d="M156.6,101.5c-1,1.1-0.7,1.2-2.6,1.6c-1.9,0.4-0.8,1.1-0.1,1.3c0.9,0.2,3,0.5,4.4-1.4
				c0.4-0.6,0-1.5-0.6-1.8C157.5,101.1,157.1,101,156.6,101.5L156.6,101.5z"/>
			<path class="st33" d="M156.5,101.5c-0.1-0.6,0.2-1.4,0.5-2.2c0.5-1.3,1.6-2.6,0.7-6.7c-0.7-3.1-5.1-0.6-5.1-0.2
				c0,0.4,0.2,2.1-0.1,4.1c-0.4,2.6,1.6,4.8,4,4.5"/>
			<path class="st35" d="M155.5,92.3c0,0.1,0.3,0.5,0.6,0.6c0.4,0.1,0.7-0.2,0.7-0.4c0-0.1-0.3-0.3-0.6-0.4
				C155.8,92,155.5,92.1,155.5,92.3L155.5,92.3z"/>
			<path class="st36" d="M166.6,92c0,0.1-0.3,0.5-0.6,0.6c-0.4,0.1-0.7-0.2-0.7-0.4c0-0.1,0.3-0.3,0.6-0.4
				C166.3,91.7,166.6,91.8,166.6,92L166.6,92z"/>
			<path class="st33" d="M168,91c0.1,1.1-0.2,1.9-0.3,3.1c-0.1,1.7,0.8,3.7-0.5,5.7"/>
		</g>
	</g>
	<g>
		<g>
			<rect x="112.8" y="118" class="st10" width="41.8" height="41.8"/>
		</g>
		<g>
			<path class="st31" d="M127.4,138v1.3h0.7l-0.2,1.9l4.7,2.1l-0.3-3.9h0.6V138h-0.5v-2.7h0.5v-0.8l-2.5-2.5v-0.2
				c0-0.1-0.1-0.2-0.2-0.2c-0.1,0-0.2,0.1-0.2,0.2v0.2l-2.5,2.5v0.8h0.5v2.7H127.4z M128.6,135.3h3.1v2.7H131v-1.1
				c0-0.5-0.4-0.8-0.8-0.8c-0.5,0-0.8,0.4-0.8,0.8c0,0,0,0,0,0v1.1h-0.7L128.6,135.3z"/>
			<polygon class="st31" points="127.7,144.3 132.9,146.6 132.8,145.6 127.7,143.4 			"/>
			<polygon class="st31" points="132.9,147.3 129.2,145.6 127.6,144.9 127.6,144.9 127.6,144.9 127.5,145.8 133,148.2 			"/>
			<polygon class="st31" points="127.9,141.8 127.8,142.7 132.7,144.9 132.7,143.9 			"/>
			<path class="st31" d="M133.7,150.4c-0.2,0-0.3,0-0.5,0l-0.1-1.5h0l-5.6-2.5l-0.2,2c-3.1-2.1-5.2-5.6-5.2-9.6
				c0-6.4,5.2-11.6,11.6-11.6c1.5,0,2.9,0.3,4.3,0.8l1.6-1.9c-1.8-0.8-3.8-1.3-5.9-1.3c-7.7,0-14,6.3-14,14c0,7.7,6.3,14,14,14
				c6.1,0,11.2-3.9,13.2-9.2l-2.2-0.8C142.9,147.2,138.7,150.4,133.7,150.4z"/>
			<path class="st31" d="M142.2,131.3l2.4-1.2c-0.1-0.1-0.2-0.2-0.2-0.3c-0.7-0.9-1.5-1.6-2.4-2.3c-0.1-0.1-0.3-0.2-0.4-0.3
				l-1.8,1.9l-6.7,7L142.2,131.3z"/>
			<path class="st31" d="M147.7,138.8L147.7,138.8c0-0.2,0-0.3,0-0.5l-2.6-0.2l-12-0.9l11.8,4.1l2.5,0.9c0,0,0-0.1,0-0.1
				c0.2-1.1,0.4-2.1,0.4-3.2C147.7,138.8,147.7,138.8,147.7,138.8z"/>
			<path class="st31" d="M133.2,136.7l11.6-0.4l2.6-0.1c0-0.2-0.1-0.4-0.1-0.6l0,0c-0.3-1.1-0.6-2.1-1.1-3.1l-2.5,0.8L133.2,136.7z"
				/>
		</g>
	</g>
	<g>
		<rect x="582.7" y="293.1" class="st10" width="41.8" height="41.8"/>
	</g>
	<g>
		<path class="st31" d="M606.8,315.4c0,0-0.1,0-0.1,0c-0.1,0-0.1,0-0.2,0c-0.2,0.1-0.3,0.4-0.2,0.6l0,0l1.1,2.8
			c1.1-0.7,1.9-1.7,2.4-3L606.8,315.4L606.8,315.4z M602.3,315.8c-0.1-0.2-0.2-0.4-0.5-0.4c0,0-0.1,0-0.1,0l0,0l-2.9,0.5
			c0.4,1.2,1.3,2.2,2.3,2.9l1.1-2.7l0,0C602.3,316,602.3,315.9,602.3,315.8z M604.7,316.9c-0.1-0.2-0.4-0.3-0.7-0.2
			c-0.1,0-0.2,0.1-0.2,0.2h0l-1.4,2.6c1,0.3,2.1,0.4,3.2,0.2c0.2,0,0.4-0.1,0.6-0.2L604.7,316.9L604.7,316.9z M609.2,310.8l-2.2,2
			l0,0c-0.2,0.2-0.2,0.5,0,0.7c0.1,0.1,0.1,0.1,0.2,0.2l0,0l2.9,0.8C610.2,313.2,609.9,311.9,609.2,310.8L609.2,310.8z M605.1,311.1
			c0,0.3,0.2,0.5,0.5,0.5c0.1,0,0.2,0,0.3-0.1l0,0l2.4-1.7c-0.9-0.9-2.1-1.5-3.4-1.6L605.1,311.1L605.1,311.1z M602.6,311.5
			c0.2,0.2,0.5,0.1,0.7-0.1c0.1-0.1,0.1-0.2,0.1-0.3l0,0l0.2-3c-0.2,0-0.4,0.1-0.6,0.1c-1.1,0.2-2,0.8-2.8,1.5L602.6,311.5
			L602.6,311.5z M601.3,313.7c0.3-0.1,0.4-0.3,0.3-0.6c0-0.1-0.1-0.2-0.2-0.2l0,0l-2.2-2c-0.7,1.1-1,2.4-0.8,3.7L601.3,313.7
			L601.3,313.7z M603.4,314.6l0.8,0.4l0.8-0.4l0.2-0.9l-0.6-0.7h-0.9l-0.6,0.7L603.4,314.6z"/>
		<path class="st31" d="M617.8,316.3l-2.3-10.1c-0.1-0.5-0.5-1-1-1.2l-9.4-4.5c-0.5-0.2-1.1-0.2-1.6,0l-9.4,4.5
			c-0.5,0.2-0.8,0.7-1,1.2l-2.3,10.1c-0.1,0.3-0.1,0.5,0,0.8c0,0.1,0,0.2,0.1,0.2c0,0.1,0.1,0.3,0.2,0.4c0,0,0.1,0.1,0.1,0.1
			l6.5,8.1c0,0,0.1,0.1,0.1,0.1c0.1,0.1,0.2,0.2,0.3,0.3c0.2,0.1,0.3,0.2,0.5,0.2c0.1,0,0.3,0.1,0.5,0.1h0.1l10.4,0
			c0.1,0,0.1,0,0.2,0c0.1,0,0.2,0,0.3-0.1c0.1,0,0.1,0,0.2-0.1c0,0,0.1,0,0.1-0.1c0.1,0,0.1-0.1,0.2-0.1c0.2-0.1,0.3-0.2,0.4-0.4
			l0.2-0.2l6.3-7.9c0.1-0.2,0.2-0.3,0.3-0.5c0-0.1,0-0.2,0.1-0.2C617.8,316.8,617.8,316.6,617.8,316.3L617.8,316.3z M608,320.2
			c0,0.1,0.1,0.2,0.1,0.2c-0.1,0.1-0.1,0.2,0,0.3c0.1,0.3,0.3,0.6,0.5,0.9c0.1,0.1,0.2,0.3,0.3,0.4c0,0,0.1,0.1,0.1,0.2
			c0.2,0.3,0.1,0.6-0.2,0.8c-0.3,0.2-0.6,0.1-0.8-0.2c0,0,0-0.1,0-0.1c0,0-0.1-0.1-0.1-0.1c-0.1-0.2-0.1-0.3-0.2-0.5
			c-0.1-0.3-0.2-0.6-0.4-0.9c-0.1-0.1-0.2-0.2-0.3-0.2c0,0-0.1-0.2-0.1-0.2c-1.7,0.6-3.5,0.6-5.2,0l-0.1,0.2c-0.1,0-0.2,0.1-0.2,0.1
			c-0.2,0.3-0.3,0.7-0.4,1c0,0.2-0.1,0.3-0.2,0.5c0,0,0,0.1-0.1,0.1v0l0,0c-0.1,0.3-0.4,0.4-0.7,0.3c-0.3-0.1-0.4-0.4-0.3-0.7
			c0,0,0-0.1,0-0.1c0,0,0-0.1,0.1-0.2c0.1-0.2,0.2-0.3,0.3-0.5c0.2-0.3,0.4-0.6,0.5-0.9c0-0.1,0-0.2-0.1-0.3l0.1-0.2
			c-1.5-0.9-2.7-2.4-3.3-4.1l-0.2,0c-0.1-0.1-0.2-0.1-0.3-0.1c-0.3,0.1-0.7,0.2-1,0.3c-0.2,0.1-0.3,0.1-0.5,0.2c0,0-0.1,0-0.1,0
			c0,0,0,0,0,0c0,0,0,0,0,0c-0.3,0.1-0.6-0.1-0.7-0.4c-0.1-0.3,0.1-0.6,0.4-0.7c0,0,0.1,0,0.1,0l0,0l0,0c0,0,0.1,0,0.2,0
			c0.2,0,0.4,0,0.5,0c0.3,0,0.7-0.1,1-0.2c0.1-0.1,0.2-0.1,0.2-0.2l0.2-0.1c-0.3-1.8,0.2-3.6,1.2-5.1l-0.2-0.2c0-0.1,0-0.2-0.1-0.3
			c-0.3-0.2-0.5-0.4-0.8-0.6c-0.2-0.1-0.3-0.2-0.5-0.3c0,0-0.1-0.1-0.1-0.1l0,0c-0.3-0.2-0.3-0.6-0.1-0.8c0.1-0.1,0.3-0.2,0.4-0.2
			c0.1,0,0.3,0.1,0.4,0.1c0,0,0.1,0.1,0.1,0.1c0.1,0.1,0.3,0.3,0.4,0.4c0.2,0.3,0.5,0.5,0.8,0.7c0.1,0.1,0.2,0.1,0.3,0
			c0.1,0,0.1,0.1,0.2,0.1c1-1.1,2.3-1.8,3.7-2.1c0.3-0.1,0.7-0.1,1-0.2l0-0.2c0.1-0.1,0.2-0.2,0.2-0.3c0-0.3,0-0.7-0.1-1
			c0-0.2-0.1-0.4-0.1-0.5c0,0,0-0.1,0-0.1c0,0,0,0,0,0c0-0.3,0.2-0.6,0.5-0.6c0.3,0,0.6,0.2,0.6,0.5c0,0,0,0.1,0,0.1
			c0,0,0,0.1,0,0.2c0,0.2,0,0.4-0.1,0.5c-0.1,0.3-0.1,0.7-0.1,1c0,0.1,0.1,0.2,0.2,0.3c0,0,0,0.2,0,0.3c1.8,0.2,3.4,1,4.7,2.3
			l0.2-0.2c0.1,0,0.2,0,0.3,0c0.3-0.2,0.5-0.4,0.8-0.7c0.1-0.1,0.2-0.3,0.4-0.4c0,0,0.1-0.1,0.1-0.1c0.2-0.2,0.6-0.2,0.8,0
			c0.2,0.2,0.2,0.6,0,0.8c0,0-0.1,0.1-0.1,0.1c0,0-0.1,0.1-0.1,0.1c-0.2,0.1-0.3,0.2-0.5,0.3c-0.3,0.2-0.6,0.4-0.8,0.6
			c-0.1,0.1-0.1,0.2-0.1,0.3c0,0-0.1,0.1-0.2,0.2c1,1.5,1.4,3.3,1.2,5.1l0.2,0.1c0.1,0.1,0.1,0.2,0.2,0.2c0.3,0.1,0.7,0.1,1,0.2
			c0.2,0,0.4,0,0.5,0c0,0,0.1,0,0.2,0c0.3,0,0.5,0.3,0.5,0.6c0,0.3-0.3,0.5-0.6,0.5c0,0-0.1,0-0.1,0l0,0c0,0,0,0,0,0
			c0,0-0.1,0-0.1,0c-0.2-0.1-0.3-0.1-0.5-0.2c-0.3-0.1-0.6-0.2-1-0.3c-0.1,0-0.2,0-0.3,0.1c-0.1,0-0.2,0-0.2,0
			C610.7,317.9,609.5,319.3,608,320.2L608,320.2z"/>
	</g>
	<g>
		<path class="st37" d="M561.8,130.9c0,1.1,0.1,2.2,0.4,3.2h15.6c1.8,0,3.2-1.4,3.2-3.2l0,0c0-1.8-1.4-3.2-3.2-3.2h-15.6
			C562,128.7,561.8,129.8,561.8,130.9z"/>
		<path class="st37" d="M583.4,124.2c0.4-0.4,0.9-0.9,1.2-1.3c-4.4-5.5-12.4-6.4-18-2c-1.5,1.2-2.7,2.7-3.5,4.4h17.5
			C581.7,125.3,582.6,124.9,583.4,124.2z"/>
		<path class="st37" d="M580.6,136.5h-17.5c3.1,6.4,10.7,9,17.1,5.9c1.7-0.8,3.2-2,4.4-3.5c-0.4-0.5-0.8-0.9-1.2-1.3
			C582.6,136.9,581.7,136.5,580.6,136.5z"/>
	</g>
	<rect x="363.8" y="371.6" transform="matrix(0.957 0.29 -0.29 0.957 125.0486 -92.4666)" class="st7" width="21.5" height="8.3"/>
	<g>
		<circle class="st9" cx="81" cy="295.1" r="6.7"/>
		<g>
			<polyline class="st9" points="56.1,324.5 45.5,307.2 59.7,300.2 			"/>
			<circle class="st7" cx="45.8" cy="307" r="2.8"/>
			<path class="st7" d="M59.5,333.5c-2.9,0-5.2-2.3-5.2-5.2c0-2.9,2.3-5.2,5.2-5.2"/>
		</g>
		<g>
			<polyline class="st9" points="105.8,324.5 116.5,307.2 102.2,300.2 			"/>
			<circle class="st7" cx="116.1" cy="307" r="2.8"/>
			<path class="st7" d="M102.4,333.5c2.9,0,5.2-2.3,5.2-5.2c0-2.9-2.3-5.2-5.2-5.2"/>
		</g>
		<rect x="57.6" y="295.1" class="st7" width="46.7" height="9.3"/>
		<circle class="st7" cx="81" cy="260.9" r="4.6"/>
		<line class="st7" x1="81" y1="265.4" x2="81" y2="288.4"/>
		<rect x="60.1" y="316" class="st11" width="41.8" height="41.8"/>
		<rect x="73.3" y="341.2" class="st7" width="21.5" height="8.3"/>
	</g>
</g>
</svg>
