<?xml version="1.0" encoding="utf-8"?>
<!-- Generator: Adobe Illustrator 25.3.1, SVG Export Plug-In . SVG Version: 6.00 Build 0)  -->
<svg version="1.1" xmlns="http://www.w3.org/2000/svg" xmlns:xlink="http://www.w3.org/1999/xlink" x="0px" y="0px"
	 viewBox="0 0 700 550" style="enable-background:new 0 0 700 550;" xml:space="preserve">
<style type="text/css">
	.st0{fill:#FFE1B3;}
	.st1{fill:#E6E7E8;}
	.st2{fill:#F2F3F3;}
	.st3{fill:none;stroke:#404041;stroke-width:2;stroke-linejoin:round;stroke-miterlimit:10;}
	.st4{fill:none;stroke:#404041;stroke-width:2;stroke-miterlimit:10;}
	.st5{fill:#8EC2EA;stroke:#404041;stroke-width:2;stroke-miterlimit:10;}
	.st6{fill:#FFE1B3;stroke:#404041;stroke-width:2;stroke-miterlimit:10;}
	.st7{fill:#1E86D5;stroke:#404041;stroke-width:2;stroke-miterlimit:10;}
	.st8{fill:#E6E7E8;stroke:#404041;stroke-width:2;stroke-miterlimit:10;}
	.st9{fill:#FAFBFB;stroke:#404041;stroke-width:2;stroke-miterlimit:10;}
	.st10{fill:#404041;}
	.st11{fill:#EA4335;}
	.st12{fill:#4285F4;}
	.st13{fill:#34A853;}
	.st14{fill:#FBBC05;}
	.st15{fill-rule:evenodd;clip-rule:evenodd;fill:#8EC2EA;}
	.st16{fill-rule:evenodd;clip-rule:evenodd;fill:#1E86D5;}
	.st17{fill-rule:evenodd;clip-rule:evenodd;fill:#FFE1B3;}
	.st18{opacity:0.5;}
	.st19{fill:#1E86D5;}
	.st20{fill:#8EC2EA;}
	.st21{fill:#FFFFFF;}
	.st22{fill-rule:evenodd;clip-rule:evenodd;fill:#E6E7E8;}
	.st23{fill-rule:evenodd;clip-rule:evenodd;fill:#E6E7E8;stroke:#FAFBFB;stroke-width:2;stroke-miterlimit:10;}
	.st24{fill:none;stroke:#FAFBFB;stroke-width:2;stroke-miterlimit:10;}
	.st25{fill-rule:evenodd;clip-rule:evenodd;fill:#8EC2EA;stroke:#404041;stroke-width:2;stroke-miterlimit:10;}
	.st26{fill-rule:evenodd;clip-rule:evenodd;fill:#E6E7E8;stroke:#404041;stroke-width:2;stroke-miterlimit:10;}
	.st27{fill-rule:evenodd;clip-rule:evenodd;fill:#1E86D5;stroke:#404041;stroke-width:2;stroke-miterlimit:10;}
	.st28{fill-rule:evenodd;clip-rule:evenodd;fill:#FFE1B3;stroke:#404041;stroke-width:1.9999;stroke-miterlimit:9.9997;}
	.st29{fill-rule:evenodd;clip-rule:evenodd;fill:#FFE1B3;stroke:#404041;stroke-width:2;stroke-miterlimit:10;}
	.st30{fill:none;stroke:#404041;stroke-width:2;stroke-linecap:round;stroke-miterlimit:10;}
	.st31{fill:none;stroke:#404041;stroke-width:2;stroke-linecap:round;stroke-miterlimit:10;stroke-dasharray:0,11.7138;}
	
		.st32{fill-rule:evenodd;clip-rule:evenodd;fill:#8EC2EA;stroke:#404041;stroke-width:2;stroke-linecap:round;stroke-miterlimit:10;}
	.st33{fill:none;stroke:#404041;stroke-width:2;stroke-miterlimit:10;stroke-dasharray:8.5429,3.1065;}
	.st34{fill:none;stroke:#404041;stroke-width:2;stroke-linecap:round;stroke-miterlimit:10;stroke-dasharray:0,11.5743;}
	.st35{fill:#8EC2EA;stroke:#404041;stroke-width:2;stroke-miterlimit:10.0001;}
	.st36{fill:#E6E7E8;stroke:#404041;stroke-width:2;stroke-miterlimit:10.0001;}
	.st37{fill-rule:evenodd;clip-rule:evenodd;fill:#FFFFFF;stroke:#404041;stroke-width:2;stroke-miterlimit:10;}
	.st38{fill:none;stroke:#404041;stroke-width:2;stroke-miterlimit:10;stroke-dasharray:7,5;}
	.st39{fill-rule:evenodd;clip-rule:evenodd;fill:#FFFFFF;}
	.st40{fill-rule:evenodd;clip-rule:evenodd;fill:#404041;}
	.st41{fill:#8EC2EA;stroke:#404041;stroke-width:2;stroke-linejoin:round;stroke-miterlimit:10;}
	.st42{fill:#1E86D5;stroke:#404041;stroke-width:2;stroke-linejoin:round;stroke-miterlimit:10;}
	.st43{fill:#FFFFFF;stroke:#404041;stroke-width:1.9999;stroke-miterlimit:9.9996;}
	.st44{fill:#FAFBFB;}
	.st45{fill:none;stroke:#FAFBFB;stroke-width:0.8621;stroke-linecap:round;stroke-linejoin:round;}
	.st46{fill:none;stroke:#FAFBFB;stroke-width:0.8621;stroke-linecap:round;stroke-linejoin:bevel;}
	.st47{fill:#FFFFFF;stroke:#FAFBFB;stroke-width:0.2874;}
	.st48{fill:#FFFFFF;stroke:#FAFBFB;stroke-width:0.1437;}
	.st49{fill-rule:evenodd;clip-rule:evenodd;fill:#FAFBFB;}
	.st50{fill-rule:evenodd;clip-rule:evenodd;fill:#E6E7E8;stroke:#404041;stroke-width:1.9999;stroke-miterlimit:9.9997;}
	.st51{fill:#FFFFFF;stroke:#404041;stroke-width:2;stroke-miterlimit:10;}
	.st52{fill:#FFE1B3;stroke:#404041;stroke-width:1.8693;stroke-miterlimit:10;}
	
		.st53{fill-rule:evenodd;clip-rule:evenodd;fill:#FFE1B3;stroke:#404041;stroke-width:2;stroke-linejoin:round;stroke-miterlimit:10;}
	
		.st54{fill-rule:evenodd;clip-rule:evenodd;fill:#E6E7E8;stroke:#404041;stroke-width:2;stroke-linejoin:round;stroke-miterlimit:10;}
	
		.st55{fill-rule:evenodd;clip-rule:evenodd;fill:#1E86D5;stroke:#404041;stroke-width:2;stroke-linejoin:round;stroke-miterlimit:10;}
	
		.st56{fill-rule:evenodd;clip-rule:evenodd;fill:#1E86D5;stroke:#404041;stroke-width:2;stroke-linejoin:round;stroke-miterlimit:10.0002;}
	.st57{fill-rule:evenodd;clip-rule:evenodd;fill:#BBBDBF;}
	.st58{fill:none;stroke:#F2F3F3;stroke-width:2;stroke-miterlimit:10;}
	.st59{fill:#BBBDBF;}
	.st60{fill:none;stroke:#404041;stroke-width:4;stroke-linecap:round;stroke-miterlimit:10;}
	.st61{fill:none;stroke:#404041;stroke-width:2;stroke-miterlimit:10;stroke-dasharray:1.9017,3.8035;}
	.st62{fill:none;stroke:#404041;stroke-width:2;stroke-miterlimit:10;stroke-dasharray:2.0745,4.1489;}
	.st63{fill:none;stroke:#8EC2EA;stroke-width:4;stroke-miterlimit:10;}
	.st64{fill:none;stroke:#404041;stroke-width:4;stroke-miterlimit:10;}
	.st65{fill:none;stroke:#1E86D5;stroke-width:4;stroke-miterlimit:10;}
	.st66{fill:#FFFFFF;stroke:#1E86D5;stroke-width:4;stroke-miterlimit:10;}
	.st67{fill:#FFFFFF;stroke:#8EC2EA;stroke-width:4;stroke-miterlimit:10;}
	.st68{fill:#FFFFFF;stroke:#404041;stroke-width:4;stroke-miterlimit:10;}
	.st69{fill:#FFE1B3;stroke:#404041;stroke-width:2;stroke-miterlimit:9.9999;}
	.st70{fill:#1E86D5;stroke:#404041;stroke-width:2;stroke-linejoin:round;stroke-miterlimit:9.9999;}
	.st71{fill:#FFE1B3;stroke:#404041;stroke-width:1.9999;stroke-miterlimit:9.9997;}
	.st72{fill:#1E86D5;stroke:#404041;stroke-width:1.9999;stroke-linejoin:round;stroke-miterlimit:9.9997;}
	.st73{fill:#636466;}
	.st74{fill:#A41E11;}
	.st75{fill:#D82C20;}
	.st76{fill:#7A0C00;}
	.st77{fill:#AD2115;}
	.st78{fill:#336791;}
	.st79{fill:#326CE5;}
	.st80{fill:#C1D2F7;}
	.st81{fill:none;}
	.st82{fill:#010101;}
	.st83{fill:#FEFEFE;}
	.st84{fill:#FE733E;}
	.st85{fill:#B5D2F3;}
	.st86{fill:#FE684B;}
	.st87{fill:#FE6446;}
	.st88{fill:#E2F5FC;}
	.st89{fill:#CDECF6;}
	.st90{fill:#FE6B3C;}
	.st91{fill:#FE6142;}
	.st92{fill:#FE6143;}
	.st93{fill:#070909;}
	.st94{fill:#FDFCFB;}
	.st95{fill:#FEA777;}
	.st96{fill:#FDFEFE;}
	.st97{fill:#FBFDFE;}
	.st98{fill:#090B0B;}
	.st99{fill:#090C0C;}
	.st100{fill:url(#SVGID_1_);}
	.st101{fill:#006BB8;}
	.st102{fill-rule:evenodd;clip-rule:evenodd;fill:#343741;}
	.st103{fill-rule:evenodd;clip-rule:evenodd;fill:#FEC514;}
	.st104{fill-rule:evenodd;clip-rule:evenodd;fill:#00BFB3;}
	.st105{fill:#BFBFBF;}
	.st106{fill:#7D9199;}
	.st107{fill:#566366;}
	.st108{fill:#6D41FF;}
	.st109{fill:#E95224;}
	.st110{fill:none;stroke:#000000;stroke-width:10.4097;stroke-miterlimit:10;}
	.st111{fill:none;stroke:#000000;stroke-width:7.8073;stroke-miterlimit:10;}
	.st112{fill:#0089D6;}
	.st113{fill:#696566;}
	.st114{fill:#232F3E;}
	.st115{fill:#252F3E;}
	.st116{fill-rule:evenodd;clip-rule:evenodd;fill:#FF9900;}
	.st117{fill-rule:evenodd;clip-rule:evenodd;fill:none;stroke:#404041;stroke-width:2;stroke-linejoin:round;stroke-miterlimit:10;}
	.st118{fill:none;stroke:#F2F3F3;stroke-width:190;stroke-miterlimit:10;}
	.st119{display:none;fill:none;stroke:#404041;stroke-width:2;stroke-linejoin:round;stroke-miterlimit:10;}
	.st120{fill:none;stroke:#404041;stroke-width:2;stroke-miterlimit:10;stroke-dasharray:2.0577,4.1153;}
	.st121{fill:none;stroke:#404041;stroke-width:2;stroke-miterlimit:10;stroke-dasharray:2.0678,4.1356;}
	.st122{fill:none;stroke:#E6E7E8;stroke-width:30;stroke-miterlimit:10;}
	.st123{fill:none;stroke:#404041;stroke-width:2;stroke-miterlimit:10;stroke-dasharray:2.0686,4.1371;}
	.st124{fill:none;stroke:#FFFFFF;stroke-width:2;stroke-linejoin:round;stroke-miterlimit:10;}
	.st125{fill:none;stroke:#1E86D5;stroke-width:40;stroke-linecap:round;stroke-linejoin:round;stroke-miterlimit:10;}
	.st126{fill:none;stroke:#FAFBFB;stroke-width:8;stroke-linecap:round;stroke-miterlimit:10;}
	.st127{fill:#FBD2D3;}
	.st128{fill:none;stroke:#404041;stroke-width:2;stroke-miterlimit:10;stroke-dasharray:2.0944,4.1887;}
	.st129{display:none;fill:#1E86D5;stroke:#404041;stroke-width:2;stroke-miterlimit:10;}
	.st130{fill:none;stroke:#404041;stroke-width:2;stroke-miterlimit:10;stroke-dasharray:2.0552,4.1103;}
	.st131{fill:none;stroke:#404041;stroke-width:2;stroke-miterlimit:10;stroke-dasharray:2.0744,4.1486;}
	.st132{fill:none;stroke:#404041;stroke-width:2;stroke-miterlimit:10;stroke-dasharray:2.0791,4.1582;}
	.st133{fill:none;stroke:#404041;stroke-width:2;stroke-miterlimit:10;stroke-dasharray:2.0787,4.1573;}
</style>
<g id="Layer_2">
</g>
<g id="Layer_1">
</g>
<g id="Layer_4">
</g>
<g id="Layer_3">
</g>
<g id="Layer_5">
	<g>
		<g>
			<path class="st10" d="M49.85,484.89l-0.11,0c-0.62,0.03-1.33-0.01-2.03-0.04l0.08-2c0.66,0.03,1.33,0.04,2,0.04L49.85,484.89z
				 M54.12,484.71l-0.17-1.99c0.68-0.06,1.36-0.13,2.04-0.22l0.26,1.98C55.54,484.57,54.83,484.64,54.12,484.71z M43.46,484.49
				c-0.71-0.09-1.42-0.2-2.12-0.32l0.35-1.97c0.67,0.12,1.35,0.22,2.03,0.31L43.46,484.49z M60.45,483.73l-0.43-1.95
				c0.67-0.15,1.33-0.31,1.99-0.49l0.52,1.93C61.84,483.41,61.15,483.58,60.45,483.73z M37.17,483.25
				c-0.69-0.18-1.38-0.38-2.05-0.59l0.6-1.91c0.65,0.2,1.31,0.39,1.97,0.57L37.17,483.25z M66.6,481.94l-0.69-1.88
				c0.64-0.23,1.28-0.48,1.91-0.74l0.77,1.85C67.93,481.43,67.27,481.69,66.6,481.94z M31.1,481.2c-0.66-0.27-1.32-0.56-1.96-0.86
				l0.85-1.81c0.62,0.29,1.25,0.56,1.88,0.83L31.1,481.2z M72.46,479.35l-0.93-1.77c0.61-0.32,1.2-0.65,1.79-0.99l1,1.73
				C73.71,478.68,73.09,479.02,72.46,479.35z M25.34,478.37c-0.62-0.36-1.23-0.73-1.83-1.11l1.07-1.69
				c0.58,0.37,1.16,0.72,1.75,1.06L25.34,478.37z M77.93,476.02l-1.15-1.64c0.56-0.39,1.11-0.8,1.65-1.21l1.22,1.59
				C79.08,475.19,78.51,475.61,77.93,476.02z M20.01,474.81c-0.57-0.43-1.12-0.88-1.67-1.34l1.29-1.53c0.52,0.44,1.06,0.87,1.6,1.28
				L20.01,474.81z M82.92,472.01l-1.35-1.47c0.5-0.46,1-0.94,1.48-1.42l1.41,1.41C83.96,471.03,83.44,471.52,82.92,472.01z
				 M15.19,470.59c-0.5-0.5-1-1.02-1.48-1.54l1.47-1.35c0.46,0.5,0.94,1,1.42,1.48L15.19,470.59z M87.35,467.38l-1.53-1.29
				c0.44-0.52,0.87-1.06,1.29-1.6l1.59,1.22C88.25,466.27,87.81,466.83,87.35,467.38z M10.95,465.78c-0.43-0.56-0.86-1.14-1.27-1.72
				l1.64-1.15c0.39,0.56,0.8,1.11,1.21,1.65L10.95,465.78z M7.38,460.46c-0.36-0.61-0.7-1.24-1.03-1.87l1.77-0.93
				c0.32,0.61,0.65,1.2,0.99,1.79L7.38,460.46z M4.54,454.72c-0.27-0.66-0.53-1.32-0.78-1.99l1.88-0.69
				c0.24,0.64,0.48,1.28,0.75,1.9L4.54,454.72z M2.47,448.66c-0.18-0.69-0.35-1.38-0.51-2.08l1.95-0.44
				c0.15,0.67,0.31,1.33,0.49,1.99L2.47,448.66z M1.21,442.38c-0.09-0.7-0.17-1.41-0.24-2.12l1.99-0.18
				c0.06,0.68,0.14,1.36,0.23,2.04L1.21,442.38z M2.78,435.99h-2v-0.11c0-0.68,0.01-1.35,0.04-2.03l2,0.08
				c-0.03,0.65-0.04,1.29-0.04,1.95V435.99z M3.17,429.85l-1.98-0.25c0.09-0.71,0.2-1.42,0.32-2.12l1.97,0.34
				C3.35,428.49,3.25,429.17,3.17,429.85z M4.34,423.82l-1.93-0.51c0.18-0.69,0.38-1.38,0.59-2.06l1.91,0.6
				C4.71,422.5,4.52,423.16,4.34,423.82z M6.31,417.99l-1.85-0.76c0.27-0.66,0.56-1.32,0.86-1.96l1.81,0.84
				C6.84,416.73,6.57,417.36,6.31,417.99z M9.02,412.47l-1.73-1c0.36-0.62,0.73-1.23,1.11-1.83l1.69,1.07
				C9.71,411.29,9.36,411.88,9.02,412.47z M12.42,407.35l-1.59-1.22c0.43-0.57,0.88-1.12,1.33-1.67l1.54,1.28
				C13.27,406.28,12.84,406.81,12.42,407.35z M84.34,404c-0.46-0.5-0.94-0.99-1.42-1.48l1.41-1.42c0.5,0.5,1,1.01,1.48,1.54
				L84.34,404z M16.47,402.72l-1.42-1.41c0.5-0.51,1.02-1,1.54-1.48l1.35,1.47C17.44,401.76,16.95,402.24,16.47,402.72z
				 M79.89,399.76c-0.53-0.44-1.06-0.86-1.6-1.28l1.21-1.59c0.57,0.43,1.12,0.88,1.67,1.33L79.89,399.76z M21.08,398.66l-1.22-1.58
				c0.56-0.43,1.14-0.86,1.72-1.27l1.16,1.63C22.17,397.83,21.62,398.24,21.08,398.66z M74.92,396.14
				c-0.58-0.37-1.16-0.72-1.76-1.06l1-1.73c0.62,0.36,1.23,0.72,1.83,1.11L74.92,396.14z M26.18,395.22l-1.01-1.73
				c0.62-0.36,1.24-0.7,1.87-1.03l0.93,1.77C27.36,394.55,26.77,394.88,26.18,395.22z M69.52,393.19c-0.62-0.29-1.25-0.56-1.88-0.82
				l0.76-1.85c0.66,0.27,1.32,0.56,1.96,0.86L69.52,393.19z M31.67,392.49l-0.77-1.85c0.65-0.27,1.32-0.53,1.98-0.78l0.69,1.88
				C32.94,391.98,32.3,392.23,31.67,392.49z M63.78,390.98c-0.65-0.2-1.31-0.39-1.97-0.57l0.51-1.93c0.69,0.18,1.38,0.38,2.05,0.59
				L63.78,390.98z M37.48,390.5l-0.52-1.93c0.69-0.18,1.38-0.36,2.08-0.51l0.44,1.95C38.8,390.16,38.14,390.32,37.48,390.5z
				 M57.8,389.55c-0.67-0.12-1.35-0.22-2.03-0.3l0.25-1.98c0.71,0.09,1.42,0.2,2.12,0.32L57.8,389.55z M43.51,389.29l-0.26-1.98
				c0.7-0.09,1.41-0.17,2.12-0.24l0.18,1.99C44.86,389.12,44.18,389.2,43.51,389.29z M51.69,388.91c-0.63-0.02-1.26-0.04-1.9-0.04
				h-0.16v-2h0.16c0.66,0,1.32,0.01,1.97,0.04L51.69,388.91z"/>
		</g>
		<path class="st2" d="M639.17,423.14h58.84c0.13-0.7,0.21-1.41,0.21-2.14c0-6.5-5.27-11.76-11.76-11.76c-0.68,0-1.35,0.07-2,0.18
			c-0.75-6.92-6.6-12.3-13.72-12.3c-6.26,0-11.55,4.17-13.23,9.89c-0.89-0.33-1.85-0.53-2.85-0.53c-4.5,0-8.14,3.64-8.14,8.14
			c0,0.06,0.01,0.11,0.01,0.16C642.5,415.54,639.42,418.95,639.17,423.14z"/>
		<g>
			<circle class="st128" cx="620.68" cy="393.49" r="48.01"/>
		</g>
		<g>
			<path class="st1" d="M364.08,140.76c-0.48,0-0.94,0.05-1.41,0.07c0.85-3.92,1.33-7.98,1.33-12.15c0-31.4-25.46-56.86-56.86-56.86
				c-10.23,0-19.8,2.74-28.09,7.46c-12.56-19.54-34.44-32.53-59.39-32.53c-38.99,0-70.6,31.61-70.6,70.6c0,1.78,0.14,3.53,0.27,5.28
				c-2.33-0.34-4.7-0.57-7.12-0.57c-27.19,0-49.24,22.04-49.24,49.24s22.04,49.24,49.24,49.24c23.68,0,200.6,0,221.88,0
				c22.03,0,39.89-17.86,39.89-39.89C403.97,158.62,386.11,140.76,364.08,140.76z"/>
			<path class="st1" d="M364.08,140.76c-0.48,0-0.94,0.05-1.41,0.07c0.85-3.92,1.33-7.98,1.33-12.15c0-31.4-25.46-56.86-56.86-56.86
				c-10.23,0-19.8,2.74-28.09,7.46c-12.56-19.54-34.44-32.53-59.39-32.53c-38.99,0-70.6,31.61-70.6,70.6c0,1.78,0.14,3.53,0.27,5.28
				c-2.33-0.34-4.7-0.57-7.12-0.57c-27.19,0-49.24,22.04-49.24,49.24s22.04,49.24,49.24,49.24c23.68,0,200.6,0,221.88,0
				c22.03,0,39.89-17.86,39.89-39.89C403.97,158.62,386.11,140.76,364.08,140.76z"/>
		</g>
		<circle class="st62" cx="195.53" cy="103.83" r="62.52"/>
		<path class="st20" d="M110.96,501.92H5.08c-0.23-1.17-0.37-2.37-0.37-3.61c0-10.96,9.48-19.83,21.16-19.83
			c1.23,0,2.43,0.12,3.6,0.31c1.34-11.66,11.87-20.74,24.68-20.74c11.26,0,20.77,7.03,23.81,16.67c1.6-0.56,3.33-0.89,5.14-0.89
			c8.09,0,14.65,6.14,14.65,13.72c0,0.09-0.01,0.19-0.01,0.27C104.96,489.1,110.51,494.86,110.96,501.92z"/>
		<g>
			<rect x="591.21" y="389.62" class="st0" width="48.38" height="105.41"/>
			<rect x="591.21" y="389.62" class="st4" width="48.38" height="105.41"/>
			<rect x="595.75" y="435.63" class="st10" width="39.3" height="16.24"/>
			<rect x="595.75" y="394.55" class="st10" width="39.3" height="16.24"/>
			<circle class="st44" cx="631.21" cy="438.43" r="1.38"/>
			<circle class="st44" cx="627.09" cy="438.43" r="1.38"/>
			<circle class="st44" cx="631.21" cy="442.05" r="1.38"/>
			<circle class="st44" cx="627.09" cy="442.05" r="1.38"/>
			<circle class="st44" cx="631.21" cy="445.68" r="1.38"/>
			<circle class="st44" cx="631.21" cy="449.3" r="1.38"/>
			<circle class="st44" cx="627.09" cy="449.3" r="1.38"/>
			<circle class="st44" cx="631.21" cy="397.11" r="1.38"/>
			<circle class="st10" cx="631.21" cy="400.74" r="1.38"/>
			<circle class="st10" cx="627.09" cy="397.11" r="1.38"/>
			<circle class="st44" cx="627.09" cy="400.74" r="1.38"/>
			<circle class="st10" cx="627.09" cy="404.36" r="1.38"/>
			<circle class="st44" cx="631.21" cy="404.36" r="1.38"/>
			<circle class="st44" cx="631.21" cy="407.99" r="1.38"/>
			<circle class="st44" cx="627.09" cy="407.99" r="1.38"/>
			<rect x="600.75" y="395.75" class="st19" width="2.71" height="2.71"/>
			<rect x="604.4" y="395.75" class="st44" width="2.71" height="2.71"/>
			<rect x="608.05" y="395.75" class="st20" width="2.71" height="2.71"/>
			<rect x="611.7" y="395.75" class="st20" width="2.71" height="2.71"/>
			<rect x="597.1" y="399.38" class="st20" width="2.71" height="2.71"/>
			<rect x="600.75" y="399.38" class="st44" width="2.71" height="2.71"/>
			<rect x="608.05" y="399.38" class="st19" width="2.71" height="2.71"/>
			<rect x="611.7" y="399.38" class="st19" width="2.71" height="2.71"/>
			<rect x="600.75" y="403" class="st19" width="2.71" height="2.71"/>
			<rect x="604.4" y="403" class="st20" width="2.71" height="2.71"/>
			<rect x="608.05" y="403" class="st44" width="2.71" height="2.71"/>
			<rect x="611.7" y="403" class="st20" width="2.71" height="2.71"/>
			<rect x="615.4" y="399.38" class="st19" width="2.71" height="2.71"/>
			<rect x="615.4" y="403" class="st44" width="2.71" height="2.71"/>
			<line class="st4" x1="596.85" y1="462.4" x2="633.95" y2="462.4"/>
			<line class="st4" x1="596.85" y1="468.25" x2="633.95" y2="468.25"/>
			<line class="st4" x1="596.85" y1="474.09" x2="633.95" y2="474.09"/>
			<line class="st4" x1="596.85" y1="479.93" x2="633.95" y2="479.93"/>
			<line class="st4" x1="596.85" y1="485.77" x2="633.95" y2="485.77"/>
		</g>
		<g>
			<polygon class="st2" points="644.65,522.55 480.96,522.55 374.47,405.34 364.02,393.84 353.57,405.34 247.08,522.55 83.4,522.55 
				364.02,213.68 			"/>
		</g>
		<g>
			<g>
				<g>
					<path class="st0" d="M414.46,68.52c-0.24,0-0.47,0.03-0.7,0.04c0.43-1.95,0.67-3.98,0.67-6.06c0-15.66-12.69-28.35-28.35-28.35
						c-5.1,0-9.87,1.36-14.01,3.72c-6.26-9.75-17.17-16.22-29.62-16.22c-19.44,0-35.2,15.76-35.2,35.2c0,0.89,0.07,1.76,0.13,2.63
						c-1.16-0.17-2.34-0.29-3.55-0.29c-13.56,0-24.55,10.99-24.55,24.55s10.99,24.55,24.55,24.55c11.81,0,100.03,0,110.64,0
						c10.99,0,19.89-8.91,19.89-19.89C434.36,77.42,425.45,68.52,414.46,68.52z"/>
				</g>
				<g>
					<path class="st0" d="M414.46,68.52c-0.24,0-0.47,0.03-0.7,0.04c0.43-1.95,0.67-3.98,0.67-6.06c0-15.66-12.69-28.35-28.35-28.35
						c-5.1,0-9.87,1.36-14.01,3.72c-6.26-9.75-17.17-16.22-29.62-16.22c-19.44,0-35.2,15.76-35.2,35.2c0,0.89,0.07,1.76,0.13,2.63
						c-1.16-0.17-2.34-0.29-3.55-0.29c-13.56,0-24.55,10.99-24.55,24.55s10.99,24.55,24.55,24.55c11.81,0,100.03,0,110.64,0
						c10.99,0,19.89-8.91,19.89-19.89C434.36,77.42,425.45,68.52,414.46,68.52z"/>
				</g>
			</g>
			<g>
				<path class="st4" d="M414.46,68.52c-0.24,0-0.47,0.03-0.7,0.04c0.43-1.95,0.67-3.98,0.67-6.06c0-15.66-12.69-28.35-28.35-28.35
					c-5.1,0-9.87,1.36-14.01,3.72c-6.26-9.75-17.17-16.22-29.62-16.22c-19.44,0-35.2,15.76-35.2,35.2c0,0.89,0.07,1.76,0.13,2.63
					c-1.16-0.17-2.34-0.29-3.55-0.29c-13.56,0-24.55,10.99-24.55,24.55s10.99,24.55,24.55,24.55c11.81,0,100.03,0,110.64,0
					c10.99,0,19.89-8.91,19.89-19.89C434.36,77.42,425.45,68.52,414.46,68.52z"/>
				<path class="st4" d="M414.46,68.52c-0.24,0-0.47,0.03-0.7,0.04c0.43-1.95,0.67-3.98,0.67-6.06c0-15.66-12.69-28.35-28.35-28.35
					c-5.1,0-9.87,1.36-14.01,3.72c-6.26-9.75-17.17-16.22-29.62-16.22c-19.44,0-35.2,15.76-35.2,35.2c0,0.89,0.07,1.76,0.13,2.63
					c-1.16-0.17-2.34-0.29-3.55-0.29c-13.56,0-24.55,10.99-24.55,24.55s10.99,24.55,24.55,24.55c11.81,0,100.03,0,110.64,0
					c10.99,0,19.89-8.91,19.89-19.89C434.36,77.42,425.45,68.52,414.46,68.52z"/>
			</g>
			<g>
				<g>
					<path class="st21" d="M348.88,58.23c0.48,0.1,0.95,0.21,1.41,0.35c4.25-3.25,10.2-3.5,14.67-0.43l7.05-7.13
						c-9.17-7.57-23.13-6.43-31.14,2.65c-1.67,1.89-3.03,4.12-3.99,6.49c2.5-1.43,5.4-2.24,8.48-2.26
						C346.57,57.89,347.74,58.01,348.88,58.23z"/>
					<path class="st21" d="M379.62,62.69c-1.08-3.96-3.21-7.55-6.16-10.38l-0.89,0.9l-5.54,5.6l-0.56,0.56
						c2.53,2.4,3.95,5.78,3.89,9.3v1.25c3.46,0,6.27,2.81,6.27,6.27c0,3.46-2.81,6.2-6.27,6.2h-11.59v10.04h11.59
						c9,0.07,16.36-7.1,16.43-16.11C386.83,70.86,384.14,65.74,379.62,62.69z"/>
					<path class="st21" d="M343.7,82.18l-7.43,7.51c2.67,1.76,5.79,2.74,9,2.73h11.57V82.39h-11.57
						C344.74,82.39,344.21,82.32,343.7,82.18z"/>
					<path class="st21" d="M348.54,60.19c-1.07-0.21-2.16-0.32-3.27-0.32c-3.46,0.02-6.65,1.11-9.28,2.97
						c-4.22,2.97-6.96,7.89-6.93,13.44c0.03,4.72,2.1,9.19,5.65,12.25l7.1-7.18c-2.52-1.67-3.54-4.96-2.25-7.81
						c1.43-3.15,5.14-4.56,8.29-3.13c1.39,0.63,2.5,1.74,3.13,3.13l7.27-7.27C355.84,63.1,352.37,60.96,348.54,60.19z"/>
				</g>
			</g>
			<g>
				<path class="st7" d="M236.78,139.19c0.24,0,0.47,0.03,0.7,0.04c-0.43-1.95-0.67-3.98-0.67-6.06c0-15.66,12.69-28.35,28.35-28.35
					c5.1,0,9.87,1.36,14.01,3.72c6.26-9.75,17.17-16.22,29.62-16.22c19.44,0,35.2,15.76,35.2,35.2c0,0.89-0.07,1.76-0.13,2.63
					c1.16-0.17,2.34-0.29,3.55-0.29c13.56,0,24.55,10.99,24.55,24.55c0,13.56-10.99,24.55-24.55,24.55c-11.81,0-100.03,0-110.64,0
					c-10.99,0-19.89-8.91-19.89-19.89C216.89,148.09,225.79,139.19,236.78,139.19z"/>
				<path class="st129" d="M236.78,139.19c0.24,0,0.47,0.03,0.7,0.04c-0.43-1.95-0.67-3.98-0.67-6.06
					c0-15.66,12.69-28.35,28.35-28.35c5.1,0,9.87,1.36,14.01,3.72c6.26-9.75,17.17-16.22,29.62-16.22c19.44,0,35.2,15.76,35.2,35.2
					c0,0.89-0.07,1.76-0.13,2.63c1.16-0.17,2.34-0.29,3.55-0.29c13.56,0,24.55,10.99,24.55,24.55c0,13.56-10.99,24.55-24.55,24.55
					c-11.81,0-100.03,0-110.64,0c-10.99,0-19.89-8.91-19.89-19.89C216.89,148.09,225.79,139.19,236.78,139.19z"/>
			</g>
			<g>
				<path class="st5" d="M491.27,128.55c-0.24,0-0.47,0.03-0.7,0.04c0.43-1.95,0.67-3.98,0.67-6.06c0-15.66-12.69-28.35-28.35-28.35
					c-5.1,0-9.87,1.36-14.01,3.72c-6.26-9.75-17.17-16.22-29.62-16.22c-19.44,0-35.2,15.76-35.2,35.2c0,0.89,0.07,1.76,0.13,2.63
					c-1.16-0.17-2.34-0.29-3.55-0.29c-13.56,0-24.55,10.99-24.55,24.55c0,13.56,10.99,24.55,24.55,24.55c11.81,0,100.03,0,110.64,0
					c10.99,0,19.89-8.91,19.89-19.89C511.16,137.45,502.25,128.55,491.27,128.55z"/>
				<path class="st5" d="M491.27,128.55c-0.24,0-0.47,0.03-0.7,0.04c0.43-1.95,0.67-3.98,0.67-6.06c0-15.66-12.69-28.35-28.35-28.35
					c-5.1,0-9.87,1.36-14.01,3.72c-6.26-9.75-17.17-16.22-29.62-16.22c-19.44,0-35.2,15.76-35.2,35.2c0,0.89,0.07,1.76,0.13,2.63
					c-1.16-0.17-2.34-0.29-3.55-0.29c-13.56,0-24.55,10.99-24.55,24.55c0,13.56,10.99,24.55,24.55,24.55c11.81,0,100.03,0,110.64,0
					c10.99,0,19.89-8.91,19.89-19.89C511.16,137.45,502.25,128.55,491.27,128.55z"/>
			</g>
			<g>
				<path class="st21" d="M417.79,127.41c-0.02,0.72,0.07,1.45,0.28,2.14c0.21,0.6,0.47,1.17,0.77,1.73
					c0.11,0.16,0.17,0.35,0.18,0.54c-0.03,0.3-0.2,0.57-0.46,0.72l-1.52,1c-0.18,0.13-0.4,0.2-0.62,0.21
					c-0.28,0-0.54-0.13-0.72-0.33c-0.33-0.33-0.63-0.71-0.88-1.11c-0.23-0.41-0.46-0.88-0.72-1.42c-1.71,2.14-4.32,3.37-7.06,3.32
					c-1.76,0.1-3.49-0.53-4.79-1.73c-1.21-1.22-1.85-2.9-1.75-4.61c-0.06-1.89,0.73-3.71,2.16-4.95c1.68-1.31,3.77-1.97,5.9-1.85
					c0.86,0,1.72,0.06,2.58,0.18c0.9,0.13,1.8,0.31,2.76,0.52v-1.75c0.14-1.38-0.27-2.76-1.13-3.84c-1.11-0.86-2.52-1.26-3.91-1.11
					c-0.87,0-1.73,0.11-2.58,0.31c-0.88,0.21-1.74,0.48-2.58,0.82l-0.85,0.31h-0.36c-0.36,0-0.52-0.26-0.52-0.75v-1.18
					c-0.02-0.28,0.03-0.57,0.15-0.82c0.19-0.22,0.43-0.4,0.7-0.52c0.96-0.46,1.97-0.83,3.01-1.08c1.22-0.31,2.47-0.47,3.73-0.46
					c2.27-0.2,4.53,0.51,6.28,1.96c1.46,1.6,2.18,3.74,1.98,5.9L417.79,127.41z M408.06,131.07c0.88,0,1.75-0.15,2.58-0.44
					c0.88-0.3,1.66-0.83,2.27-1.55c0.4-0.43,0.68-0.95,0.82-1.52c0.17-0.68,0.24-1.38,0.23-2.09v-1.08
					c-0.76-0.16-1.52-0.27-2.29-0.33c-0.77,0-1.52,0-2.27,0c-1.26-0.1-2.51,0.24-3.55,0.95c-0.81,0.69-1.25,1.72-1.18,2.78
					c-0.09,0.94,0.23,1.88,0.88,2.58C406.25,130.93,407.15,131.18,408.06,131.07z M427.35,133.64c-0.33,0.03-0.65-0.05-0.93-0.23
					c-0.26-0.26-0.44-0.59-0.52-0.95l-5.61-18.54c-0.11-0.31-0.18-0.64-0.21-0.98c0-0.39,0.18-0.59,0.57-0.59h2.37
					c0.33-0.03,0.65,0.05,0.93,0.23c0.25,0.26,0.42,0.6,0.49,0.95l4.04,16.02l3.79-15.99c0.04-0.36,0.2-0.7,0.46-0.95
					c0.28-0.18,0.62-0.26,0.95-0.23h1.93c0.34-0.03,0.69,0.05,0.98,0.23c0.24,0.27,0.4,0.6,0.46,0.95l3.73,15.99l4.15-16.07
					c0.07-0.36,0.24-0.69,0.49-0.95c0.27-0.18,0.6-0.26,0.93-0.23h2.24c0.3-0.03,0.56,0.19,0.59,0.48c0,0.04,0,0.07,0,0.11
					c0.01,0.13,0.01,0.26,0,0.39c0,0,0,0.33-0.15,0.59l-5.82,18.54c-0.07,0.36-0.24,0.69-0.49,0.95c-0.28,0.17-0.6,0.25-0.93,0.23
					h-2.06c-0.34,0.04-0.68-0.06-0.95-0.26c-0.26-0.26-0.42-0.59-0.46-0.95l-3.73-15.45l-3.71,15.45c-0.05,0.36-0.21,0.69-0.46,0.95
					c-0.28,0.2-0.61,0.29-0.95,0.26L427.35,133.64z M458.25,134.26c-1.25,0.01-2.49-0.13-3.71-0.41c-0.96-0.19-1.88-0.51-2.76-0.95
					c-0.31-0.15-0.57-0.38-0.75-0.67c-0.1-0.22-0.15-0.46-0.15-0.7v-1.21c0-0.49,0.18-0.75,0.54-0.75c0.15-0.02,0.31-0.02,0.46,0
					l0.59,0.26c0.83,0.37,1.69,0.65,2.58,0.82c0.94,0.2,1.9,0.31,2.86,0.31c1.22,0.08,2.44-0.2,3.5-0.8
					c0.79-0.48,1.26-1.34,1.24-2.27c0.02-0.62-0.21-1.23-0.64-1.67c-0.7-0.6-1.53-1.04-2.42-1.26l-3.48-1.11
					c-1.5-0.38-2.85-1.23-3.84-2.42c-0.78-1-1.2-2.23-1.21-3.5c-0.01-0.9,0.21-1.79,0.64-2.58c0.43-0.77,1.02-1.45,1.73-1.98
					c0.77-0.57,1.65-0.99,2.58-1.24c0.99-0.28,2.01-0.42,3.04-0.41c0.53-0.04,1.07-0.04,1.6,0l1.57,0.26l1.37,0.39l1,0.41
					c0.27,0.16,0.51,0.36,0.72,0.59c0.14,0.24,0.22,0.52,0.21,0.8v1.13c0,0.52-0.18,0.77-0.54,0.77c-0.33-0.04-0.64-0.14-0.93-0.31
					c-1.46-0.64-3.04-0.95-4.64-0.93c-1.1-0.05-2.2,0.18-3.19,0.67c-0.75,0.46-1.18,1.29-1.13,2.16c0,0.64,0.26,1.26,0.72,1.7
					c0.76,0.61,1.64,1.06,2.58,1.31l3.4,1.08c1.44,0.38,2.73,1.19,3.71,2.32c0.74,0.97,1.13,2.16,1.11,3.37
					c0.02,0.96-0.2,1.92-0.62,2.78c-0.41,0.83-1.01,1.55-1.75,2.11c-0.76,0.61-1.64,1.08-2.58,1.37c-1.12,0.36-2.3,0.55-3.48,0.57
					L458.25,134.26z"/>
				<path class="st39" d="M462.71,146.11c-8.62,5.86-18.81,8.97-29.23,8.94c-13.18,0.07-25.91-4.78-35.7-13.6
					c-0.75-0.67,0-1.6,0.82-1.08c10.87,6.23,23.17,9.49,35.7,9.48c9.36-0.04,18.62-1.93,27.25-5.56
					C462.89,143.71,464.02,145.16,462.71,146.11z"/>
				<path class="st39" d="M466,142.43c-1.03-1.31-6.7-0.62-9.25-0.31c-0.77,0-0.88-0.59-0.18-1.08c4.51-3.17,11.92-2.27,12.88-1.18
					c0.95,1.08-0.23,8.5-4.48,12.05c-0.64,0.54-1.26,0.23-0.98-0.46C464.87,148.99,467.01,143.66,466,142.43z"/>
			</g>
			<g id="layer1_4_" transform="translate(677.9313,-313.85407)">
				<g id="layer1-1_4_" transform="matrix(0.03978217,0,0,0.03978217,-658.51488,317.36166)">
					<path id="path21_4_" class="st21" d="M6964.91,3609.25c169.33-29.91,309.19-54.67,310.8-55.01l2.92-0.62l-159.87-190.16
						c-87.93-104.59-159.87-190.56-159.87-191.06c0-0.94,165.08-455.52,166-457.14c0.31-0.54,112.65,193.41,272.32,470.15
						c149.48,259.09,272.73,472.71,273.87,474.71l2.08,3.64l-508.07-0.07l-508.07-0.07L6964.91,3609.25z M6892.76,4098.66
						c-51.25-3.29-81.06-32.47-88.96-87.1c-2.1-14.53-2.11-14.91-2.32-109.25l-0.21-91.3h22.68h22.68l0.18,88.31
						c0.16,79.59,0.26,88.93,1.02,94.53c3.09,22.72,9.24,38.01,19.7,48.97c8.38,8.78,18.18,13.92,31.76,16.65
						c6.4,1.29,24.62,1.29,30.46,0.01c13.76-3.03,24.79-9.02,34.52-18.75c11.09-11.09,19.3-26.82,23.27-44.6l1.34-6l0.15-89.06
						l0.15-89.06h23.16h23.16v140.01v140.01h-22.92h-22.92v-22.21c0-15.09-0.17-22.16-0.52-22.04c-0.28,0.09-1.46,1.9-2.62,4
						c-7.9,14.4-21.06,27.58-35.48,35.51C6933.78,4096.8,6916.44,4100.18,6892.76,4098.66L6892.76,4098.66z M7412.97,4098.44
						c-18.09-1.36-37.14-7.58-52.71-17.21c-32.82-20.3-52.23-53.76-57.92-99.81c-1.97-15.93-2.2-37.34-0.56-50.88
						c3.67-30.25,15.56-59.95,32.49-81.16c4.34-5.44,14.19-15.28,19.62-19.62c14.68-11.72,31.85-19.91,50.07-23.9
						c10.62-2.32,29.32-3.41,40.61-2.37c28.35,2.63,54.32,15.97,71.98,36.98c17.94,21.34,27.8,51.16,29.06,87.88
						c0.2,5.75,0.25,15.84,0.11,22.42l-0.25,11.96l-99.27,0.13l-99.27,0.13v4.43c0,13.49,3.28,28.85,8.95,41.92
						c4.89,11.27,13.3,23.58,20.19,29.53c14.13,12.21,31.41,19.52,50.33,21.28c7.01,0.65,24.89-0.03,32.88-1.26
						c22.81-3.5,44.49-12.45,62-25.58c2.06-1.54,4.03-2.99,4.38-3.21c0.51-0.32,0.63,3.71,0.62,20.68l-0.02,21.08l-4.69,2.9
						c-19.81,12.25-42.5,20.12-66.52,23.06C7447.86,4098.69,7421.55,4099.08,7412.97,4098.44L7412.97,4098.44z M7499.37,3920.69
						c0-22.59-9.52-47.69-22.99-60.61c-9.61-9.22-21.24-14.86-35.05-17c-6.54-1.01-20.31-0.62-27.21,0.77
						c-14.57,2.94-26.62,9.35-37.13,19.73c-11.06,10.93-19.35,24.21-24.57,39.33c-1.88,5.44-4.07,14.37-4.75,19.34l-0.32,2.37h76.01
						h76.01V3920.69z M6152.73,4091.4c0.12-0.34,33.83-88.9,74.91-196.8l74.7-196.18l24,0l24,0l1.99,5.11
						c6.09,15.61,149.55,388.08,149.55,388.27c0,0.13-11.49,0.23-25.54,0.23l-25.53-0.01l-20.68-55.05l-20.68-55.05l-83.26,0
						l-83.26,0l-0.72,1.87c-0.4,1.03-9.23,25.8-19.63,55.05l-18.91,53.18l-25.59,0.01
						C6157.85,4092.02,6152.56,4091.9,6152.73,4091.4L6152.73,4091.4z M6394.27,3939.91c0-0.09-13.92-37.81-30.92-83.83
						c-31.82-86.09-33.6-91.27-36.11-105.09c-1.18-6.48-1.77-6.66-2.47-0.75c-0.5,4.23-2.67,13.69-4.34,18.93
						c-0.83,2.6-15.16,41.93-31.84,87.39c-16.68,45.46-30.33,82.85-30.33,83.08c0,0.23,30.6,0.43,68.01,0.43
						C6363.67,3940.06,6394.27,3939.99,6394.27,3939.91z M6517.34,4084.86v-7.17l82.95-114.03l82.95-114.03l-75.1-0.25l-75.1-0.25
						l-0.13-19.06l-0.13-19.06h108.62h108.62v6.44v6.44l-82.96,114.65c-45.63,63.06-82.96,114.76-82.96,114.89
						s36.88,0.24,81.96,0.24h81.96v19.18v19.18h-115.34h-115.34V4084.86z M7126.02,4091.7c-0.18-0.18-0.33-63.41-0.33-140.5v-140.17
						h22.67h22.67v28.9c0,15.89,0.19,28.9,0.43,28.9c0.24,0,1.34-2.6,2.45-5.78c5.1-14.57,13.94-28.19,25.32-39.01
						c10.26-9.75,21.98-15.58,35.82-17.81c3.89-0.63,7.17-0.75,14.95-0.54c9.76,0.25,14.86,0.97,20.8,2.91l1.87,0.61v23.53v23.53
						l-5.36-2.68c-9.46-4.74-18.8-6.61-30.02-6.03c-7.3,0.38-12.1,1.32-17.94,3.51c-12.01,4.51-21.76,12.47-28.57,23.33
						c-9.86,15.73-16.89,35.94-18.96,54.52c-0.37,3.33-0.59,30.49-0.68,84.02l-0.13,79.1h-22.33
						C7136.4,4092.03,7126.2,4091.88,7126.02,4091.7z M6355.18,3551.26c0-0.27,75.33-131.03,167.4-290.59l167.4-290.1l195.08-163.71
						c107.29-90.04,195.37-163.82,195.72-163.96c0.35-0.13-1.06,3.42-3.14,7.89c-2.08,4.48-97.4,208.94-211.83,454.35
						l-208.05,446.21l-151.29,0.19C6423.26,3551.66,6355.18,3551.53,6355.18,3551.26z"/>
				</g>
			</g>
		</g>
		<polygon class="st0" points="167.32,333.86 165.62,360.71 157.26,352.36 117.81,393.29 109.43,384.91 148.87,343.99 
			140.52,335.64 		"/>
		<g>
			<polyline class="st4" points="523.83,424.1 513.12,413.39 521.69,404.82 464.74,404.12 465.44,461.08 474,452.51 549.85,528.35 
				686.8,528.35 			"/>
		</g>
		<g>
			<polyline class="st4" points="386.62,221.19 396.4,221.19 364.32,188.32 332.24,221.19 342.01,221.19 			"/>
		</g>
		<path class="st4" d="M110.96,501.92H5.08c-0.23-1.17-0.37-2.37-0.37-3.61c0-10.96,9.48-19.83,21.16-19.83
			c1.23,0,2.43,0.12,3.6,0.31c1.34-11.66,11.87-20.74,24.68-20.74c11.26,0,20.77,7.03,23.81,16.67c1.6-0.56,3.33-0.89,5.14-0.89
			c8.09,0,14.65,6.14,14.65,13.72c0,0.09-0.01,0.19-0.01,0.27C104.96,489.1,110.51,494.86,110.96,501.92z"/>
		<path class="st0" d="M65.88,511.89h126.47c0.28-1.4,0.44-2.83,0.44-4.31c0-13.09-11.32-23.68-25.28-23.68
			c-1.47,0-2.91,0.15-4.31,0.37c-1.6-13.93-14.18-24.77-29.48-24.77c-13.45,0-24.81,8.4-28.44,19.91c-1.91-0.67-3.98-1.06-6.13-1.06
			c-9.66,0-17.5,7.34-17.5,16.39c0,0.11,0.01,0.22,0.01,0.32C73.04,496.58,66.42,503.46,65.88,511.89z"/>
		<path class="st4" d="M65.88,511.89h126.47c0.28-1.4,0.44-2.83,0.44-4.31c0-13.09-11.32-23.68-25.28-23.68
			c-1.47,0-2.91,0.15-4.31,0.37c-1.6-13.93-14.18-24.77-29.48-24.77c-13.45,0-24.81,8.4-28.44,19.91c-1.91-0.67-3.98-1.06-6.13-1.06
			c-9.66,0-17.5,7.34-17.5,16.39c0,0.11,0.01,0.22,0.01,0.32C73.04,496.58,66.42,503.46,65.88,511.89z"/>
		<g id="g166_5_">
			<g id="g172_5_" transform="translate(388.349, 250.856)">
				<path id="path174_5_" class="st10" d="M-300.52,195.01l-6.88-19.17c-0.09-0.27-0.22-0.61-0.22-0.92c0-0.83,0.7-1.62,1.71-1.62
					c0.88,0,1.45,0.57,1.71,1.4l5.7,16.52l5.74-16.56c0.26-0.79,0.79-1.36,1.66-1.36h0.18c0.92,0,1.49,0.57,1.75,1.36l5.7,16.56
					l5.79-16.6c0.22-0.7,0.7-1.31,1.62-1.31c0.96,0,1.67,0.74,1.67,1.58c0,0.31-0.13,0.65-0.22,0.92l-6.93,19.21
					c-0.35,1-1.05,1.53-1.84,1.53h-0.13c-0.88,0-1.54-0.53-1.85-1.53l-5.65-16.29l-5.7,16.29c-0.31,1-0.97,1.53-1.84,1.53h-0.09
					C-299.47,196.55-300.16,196.02-300.52,195.01"/>
			</g>
			<g id="g176_5_" transform="translate(436.249, 269.985)">
				<path id="path178_5_" class="st10" d="M-298.24,155.85c0-0.92,0.75-1.71,1.67-1.71c0.97,0,1.71,0.75,1.71,1.71v3.89
					c1.67-3.78,5.37-5.56,7.82-5.56c1.02,0,1.67,0.75,1.67,1.71c0,0.92-0.61,1.58-1.5,1.71c-4.39,0.53-7.99,3.82-7.99,10.37v7.7
					c0,0.92-0.7,1.71-1.67,1.71c-0.97,0-1.71-0.75-1.71-1.71L-298.24,155.85L-298.24,155.85z"/>
			</g>
			<g id="g180_5_" transform="translate(458.898, 249.221)">
				<path id="path182_5_" class="st10" d="M-297.17,198.36c-6.11,0-11.11-4.74-11.11-11.7v-0.09c0-6.48,4.52-11.69,10.68-11.69
					c6.58,0,10.33,5.43,10.33,11.39c0,0.92-0.74,1.57-1.55,1.57h-16.09c0.47,4.87,3.87,7.6,7.83,7.6c2.76,0,4.77-1.09,6.41-2.61
					c0.26-0.21,0.56-0.39,0.95-0.39c0.81,0,1.46,0.65,1.46,1.44c0,0.39-0.17,0.78-0.52,1.08
					C-290.88,197.01-293.38,198.36-297.17,198.36 M-290.58,185.36c-0.35-4.09-2.67-7.65-7.11-7.65c-3.87,0-6.8,3.26-7.23,7.65
					H-290.58z"/>
			</g>
			<g id="g184_5_" transform="translate(413.36, 255.941)">
				<path id="path186_5_" class="st10" d="M-299.33,184.6v-0.09c0-4.77,3.94-7.32,9.68-7.32c2.89,0,4.95,0.39,6.97,0.97v-0.79
					c0-4.07-2.5-6.17-6.75-6.17c-2.28,0-3.6,0.29-5.27,1.03c-0.22,0.09-0.44,0.13-0.61,0.13c-0.79,0-1.49-0.66-1.49-1.45
					c0-0.7,0.3-1.13,0.92-1.4c2.23-0.97,3.91-1.29,6.8-1.29c3.19,0,5.65,0.83,7.31,2.5c1.54,1.53,2.32,3.72,2.32,6.61v12.49
					c0,0.96-0.7,1.66-1.63,1.66c-0.96,0-1.61-0.7-1.61-1.58v-2.16c-1.58,2.06-4.21,3.9-8.19,3.9
					C-295.08,191.65-299.33,189.25-299.33,184.6 M-282.64,182.85v-2.19c-1.67-0.48-3.9-0.96-6.66-0.96c-4.24,0-6.61,1.84-6.61,4.69
					v0.09c0,2.85,2.62,4.51,5.69,4.51C-286.06,188.98-282.64,186.44-282.64,182.85"/>
			</g>
			<g id="g188_5_" transform="translate(329.779, 270.223)">
				<path id="path190_5_" class="st10" d="M-303.3,155.36c-0.74-1.63-2.57-2.36-4.29-1.6c-1.71,0.76-2.34,2.66-1.57,4.29l7.19,15.62
					c1.13,2.45,2.32,3.73,4.56,3.73c2.39,0,3.43-1.4,4.56-3.73c0,0,6.27-13.65,6.33-13.79c0.06-0.14,0.27-0.59,0.9-0.58
					c0.54,0,0.99,0.43,0.99,1.01v13.35c0,2.06,1.14,3.74,3.34,3.74c2.19,0,3.38-1.69,3.38-3.74v-10.92c0-2.11,1.51-3.47,3.57-3.47
					s3.43,1.42,3.43,3.47v10.92c0,2.06,1.14,3.74,3.34,3.74c2.19,0,3.39-1.69,3.39-3.74v-10.92c0-2.11,1.5-3.47,3.56-3.47
					c2.05,0,3.43,1.42,3.43,3.47v10.92c0,2.06,1.14,3.74,3.34,3.74c2.19,0,3.38-1.69,3.38-3.74v-12.43c0-4.57-3.67-7.77-8.09-7.77
					c-4.42,0-7.18,3.05-7.18,3.05c-1.47-1.91-3.5-3.05-6.92-3.05c-3.62,0-6.78,3.05-6.78,3.05c-1.47-1.91-3.97-3.05-6.05-3.05
					c-3.21,0-5.75,1.41-7.31,4.96l-4.59,10.82L-303.3,155.36z"/>
			</g>
			<g id="g192_5_" transform="translate(468.609, 268.931)">
				<path id="path194_5_" class="st10" d="M-296.71,158.01v-0.02c0-1.53,1.24-2.82,2.8-2.82c1.58,0,2.8,1.27,2.8,2.8v0.01
					c0,1.53-1.24,2.82-2.8,2.82C-295.49,160.81-296.71,159.54-296.71,158.01 M-291.64,157.99L-291.64,157.99
					c0-1.26-0.97-2.3-2.27-2.3c-1.28,0-2.27,1.05-2.27,2.3V158c0,1.25,0.97,2.28,2.27,2.28
					C-292.63,160.29-291.64,159.24-291.64,157.99"/>
			</g>
			<g id="g196_5_" transform="translate(470.257, 270.007)">
				<path id="path198_5_" class="st10" d="M-296.63,155.8c0-0.17,0.13-0.3,0.3-0.3h0.93c0.35,0,0.62,0.1,0.79,0.28
					c0.15,0.15,0.24,0.37,0.24,0.62v0.01c0,0.43-0.22,0.69-0.54,0.83l0.41,0.5c0.06,0.08,0.1,0.14,0.1,0.23
					c0,0.17-0.14,0.27-0.28,0.27c-0.13,0-0.22-0.07-0.29-0.15l-0.58-0.74h-0.48v0.59c0,0.17-0.13,0.3-0.3,0.3
					c-0.17,0-0.3-0.13-0.3-0.3L-296.63,155.8L-296.63,155.8z M-295.42,156.82c0.29,0,0.45-0.15,0.45-0.38v-0.01
					c0-0.25-0.17-0.39-0.46-0.39h-0.6v0.78L-295.42,156.82L-295.42,156.82z"/>
			</g>
		</g>
		<path class="st41" d="M685.25,431.27h-67.28c-0.15-0.8-0.24-1.61-0.24-2.45c0-7.43,6.02-13.45,13.45-13.45
			c0.78,0,1.55,0.08,2.29,0.21c0.85-7.91,7.54-14.07,15.68-14.07c7.16,0,13.2,4.77,15.13,11.3c1.02-0.38,2.12-0.6,3.26-0.6
			c5.14,0,9.31,4.17,9.31,9.31c0,0.06-0.01,0.13-0.01,0.18C681.44,422.58,684.96,426.48,685.25,431.27z"/>
		<g>
			<g>
				<line class="st4" x1="449.29" y1="456.42" x2="416.8" y2="423.94"/>
				<g>
					<polygon class="st10" points="427.27,422.84 427.2,424.84 417.35,424.48 417.71,434.34 415.71,434.41 415.27,422.4 					"/>
				</g>
			</g>
		</g>
		<g>
			<g>
				<line class="st4" x1="236.51" y1="504.48" x2="258.89" y2="482.11"/>
				<g>
					<polygon class="st10" points="259.98,492.58 257.98,492.5 258.34,482.65 248.49,483.01 248.42,481.01 260.42,480.57 					"/>
				</g>
			</g>
		</g>
		<g>
			<rect x="576.84" y="404" class="st0" width="48.38" height="105.41"/>
			<rect x="576.84" y="404" class="st4" width="48.38" height="105.41"/>
			<rect x="581.38" y="450" class="st10" width="39.3" height="16.24"/>
			<rect x="581.38" y="429.46" class="st10" width="39.3" height="16.24"/>
			<rect x="581.38" y="408.92" class="st10" width="39.3" height="16.24"/>
			<circle class="st44" cx="616.84" cy="452.8" r="1.38"/>
			<circle class="st44" cx="612.71" cy="452.8" r="1.38"/>
			<circle class="st44" cx="616.84" cy="456.43" r="1.38"/>
			<circle class="st44" cx="612.71" cy="456.43" r="1.38"/>
			<circle class="st44" cx="616.84" cy="460.05" r="1.38"/>
			<circle class="st44" cx="616.84" cy="463.68" r="1.38"/>
			<circle class="st44" cx="612.71" cy="463.68" r="1.38"/>
			<rect x="582.73" y="451.44" class="st19" width="2.71" height="2.71"/>
			<rect x="590.03" y="451.44" class="st19" width="2.71" height="2.71"/>
			<rect x="593.68" y="451.44" class="st44" width="2.71" height="2.71"/>
			<rect x="597.32" y="451.44" class="st20" width="2.71" height="2.71"/>
			<rect x="586.38" y="455.07" class="st20" width="2.71" height="2.71"/>
			<rect x="593.68" y="455.07" class="st44" width="2.71" height="2.71"/>
			<rect x="597.32" y="455.07" class="st19" width="2.71" height="2.71"/>
			<rect x="582.73" y="458.69" class="st44" width="2.71" height="2.71"/>
			<rect x="586.38" y="458.69" class="st19" width="2.71" height="2.71"/>
			<rect x="590.03" y="458.69" class="st20" width="2.71" height="2.71"/>
			<rect x="593.68" y="458.69" class="st20" width="2.71" height="2.71"/>
			<rect x="582.73" y="462.32" class="st19" width="2.71" height="2.71"/>
			<rect x="590.03" y="462.32" class="st19" width="2.71" height="2.71"/>
			<rect x="593.68" y="462.32" class="st44" width="2.71" height="2.71"/>
			<rect x="597.32" y="462.32" class="st20" width="2.71" height="2.71"/>
			<rect x="601.03" y="451.44" class="st19" width="2.71" height="2.71"/>
			<rect x="601.03" y="455.07" class="st20" width="2.71" height="2.71"/>
			<rect x="601.03" y="458.69" class="st19" width="2.71" height="2.71"/>
			<circle class="st44" cx="612.71" cy="432.14" r="1.38"/>
			<circle class="st44" cx="616.84" cy="435.77" r="1.38"/>
			<circle class="st44" cx="612.71" cy="435.77" r="1.38"/>
			<circle class="st44" cx="616.84" cy="439.39" r="1.38"/>
			<circle class="st44" cx="612.71" cy="439.39" r="1.38"/>
			<circle class="st44" cx="612.71" cy="443.02" r="1.38"/>
			<rect x="582.73" y="430.78" class="st20" width="2.71" height="2.71"/>
			<rect x="586.38" y="430.78" class="st19" width="2.71" height="2.71"/>
			<rect x="593.68" y="430.78" class="st44" width="2.71" height="2.71"/>
			<rect x="597.32" y="430.78" class="st19" width="2.71" height="2.71"/>
			<rect x="582.73" y="434.41" class="st44" width="2.71" height="2.71"/>
			<rect x="586.38" y="434.41" class="st20" width="2.71" height="2.71"/>
			<rect x="593.68" y="434.41" class="st44" width="2.71" height="2.71"/>
			<rect x="597.32" y="434.41" class="st20" width="2.71" height="2.71"/>
			<rect x="582.73" y="438.04" class="st19" width="2.71" height="2.71"/>
			<rect x="586.38" y="438.04" class="st44" width="2.71" height="2.71"/>
			<rect x="590.03" y="438.04" class="st44" width="2.71" height="2.71"/>
			<rect x="593.68" y="438.04" class="st19" width="2.71" height="2.71"/>
			<rect x="586.38" y="441.66" class="st20" width="2.71" height="2.71"/>
			<rect x="590.03" y="441.66" class="st44" width="2.71" height="2.71"/>
			<rect x="597.32" y="441.66" class="st19" width="2.71" height="2.71"/>
			<rect x="601.03" y="430.78" class="st44" width="2.71" height="2.71"/>
			<rect x="601.03" y="438.04" class="st19" width="2.71" height="2.71"/>
			<rect x="601.03" y="441.66" class="st20" width="2.71" height="2.71"/>
			<circle class="st44" cx="616.84" cy="411.48" r="1.38"/>
			<circle class="st10" cx="616.84" cy="415.11" r="1.38"/>
			<circle class="st10" cx="612.71" cy="411.48" r="1.38"/>
			<circle class="st44" cx="612.71" cy="415.11" r="1.38"/>
			<circle class="st10" cx="612.71" cy="418.73" r="1.38"/>
			<circle class="st44" cx="616.84" cy="418.73" r="1.38"/>
			<circle class="st44" cx="616.84" cy="422.36" r="1.38"/>
			<circle class="st44" cx="612.71" cy="422.36" r="1.38"/>
			<rect x="586.38" y="410.13" class="st19" width="2.71" height="2.71"/>
			<rect x="590.03" y="410.13" class="st44" width="2.71" height="2.71"/>
			<rect x="593.68" y="410.13" class="st20" width="2.71" height="2.71"/>
			<rect x="597.32" y="410.13" class="st20" width="2.71" height="2.71"/>
			<rect x="582.73" y="413.75" class="st20" width="2.71" height="2.71"/>
			<rect x="586.38" y="413.75" class="st44" width="2.71" height="2.71"/>
			<rect x="593.68" y="413.75" class="st19" width="2.71" height="2.71"/>
			<rect x="597.32" y="413.75" class="st19" width="2.71" height="2.71"/>
			<rect x="586.38" y="417.38" class="st19" width="2.71" height="2.71"/>
			<rect x="590.03" y="417.38" class="st20" width="2.71" height="2.71"/>
			<rect x="593.68" y="417.38" class="st44" width="2.71" height="2.71"/>
			<rect x="597.32" y="417.38" class="st20" width="2.71" height="2.71"/>
			<rect x="582.73" y="421" class="st19" width="2.71" height="2.71"/>
			<rect x="586.38" y="421" class="st44" width="2.71" height="2.71"/>
			<rect x="590.03" y="421" class="st20" width="2.71" height="2.71"/>
			<rect x="593.68" y="421" class="st19" width="2.71" height="2.71"/>
			<rect x="601.03" y="413.75" class="st19" width="2.71" height="2.71"/>
			<rect x="601.03" y="417.38" class="st44" width="2.71" height="2.71"/>
			<rect x="601.03" y="421" class="st19" width="2.71" height="2.71"/>
			<line class="st4" x1="582.73" y1="475" x2="619.83" y2="475"/>
			<line class="st4" x1="582.73" y1="480.84" x2="619.83" y2="480.84"/>
			<line class="st4" x1="582.73" y1="486.69" x2="619.83" y2="486.69"/>
			<line class="st4" x1="582.73" y1="492.53" x2="619.83" y2="492.53"/>
			<line class="st4" x1="582.73" y1="498.37" x2="619.83" y2="498.37"/>
		</g>
		<polygon class="st19" points="358.09,257.62 369.95,257.62 369.95,224.55 381.76,224.54 363.98,204.35 346.29,224.57 
			358.09,224.56 		"/>
		<polygon class="st21" points="395.27,384.27 374.47,384.28 374.47,405.34 364.02,393.84 353.57,405.34 353.57,384.3 
			332.77,384.32 363.95,348.7 		"/>
		<path class="st20" d="M103.09,83.03h103.47c0.23-1.22,0.36-2.48,0.36-3.77c0-11.43-9.26-20.68-20.68-20.68
			c-1.2,0-2.38,0.13-3.52,0.32c-1.31-12.16-11.6-21.63-24.12-21.63c-11.01,0-20.3,7.34-23.26,17.38c-1.57-0.59-3.26-0.93-5.02-0.93
			c-7.9,0-14.31,6.41-14.31,14.31c0,0.1,0.01,0.2,0.01,0.28C108.95,69.67,103.53,75.68,103.09,83.03z"/>
		<g>
			<g>
				<g>
					<line class="st4" x1="601.48" y1="50.59" x2="606.37" y2="50.59"/>
					<line class="st4" x1="609.73" y1="50.59" x2="614.62" y2="50.59"/>
				</g>
			</g>
			<g>
				<g>
					<line class="st4" x1="604.77" y1="56.28" x2="607.21" y2="52.04"/>
					<line class="st4" x1="608.89" y1="49.15" x2="611.33" y2="44.91"/>
				</g>
			</g>
			<g>
				<g>
					<line class="st4" x1="611.33" y1="56.28" x2="608.89" y2="52.04"/>
					<line class="st4" x1="607.21" y1="49.15" x2="604.77" y2="44.91"/>
				</g>
			</g>
		</g>
		<g>
			<g>
				<g>
					<line class="st4" x1="385.27" y1="483.89" x2="390.16" y2="483.89"/>
					<line class="st4" x1="393.51" y1="483.89" x2="398.4" y2="483.89"/>
				</g>
			</g>
			<g>
				<g>
					<line class="st4" x1="388.55" y1="489.58" x2="391" y2="485.34"/>
					<line class="st4" x1="392.67" y1="482.45" x2="395.12" y2="478.21"/>
				</g>
			</g>
			<g>
				<g>
					<line class="st4" x1="395.12" y1="489.58" x2="392.67" y2="485.34"/>
					<line class="st4" x1="391" y1="482.45" x2="388.55" y2="478.21"/>
				</g>
			</g>
		</g>
		<g>
			<g>
				<g>
					<line class="st4" x1="645.76" y1="302.91" x2="650.65" y2="302.91"/>
					<line class="st4" x1="654" y1="302.91" x2="658.89" y2="302.91"/>
				</g>
			</g>
			<g>
				<g>
					<line class="st4" x1="649.04" y1="308.6" x2="651.49" y2="304.36"/>
					<line class="st4" x1="653.16" y1="301.46" x2="655.61" y2="297.23"/>
				</g>
			</g>
			<g>
				<g>
					<line class="st4" x1="655.61" y1="308.6" x2="653.16" y2="304.36"/>
					<line class="st4" x1="651.49" y1="301.46" x2="649.04" y2="297.23"/>
				</g>
			</g>
		</g>
		<g>
			<g>
				<g>
					<line class="st4" x1="144.31" y1="211.17" x2="149.2" y2="211.17"/>
					<line class="st4" x1="152.56" y1="211.17" x2="157.45" y2="211.17"/>
				</g>
			</g>
			<g>
				<g>
					<line class="st4" x1="147.6" y1="216.86" x2="150.04" y2="212.62"/>
					<line class="st4" x1="151.71" y1="209.73" x2="154.16" y2="205.49"/>
				</g>
			</g>
			<g>
				<g>
					<line class="st4" x1="154.16" y1="216.86" x2="151.71" y2="212.62"/>
					<line class="st4" x1="150.04" y1="209.73" x2="147.6" y2="205.49"/>
				</g>
			</g>
		</g>
		<polygon class="st1" points="556.88,352.69 551.23,362.47 562.52,362.47 		"/>
		<polygon class="st3" points="515.06,36.7 509.74,45.92 520.38,45.92 		"/>
		<polygon class="st3" points="83.4,315.96 78.08,325.18 88.72,325.18 		"/>
		<circle class="st4" cx="49.8" cy="135.64" r="3.73"/>
		<circle class="st1" cx="581.38" cy="185.12" r="4.89"/>
		<circle class="st1" cx="133" cy="106.64" r="4.89"/>
		<g>
			<line class="st4" x1="594.38" y1="254.97" x2="602.98" y2="254.97"/>
			<line class="st4" x1="598.68" y1="259.28" x2="598.68" y2="250.68"/>
		</g>
		<rect x="78.51" y="229.81" class="st1" width="9.78" height="9.78"/>
		<rect x="634.7" y="140.62" class="st1" width="9.78" height="9.78"/>
		<g>
			<g>
				<g>
					<path class="st10" d="M238.98,281.68c2.01-0.3,4.4-0.53,7.01-0.53c4.74,0,8.11,1.1,10.35,3.18c2.27,2.08,3.6,5.04,3.6,9.17
						c0,4.17-1.29,7.58-3.68,9.93c-2.39,2.39-6.33,3.68-11.29,3.68c-2.35,0-4.32-0.11-5.99-0.3V281.68z M242.28,304.27
						c0.83,0.15,2.05,0.19,3.34,0.19c7.05,0,10.88-3.94,10.88-10.84c0.04-6.03-3.37-9.86-10.35-9.86c-1.71,0-2.99,0.15-3.87,0.34
						V304.27z"/>
					<path class="st10" d="M266.12,298.32c0.08,4.51,2.96,6.37,6.29,6.37c2.39,0,3.83-0.42,5.08-0.95l0.57,2.39
						c-1.17,0.53-3.18,1.14-6.1,1.14c-5.65,0-9.02-3.71-9.02-9.25c0-5.53,3.26-9.89,8.6-9.89c5.99,0,7.58,5.27,7.58,8.64
						c0,0.68-0.08,1.21-0.11,1.55H266.12z M275.9,295.93c0.04-2.12-0.87-5.42-4.62-5.42c-3.37,0-4.85,3.11-5.12,5.42H275.9z"/>
					<path class="st10" d="M284.54,288.54l3.6,10.31c0.61,1.67,1.1,3.18,1.48,4.7h0.11c0.42-1.52,0.95-3.03,1.55-4.7l3.56-10.31
						h3.49l-7.2,18.34h-3.18l-6.97-18.34H284.54z"/>
				</g>
			</g>
			<g>
				<g>
					<path class="st10" d="M454.76,293.85c0,8.79-5.34,13.46-11.86,13.46c-6.75,0-11.48-5.23-11.48-12.96
						c0-8.11,5.04-13.42,11.86-13.42C450.25,280.92,454.76,286.26,454.76,293.85z M434.94,294.26c0,5.46,2.96,10.35,8.15,10.35
						c5.23,0,8.19-4.81,8.19-10.61c0-5.08-2.65-10.39-8.15-10.39C437.67,283.61,434.94,288.65,434.94,294.26z"/>
					<path class="st10" d="M458.93,294.53c0-2.35-0.08-4.25-0.15-5.99h2.99l0.15,3.15H462c1.36-2.24,3.53-3.56,6.52-3.56
						c4.43,0,7.77,3.75,7.77,9.32c0,6.59-4.02,9.85-8.34,9.85c-2.43,0-4.55-1.06-5.65-2.88h-0.08v9.97h-3.3V294.53z M462.23,299.42
						c0,0.49,0.08,0.95,0.15,1.36c0.61,2.31,2.62,3.9,5,3.9c3.52,0,5.57-2.88,5.57-7.09c0-3.68-1.93-6.82-5.46-6.82
						c-2.27,0-4.4,1.63-5.04,4.13c-0.11,0.42-0.23,0.91-0.23,1.36V299.42z"/>
					<path class="st10" d="M480.04,303.47c0.99,0.64,2.73,1.33,4.4,1.33c2.43,0,3.56-1.21,3.56-2.73c0-1.59-0.95-2.46-3.41-3.37
						c-3.3-1.17-4.85-2.99-4.85-5.19c0-2.96,2.39-5.38,6.33-5.38c1.86,0,3.49,0.53,4.51,1.14l-0.83,2.43
						c-0.72-0.46-2.05-1.06-3.75-1.06c-1.97,0-3.07,1.14-3.07,2.5c0,1.52,1.1,2.2,3.49,3.11c3.18,1.21,4.81,2.8,4.81,5.53
						c0,3.22-2.5,5.5-6.86,5.5c-2.01,0-3.87-0.49-5.15-1.25L480.04,303.47z"/>
				</g>
			</g>
			<polygon class="st6" points="416.92,327.2 320.05,229.63 294.71,233.56 297.93,254.39 399.02,355.31 395.19,330.57 			"/>
			<polygon class="st5" points="413.74,267.59 417.53,243.1 395.49,239.68 295.41,339.38 318.42,342.94 314.83,366.14 			"/>
			<path class="st6" d="M227.34,258.19l-21.4-1.19l1.42-25.45c-17.25,16.11-28.06,39.05-28.06,64.46c0,15.72,4.13,30.48,11.37,43.27
				l25,4.75l3.93-20.65c-4.63-8.07-7.28-17.42-7.28-27.37C212.32,281.38,218.04,268.07,227.34,258.19z"/>
			<path class="st6" d="M286.8,344.73L286.8,344.73c-10.04,5.56-16.25,6.49-19.27,6.49c-17.17,0-32.52-7.87-42.66-20.2l-3.95,20.74
				l-25.4-4.83c16,22.55,42.31,37.3,72.01,37.3c12.12,0,25.32-4.37,39.87-13.25l3.49-22.53L286.8,344.73z"/>
			<path class="st6" d="M312.29,224.15c-16.5-10.98-31.3-16.37-44.76-16.37c-19.97,0-38.42,6.68-53.23,17.92l-1.4,25.08l21.36,1.19
				h0.01c9.25-7.01,20.79-11.17,33.27-11.17c3.37,0,10.73,1.16,22.96,8.65l-3.32-21.41L312.29,224.15z"/>
			<path class="st5" d="M495.24,359.93l0.99-21.87c-9.63,8.21-22.11,13.16-35.73,13.16c-4.48,0-16.05-2.06-36.76-18.39l-21.02,3.25
				l3.91,25.29c20.22,15.35,37.98,22.87,53.86,22.87c22.93,0,43.84-8.79,59.55-23.19L495.24,359.93z"/>
			<path class="st5" d="M520.43,231.32l1.44,25.68l-21.19,1.18c9.33,9.89,15.04,23.2,15.04,37.83c0,13.27-4.71,25.47-12.56,35.01
				l-0.01,0.02l-1.02,22.59l24.17,1.1c13.95-15.6,22.44-36.19,22.44-58.72C548.74,270.47,537.84,247.43,520.43,231.32z"/>
			<path class="st5" d="M513.49,225.51c-14.77-11.13-33.12-17.73-52.99-17.73c-17.01,0-36.18,8.62-58.23,26.27l22.79,3.52
				l-3.63,23.46c22.16-18.03,34.41-20.24,39.07-20.24c12.47,0,24,4.16,33.25,11.16l21.15-1.18L513.49,225.51z"/>
			<g>
				<g>
					<path class="st10" d="M345.08,306.5c0.33-0.5,0.87-1.13,1.43-1.69c0.87-0.87,1.59-1.27,2.34-1.31c0.6-0.04,1.21,0.21,1.69,0.7
						c0.83,0.83,0.86,1.91,0.42,2.79l0.03,0.03c0.65-0.32,1.39-0.16,2.2,0.35c1.08,0.67,1.84,1.13,2.21,1.24l-0.84,0.84
						c-0.28-0.08-0.96-0.48-1.92-1.08c-1.06-0.68-1.72-0.67-2.49,0.04l-0.77,0.77l2.73,2.73l-0.81,0.81L345.08,306.5z
						 M348.77,308.56l0.83-0.83c0.87-0.87,0.94-1.9,0.22-2.62c-0.81-0.81-1.76-0.58-2.63,0.27c-0.39,0.39-0.63,0.71-0.73,0.88
						L348.77,308.56z"/>
					<path class="st10" d="M356.63,301.48l-2.45,2.45l2.27,2.27l2.73-2.73l0.68,0.68l-3.54,3.54l-6.3-6.3l3.4-3.4l0.68,0.68
						l-2.59,2.59l1.99,1.99l2.45-2.45L356.63,301.48z"/>
					<path class="st10" d="M354.62,296.8l0.81-0.81l5.62,5.62l2.69-2.69l0.68,0.68l-3.5,3.5L354.62,296.8z"/>
					<path class="st10" d="M365.63,292.47l-2.45,2.45l2.27,2.27l2.73-2.73l0.68,0.68l-3.54,3.54l-6.3-6.3l3.4-3.4l0.68,0.68
						l-2.59,2.59l1.99,1.99l2.45-2.45L365.63,292.47z"/>
					<path class="st10" d="M368.96,291.09l1.33,2.64l-0.84,0.84l-4.16-8.44l0.98-0.98l8.45,4.15l-0.87,0.87l-2.65-1.31
						L368.96,291.09z M370.39,288.39l-2.43-1.2c-0.55-0.27-1.02-0.55-1.48-0.82l-0.02,0.02c0.28,0.47,0.56,0.95,0.82,1.46l1.21,2.44
						L370.39,288.39z"/>
					<path class="st10" d="M374.53,287.5c0.59-0.14,1.31-0.49,1.87-1.05c0.83-0.83,0.88-1.76,0.24-2.39
						c-0.59-0.59-1.26-0.59-2.44-0.07c-1.39,0.66-2.56,0.77-3.45-0.12c-0.98-0.98-0.9-2.52,0.33-3.75c0.65-0.65,1.26-0.96,1.7-1.08
						l0.44,0.89c-0.32,0.09-0.92,0.33-1.49,0.9c-0.86,0.86-0.67,1.7-0.24,2.13c0.59,0.59,1.26,0.5,2.47-0.04
						c1.48-0.65,2.53-0.68,3.46,0.24c0.97,0.97,1.09,2.53-0.39,4.02c-0.61,0.61-1.45,1.09-2.01,1.21L374.53,287.5z"/>
					<path class="st10" d="M380.55,277.56l-2.45,2.45l2.27,2.27l2.73-2.73l0.68,0.68l-3.54,3.54l-6.3-6.3l3.4-3.4l0.68,0.68
						l-2.59,2.59l1.99,1.99l2.45-2.45L380.55,277.56z"/>
				</g>
			</g>
			<g>
				<g>
					<path class="st10" d="M446.34,221.08c0.7-0.11,1.53-0.19,2.45-0.19c1.65,0,2.83,0.38,3.61,1.11c0.79,0.73,1.25,1.76,1.25,3.2
						c0,1.45-0.45,2.64-1.28,3.46c-0.83,0.83-2.21,1.28-3.94,1.28c-0.82,0-1.51-0.04-2.09-0.11V221.08z M447.49,228.96
						c0.29,0.05,0.71,0.07,1.16,0.07c2.46,0,3.79-1.37,3.79-3.78c0.01-2.1-1.18-3.44-3.61-3.44c-0.59,0-1.04,0.05-1.35,0.12V228.96z
						"/>
					<path class="st10" d="M459.74,225.69h-3.46v3.21h3.86v0.96h-5.01v-8.91h4.81v0.96h-3.66v2.81h3.46V225.69z"/>
					<path class="st10" d="M461.63,221.07c0.56-0.09,1.28-0.17,2.21-0.17c1.14,0,1.97,0.26,2.5,0.74c0.49,0.42,0.78,1.07,0.78,1.86
						c0,0.81-0.24,1.44-0.69,1.9c-0.61,0.65-1.6,0.98-2.72,0.98c-0.34,0-0.66-0.01-0.92-0.08v3.57h-1.15V221.07z M462.78,225.36
						c0.25,0.07,0.57,0.09,0.95,0.09c1.39,0,2.23-0.67,2.23-1.9c0-1.18-0.83-1.74-2.1-1.74c-0.5,0-0.88,0.04-1.08,0.09V225.36z"/>
					<path class="st10" d="M468.66,220.96h1.15v7.94h3.81v0.96h-4.96V220.96z"/>
					<path class="st10" d="M481.99,225.32c0,3.07-1.86,4.69-4.14,4.69c-2.35,0-4-1.82-4-4.52c0-2.83,1.76-4.68,4.14-4.68
						C480.41,220.82,481.99,222.68,481.99,225.32z M475.08,225.47c0,1.9,1.03,3.61,2.84,3.61c1.82,0,2.85-1.68,2.85-3.7
						c0-1.77-0.93-3.62-2.84-3.62C476.03,221.76,475.08,223.51,475.08,225.47z"/>
					<path class="st10" d="M485.09,229.87v-3.78l-2.81-5.13h1.31l1.25,2.46c0.34,0.67,0.61,1.22,0.89,1.84h0.03
						c0.25-0.58,0.55-1.16,0.9-1.84l1.28-2.46h1.31l-2.99,5.11v3.79H485.09z"/>
				</g>
			</g>
			<g>
				<g>
					<path class="st10" d="M243.48,234.29c-0.31,0.39-1.04,0.97-2.08,1.45c-2.42,1.11-4.95,0.42-6.25-2.4
						c-1.24-2.69-0.25-5.35,2.42-6.58c1.07-0.49,1.85-0.57,2.22-0.55l0.15,1.03c-0.51-0.01-1.18,0.11-1.9,0.44
						c-2.01,0.93-2.76,2.83-1.73,5.09c0.97,2.1,2.8,2.9,4.89,1.94c0.68-0.31,1.3-0.77,1.65-1.19L243.48,234.29z"/>
					<path class="st10" d="M250.74,227.18c0.98,3.1-0.39,5.35-2.69,6.07c-2.38,0.75-4.64-0.57-5.5-3.3
						c-0.91-2.86,0.28-5.3,2.69-6.06C247.71,223.12,249.9,224.51,250.74,227.18z M243.79,229.54c0.61,1.93,2.2,3.32,4.03,2.74
						c1.85-0.58,2.35-2.61,1.71-4.66c-0.57-1.79-2.09-3.37-4.04-2.76C243.57,225.47,243.16,227.56,243.79,229.54z"/>
					<path class="st10" d="M251.87,222.34c0.71-0.23,1.57-0.46,2.53-0.63c1.73-0.29,3.03-0.1,3.97,0.53
						c0.96,0.62,1.63,1.62,1.88,3.13c0.26,1.52,0,2.85-0.73,3.85c-0.72,1.02-2.08,1.73-3.9,2.04c-0.86,0.14-1.58,0.22-2.21,0.26
						L251.87,222.34z M254.47,230.39c0.31,0,0.76-0.06,1.23-0.14c2.57-0.43,3.73-2.11,3.3-4.63c-0.36-2.2-1.84-3.39-4.39-2.96
						c-0.62,0.1-1.08,0.24-1.39,0.36L254.47,230.39z"/>
					<path class="st10" d="M267.08,225.55l-3.67,0.18l0.17,3.41l4.09-0.2l0.05,1.02l-5.32,0.26l-0.46-9.45l5.1-0.25l0.05,1.02
						l-3.88,0.19l0.15,2.99l3.67-0.18L267.08,225.55z"/>
				</g>
			</g>
			<g>
				<g>
					<path class="st10" d="M195.53,319.11c-0.25-0.49-0.55-1.28-0.77-2.1c-0.32-1.18-0.32-1.99-0.01-2.69
						c0.22-0.57,0.69-1,1.41-1.19c0.88-0.24,1.81,0.14,2.42,1l0.03-0.01c-0.02-0.93,0.43-2.14,1.78-2.5
						c0.79-0.21,1.47-0.06,2.04,0.28c0.75,0.48,1.3,1.44,1.71,2.93c0.22,0.81,0.33,1.45,0.39,1.86L195.53,319.11z M198.95,316.92
						l-0.29-1.07c-0.34-1.25-1.18-1.8-2.07-1.56c-1.07,0.29-1.27,1.22-0.95,2.41c0.15,0.54,0.27,0.84,0.36,1.02L198.95,316.92z
						 M203.33,315.74c-0.02-0.24-0.1-0.58-0.21-1c-0.33-1.22-1.08-2.22-2.41-1.86c-1.25,0.34-1.47,1.55-1.12,2.83l0.26,0.98
						L203.33,315.74z"/>
					<path class="st10" d="M193.16,309.71l5.54-0.79c2.1-0.3,2.85-1.36,2.67-2.61c-0.2-1.39-1.24-2.15-3.31-1.85l-5.54,0.79
						l-0.17-1.22l5.46-0.78c2.87-0.41,4.27,0.93,4.56,2.96c0.27,1.92-0.62,3.52-3.52,3.93l-5.51,0.79L193.16,309.71z"/>
					<path class="st10" d="M192.15,300.06l9.44-0.49l0.06,1.22l-9.44,0.49L192.15,300.06z"/>
					<path class="st10" d="M192.04,297.43l0.02-1.22l8.44,0.16l0.07-4.04l1.03,0.02l-0.1,5.26L192.04,297.43z"/>
					<path class="st10" d="M192.4,290.01c-0.01-0.75,0.02-1.64,0.15-2.6c0.23-1.74,0.8-2.92,1.68-3.64
						c0.88-0.73,2.03-1.07,3.54-0.87c1.53,0.2,2.72,0.84,3.46,1.84c0.76,0.99,1.04,2.5,0.79,4.32c-0.12,0.86-0.25,1.58-0.41,2.18
						L192.4,290.01z M200.85,289.9c0.1-0.3,0.17-0.74,0.23-1.21c0.35-2.58-0.91-4.18-3.44-4.52c-2.21-0.31-3.78,0.75-4.12,3.31
						c-0.08,0.63-0.09,1.11-0.06,1.43L200.85,289.9z"/>
				</g>
			</g>
			<g>
				<g>
					<path class="st10" d="M440.11,365.73c-0.07-1.24-0.15-2.74-0.13-3.85h-0.04c-0.3,1.04-0.67,2.15-1.12,3.38l-1.57,4.32h-0.87
						l-1.44-4.24c-0.42-1.25-0.78-2.4-1.03-3.46h-0.03c-0.03,1.11-0.09,2.6-0.17,3.94l-0.24,3.82h-1.1l0.62-8.91h1.47l1.52,4.31
						c0.37,1.1,0.67,2.08,0.9,3h0.04c0.22-0.9,0.54-1.88,0.94-3l1.59-4.31h1.47l0.55,8.91h-1.12L440.11,365.73z"/>
					<path class="st10" d="M450.84,365.1c0,3.07-1.86,4.69-4.14,4.69c-2.35,0-4-1.82-4-4.52c0-2.83,1.76-4.68,4.14-4.68
						C449.26,360.59,450.84,362.45,450.84,365.1z M443.93,365.24c0,1.9,1.03,3.61,2.84,3.61c1.82,0,2.85-1.68,2.85-3.7
						c0-1.77-0.93-3.62-2.84-3.62C444.88,361.53,443.93,363.28,443.93,365.24z"/>
					<path class="st10" d="M452.32,369.64v-8.91h1.26l2.85,4.51c0.66,1.04,1.18,1.98,1.6,2.89l0.03-0.01
						c-0.11-1.19-0.13-2.27-0.13-3.66v-3.73h1.08v8.91h-1.16l-2.83-4.52c-0.62-0.99-1.22-2.01-1.67-2.97l-0.04,0.01
						c0.07,1.12,0.09,2.19,0.09,3.67v3.81H452.32z"/>
					<path class="st10" d="M462.16,360.73v8.91h-1.15v-8.91H462.16z"/>
					<path class="st10" d="M465.86,361.71h-2.71v-0.98h6.59v0.98h-2.72v7.93h-1.16V361.71z"/>
					<path class="st10" d="M477.99,365.1c0,3.07-1.86,4.69-4.14,4.69c-2.35,0-4-1.82-4-4.52c0-2.83,1.76-4.68,4.14-4.68
						C476.42,360.59,477.99,362.45,477.99,365.1z M471.08,365.24c0,1.9,1.03,3.61,2.84,3.61c1.82,0,2.85-1.68,2.85-3.7
						c0-1.77-0.93-3.62-2.84-3.62C472.03,361.53,471.08,363.28,471.08,365.24z"/>
					<path class="st10" d="M479.48,360.85c0.58-0.12,1.41-0.19,2.21-0.19c1.23,0,2.02,0.22,2.58,0.73c0.45,0.4,0.7,1,0.7,1.69
						c0,1.18-0.74,1.96-1.68,2.27v0.04c0.69,0.24,1.1,0.87,1.31,1.8c0.29,1.24,0.5,2.1,0.69,2.44h-1.19
						c-0.15-0.25-0.34-1.02-0.59-2.13c-0.26-1.23-0.74-1.69-1.78-1.73h-1.08v3.86h-1.15V360.85z M480.63,364.91h1.18
						c1.23,0,2.01-0.67,2.01-1.69c0-1.15-0.83-1.65-2.05-1.67c-0.55,0-0.95,0.05-1.14,0.11V364.91z"/>
				</g>
			</g>
			<g>
				<g>
					<path class="st10" d="M531.15,280.27c-3.07,0-4.69-1.86-4.69-4.14c0-2.35,1.82-4,4.52-4c2.83,0,4.68,1.76,4.68,4.14
						C535.66,278.7,533.8,280.27,531.15,280.27z M531.01,273.36c-1.9,0-3.61,1.03-3.61,2.84c0,1.82,1.68,2.85,3.7,2.85
						c1.77,0,3.62-0.93,3.62-2.84C534.72,274.31,532.96,273.36,531.01,273.36z"/>
					<path class="st10" d="M535.41,281.76c0.09,0.56,0.17,1.28,0.17,2.21c0,1.14-0.26,1.97-0.74,2.5c-0.42,0.49-1.07,0.78-1.86,0.78
						c-0.81,0-1.44-0.24-1.9-0.69c-0.65-0.61-0.98-1.6-0.98-2.72c0-0.34,0.01-0.66,0.08-0.92h-3.57v-1.15H535.41z M531.11,282.91
						c-0.07,0.25-0.09,0.57-0.09,0.95c0,1.39,0.67,2.23,1.9,2.23c1.18,0,1.74-0.83,1.74-2.1c0-0.5-0.04-0.88-0.09-1.08H531.11z"/>
					<path class="st10" d="M530.78,293.4v-3.46h-3.21v3.86h-0.96v-5.01h8.91v4.81h-0.96v-3.66h-2.81v3.46H530.78z"/>
					<path class="st10" d="M535.39,295.28c0.12,0.58,0.19,1.41,0.19,2.21c0,1.23-0.22,2.02-0.73,2.58c-0.4,0.45-1,0.7-1.69,0.7
						c-1.18,0-1.96-0.74-2.27-1.68h-0.04c-0.24,0.69-0.87,1.1-1.8,1.31c-1.24,0.29-2.1,0.5-2.44,0.69v-1.19
						c0.25-0.15,1.02-0.34,2.13-0.59c1.23-0.26,1.69-0.74,1.73-1.78v-1.08h-3.86v-1.15H535.39z M531.34,296.43v1.18
						c0,1.23,0.67,2.01,1.69,2.01c1.15,0,1.65-0.83,1.67-2.05c0-0.55-0.05-0.95-0.11-1.14H531.34z"/>
					<path class="st10" d="M529.41,303.9l-2.8-0.92v-1.19l8.91,3.03v1.39l-8.91,3.04v-1.23l2.8-0.95V303.9z M530.31,306.82
						l2.56-0.87c0.58-0.2,1.11-0.33,1.62-0.46v-0.03c-0.53-0.13-1.07-0.28-1.61-0.45l-2.58-0.87V306.82z"/>
					<path class="st10" d="M534.54,311.21v-2.71h0.98v6.59h-0.98v-2.72h-7.93v-1.16H534.54z"/>
					<path class="st10" d="M530.78,320.7v-3.46h-3.21v3.86h-0.96v-5.01h8.91v4.81h-0.96v-3.66h-2.81v3.46H530.78z"/>
				</g>
			</g>
			<g>
				<g>
					<path class="st10" d="M252.22,363.59h-2.71v-0.98h6.59v0.98h-2.72v7.93h-1.16V363.59z"/>
					<path class="st10" d="M261.71,367.35h-3.46v3.21h3.86v0.96h-5.01v-8.91h4.81v0.96h-3.66v2.81h3.46V367.35z"/>
					<path class="st10" d="M263.44,370.12c0.52,0.32,1.27,0.58,2.06,0.58c1.18,0,1.86-0.62,1.86-1.52c0-0.83-0.48-1.31-1.68-1.77
						c-1.45-0.52-2.35-1.27-2.35-2.52c0-1.39,1.15-2.42,2.88-2.42c0.91,0,1.57,0.21,1.97,0.44l-0.32,0.94
						c-0.29-0.16-0.89-0.42-1.69-0.42c-1.22,0-1.68,0.73-1.68,1.33c0,0.83,0.54,1.24,1.77,1.72c1.51,0.58,2.27,1.31,2.27,2.62
						c0,1.38-1.02,2.56-3.12,2.56c-0.86,0-1.8-0.25-2.27-0.57L263.44,370.12z"/>
					<path class="st10" d="M271.8,363.59h-2.71v-0.98h6.59v0.98h-2.72v7.93h-1.16V363.59z"/>
				</g>
			</g>
			<g>
				<g>
					<path class="st10" d="M326.91,251.01c0.46,0.33,1.03,0.78,1.68,1.44c0.8,0.8,1.2,1.58,1.24,2.29c0.05,0.64-0.21,1.31-0.77,1.87
						c-0.57,0.57-1.19,0.85-1.83,0.86c-0.89,0.03-1.82-0.44-2.62-1.23c-0.24-0.24-0.46-0.48-0.6-0.71l-2.52,2.52l-0.81-0.81
						L326.91,251.01z M324.69,254.86c0.13,0.22,0.34,0.47,0.61,0.74c0.98,0.98,2.06,1.1,2.92,0.23c0.83-0.83,0.64-1.82-0.25-2.72
						c-0.35-0.35-0.65-0.6-0.83-0.7L324.69,254.86z"/>
					<path class="st10" d="M331.96,255.9l0.81,0.81l-5.62,5.62l2.69,2.69l-0.68,0.68l-3.5-3.5L331.96,255.9z"/>
					<path class="st10" d="M333.07,265.65l-2.63,1.33l-0.84-0.84l8.44-4.16l0.98,0.98l-4.15,8.45l-0.87-0.87l1.31-2.65
						L333.07,265.65z M335.77,267.08l1.2-2.43c0.27-0.55,0.55-1.02,0.82-1.48l-0.02-0.02c-0.47,0.28-0.95,0.56-1.46,0.82l-2.44,1.21
						L335.77,267.08z"/>
					<path class="st10" d="M335.78,272.33l6.3-6.3l0.89,0.89l-1.17,5.21c-0.27,1.21-0.57,2.23-0.92,3.18l0.03,0.01
						c0.77-0.92,1.51-1.7,2.5-2.68l2.63-2.63l0.77,0.77l-6.3,6.3l-0.82-0.82l1.2-5.19c0.26-1.14,0.56-2.28,0.92-3.28l-0.04-0.02
						c-0.75,0.84-1.49,1.62-2.53,2.66l-2.69,2.69L335.78,272.33z"/>
				</g>
			</g>
		</g>
		<g>
			<g>
				<polyline class="st4" points="20.3,409.42 164.46,409.42 191.27,382.61 				"/>
				<g>
					<polygon class="st10" points="192.37,393.08 190.37,393.01 190.73,383.15 180.87,383.51 180.8,381.51 192.81,381.08 					"/>
				</g>
			</g>
		</g>
		<polyline class="st4" points="152.05,461.06 262.79,461.06 274.21,449.64 281.96,457.39 282.59,405.94 231.14,406.57 
			238.89,414.3 		"/>
		<polygon class="st20" points="522.42,471.32 530.8,462.94 500.38,432.87 508.73,424.53 481.93,422.75 483.63,449.59 
			491.98,441.25 		"/>
		<polygon class="st0" points="242.03,454.17 233.64,445.79 254.45,425.18 246.1,416.84 272.9,415.06 271.2,441.9 262.85,433.56 		
			"/>
		<line class="st4" x1="116.66" y1="461.06" x2="72.65" y2="461.06"/>
		<polygon class="st20" points="619.04,360.59 627.42,352.21 596.99,322.14 605.35,313.8 578.54,312.02 580.24,338.86 588.6,330.52 
					"/>
		<g>
			<g>
				<polyline class="st4" points="65.88,528.35 258.05,528.35 317.46,463.97 				"/>
				<g>
					<polygon class="st10" points="318.98,474.38 316.98,474.39 316.94,464.53 307.11,465.29 306.96,463.29 318.93,462.37 					"/>
				</g>
			</g>
		</g>
		<g>
			<g>
				<line class="st4" x1="561.51" y1="472.82" x2="537.51" y2="448.82"/>
				<g>
					<polygon class="st10" points="547.98,447.72 547.9,449.72 538.05,449.36 538.41,459.21 536.41,459.29 535.97,447.28 					"/>
				</g>
			</g>
		</g>
	</g>
</g>
</svg>
