<?xml version="1.0" encoding="utf-8"?>
<!-- Generator: Adobe Illustrator 24.1.3, SVG Export Plug-In . SVG Version: 6.00 Build 0)  -->
<svg version="1.1" id="Layer_1" xmlns="http://www.w3.org/2000/svg" xmlns:xlink="http://www.w3.org/1999/xlink" x="0px" y="0px"
	 viewBox="0 0 90 90" style="enable-background:new 0 0 90 90;" xml:space="preserve">
<style type="text/css">
	.st0{fill:#404041;}
	.st1{fill:#326CE5;}
</style>
<g>
	<g>
		
			<rect x="23.48" y="60.82" transform="matrix(0.0621 -0.9981 0.9981 0.0621 -30.6012 93.5176)" class="st1" width="21.96" height="4.45"/>
		<polygon class="st1" points="38.52,55.78 39.07,63.12 39.07,72.45 43.52,72.45 43.52,63.04 42.96,55.45 		"/>
		
			<rect x="53.32" y="52.06" transform="matrix(0.9981 -0.0621 0.0621 0.9981 -3.8106 3.5738)" class="st1" width="4.45" height="21.96"/>
		<polygon class="st1" points="46.49,62.88 46.48,72.45 50.93,72.45 50.93,63.12 51.48,55.78 47.04,55.45 		"/>
		<polygon class="st1" points="65.03,36.32 65.03,45.67 62.44,45.59 62.31,50.04 69.48,50.25 69.48,36.32 		"/>
		<polygon class="st1" points="56.48,8.65 52.63,6.43 51.46,8.45 52.84,14.96 		"/>
		<polygon class="st1" points="48.13,14.21 48.08,14.3 48.16,14.35 		"/>
		<polygon class="st1" points="38.54,8.45 37.37,6.43 33.52,8.65 37.16,14.96 		"/>
		<polygon class="st1" points="41.87,14.21 41.84,14.35 41.92,14.3 		"/>
		<polygon class="st1" points="24.97,45.67 24.97,36.32 20.52,36.32 20.52,50.25 27.69,50.04 27.56,45.59 		"/>
	</g>
	<g>
		<polygon class="st0" points="68.98,12.03 60.67,15.2 62.26,19.36 66.49,17.74 68.15,21.87 65.03,27.73 65.03,36.32 69.48,36.32 
			69.48,28.84 73.06,22.13 		"/>
		<path class="st0" d="M29.32,53.9h31.35l1.49-34.13h-9.79L50.01,8.64H39.99l-2.36,11.13h-9.79L29.32,53.9z M43.6,13.09h2.81
			l1.41,6.68h-5.64L43.6,13.09z M52.37,24.22L45,29.04l-7.37-4.82H52.37z M42.77,32.91v6.49h4.45v-6.49l10.2-6.67l-1.01,23.21H33.59
			l-1.01-23.21L42.77,32.91z"/>
		<path class="st0" d="M25.99,74.15l-1.94,9.42h19.94L43.4,69.59L25.99,74.15z M29.51,79.12l0.28-1.36l9.39-2.46l0.16,3.82H29.51z"
			/>
		<path class="st0" d="M46.6,69.59l-0.58,13.98h19.94l-1.95-9.42L46.6,69.59z M50.66,79.12l0.16-3.82l9.39,2.46l0.28,1.36H50.66z"/>
		<polygon class="st0" points="24.97,36.32 24.97,27.73 21.85,21.87 23.51,17.74 27.74,19.36 29.33,15.2 21.02,12.03 16.94,22.13 
			20.52,28.84 20.52,36.32 		"/>
	</g>
</g>
</svg>
