<?xml version="1.0" encoding="utf-8"?>
<!-- Generator: Adobe Illustrator 24.1.3, SVG Export Plug-In . SVG Version: 6.00 Build 0)  -->
<svg version="1.1" id="Layer_1" xmlns="http://www.w3.org/2000/svg" xmlns:xlink="http://www.w3.org/1999/xlink" x="0px" y="0px"
	 viewBox="0 0 90 90" style="enable-background:new 0 0 90 90;" xml:space="preserve">
<style type="text/css">
	.st0{fill:#404041;}
	.st1{fill:#326CE5;}
</style>
<g>
	<g>
		<path class="st1" d="M54.09,69.77H35.94l-9.07-15.71l9.07-15.71h18.14l9.07,15.71L54.09,69.77z M38.09,66.05h13.84l6.92-11.99
			l-6.92-11.99H38.09l-6.92,11.99L38.09,66.05z"/>
	</g>
	<g>
		<path class="st0" d="M38.6,11.64c-3.55,3.55-3.56,9.32-0.03,12.86c1.77,1.77,4.09,2.65,6.41,2.65c2.34,0,4.67-0.89,6.46-2.67
			c3.55-3.55,3.56-9.32,0.03-12.86C47.92,8.08,42.15,8.09,38.6,11.64z M48.61,21.65c-1.99,1.99-5.23,2.01-7.21,0.03
			c-1.98-1.98-1.97-5.21,0.02-7.21c1-1,2.32-1.5,3.63-1.5c1.3,0,2.59,0.49,3.58,1.48C50.61,16.42,50.6,19.66,48.61,21.65z"/>
		<rect x="43.02" y="29.32" class="st0" width="4" height="7"/>
		<path class="st0" d="M16.27,63.14c-2.35-0.63-4.8-0.31-6.91,0.9c-2.11,1.21-3.62,3.17-4.24,5.51c-1.3,4.84,1.6,9.83,6.45,11.13
			c0.79,0.21,1.58,0.31,2.36,0.31c4.02,0,7.7-2.67,8.79-6.72C24.02,69.43,21.13,64.44,16.27,63.14z M18.86,73.23
			c-0.73,2.71-3.53,4.31-6.25,3.58c-2.72-0.73-4.35-3.52-3.63-6.23c0.35-1.31,1.19-2.4,2.37-3.08c0.79-0.45,1.66-0.68,2.54-0.68
			c0.45,0,0.9,0.06,1.34,0.18C17.96,67.74,19.59,70.53,18.86,73.23z"/>
		<rect x="23.2" y="62.53" transform="matrix(0.866 -0.5 0.5 0.866 -28.6912 21.9991)" class="st0" width="7" height="4"/>
		<path class="st0" d="M84.88,69.57c-0.63-2.35-2.13-4.32-4.23-5.53c-2.1-1.22-4.55-1.55-6.9-0.92c-4.84,1.3-7.71,6.3-6.41,11.15
			c0.63,2.35,2.13,4.32,4.23,5.53c1.4,0.82,2.96,1.23,4.54,1.23c0.79,0,1.58-0.1,2.36-0.31c2.34-0.63,4.3-2.14,5.51-4.24
			C85.19,74.37,85.5,71.92,84.88,69.57z M80.51,74.48c-0.68,1.18-1.77,2.02-3.08,2.37c-1.31,0.35-2.68,0.17-3.85-0.52
			c-1.18-0.68-2.02-1.79-2.38-3.11c0,0,0,0,0,0c-0.73-2.72,0.88-5.53,3.58-6.25c0.43-0.12,0.88-0.17,1.31-0.17
			c0.88,0,1.75,0.23,2.54,0.69c1.18,0.68,2.02,1.79,2.38,3.11C81.37,71.92,81.19,73.3,80.51,74.48z"/>
		<rect x="61.33" y="61.03" transform="matrix(0.5 -0.866 0.866 0.5 -24.2258 87.1081)" class="st0" width="4" height="7"/>
	</g>
</g>
</svg>
