<?xml version="1.0" encoding="utf-8"?>
<!-- Generator: Adobe Illustrator 24.0.0, SVG Export Plug-In . SVG Version: 6.00 Build 0)  -->
<svg version="1.1" id="Layer_1" xmlns="http://www.w3.org/2000/svg" xmlns:xlink="http://www.w3.org/1999/xlink" x="0px" y="0px"
	 viewBox="0 0 171.3 104.2" style="enable-background:new 0 0 171.3 104.2;" xml:space="preserve">
<style type="text/css">
	.st0{opacity:0.5;}
	.st1{fill:#E6E7E8;}
	.st2{fill-rule:evenodd;clip-rule:evenodd;fill:#E6E7E8;stroke:#404041;stroke-width:0.4844;stroke-miterlimit:10;}
	.st3{fill:#E6E7E8;stroke:#404041;stroke-width:0.4844;stroke-miterlimit:10;}
	.st4{fill:#FFFFFF;stroke:#404041;stroke-width:0.4844;stroke-miterlimit:10;}
	.st5{fill:#8EC2EA;}
	.st6{fill:none;stroke:#404041;stroke-width:0.4844;stroke-miterlimit:10;}
	.st7{fill:#8EC2EA;stroke:#404041;stroke-width:0.4844;stroke-miterlimit:10;}
	.st8{fill:none;stroke:#8EC2EA;stroke-width:0.9689;stroke-miterlimit:10;}
	.st9{fill:none;stroke:#404041;stroke-width:0.9689;stroke-miterlimit:10;}
	.st10{fill:none;stroke:#1E86D5;stroke-width:0.9689;stroke-miterlimit:10;}
	.st11{fill:#1E86D5;}
	.st12{fill:#FFFFFF;}
	.st13{fill:#404041;}
	.st14{font-family:'MyriadPro-Bold';}
	.st15{font-size:6.9675px;}
	.st16{fill:#FFFFFF;stroke:#1E86D5;stroke-width:0.9689;stroke-miterlimit:10;}
	.st17{fill:#FFFFFF;stroke:#8EC2EA;stroke-width:0.9689;stroke-miterlimit:10;}
	.st18{fill:#FFFFFF;stroke:#404041;stroke-width:0.9689;stroke-miterlimit:10;}
	.st19{fill:none;stroke:#404041;stroke-width:0.4844;stroke-linejoin:round;stroke-miterlimit:10;}
	.st20{fill:#FFE1B3;stroke:#404041;stroke-width:0.4844;stroke-miterlimit:10;}
	.st21{fill:#1E86D5;stroke:#404041;stroke-width:0.4844;stroke-miterlimit:10;}
	.st22{fill:#8EC2EA;stroke:#404041;stroke-width:0.4844;stroke-linejoin:round;stroke-miterlimit:10;}
	.st23{fill:#1E86D5;stroke:#404041;stroke-width:0.4844;stroke-linejoin:round;stroke-miterlimit:10;}
	.st24{fill-rule:evenodd;clip-rule:evenodd;fill:#FFE1B3;stroke:#404041;stroke-width:0.4844;stroke-miterlimit:10;}
	.st25{fill-rule:evenodd;clip-rule:evenodd;fill:none;stroke:#404041;stroke-width:0.4844;stroke-miterlimit:10;}
</style>
<g>
	<g class="st0">
		<path class="st1" d="M58.4,103.2c1.6-2.8,2.4-6.1,2.4-9.5c0-10.9-8.8-19.7-19.7-19.7c-10.9,0-19.7,8.8-19.7,19.7
			c0,3.4,0.9,6.7,2.4,9.5H58.4z"/>
		<path class="st1" d="M81.5,103.2c1.6-2.8,2.4-6.1,2.4-9.5c0-10.9-8.8-19.7-19.7-19.7c-10.9,0-19.7,8.8-19.7,19.7
			c0,3.4,0.9,6.7,2.4,9.5H81.5z"/>
		<circle class="st1" cx="21.8" cy="68.8" r="20.5"/>
		<circle class="st1" cx="53.4" cy="50.1" r="8.7"/>
		<circle class="st1" cx="89.7" cy="84" r="12.5"/>
		<circle class="st1" cx="88.6" cy="80" r="3.1"/>
		<circle class="st1" cx="7.2" cy="52.8" r="3.1"/>
		<circle class="st1" cx="18.2" cy="42.6" r="3.1"/>
	</g>
	<rect x="10.7" y="79.7" class="st2" width="2.1" height="23.5"/>
	<rect x="139.3" y="79.7" class="st2" width="2.1" height="23.5"/>
	<rect x="7.1" y="77.7" class="st2" width="138" height="1.9"/>
	<rect x="25.8" y="76.7" class="st3" width="19.2" height="1"/>
	<rect x="70.5" y="76.7" class="st3" width="19.2" height="1"/>
	<rect x="115.2" y="76.7" class="st3" width="19.2" height="1"/>
	<line class="st4" x1="7.1" y1="103.2" x2="154.4" y2="103.2"/>
	<g>
		<path class="st5" d="M147,93.7C147,93.7,147,93.7,147,93.7c-0.3,0.2-0.7-0.6-1.7-1.4c-1-0.9-2.8-1.7-4.9-2.3c0,0,0,0,0,0
			c-2.1-0.6-4-0.9-5.2-1.6c-1.2-0.7-1.7-1.7-1.1-3.3c0,0,0,0,0,0c0.5-1.6,2.1-3.3,4.1-3.9c2-0.6,4.5-0.1,6.3,2c0,0,0,0,0,0
			c1.9,2,2.6,4.8,2.9,6.9C147.4,92.1,147.2,93.5,147,93.7z"/>
		<path class="st6" d="M147,93.7C147,93.7,147,93.7,147,93.7c-0.3,0.2-0.7-0.6-1.7-1.4c-1-0.9-2.8-1.7-4.9-2.3c0,0,0,0,0,0
			c-2.1-0.6-4-0.9-5.2-1.6c-1.2-0.7-1.7-1.7-1.1-3.3c0,0,0,0,0,0c0.5-1.6,2.1-3.3,4.1-3.9c2-0.6,4.5-0.1,6.3,2c0,0,0,0,0,0
			c1.9,2,2.6,4.8,2.9,6.9C147.4,92.1,147.2,93.5,147,93.7z"/>
	</g>
	<g>
		<path class="st5" d="M152.6,94C152.6,94,152.6,94,152.6,94c0.1,0.1,0.2-1.4,1.4-3.5c1.2-2.1,3.4-5,7-6c0,0,0,0,0,0
			c3.5-1.2,6.8,0.2,8.2,2.2c1.5,2,1.1,4.7-0.2,5.9c0,0,0,0,0,0c-1.3,1.3-2.9,1.5-4.4,1.2c-1.5-0.3-3-1.1-5-1.7c0,0,0,0,0,0
			c-1.9-0.6-4-0.5-5.3,0.2C153.1,92.7,152.6,94,152.6,94z"/>
		<path class="st6" d="M152.6,94C152.6,94,152.6,94,152.6,94c0.1,0.1,0.2-1.4,1.4-3.5c1.2-2.1,3.4-5,7-6c0,0,0,0,0,0
			c3.5-1.2,6.8,0.2,8.2,2.2c1.5,2,1.1,4.7-0.2,5.9c0,0,0,0,0,0c-1.3,1.3-2.9,1.5-4.4,1.2c-1.5-0.3-3-1.1-5-1.7c0,0,0,0,0,0
			c-1.9-0.6-4-0.5-5.3,0.2C153.1,92.7,152.6,94,152.6,94z"/>
	</g>
	<g>
		<path class="st5" d="M151.2,96C151.2,96,151.2,96,151.2,96c0.1-0.1-0.9-0.9-1.8-3.1c-0.9-2.2-1.7-5.8-0.5-10c0,0,0,0,0,0
			c1.1-4.2,4-7,6.3-7.5c2.3-0.6,4.1,1,4.2,2.9c0,0,0,0,0,0c0.2,2-0.6,3.7-1.6,5.1c-1.1,1.4-2.5,2.6-4.1,4.4c0,0,0,0,0,0
			c-1.6,1.7-2.7,3.9-2.9,5.6C150.6,94.9,151.2,96.1,151.2,96z"/>
		<path class="st6" d="M151.2,96C151.2,96,151.2,96,151.2,96c0.1-0.1-0.9-0.9-1.8-3.1c-0.9-2.2-1.7-5.8-0.5-10c0,0,0,0,0,0
			c1.1-4.2,4-7,6.3-7.5c2.3-0.6,4.1,1,4.2,2.9c0,0,0,0,0,0c0.2,2-0.6,3.7-1.6,5.1c-1.1,1.4-2.5,2.6-4.1,4.4c0,0,0,0,0,0
			c-1.6,1.7-2.7,3.9-2.9,5.6C150.6,94.9,151.2,96.1,151.2,96z"/>
	</g>
	<g>
		<ellipse class="st1" cx="149.7" cy="97.8" rx="8.2" ry="6.4"/>
		<ellipse class="st6" cx="149.7" cy="97.8" rx="8.2" ry="6.4"/>
	</g>
	<rect x="33" y="33.9" class="st3" width="4.8" height="9.7"/>
	<rect x="77.7" y="33.9" class="st3" width="4.8" height="9.7"/>
	<rect x="122.3" y="33.9" class="st3" width="4.8" height="9.7"/>
	<g>
		<g>
			<g>
				<line class="st6" x1="128.2" y1="90.4" x2="129.4" y2="90.4"/>
				<line class="st6" x1="130.1" y1="90.4" x2="131.3" y2="90.4"/>
			</g>
		</g>
		<g>
			<g>
				<line class="st6" x1="129" y1="91.8" x2="129.6" y2="90.8"/>
				<line class="st6" x1="130" y1="90.1" x2="130.6" y2="89.1"/>
			</g>
		</g>
		<g>
			<g>
				<line class="st6" x1="130.6" y1="91.8" x2="130" y2="90.8"/>
				<line class="st6" x1="129.6" y1="90.1" x2="129" y2="89.1"/>
			</g>
		</g>
	</g>
	<g>
		<g>
			<g>
				<line class="st6" x1="4.9" y1="37.6" x2="6.1" y2="37.6"/>
				<line class="st6" x1="6.8" y1="37.6" x2="8" y2="37.6"/>
			</g>
		</g>
		<g>
			<g>
				<line class="st6" x1="5.7" y1="39" x2="6.3" y2="37.9"/>
				<line class="st6" x1="6.6" y1="37.3" x2="7.2" y2="36.3"/>
			</g>
		</g>
		<g>
			<g>
				<line class="st6" x1="7.2" y1="39" x2="6.6" y2="37.9"/>
				<line class="st6" x1="6.3" y1="37.3" x2="5.7" y2="36.3"/>
			</g>
		</g>
	</g>
	<g>
		<circle class="st6" cx="9.6" cy="6.3" r="0.9"/>
	</g>
	<circle class="st1" cx="34.5" cy="3.9" r="0.9"/>
	<circle class="st1" cx="156.5" cy="19.3" r="0.9"/>
	<circle class="st1" cx="48.1" cy="3" r="0.9"/>
	<circle class="st1" cx="153.7" cy="43.6" r="0.9"/>
	<g>
		<line class="st6" x1="139.3" y1="2.9" x2="141.4" y2="2.9"/>
		<line class="st6" x1="140.4" y1="3.9" x2="140.4" y2="1.9"/>
	</g>
	<rect x="152.5" y="7.9" class="st6" width="2.2" height="2.2"/>
	<g>
		<path class="st1" d="M155.6,56.2C155.6,56.2,155.6,56.2,155.6,56.2c-0.1,0-0.1,0-0.1,0c-0.1,0-0.1,0.2-0.1,0.3l0,0l0.5,1.1
			c0.4-0.3,0.8-0.7,0.9-1.2L155.6,56.2L155.6,56.2z M153.8,56.4c0-0.1-0.1-0.2-0.2-0.2c0,0,0,0,0,0l0,0l-1.2,0.2
			c0.2,0.5,0.5,0.9,0.9,1.2l0.4-1.1l0,0C153.8,56.4,153.8,56.4,153.8,56.4z M154.8,56.8c-0.1-0.1-0.2-0.1-0.3-0.1c0,0-0.1,0-0.1,0.1
			h0l-0.6,1c0.4,0.1,0.8,0.2,1.3,0.1c0.1,0,0.2,0,0.2-0.1L154.8,56.8L154.8,56.8z M156.6,54.4l-0.9,0.8l0,0c-0.1,0.1-0.1,0.2,0,0.3
			c0,0,0.1,0.1,0.1,0.1l0,0l1.1,0.3C157,55.3,156.8,54.8,156.6,54.4L156.6,54.4z M155,54.5c0,0.1,0.1,0.2,0.2,0.2c0,0,0.1,0,0.1,0
			l0,0l1-0.7c-0.4-0.4-0.8-0.6-1.3-0.6L155,54.5L155,54.5z M153.9,54.6c0.1,0.1,0.2,0,0.3,0c0,0,0-0.1,0-0.1l0,0l0.1-1.2
			c-0.1,0-0.2,0-0.2,0c-0.4,0.1-0.8,0.3-1.1,0.6L153.9,54.6L153.9,54.6z M153.4,55.5c0.1,0,0.2-0.1,0.1-0.2c0,0,0-0.1-0.1-0.1l0,0
			l-0.9-0.8c-0.3,0.4-0.4,0.9-0.3,1.5L153.4,55.5L153.4,55.5z M154.3,55.9l0.3,0.2l0.3-0.2l0.1-0.3l-0.2-0.3h-0.4l-0.2,0.3
			L154.3,55.9z"/>
		<path class="st1" d="M160,56.6l-0.9-4c-0.1-0.2-0.2-0.4-0.4-0.5l-3.7-1.8c-0.2-0.1-0.4-0.1-0.6,0l-3.7,1.8
			c-0.2,0.1-0.3,0.3-0.4,0.5l-0.9,4c0,0.1,0,0.2,0,0.3c0,0,0,0.1,0,0.1c0,0.1,0,0.1,0.1,0.1c0,0,0,0,0,0.1l2.6,3.2c0,0,0,0,0,0
			c0,0,0.1,0.1,0.1,0.1c0.1,0,0.1,0.1,0.2,0.1c0.1,0,0.1,0,0.2,0h0l4.1,0c0,0,0,0,0.1,0c0,0,0.1,0,0.1,0c0,0,0,0,0.1,0
			c0,0,0,0,0.1,0c0,0,0.1,0,0.1,0c0.1,0,0.1-0.1,0.2-0.2l0.1-0.1l2.5-3.1c0-0.1,0.1-0.1,0.1-0.2c0,0,0-0.1,0-0.1
			C160,56.8,160,56.7,160,56.6L160,56.6z M156.1,58.1C156.1,58.2,156.1,58.2,156.1,58.1c0,0.1,0,0.2,0,0.2c0.1,0.1,0.1,0.2,0.2,0.4
			c0,0.1,0.1,0.1,0.1,0.2c0,0,0,0,0,0.1c0.1,0.1,0,0.2-0.1,0.3s-0.2,0-0.3-0.1c0,0,0,0,0,0c0,0,0,0,0-0.1c0-0.1,0-0.1-0.1-0.2
			c0-0.1-0.1-0.3-0.2-0.4c0,0-0.1-0.1-0.1-0.1c0,0,0-0.1,0-0.1c-0.7,0.3-1.4,0.3-2.1,0l-0.1,0.1c0,0-0.1,0-0.1,0
			c-0.1,0.1-0.1,0.3-0.2,0.4c0,0.1,0,0.1-0.1,0.2c0,0,0,0,0,0.1v0l0,0c0,0.1-0.2,0.2-0.3,0.1s-0.2-0.2-0.1-0.3c0,0,0,0,0,0
			c0,0,0,0,0-0.1c0-0.1,0.1-0.1,0.1-0.2c0.1-0.1,0.1-0.2,0.2-0.4c0,0,0-0.1,0-0.1l0-0.1c-0.6-0.4-1.1-0.9-1.3-1.6l-0.1,0
			c0,0-0.1,0-0.1,0c-0.1,0-0.3,0.1-0.4,0.1c-0.1,0-0.1,0.1-0.2,0.1c0,0,0,0-0.1,0c0,0,0,0,0,0c0,0,0,0,0,0c-0.1,0-0.2,0-0.3-0.1
			c0-0.1,0-0.2,0.1-0.3c0,0,0,0,0,0l0,0l0,0c0,0,0,0,0.1,0c0.1,0,0.1,0,0.2,0c0.1,0,0.3,0,0.4-0.1c0,0,0.1-0.1,0.1-0.1l0.1,0
			c-0.1-0.7,0.1-1.4,0.5-2l-0.1-0.1c0,0,0-0.1,0-0.1c-0.1-0.1-0.2-0.2-0.3-0.2c-0.1,0-0.1-0.1-0.2-0.1c0,0,0,0,0,0l0,0
			c-0.1-0.1-0.1-0.2-0.1-0.3c0-0.1,0.1-0.1,0.2-0.1c0.1,0,0.1,0,0.2,0.1c0,0,0,0,0,0c0.1,0,0.1,0.1,0.1,0.2c0.1,0.1,0.2,0.2,0.3,0.3
			c0,0,0.1,0,0.1,0c0,0,0.1,0,0.1,0.1c0.4-0.4,0.9-0.7,1.5-0.8c0.1,0,0.3-0.1,0.4-0.1l0-0.1c0,0,0.1-0.1,0.1-0.1c0-0.1,0-0.3,0-0.4
			c0-0.1,0-0.1,0-0.2c0,0,0,0,0-0.1c0,0,0,0,0,0c0-0.1,0.1-0.2,0.2-0.2s0.2,0.1,0.2,0.2c0,0,0,0,0,0c0,0,0,0,0,0.1
			c0,0.1,0,0.1,0,0.2c0,0.1,0,0.3,0,0.4c0,0,0,0.1,0.1,0.1c0,0,0,0.1,0,0.1c0.7,0.1,1.4,0.4,1.9,0.9l0.1-0.1c0,0,0.1,0,0.1,0
			c0.1-0.1,0.2-0.2,0.3-0.3c0-0.1,0.1-0.1,0.1-0.2c0,0,0,0,0,0c0.1-0.1,0.2-0.1,0.3,0c0.1,0.1,0.1,0.2,0,0.3c0,0,0,0,0,0
			c0,0,0,0,0,0c-0.1,0-0.1,0.1-0.2,0.1c-0.1,0.1-0.2,0.1-0.3,0.2c0,0,0,0.1,0,0.1c0,0-0.1,0.1-0.1,0.1c0.4,0.6,0.6,1.3,0.5,2l0.1,0
			c0,0,0.1,0.1,0.1,0.1c0.1,0,0.3,0.1,0.4,0.1c0.1,0,0.1,0,0.2,0c0,0,0,0,0.1,0c0.1,0,0.2,0.1,0.2,0.3c0,0.1-0.1,0.2-0.3,0.2
			c0,0,0,0,0,0l0,0c0,0,0,0,0,0c0,0,0,0-0.1,0c-0.1,0-0.1,0-0.2-0.1c-0.1-0.1-0.3-0.1-0.4-0.1c0,0-0.1,0-0.1,0c0,0-0.1,0-0.1,0
			C157.2,57.2,156.7,57.8,156.1,58.1L156.1,58.1z"/>
	</g>
	<g>
		<rect x="59.9" y="7.8" class="st3" width="40.8" height="27.9"/>
		<rect x="61.1" y="9" class="st4" width="38.4" height="25.4"/>
	</g>
	<g>
		<rect x="15" y="7.8" class="st3" width="40.8" height="27.9"/>
		<rect x="16.2" y="9" class="st4" width="38.4" height="25.4"/>
	</g>
	<g>
		<rect x="59.7" y="39.1" class="st3" width="40.8" height="27.9"/>
		<rect x="60.9" y="40.4" class="st4" width="38.4" height="25.4"/>
	</g>
	<g>
		<rect x="104.4" y="7.8" class="st3" width="40.8" height="27.9"/>
		<rect x="105.6" y="9" class="st4" width="38.4" height="25.4"/>
	</g>
	<g>
		<rect x="104.4" y="39.1" class="st3" width="40.8" height="27.9"/>
		<rect x="105.6" y="40.4" class="st7" width="38.4" height="25.4"/>
	</g>
	<g>
		<rect x="15" y="39.1" class="st3" width="40.8" height="27.9"/>
		<rect x="16.2" y="40.4" class="st4" width="38.4" height="25.4"/>
	</g>
	<path class="st7" d="M143.1,34.4c-0.1-2.3-0.3-4.5-0.7-6.8c-0.3-1.8-0.6-3.7-1-5.5c-0.1-0.5,0-1.2-0.4-1.5
		c-0.3-0.3-0.6-0.2-0.8,0.1c-0.2,0.5-0.3,1.2-0.4,1.7c-0.1,0.6-0.2,1.3-0.4,1.9c-0.1,0.5-0.5,0.3-0.7,0c-0.2-0.4-0.3-0.9-0.4-1.4
		c-0.1-0.2-0.2-0.9-0.5-0.7c-0.2,0.1-0.3,0.6-0.4,0.9c0,0.1-0.4,1.1-0.5,0.5c-0.1-0.3-0.3-1.2-0.6-1.3c-0.2,0-0.3,0.7-0.3,0.9
		c-0.2,1.1-0.6,2.1-0.9,3.1c-0.1,0.2-0.1,0.8-0.3,0.8c-0.2,0.1-0.3-0.3-0.4-0.4c-0.1-0.6,0-1.3,0-1.9c0-0.7,0-1.3,0-2
		c-0.1-1.6-0.2-3.1-0.4-4.7c0-0.3,0-0.6-0.3-0.7c-0.2-0.1-0.4,0-0.5,0.2c-0.4,1-0.6,2.1-0.9,3.2c-0.3,1.2-0.6,2.4-0.8,3.7
		c0,0.2-0.3,2.4-0.8,1.8c-0.2-0.3-0.2-1.8-0.8-1.7c-0.5,0-0.5,0.8-0.6,1.2c-0.1,0.7-0.3,1.3-0.4,2c-0.1,0.5-0.1,1.5-0.6,1.6
		c-0.3,0.1-0.4-0.2-0.5-0.4c-0.3-0.5-0.4-1.2-0.4-1.8c-0.1-0.9-0.1-1.7-0.1-2.6c0-1.8,0.2-3.7-0.3-5.4c-0.2-0.7-0.9-0.5-1.1,0
		c-0.2,0.4-0.3,0.7-0.4,1.1c-0.2,0.8-0.4,1.7-0.5,2.6c-0.1,0.5-0.7,4.8-1.7,4.6c-0.6-0.2-0.7-1.8-0.8-2.3c-0.1-0.5-0.2-1.1-0.5-1.4
		c-0.5-0.6-0.7,0.4-0.8,0.7c-0.1,0.5-0.3,1-0.5,1.4c-0.1,0.4-0.2,1-0.6,1.1c-0.4,0.1-0.8-0.4-0.9-0.9c-0.1-0.3,0-0.6-0.2-0.9
		c-0.2-0.3-0.5-0.2-0.6,0.2c-0.2,0.7-0.3,1.5-0.7,2.1c0,0.1-0.1,0.1-0.1,0.1c-0.1,0-0.1,0-0.1-0.1c-0.4-0.5-0.5-1.2-0.6-1.8
		c-0.2-0.7-0.3-1.5-0.5-2.2c-0.2-1.1-0.4-2.1-0.6-3.2c-0.1-0.4,0-0.9-0.4-1.2c-0.3-0.2-0.6-0.1-0.8,0.2c-0.1,0.2-0.2,0.5-0.2,0.7
		c-0.1,0.3-0.6,3.6-1,3.4c-0.5-0.2-0.4-1.2-0.9-1.2c-0.3,0-0.4,0.3-0.5,0.5c-0.3,1-0.5,2.1-1.1,2.9c-0.1,0.1-0.2,0.2-0.3,0.2
		c-0.4,0.1-0.6-0.5-0.6-0.9c0-0.4,0.1-1-0.3-1.2c-0.5-0.3-0.9,0.4-1,1c-0.4,1.6-0.7,3.1-1.1,4.7c-0.4,1.6-0.7,3.1-0.9,4.7H143.1z"/>
	
		<rect x="90.4" y="18.8" transform="matrix(-1.836970e-16 1 -1 -1.836970e-16 116.4764 -66.0589)" class="st5" width="1.8" height="12.8"/>
	
		<rect x="90.4" y="21.1" transform="matrix(-1.836970e-16 1 -1 -1.836970e-16 118.7555 -63.7799)" class="st5" width="1.8" height="12.8"/>
	
		<rect x="90.4" y="23.4" transform="matrix(-1.836970e-16 1 -1 -1.836970e-16 121.0346 -61.5008)" class="st5" width="1.8" height="12.8"/>
	
		<rect x="90.4" y="25.6" transform="matrix(-1.836970e-16 1 -1 -1.836970e-16 123.3136 -59.2217)" class="st5" width="1.8" height="12.8"/>
	
		<rect x="76.9" y="18.8" transform="matrix(-1.836970e-16 1 -1 -1.836970e-16 103.0356 -52.6181)" class="st5" width="1.8" height="12.8"/>
	
		<rect x="90.4" y="16.5" transform="matrix(-1.836970e-16 1 -1 -1.836970e-16 114.1973 -68.338)" class="st5" width="1.8" height="12.8"/>
	
		<rect x="76.9" y="16.5" transform="matrix(-1.836970e-16 1 -1 -1.836970e-16 100.7566 -54.8972)" class="st5" width="1.8" height="12.8"/>
	
		<rect x="90.4" y="14.2" transform="matrix(-1.836970e-16 1 -1 -1.836970e-16 111.9183 -70.6171)" class="st5" width="1.8" height="12.8"/>
	
		<rect x="76.9" y="14.2" transform="matrix(-1.836970e-16 1 -1 -1.836970e-16 98.4775 -57.1763)" class="st5" width="1.8" height="12.8"/>
	
		<rect x="90.4" y="12" transform="matrix(-1.836970e-16 1 -1 -1.836970e-16 109.6392 -72.8961)" class="st5" width="1.8" height="12.8"/>
	
		<rect x="76.9" y="12" transform="matrix(-1.836970e-16 1 -1 -1.836970e-16 96.1984 -59.4554)" class="st5" width="1.8" height="12.8"/>
	
		<rect x="90.4" y="9.7" transform="matrix(-1.836970e-16 1 -1 -1.836970e-16 107.3601 -75.1752)" class="st5" width="1.8" height="12.8"/>
	
		<rect x="76.9" y="9.7" transform="matrix(-1.836970e-16 1 -1 -1.836970e-16 93.9194 -61.7344)" class="st5" width="1.8" height="12.8"/>
	
		<rect x="90.4" y="7.4" transform="matrix(-1.836970e-16 1 -1 -1.836970e-16 105.0811 -77.4543)" class="st5" width="1.8" height="12.8"/>
	
		<rect x="76.9" y="7.4" transform="matrix(-1.836970e-16 1 -1 -1.836970e-16 91.6403 -64.0135)" class="st5" width="1.8" height="12.8"/>
	
		<rect x="90.4" y="5.1" transform="matrix(-1.836970e-16 1 -1 -1.836970e-16 102.802 -79.7333)" class="st5" width="1.8" height="12.8"/>
	
		<rect x="76.9" y="5.1" transform="matrix(-1.836970e-16 1 -1 -1.836970e-16 89.3612 -66.2926)" class="st5" width="1.8" height="12.8"/>
	
		<rect x="76.9" y="21.1" transform="matrix(-1.836970e-16 1 -1 -1.836970e-16 105.3147 -50.3391)" class="st5" width="1.8" height="12.8"/>
	
		<rect x="76.9" y="23.4" transform="matrix(-1.836970e-16 1 -1 -1.836970e-16 107.5938 -48.06)" class="st5" width="1.8" height="12.8"/>
	
		<rect x="76.9" y="25.6" transform="matrix(-1.836970e-16 1 -1 -1.836970e-16 109.8729 -45.7809)" class="st5" width="1.8" height="12.8"/>
	<path class="st8" d="M17.3,64.7c0.9-2.9,2.2-5.8,4.4-8s5.4-3.5,8.3-2.7c2.4,0.6,4.4,2.4,6.9,2.7c3.3,0.4,6.2-2,8.3-4.6
		s3.9-5.6,6.8-7.2"/>
	<path class="st9" d="M18.9,64.5c1.6-2.5,4.4-4.3,7.4-4.8c3.5-0.5,7.1,0.8,10.7,0.9c4.2,0.2,9-0.3,11.8-3.7c1.3-1.6,2.2-3.4,3-5.2"
		/>
	<path class="st10" d="M18.4,64.8c0.8-4.2,2.3-8.3,4.5-11.9c0.9-1.5,2.1-3.1,3.8-3.4c2.1-0.5,4.3,1.2,5.2,3.2c0.9,2,1,4.2,1.3,6.4
		c0.1,0.8,0.3,1.6,0.6,2.3c0.4,0.7,1,1.3,1.8,1.4c1,0.2,2.1-0.4,2.7-1.3c0.6-0.9,0.8-1.9,1-3c1-4.8,2.7-11.6,3.7-16.4"/>
	<rect x="18.5" y="42.1" class="st5" width="16" height="1.3"/>
	<rect x="18.5" y="44" class="st5" width="16" height="1.3"/>
	<rect x="62.9" y="10.6" class="st1" width="3" height="3"/>
	<rect x="62.9" y="15.5" class="st1" width="3" height="3"/>
	<rect x="62.9" y="20.3" class="st1" width="3" height="3"/>
	<rect x="62.9" y="25.1" class="st1" width="3" height="3"/>
	<rect x="62.9" y="30" class="st1" width="3" height="3"/>
	<rect x="66.8" y="10.6" class="st1" width="3" height="3"/>
	<rect x="66.8" y="15.5" class="st1" width="3" height="3"/>
	<rect x="66.8" y="20.3" class="st1" width="3" height="3"/>
	<rect x="66.8" y="25.1" class="st1" width="3" height="3"/>
	<rect x="66.8" y="30" class="st1" width="3" height="3"/>
	<circle class="st11" cx="88.9" cy="56.2" r="7.7"/>
	<circle class="st12" cx="88.9" cy="56.2" r="3.9"/>
	
		<rect x="84.5" y="57.5" transform="matrix(-0.7071 -0.7071 0.7071 -0.7071 102.6543 162.6262)" class="st12" width="1" height="5.1"/>
	
		<rect x="93.9" y="53.7" transform="matrix(-1.370346e-10 1 -1 -1.370346e-10 150.5339 -38.1686)" class="st12" width="1" height="5.1"/>
	<rect x="84.5" y="49.8" transform="matrix(0.7071 -0.7071 0.7071 0.7071 -12.0923 75.4318)" class="st12" width="1" height="5.1"/>
	<circle class="st5" cx="71.3" cy="56.2" r="7.7"/>
	<circle class="st12" cx="71.3" cy="56.2" r="3.9"/>
	<rect x="70.8" y="48.2" class="st12" width="1" height="5.1"/>
	<rect x="66.9" y="49.8" transform="matrix(0.7071 -0.7071 0.7071 0.7071 -17.2516 62.9762)" class="st12" width="1" height="5.1"/>
	
		<rect x="66.9" y="57.5" transform="matrix(-0.7071 -0.7071 0.7071 -0.7071 72.5836 150.1705)" class="st12" width="1" height="5.1"/>
	
		<rect x="76.3" y="53.7" transform="matrix(-1.342190e-10 1 -1 -1.342190e-10 132.9189 -20.5536)" class="st12" width="1" height="5.1"/>
	<text transform="matrix(1 0 0 1 68.7925 47.0216)" class="st13 st14 st15">A</text>
	<text transform="matrix(1 0 0 1 86.7651 47.0216)" class="st13 st14 st15">B</text>
	<rect x="107.3" y="42.1" class="st12" width="34.9" height="1.2"/>
	<rect x="107.3" y="44.1" class="st12" width="34.9" height="1.2"/>
	<rect x="107.3" y="46.1" class="st12" width="34.9" height="1.2"/>
	<rect x="107.3" y="48.1" class="st12" width="34.9" height="1.2"/>
	<rect x="107.3" y="50.1" class="st12" width="16.9" height="5.7"/>
	
		<rect x="125.3" y="50.1" transform="matrix(-1 -4.488244e-11 4.488244e-11 -1 267.4926 105.9227)" class="st12" width="16.9" height="5.7"/>
	<rect x="107.3" y="56.6" class="st12" width="34.9" height="1.2"/>
	<rect x="107.3" y="58.7" class="st12" width="34.9" height="1.2"/>
	<rect x="107.3" y="60.7" class="st12" width="34.9" height="1.2"/>
	<rect x="107.3" y="62.7" class="st12" width="34.9" height="1.2"/>
	<rect x="18.1" y="31.1" class="st11" width="34.7" height="1.4"/>
	<rect x="18.1" y="29.2" class="st11" width="34.7" height="1.4"/>
	<rect x="18.1" y="27.4" class="st11" width="34.7" height="1.4"/>
	<rect x="18.1" y="25.5" class="st11" width="34.7" height="1.4"/>
	<rect x="18.1" y="27.4" class="st5" width="8.4" height="1.4"/>
	<rect x="18.1" y="25.5" class="st5" width="8.4" height="1.4"/>
	<rect x="18.1" y="21.7" class="st5" width="34.7" height="1.4"/>
	<rect x="18.1" y="23.6" class="st5" width="34.7" height="1.4"/>
	<rect x="18.1" y="19.8" class="st5" width="34.7" height="1.4"/>
	<rect x="18.1" y="17.9" class="st5" width="34.7" height="1.4"/>
	<rect x="18.1" y="16.1" class="st5" width="34.7" height="1.4"/>
	<rect x="18.1" y="14.2" class="st5" width="34.7" height="1.4"/>
	<rect x="18.1" y="12.3" class="st5" width="34.7" height="1.4"/>
	<rect x="18.1" y="10.4" class="st5" width="34.7" height="1.4"/>
	<rect x="35.4" y="21.7" class="st11" width="17.3" height="1.4"/>
	<rect x="35.4" y="23.6" class="st11" width="17.3" height="1.4"/>
	<rect x="35.4" y="19.8" class="st11" width="17.3" height="1.4"/>
	<rect x="35.4" y="17.9" class="st11" width="17.3" height="1.4"/>
	<rect x="43.9" y="16.1" class="st11" width="8.8" height="1.4"/>
	<rect x="43.9" y="14.2" class="st11" width="8.8" height="1.4"/>
	<rect x="43.9" y="12.3" class="st11" width="8.8" height="1.4"/>
	<rect x="43.9" y="10.4" class="st11" width="8.8" height="1.4"/>
	<rect x="35.1" y="9.8" class="st12" width="0.6" height="23.7"/>
	<rect x="26.2" y="9.8" class="st12" width="0.6" height="23.7"/>
	<rect x="43.6" y="9.8" class="st12" width="0.6" height="23.7"/>
	<circle class="st16" cx="42.2" cy="46.1" r="1.1"/>
	<circle class="st17" cx="49.2" cy="47.1" r="1.1"/>
	<circle class="st17" cx="43.4" cy="54.1" r="1.1"/>
	<circle class="st18" cx="50" cy="55.2" r="1.1"/>
	<circle class="st18" cx="26.2" cy="59.8" r="1.1"/>
	<circle class="st18" cx="41.7" cy="60.5" r="1.1"/>
	<circle class="st17" cx="28.2" cy="53.8" r="1.1"/>
	<circle class="st16" cx="35.8" cy="62.8" r="1.1"/>
	<circle class="st16" cx="23.8" cy="51.7" r="1.1"/>
	<rect x="33" y="67" class="st3" width="4.8" height="9.7"/>
	<rect x="77.7" y="67" class="st3" width="4.8" height="9.7"/>
	<rect x="122.3" y="67" class="st3" width="4.8" height="9.7"/>
	<g>
		<g>
			<g>
				<line class="st6" x1="150.2" y1="34.6" x2="151.5" y2="34.6"/>
				<line class="st6" x1="152.2" y1="34.6" x2="153.4" y2="34.6"/>
			</g>
		</g>
		<g>
			<g>
				<line class="st6" x1="151" y1="36" x2="151.6" y2="34.9"/>
				<line class="st6" x1="152" y1="34.3" x2="152.6" y2="33.2"/>
			</g>
		</g>
		<g>
			<g>
				<line class="st6" x1="152.6" y1="36" x2="152" y2="34.9"/>
				<line class="st6" x1="151.6" y1="34.3" x2="151" y2="33.2"/>
			</g>
		</g>
	</g>
	<g>
		<g>
			<g>
				<line class="st6" x1="154.2" y1="67.9" x2="155.5" y2="67.9"/>
				<line class="st6" x1="156.2" y1="67.9" x2="157.4" y2="67.9"/>
			</g>
		</g>
		<g>
			<g>
				<line class="st6" x1="155" y1="69.2" x2="155.6" y2="68.2"/>
				<line class="st6" x1="156" y1="67.6" x2="156.6" y2="66.5"/>
			</g>
		</g>
		<g>
			<g>
				<line class="st6" x1="156.6" y1="69.2" x2="156" y2="68.2"/>
				<line class="st6" x1="155.6" y1="67.6" x2="155" y2="66.5"/>
			</g>
		</g>
	</g>
	<polygon class="st19" points="5.2,67.9 3.9,70.1 6.5,70.1 	"/>
	<circle class="st6" cx="71.7" cy="91.2" r="0.9"/>
	<circle class="st6" cx="155.6" cy="25" r="0.9"/>
	<g>
		<line class="st6" x1="81.7" y1="90.2" x2="83.7" y2="90.2"/>
		<line class="st6" x1="82.7" y1="91.2" x2="82.7" y2="89.2"/>
	</g>
	<g>
		<line class="st6" x1="61.8" y1="2.1" x2="63.9" y2="2.1"/>
		<line class="st6" x1="62.9" y1="3.1" x2="62.9" y2="1.1"/>
	</g>
	<g>
		<line class="st6" x1="29.7" y1="90.9" x2="31.8" y2="90.9"/>
		<line class="st6" x1="30.7" y1="91.9" x2="30.7" y2="89.9"/>
	</g>
	<rect x="121.9" y="86" class="st1" width="2.2" height="2.2"/>
	<rect x="95.2" y="1" class="st1" width="2.2" height="2.2"/>
	<g>
		<rect x="55.8" y="67.7" class="st20" width="2.1" height="3.1"/>
		<path class="st20" d="M53.2,60C53.2,60,53.2,60,53.2,60l0,4.9c0,2,1.7,3.7,3.7,3.7s3.7-1.7,3.7-3.7v-4.8c0,0,0-0.1,0-0.1H53.2z"/>
		<g>
			<path class="st11" d="M53.8,68.9c0.8-0.8,1.9-1.3,3.1-1.3c1.2,0,2.4,0.5,3.1,1.3c0.9-1.6,1.8-2.5,2.4-4.4c1.3-3.6-1.5-8-6.8-7.2
				c-0.7,0.1-1.3,0.3-1.9,0.6c-2.5,1.2-3.1,4.2-2.4,6.6C52,66.4,52.9,67.3,53.8,68.9z"/>
			<path class="st6" d="M53.8,68.9c0.8-0.8,1.9-1.3,3.1-1.3c1.2,0,2.4,0.5,3.1,1.3c0.9-1.6,1.8-2.5,2.4-4.4c1.3-3.6-1.5-8-6.8-7.2
				c-0.7,0.1-1.3,0.3-1.9,0.6c-2.5,1.2-3.1,4.2-2.4,6.6C52,66.4,52.9,67.3,53.8,68.9z"/>
		</g>
		<g>
			<polygon class="st20" points="53.1,102.3 55,102.3 55.4,95.7 55.4,89.2 52.8,89.2 52.8,95.7 			"/>
			<polygon class="st20" points="60.7,102.3 58.8,102.3 58.5,95.7 58.5,89.2 61.1,89.2 61.1,95.7 			"/>
			<path class="st21" d="M54.5,100.7h-0.8c-0.3,0-0.6,0.3-0.6,0.6v1h2v-1C55.1,100.9,54.8,100.7,54.5,100.7z"/>
			<path class="st21" d="M60.2,100.7h-0.8c-0.3,0-0.6,0.3-0.6,0.6v1h2v-1C60.8,100.9,60.5,100.7,60.2,100.7z"/>
		</g>
		<path class="st22" d="M64.2,79.7c-0.1-0.1-3.2-1.3-3.2-1.3l1.9-3.2L64.2,79.7z"/>
		<path class="st22" d="M49.6,79.7c0.1-0.1,3.2-1.3,3.2-1.3l-1.9-3.2L49.6,79.7z"/>
		<path class="st7" d="M66.1,78.1L61.3,71c-0.4-0.6-3.4-1.4-4.4-1.4h0c-1,0-4,0.8-4.4,1.4l-4.7,7.1c-0.4,0.6-0.2,1.3,0.3,1.7
			c0.5,0.4,1.3,0.3,1.6-0.2l2.5-3.4l-0.8,9.2c-0.2,1.9,1.3,3.5,3.2,3.5h4.7c1.9,0,3.4-1.6,3.2-3.5l-0.8-9.2l2.5,3.4
			c0.4,0.5,1.1,0.6,1.6,0.2C66.3,79.4,66.4,78.6,66.1,78.1z"/>
		<rect x="52.8" y="91.2" class="st7" width="8.3" height="1.6"/>
		<g>
			<line class="st3" x1="49.6" y1="101.7" x2="56.1" y2="97.7"/>
			<line class="st3" x1="64.2" y1="101.7" x2="57.7" y2="97.7"/>
			<path class="st4" d="M56.1,99.2v-7.1c0-0.2,0.2-0.4,0.4-0.4h0.8c0.2,0,0.4,0.2,0.4,0.4v7.1c0,0.1-0.1,0.2-0.2,0.2h-1.3
				C56.2,99.3,56.1,99.3,56.1,99.2z"/>
			<path class="st4" d="M55.4,94v-4.2c0-0.2,0.1-0.3,0.3-0.3h2.4c0.2,0,0.3,0.1,0.3,0.3V94c0,0.2-0.1,0.3-0.3,0.3h-2.4
				C55.5,94.4,55.4,94.2,55.4,94z"/>
			<circle class="st4" cx="49.6" cy="101.7" r="1.1"/>
			<circle class="st4" cx="64.2" cy="101.7" r="1.1"/>
			<line class="st3" x1="56.9" y1="97.8" x2="56.9" y2="101.7"/>
			<circle class="st4" cx="56.9" cy="101.7" r="1.1"/>
			<rect x="51.2" y="90.1" class="st3" width="11.3" height="1.2"/>
			<polyline class="st6" points="65.6,81.1 65.6,84.1 62.6,88.9 			"/>
			<polyline class="st6" points="48.2,81.1 48.2,84.1 51.2,88.9 			"/>
			<path class="st3" d="M62.3,87.7H51.5c-0.7,0-1.2,0.5-1.2,1.2l0,0c0,0.7,0.5,1.2,1.2,1.2h10.8c0.7,0,1.2-0.5,1.2-1.2l0,0
				C63.5,88.3,63,87.7,62.3,87.7z"/>
			<path class="st3" d="M64.2,80.8v1.4c0,0.3,0.2,0.5,0.5,0.5h2c0.3,0,0.5-0.2,0.5-0.5v-1.4c0-0.3-0.2-0.5-0.5-0.5h-2
				C64.4,80.3,64.2,80.5,64.2,80.8z"/>
			<path class="st3" d="M49.6,80.8v1.4c0,0.3-0.2,0.5-0.5,0.5h-2c-0.3,0-0.5-0.2-0.5-0.5v-1.4c0-0.3,0.2-0.5,0.5-0.5h2
				C49.4,80.3,49.6,80.5,49.6,80.8z"/>
			<g>
				<path class="st3" d="M54.4,74.3c1.7,0,3.4,0,5.1,0c1.5,0,3.3,0.8,3.3,1.7c0.1,1-0.2,2.1-0.6,3.1c-0.5,1.1-2.6,2-4.5,2
					c-0.5,0-1.1,0-1.6,0c-1.9,0-4-0.8-4.5-2c-0.4-1-0.6-2.1-0.6-3.1C51.1,75.1,52.8,74.3,54.4,74.3z"/>
			</g>
			<g>
				<path class="st12" d="M58.7,79.7c-1.1,2.8-1.2,5.8-0.8,8.6c0.1,0.3-0.1,0.6-0.3,0.6c-0.4,0-0.9,0-1.3,0c-0.2,0-0.4-0.3-0.3-0.6
					c0.5-2.8,0.3-5.8-0.8-8.6c-0.1-0.3,0.1-0.6,0.5-0.6c0.8,0,1.6,0,2.5,0C58.6,79.2,58.8,79.4,58.7,79.7z"/>
				<path class="st6" d="M58.7,79.7c-1.1,2.8-1.2,5.8-0.8,8.6c0.1,0.3-0.1,0.6-0.3,0.6c-0.4,0-0.9,0-1.3,0c-0.2,0-0.4-0.3-0.3-0.6
					c0.5-2.8,0.3-5.8-0.8-8.6c-0.1-0.3,0.1-0.6,0.5-0.6c0.8,0,1.6,0,2.5,0C58.6,79.2,58.8,79.4,58.7,79.7z"/>
			</g>
		</g>
	</g>
	<g>
		<path class="st7" d="M112.3,76.3c-0.4-2.1-0.8-4.3-1.2-6.6c-0.2-1.2-1.1-2.2-2.3-2.5c-4.4-0.9-8.8-0.9-13.2,0
			c-1.1,0.2-2.1,1.3-2.3,2.5c-0.4,2.2-0.8,4.4-1.2,6.6c-0.2,1.2,0.6,2.4,1.7,2.4h1.1c0.5,0,0.9-0.3,1.1-0.8l0.8-2h10.9l0.8,2
			c0.2,0.5,0.6,0.8,1.1,0.8h1.2C111.7,78.6,112.5,77.5,112.3,76.3z"/>
		<path class="st20" d="M103.5,66.1v-3.5h-2.7v3.5l-1.7,0.6c0,0,1.3,1.1,3,1.1c1.7,0,3-1.1,3-1.1L103.5,66.1z"/>
		
			<rect x="103.5" y="87.3" transform="matrix(0.9283 -0.3718 0.3718 0.9283 -27.2368 45.7295)" class="st20" width="2.9" height="12.4"/>
		<path class="st22" d="M106.2,101.1l3.4-1.7l-0.3-0.6c-0.3-0.5-0.9-0.8-1.5-0.5l-2.4,1.2L106.2,101.1z"/>
		
			<rect x="102.8" y="86.3" transform="matrix(0.9283 -0.3718 0.3718 0.9283 -26.7859 45.4396)" class="st23" width="3.3" height="11.7"/>
		
			<rect x="101.4" y="89.8" transform="matrix(0.9659 0.2588 -0.2588 0.9659 28.3561 -23.355)" class="st20" width="2.9" height="12.4"/>
		<path class="st22" d="M102.8,103.2h-3.8v-0.7c0-0.6,0.5-1.1,1.1-1.1h2.7V103.2z"/>
		
			<rect x="101.6" y="88.8" transform="matrix(0.9659 0.2588 -0.2588 0.9659 28.0147 -23.4964)" class="st23" width="3.3" height="11.7"/>
		<g>
			<path class="st23" d="M103.9,65c-0.6,0.1-1.7,0.1-1.7,0.1s-1.2,0-1.7-0.1c-1.2-0.2-2.4-1.7-2.7-3.2c-0.2-1-0.4-2.1-0.7-3.1
				c-0.4-1.7,1-3.8,3.2-4.1c1.3-0.1,2.6-0.1,3.8,0c2.2,0.3,3.6,2.4,3.2,4.1c-0.2,1-0.4,2.1-0.7,3.1C106.2,63.3,105,64.8,103.9,65z"
				/>
		</g>
		<path class="st23" d="M97.7,87.7c0,0,0.3,4.1,3.7,4.2c3.3,0.1,0-4.2,0-4.2H97.7z"/>
		<polygon class="st7" points="95.8,79.6 97,85.6 107.3,85.6 108.6,79.6 		"/>
		<g>
			<line class="st3" x1="94.3" y1="101.5" x2="101.1" y2="97.3"/>
			<line class="st3" x1="110" y1="101.5" x2="103.2" y2="97.3"/>
			<path class="st4" d="M100.9,98.7v-7.5c0-0.3,0.2-0.5,0.5-0.5h1.5c0.3,0,0.5,0.2,0.5,0.5v7.5c0,0.1-0.1,0.2-0.2,0.2h-2.1
				C101,98.9,100.9,98.8,100.9,98.7z"/>
			<path class="st4" d="M100.2,93.2v-4.5c0-0.2,0.2-0.4,0.4-0.4h3.1c0.2,0,0.4,0.2,0.4,0.4v4.5c0,0.2-0.2,0.4-0.4,0.4h-3.1
				C100.4,93.6,100.2,93.4,100.2,93.2z"/>
			<circle class="st4" cx="94.3" cy="101.5" r="1.2"/>
			<circle class="st4" cx="110" cy="101.5" r="1.2"/>
			<line class="st3" x1="102.2" y1="97.3" x2="102.2" y2="101.5"/>
			<circle class="st4" cx="102.2" cy="101.5" r="1.2"/>
			<rect x="96" y="88.2" class="st3" width="12.2" height="1.3"/>
			<path class="st3" d="M108,85.6H96.3c-0.7,0-1.3,0.6-1.3,1.3v0c0,0.7,0.6,1.3,1.3,1.3H108c0.7,0,1.3-0.6,1.3-1.3v0
				C109.3,86.2,108.7,85.6,108,85.6z"/>
			<g>
				<path class="st3" d="M104.9,83.1c-1.8,0-3.7,0-5.5,0c-1.6,0-3.5-1.4-3.6-3.1c-0.1-1.9,0.2-3.9,0.6-5.8c0.6-2.1,2.8-3.7,4.9-3.7
					c0.6,0,1.2,0,1.7,0c2,0,4.3,1.6,4.9,3.7c0.5,1.9,0.7,3.9,0.6,5.8C108.4,81.7,106.6,83.1,104.9,83.1z"/>
			</g>
			<g>
				<path class="st12" d="M100.7,86c0.6-2.9,0.7-5.8,0.6-8.7c0-0.5,0.2-0.9,0.6-0.9c0.2,0,0.3,0,0.5,0c0.4,0,0.6,0.4,0.6,0.9
					c-0.1,2.9,0,5.8,0.6,8.7c0.1,0.5-0.3,0.9-1,0.9c-0.3,0-0.6,0-0.9,0C101,86.9,100.6,86.5,100.7,86z"/>
				<path class="st6" d="M100.7,86c0.6-2.9,0.7-5.8,0.6-8.7c0-0.5,0.2-0.9,0.6-0.9c0.2,0,0.3,0,0.5,0c0.4,0,0.6,0.4,0.6,0.9
					c-0.1,2.9,0,5.8,0.6,8.7c0.1,0.5-0.3,0.9-1,0.9c-0.3,0-0.6,0-0.9,0C101,86.9,100.6,86.5,100.7,86z"/>
			</g>
		</g>
	</g>
	<g>
		<polygon class="st24" points="123.6,77.7 121.1,77.7 120.7,73.4 124,73.4 		"/>
		<path class="st2" d="M124,73.4h-3.3c-0.3,0-0.5-0.2-0.5-0.5l0,0c0-0.3,0.2-0.5,0.5-0.5h3.3c0.3,0,0.5,0.2,0.5,0.5l0,0
			C124.4,73.2,124.2,73.4,124,73.4z"/>
	</g>
	<path class="st24" d="M43.8,75.2h-3.9v0.6c0,1.1,0.9,1.9,1.9,1.9h0c1.1,0,1.9-0.9,1.9-1.9V75.2z"/>
	<path class="st25" d="M44,75.2c0.5,0,1,0.4,1,1"/>
</g>
</svg>
