<?xml version="1.0" encoding="utf-8"?>
<!-- Generator: Adobe Illustrator 24.0.0, SVG Export Plug-In . SVG Version: 6.00 Build 0)  -->
<svg version="1.1" id="Layer_1" xmlns="http://www.w3.org/2000/svg" xmlns:xlink="http://www.w3.org/1999/xlink" x="0px" y="0px"
	 viewBox="0 0 700.2 450" style="enable-background:new 0 0 700.2 450;" xml:space="preserve">
<style type="text/css">
	.st0{opacity:0.5;}
	.st1{fill:#E6E7E8;}
	.st2{fill-rule:evenodd;clip-rule:evenodd;fill:#E6E7E8;stroke:#404041;stroke-width:2;stroke-miterlimit:10;}
	.st3{fill:#E6E7E8;stroke:#404041;stroke-width:2;stroke-miterlimit:10;}
	.st4{fill:#FFFFFF;stroke:#404041;stroke-width:2;stroke-miterlimit:10;}
	.st5{fill:#8EC2EA;}
	.st6{fill:none;stroke:#404041;stroke-width:2;stroke-miterlimit:10;}
	.st7{fill:#8EC2EA;stroke:#404041;stroke-width:2;stroke-miterlimit:10;}
	.st8{fill:none;stroke:#8EC2EA;stroke-width:4;stroke-miterlimit:10;}
	.st9{fill:none;stroke:#404041;stroke-width:4;stroke-miterlimit:10;}
	.st10{fill:none;stroke:#1E86D5;stroke-width:4;stroke-miterlimit:10;}
	.st11{fill:#1E86D5;}
	.st12{fill:#FFFFFF;}
	.st13{fill:#404041;}
	.st14{font-family:'MyriadPro-Bold';}
	.st15{font-size:28.7645px;}
	.st16{fill:#FFFFFF;stroke:#1E86D5;stroke-width:4;stroke-miterlimit:10;}
	.st17{fill:#FFFFFF;stroke:#8EC2EA;stroke-width:4;stroke-miterlimit:10;}
	.st18{fill:#FFFFFF;stroke:#404041;stroke-width:4;stroke-miterlimit:10;}
	.st19{fill:none;stroke:#404041;stroke-width:2;stroke-linejoin:round;stroke-miterlimit:10;}
	.st20{fill:#FFE1B3;stroke:#404041;stroke-width:2;stroke-miterlimit:10;}
	.st21{fill:#1E86D5;stroke:#404041;stroke-width:2;stroke-miterlimit:10;}
	.st22{fill:#8EC2EA;stroke:#404041;stroke-width:2;stroke-linejoin:round;stroke-miterlimit:10;}
	.st23{fill:#1E86D5;stroke:#404041;stroke-width:2;stroke-linejoin:round;stroke-miterlimit:10;}
	.st24{fill-rule:evenodd;clip-rule:evenodd;fill:#FFE1B3;stroke:#404041;stroke-width:2;stroke-miterlimit:10;}
	.st25{fill-rule:evenodd;clip-rule:evenodd;fill:none;stroke:#404041;stroke-width:2;stroke-miterlimit:10;}
</style>
<g>
	<g class="st0">
		<path class="st1" d="M236.9,438.4c6.4-11.6,10.1-25,10.1-39.3c0-44.9-36.4-81.3-81.3-81.3c-44.9,0-81.3,36.4-81.3,81.3
			c0,14.2,3.7,27.6,10.1,39.3H236.9z"/>
		<path class="st1" d="M332,438.4c6.4-11.6,10.1-25,10.1-39.3c0-44.9-36.4-81.3-81.3-81.3c-44.9,0-81.3,36.4-81.3,81.3
			c0,14.2,3.7,27.6,10.1,39.3H332z"/>
		<circle class="st1" cx="85.6" cy="296.5" r="84.5"/>
		<circle class="st1" cx="216" cy="219.2" r="36.1"/>
		<circle class="st1" cx="365.9" cy="359" r="51.7"/>
		<circle class="st1" cx="361.5" cy="342.5" r="12.8"/>
		<circle class="st1" cx="25.6" cy="230.3" r="12.8"/>
		<circle class="st1" cx="70.9" cy="188.5" r="12.8"/>
	</g>
	<rect x="40" y="341.2" class="st2" width="8.6" height="97.2"/>
	<rect x="570.7" y="341.2" class="st2" width="8.6" height="97.2"/>
	<rect x="25.1" y="333.2" class="st2" width="569.9" height="7.8"/>
	<rect x="102.2" y="329.1" class="st3" width="79.2" height="4.1"/>
	<rect x="286.7" y="329.1" class="st3" width="79.2" height="4.1"/>
	<rect x="471.2" y="329.1" class="st3" width="79.2" height="4.1"/>
	<line class="st4" x1="25.1" y1="438.4" x2="633" y2="438.4"/>
	<g>
		<path class="st5" d="M602.4,399.2C602.4,399.2,602.4,399.2,602.4,399.2c-1.1,1-2.7-2.3-7.2-5.8c-4.3-3.5-11.5-7.2-20.3-9.5
			c0,0,0,0,0,0c-8.8-2.5-16.7-3.7-21.6-6.5c-5-2.7-6.9-7.1-4.7-13.8c0,0,0,0,0,0c2.2-6.4,8.6-13.7,17-16.2
			c8.2-2.6,18.4-0.4,25.9,8.2c0,0,0,0,0,0c7.8,8.4,10.8,20,11.8,28.5C604.3,392.8,603.3,398.3,602.4,399.2z"/>
		<path class="st6" d="M602.4,399.2C602.4,399.2,602.4,399.2,602.4,399.2c-1.1,1-2.7-2.3-7.2-5.8c-4.3-3.5-11.5-7.2-20.3-9.5
			c0,0,0,0,0,0c-8.8-2.5-16.7-3.7-21.6-6.5c-5-2.7-6.9-7.1-4.7-13.8c0,0,0,0,0,0c2.2-6.4,8.6-13.7,17-16.2
			c8.2-2.6,18.4-0.4,25.9,8.2c0,0,0,0,0,0c7.8,8.4,10.8,20,11.8,28.5C604.3,392.8,603.3,398.3,602.4,399.2z"/>
	</g>
	<g>
		<path class="st5" d="M625.7,400.3C625.7,400.3,625.7,400.3,625.7,400.3c0.5,0.3,1-5.6,5.9-14.6c4.8-8.7,14.1-20.5,28.9-24.8
			c0,0,0,0,0,0c14.5-4.9,28.2,0.8,33.9,9.2c6.2,8.3,4.5,19.3-0.7,24.3c0,0,0,0,0,0c-5.5,5.4-11.9,6.1-18,4.8
			c-6.3-1.3-12.3-4.5-20.5-7c0,0,0,0,0,0c-8-2.6-16.5-2.2-21.8,0.7C627.9,395.3,625.6,400.4,625.7,400.3z"/>
		<path class="st6" d="M625.7,400.3C625.7,400.3,625.7,400.3,625.7,400.3c0.5,0.3,1-5.6,5.9-14.6c4.8-8.7,14.1-20.5,28.9-24.8
			c0,0,0,0,0,0c14.5-4.9,28.2,0.8,33.9,9.2c6.2,8.3,4.5,19.3-0.7,24.3c0,0,0,0,0,0c-5.5,5.4-11.9,6.1-18,4.8
			c-6.3-1.3-12.3-4.5-20.5-7c0,0,0,0,0,0c-8-2.6-16.5-2.2-21.8,0.7C627.9,395.3,625.6,400.4,625.7,400.3z"/>
	</g>
	<g>
		<path class="st5" d="M619.9,408.9C619.9,408.9,619.9,408.9,619.9,408.9c0.5-0.4-3.6-3.6-7.4-12.9c-3.7-9-7.1-24.1-1.9-41.5
			c0,0,0,0,0,0c4.6-17.3,16.6-29,26-31.1c9.7-2.7,16.8,4.2,17.5,11.9c0,0,0,0,0,0c0.8,8.2-2.3,15.2-6.7,21
			c-4.5,6-10.3,10.7-16.9,18.1c0,0,0,0,0,0c-6.5,7.1-11,16.2-11.9,23C617.4,404.4,619.8,409.1,619.9,408.9z"/>
		<path class="st6" d="M619.9,408.9C619.9,408.9,619.9,408.9,619.9,408.9c0.5-0.4-3.6-3.6-7.4-12.9c-3.7-9-7.1-24.1-1.9-41.5
			c0,0,0,0,0,0c4.6-17.3,16.6-29,26-31.1c9.7-2.7,16.8,4.2,17.5,11.9c0,0,0,0,0,0c0.8,8.2-2.3,15.2-6.7,21
			c-4.5,6-10.3,10.7-16.9,18.1c0,0,0,0,0,0c-6.5,7.1-11,16.2-11.9,23C617.4,404.4,619.8,409.1,619.9,408.9z"/>
	</g>
	<g>
		<ellipse class="st1" cx="613.6" cy="416.2" rx="34" ry="26.4"/>
		<ellipse class="st6" cx="613.6" cy="416.2" rx="34" ry="26.4"/>
	</g>
	<rect x="131.8" y="152.2" class="st3" width="20" height="40.1"/>
	<rect x="316.3" y="152.2" class="st3" width="20" height="40.1"/>
	<rect x="500.7" y="152.2" class="st3" width="20" height="40.1"/>
	<g>
		<g>
			<g>
				<line class="st6" x1="524.9" y1="385.8" x2="529.9" y2="385.8"/>
				<line class="st6" x1="532.9" y1="385.8" x2="537.9" y2="385.8"/>
			</g>
		</g>
		<g>
			<g>
				<line class="st6" x1="528.2" y1="391.4" x2="530.7" y2="387.1"/>
				<line class="st6" x1="532.2" y1="384.5" x2="534.7" y2="380.2"/>
			</g>
		</g>
		<g>
			<g>
				<line class="st6" x1="534.7" y1="391.4" x2="532.2" y2="387.1"/>
				<line class="st6" x1="530.7" y1="384.5" x2="528.2" y2="380.2"/>
			</g>
		</g>
	</g>
	<g>
		<g>
			<g>
				<line class="st6" x1="15.8" y1="167.7" x2="20.8" y2="167.7"/>
				<line class="st6" x1="23.8" y1="167.7" x2="28.8" y2="167.7"/>
			</g>
		</g>
		<g>
			<g>
				<line class="st6" x1="19.1" y1="173.3" x2="21.6" y2="169"/>
				<line class="st6" x1="23.1" y1="166.4" x2="25.6" y2="162.1"/>
			</g>
		</g>
		<g>
			<g>
				<line class="st6" x1="25.6" y1="173.3" x2="23.1" y2="169"/>
				<line class="st6" x1="21.6" y1="166.4" x2="19.1" y2="162.1"/>
			</g>
		</g>
	</g>
	<g>
		<circle class="st6" cx="35.2" cy="38.6" r="3.7"/>
	</g>
	<circle class="st1" cx="138.2" cy="28.6" r="3.6"/>
	<circle class="st1" cx="641.9" cy="92" r="3.6"/>
	<circle class="st1" cx="194.3" cy="24.7" r="3.6"/>
	<circle class="st1" cx="630" cy="192.3" r="3.6"/>
	<g>
		<line class="st6" x1="570.9" y1="24.3" x2="579.4" y2="24.3"/>
		<line class="st6" x1="575.2" y1="28.6" x2="575.2" y2="20.1"/>
	</g>
	<rect x="625.4" y="44.9" class="st6" width="9.2" height="9.2"/>
	<g>
		<path class="st1" d="M638.1,244.4c-0.1,0-0.1,0-0.2,0c-0.1,0-0.2,0-0.3,0.1c-0.4,0.2-0.6,0.7-0.4,1.1l0,0l1.9,4.5
			c1.8-1.1,3.1-2.8,3.9-4.8L638.1,244.4L638.1,244.4z M630.7,245.1c-0.1-0.4-0.4-0.6-0.8-0.6c-0.1,0-0.1,0-0.2,0l0,0l-4.8,0.8
			c0.7,2,2.1,3.7,3.8,4.8l1.8-4.5l0,0C630.7,245.4,630.7,245.2,630.7,245.1z M634.6,246.8c-0.2-0.4-0.7-0.5-1.1-0.3
			c-0.1,0.1-0.3,0.2-0.3,0.3h0l-2.3,4.2c1.7,0.6,3.5,0.7,5.2,0.3c0.3-0.1,0.6-0.2,0.9-0.3L634.6,246.8L634.6,246.8z M642.1,237
			l-3.6,3.2l0,0c-0.3,0.3-0.4,0.8-0.1,1.2c0.1,0.1,0.2,0.2,0.4,0.2l0,0l4.7,1.3C643.7,240.9,643.2,238.8,642.1,237L642.1,237z
			 M635.4,237.3c0,0.4,0.4,0.8,0.9,0.8c0.2,0,0.3-0.1,0.4-0.2l0,0l3.9-2.8c-1.5-1.5-3.4-2.4-5.5-2.7L635.4,237.3L635.4,237.3z
			 M631.2,238c0.4,0.3,0.9,0.2,1.1-0.2c0.1-0.1,0.1-0.3,0.2-0.4l0,0l0.3-4.8c-0.3,0-0.7,0.1-1,0.2c-1.7,0.4-3.3,1.3-4.6,2.5
			L631.2,238L631.2,238z M629.1,241.6c0.4-0.1,0.7-0.6,0.6-1c0-0.2-0.1-0.3-0.3-0.4l0,0l-3.6-3.2c-1.1,1.8-1.6,3.9-1.4,6
			L629.1,241.6L629.1,241.6z M632.6,243.1l1.3,0.6l1.3-0.6l0.3-1.4l-0.9-1.2h-1.5l-0.9,1.2L632.6,243.1z"/>
		<path class="st1" d="M656.1,245.9l-3.8-16.6c-0.2-0.9-0.8-1.6-1.6-2l-15.4-7.4c-0.8-0.4-1.8-0.4-2.6,0l-15.4,7.4
			c-0.8,0.4-1.4,1.1-1.6,2l-3.8,16.6c-0.1,0.4-0.1,0.9,0,1.3c0,0.1,0.1,0.3,0.1,0.4c0.1,0.2,0.2,0.4,0.3,0.6
			c0.1,0.1,0.1,0.2,0.2,0.2l10.7,13.3c0,0.1,0.1,0.1,0.1,0.2c0.2,0.2,0.4,0.3,0.6,0.5c0.3,0.2,0.5,0.3,0.8,0.4
			c0.2,0.1,0.5,0.1,0.8,0.1h0.2l17,0c0.1,0,0.2,0,0.3,0c0.1,0,0.3,0,0.4-0.1c0.1,0,0.2-0.1,0.3-0.1c0.1,0,0.2-0.1,0.2-0.1
			c0.1-0.1,0.2-0.1,0.3-0.2c0.3-0.2,0.5-0.4,0.7-0.6l0.3-0.4l10.4-12.9c0.2-0.2,0.4-0.5,0.5-0.8c0-0.1,0.1-0.2,0.1-0.4
			C656.2,246.8,656.2,246.3,656.1,245.9L656.1,245.9z M640,252.4c0,0.1,0.1,0.3,0.2,0.4c-0.1,0.2-0.1,0.4-0.1,0.5
			c0.2,0.5,0.5,1,0.8,1.5c0.2,0.2,0.3,0.5,0.5,0.7c0,0.1,0.1,0.2,0.1,0.2c0.3,0.4,0.1,1-0.3,1.3c-0.4,0.3-1,0.1-1.3-0.3
			c0-0.1-0.1-0.1-0.1-0.2c0-0.1-0.1-0.2-0.1-0.2c-0.1-0.3-0.2-0.6-0.3-0.8c-0.2-0.5-0.4-1.1-0.6-1.6c-0.1-0.2-0.3-0.3-0.5-0.3
			c0-0.1-0.1-0.3-0.2-0.4c-2.7,1-5.8,1-8.5,0l-0.2,0.4c-0.1,0-0.3,0.1-0.4,0.2c-0.3,0.5-0.6,1.1-0.7,1.7c-0.1,0.3-0.2,0.6-0.3,0.8
			c0,0.1-0.1,0.2-0.1,0.2v0l0,0c-0.2,0.5-0.7,0.7-1.2,0.6c-0.5-0.2-0.7-0.7-0.6-1.2c0-0.1,0-0.1,0.1-0.2c0-0.1,0.1-0.2,0.1-0.2
			c0.2-0.3,0.3-0.5,0.5-0.7c0.3-0.5,0.6-1,0.8-1.5c0-0.2,0-0.4-0.1-0.5l0.2-0.4c-2.5-1.5-4.4-3.9-5.3-6.7l-0.4,0.1
			c-0.2-0.1-0.3-0.2-0.5-0.2c-0.6,0.1-1.1,0.3-1.6,0.5c-0.3,0.1-0.5,0.2-0.8,0.3c-0.1,0-0.2,0-0.2,0.1c0,0,0,0,0,0c0,0,0,0,0,0
			c-0.5,0.2-1-0.1-1.2-0.6s0.1-1,0.6-1.2c0.1,0,0.1,0,0.2,0l0,0l0,0c0.1,0,0.2,0,0.2-0.1c0.3,0,0.6-0.1,0.9-0.1
			c0.6,0,1.1-0.1,1.7-0.3c0.2-0.1,0.3-0.2,0.4-0.4l0.4-0.1c-0.4-2.9,0.3-5.9,1.9-8.3l-0.3-0.3c0-0.2-0.1-0.4-0.2-0.5
			c-0.4-0.4-0.9-0.7-1.4-1c-0.3-0.1-0.5-0.3-0.8-0.4c-0.1,0-0.1-0.1-0.2-0.2l0,0c-0.4-0.3-0.5-0.9-0.2-1.4c0.2-0.2,0.5-0.3,0.7-0.3
			c0.2,0,0.5,0.1,0.6,0.2c0.1,0,0.1,0.1,0.2,0.2c0.2,0.2,0.4,0.4,0.6,0.6c0.4,0.4,0.8,0.8,1.2,1.1c0.2,0.1,0.4,0.1,0.5,0.1
			c0.1,0.1,0.2,0.2,0.3,0.2c1.6-1.7,3.7-2.9,6-3.4c0.6-0.1,1.1-0.2,1.7-0.3l0-0.4c0.1-0.1,0.2-0.3,0.3-0.5c0-0.6,0-1.1-0.1-1.7
			c-0.1-0.3-0.1-0.6-0.1-0.9c0-0.1,0-0.2,0-0.2c0,0,0,0,0,0c-0.1-0.5,0.3-1,0.8-1c0.5-0.1,1,0.3,1,0.8c0,0.1,0,0.1,0,0.2
			c0,0.1,0,0.2,0,0.3c0,0.3-0.1,0.6-0.1,0.9c-0.1,0.6-0.1,1.1-0.1,1.7c0,0.2,0.1,0.4,0.3,0.5c0,0.1,0,0.3,0,0.4
			c2.9,0.3,5.6,1.6,7.7,3.7l0.4-0.3c0.2,0,0.4,0,0.6-0.1c0.5-0.3,0.9-0.7,1.2-1.1c0.2-0.2,0.4-0.4,0.6-0.6c0.1,0,0.1-0.1,0.2-0.2
			c0.4-0.4,1-0.4,1.3,0c0.4,0.4,0.4,1,0,1.3c0,0-0.1,0.1-0.2,0.1c-0.1,0.1-0.1,0.1-0.2,0.2c-0.2,0.2-0.5,0.3-0.8,0.4
			c-0.5,0.3-0.9,0.6-1.4,1c-0.1,0.1-0.2,0.3-0.2,0.5c-0.1,0-0.2,0.2-0.3,0.3c1.6,2.4,2.3,5.4,1.9,8.3l0.4,0.1
			c0.1,0.2,0.2,0.3,0.4,0.4c0.5,0.1,1.1,0.2,1.7,0.3c0.3,0,0.6,0,0.9,0.1c0.1,0,0.2,0,0.3,0.1c0.5,0.1,0.9,0.5,0.8,1
			c-0.1,0.5-0.5,0.9-1,0.8c-0.1,0-0.1,0-0.2,0l0,0c0,0,0,0,0,0c-0.1,0-0.2,0-0.2-0.1c-0.3-0.1-0.6-0.2-0.8-0.3
			c-0.5-0.2-1.1-0.4-1.6-0.5c-0.2,0-0.4,0.1-0.5,0.2c-0.1,0-0.3,0-0.4-0.1C644.5,248.5,642.6,250.8,640,252.4L640,252.4z"/>
	</g>
	<g>
		<rect x="242.9" y="44.4" class="st3" width="168.5" height="115.1"/>
		<rect x="247.9" y="49.5" class="st4" width="158.5" height="104.8"/>
	</g>
	<g>
		<rect x="57.6" y="44.4" class="st3" width="168.5" height="115.1"/>
		<rect x="62.6" y="49.5" class="st4" width="158.5" height="104.8"/>
	</g>
	<g>
		<rect x="242.1" y="173.9" class="st3" width="168.5" height="115.1"/>
		<rect x="247" y="179.1" class="st4" width="158.5" height="104.8"/>
	</g>
	<g>
		<rect x="426.5" y="44.4" class="st3" width="168.5" height="115.1"/>
		<rect x="431.5" y="49.5" class="st4" width="158.5" height="104.8"/>
	</g>
	<g>
		<rect x="426.5" y="173.9" class="st3" width="168.5" height="115.1"/>
		<rect x="431.5" y="179.1" class="st7" width="158.5" height="104.8"/>
	</g>
	<g>
		<rect x="57.6" y="173.9" class="st3" width="168.5" height="115.1"/>
		<rect x="62.6" y="179.1" class="st4" width="158.5" height="104.8"/>
	</g>
	<path class="st7" d="M586.3,154.4c-0.4-9.4-1.4-18.7-2.8-28c-1.1-7.6-2.5-15.1-4-22.6c-0.4-1.9-0.1-4.8-1.5-6.3
		c-1.1-1.3-2.7-0.9-3.4,0.6c-1,2.1-1.1,4.8-1.5,7c-0.5,2.7-1,5.3-1.7,7.9c-0.5,1.9-2.2,1.3-2.8-0.2c-0.8-1.8-1.1-3.9-1.8-5.7
		c-0.4-1-0.7-3.5-2-2.7c-0.9,0.5-1.2,2.7-1.5,3.6c-0.2,0.6-1.5,4.5-2.2,2.3c-0.3-1-1.1-5.2-2.5-5.3c-0.8-0.1-1.2,3-1.4,3.7
		c-0.9,4.4-2.3,8.6-3.6,12.8c-0.2,0.7-0.5,3.1-1.3,3.4c-0.9,0.3-1.4-1.2-1.5-1.8c-0.6-2.4-0.1-5.2-0.1-7.6c0-2.7-0.1-5.5-0.2-8.2
		c-0.3-6.5-0.9-12.9-1.5-19.4c-0.1-1,0.1-2.5-1.1-3c-0.8-0.3-1.6,0.2-2,1c-1.8,4.2-2.5,8.7-3.6,13.1c-1.2,5-2.4,10-3.3,15.1
		c-0.2,1-1.4,10.1-3.3,7.6c-1-1.4-0.8-7.2-3.3-7c-2,0.2-2.2,3.5-2.5,5c-0.6,2.7-1.1,5.4-1.7,8.1c-0.4,1.9-0.4,6-2.6,6.7
		c-1.1,0.3-1.7-0.7-2.1-1.6c-1.1-2.2-1.5-4.9-1.8-7.3c-0.5-3.5-0.6-7.1-0.6-10.7c0-7.3,0.8-15.2-1.4-22.3c-0.9-2.9-3.6-2-4.7,0.2
		c-0.7,1.5-1.3,3.1-1.8,4.7c-1,3.4-1.5,7-2.1,10.5c-0.3,2.2-2.9,19.9-6.8,18.8c-2.5-0.7-2.9-7.6-3.5-9.7c-0.5-1.9-1-4.4-2.3-6
		c-2-2.4-2.8,1.6-3.2,3.1c-0.6,2-1.2,4-1.9,6c-0.6,1.5-1,4-2.7,4.5c-1.8,0.5-3.2-1.7-3.6-3.6c-0.2-1.1-0.2-2.5-0.8-3.5
		c-0.8-1.4-2-0.8-2.4,0.7c-0.9,2.7-1.4,6.1-2.9,8.6c-0.1,0.2-0.3,0.5-0.6,0.5c-0.2,0-0.4-0.2-0.6-0.4c-1.5-2-2-5.1-2.6-7.6
		c-0.7-3-1.4-6-2-9.1c-0.9-4.4-1.7-8.8-2.3-13.2c-0.2-1.6-0.2-3.8-1.5-4.9c-1.2-1-2.5-0.5-3.3,0.7c-0.6,0.9-0.8,1.9-1,2.9
		c-0.3,1.4-2.4,14.7-4.1,14.2c-2-0.6-1.4-4.9-3.6-5.1c-1.1-0.1-1.8,1.1-2.2,2.2c-1.4,4-1.9,8.6-4.6,11.8c-0.3,0.4-0.7,0.8-1.1,0.9
		c-1.6,0.5-2.6-1.9-2.5-3.6c0.1-1.7,0.3-4-1.2-4.8c-2-1-3.7,1.8-4.2,4.1c-1.5,6.4-3.1,12.9-4.6,19.3c-1.5,6.4-3.1,13-3.9,19.6H586.3
		z"/>
	
		<rect x="368.7" y="90" transform="matrix(-1.836970e-16 1 -1 -1.836970e-16 488.9088 -255.9907)" class="st5" width="7.6" height="53"/>
	
		<rect x="368.7" y="99.4" transform="matrix(-1.836970e-16 1 -1 -1.836970e-16 498.3177 -246.5818)" class="st5" width="7.6" height="53"/>
	
		<rect x="368.7" y="108.8" transform="matrix(-1.836970e-16 1 -1 -1.836970e-16 507.7267 -237.1729)" class="st5" width="7.6" height="53"/>
	
		<rect x="368.7" y="118.2" transform="matrix(-1.836970e-16 1 -1 -1.836970e-16 517.1356 -227.764)" class="st5" width="7.6" height="53"/>
	
		<rect x="313.2" y="90" transform="matrix(-1.836970e-16 1 -1 -1.836970e-16 433.4199 -200.5018)" class="st5" width="7.6" height="53"/>
	
		<rect x="368.7" y="80.6" transform="matrix(-1.836970e-16 1 -1 -1.836970e-16 479.4999 -265.3996)" class="st5" width="7.6" height="53"/>
	
		<rect x="313.2" y="80.6" transform="matrix(-1.836970e-16 1 -1 -1.836970e-16 424.011 -209.9107)" class="st5" width="7.6" height="53"/>
	
		<rect x="368.7" y="71.2" transform="matrix(-1.836970e-16 1 -1 -1.836970e-16 470.091 -274.8085)" class="st5" width="7.6" height="53"/>
	
		<rect x="313.2" y="71.2" transform="matrix(-1.836970e-16 1 -1 -1.836970e-16 414.6021 -219.3196)" class="st5" width="7.6" height="53"/>
	
		<rect x="368.7" y="61.7" transform="matrix(-1.836970e-16 1 -1 -1.836970e-16 460.6821 -284.2175)" class="st5" width="7.6" height="53"/>
	
		<rect x="313.2" y="61.7" transform="matrix(-1.836970e-16 1 -1 -1.836970e-16 405.1932 -228.7285)" class="st5" width="7.6" height="53"/>
	
		<rect x="368.7" y="52.3" transform="matrix(-1.836970e-16 1 -1 -1.836970e-16 451.2732 -293.6264)" class="st5" width="7.6" height="53"/>
	
		<rect x="313.2" y="52.3" transform="matrix(-1.836970e-16 1 -1 -1.836970e-16 395.7842 -238.1375)" class="st5" width="7.6" height="53"/>
	
		<rect x="368.7" y="42.9" transform="matrix(-1.836970e-16 1 -1 -1.836970e-16 441.8643 -303.0353)" class="st5" width="7.6" height="53"/>
	
		<rect x="313.2" y="42.9" transform="matrix(-1.836970e-16 1 -1 -1.836970e-16 386.3753 -247.5464)" class="st5" width="7.6" height="53"/>
	
		<rect x="368.7" y="33.5" transform="matrix(-1.836970e-16 1 -1 -1.836970e-16 432.4554 -312.4442)" class="st5" width="7.6" height="53"/>
	
		<rect x="313.2" y="33.5" transform="matrix(-1.836970e-16 1 -1 -1.836970e-16 376.9664 -256.9553)" class="st5" width="7.6" height="53"/>
	
		<rect x="313.2" y="99.4" transform="matrix(-1.836970e-16 1 -1 -1.836970e-16 442.8288 -191.0929)" class="st5" width="7.6" height="53"/>
	
		<rect x="313.2" y="108.8" transform="matrix(-1.836970e-16 1 -1 -1.836970e-16 452.2377 -181.684)" class="st5" width="7.6" height="53"/>
	
		<rect x="313.2" y="118.2" transform="matrix(-1.836970e-16 1 -1 -1.836970e-16 461.6466 -172.2751)" class="st5" width="7.6" height="53"/>
	<path class="st8" d="M67.2,279.5c3.8-12,9-23.9,18-32.8s22.1-14.2,34.4-11.3c10,2.4,18.3,10,28.5,11.2c13.6,1.6,25.8-8.4,34.4-19.1
		c8.6-10.7,15.9-23.1,27.9-29.7"/>
	<path class="st9" d="M73.8,278.8c6.8-10.5,18.2-17.9,30.6-19.7c14.7-2.2,29.3,3.1,44.1,3.9c17.3,0.9,37-1.4,48.7-15.4
		c5.3-6.4,9-14.1,12.6-21.6"/>
	<path class="st10" d="M71.8,280.1c3.2-17.4,9.5-34.2,18.6-49.3c3.7-6.2,8.6-12.7,15.7-14.2c8.9-1.9,17.6,5,21.4,13.2
		c3.8,8.2,4.1,17.5,5.4,26.5c0.5,3.2,1,6.4,2.6,9.3c1.5,2.9,4.1,5.3,7.3,5.9c4.3,0.8,8.6-1.8,11-5.4s3.4-7.9,4.3-12.2
		c4.3-19.9,11-47.7,15.2-67.6"/>
	<rect x="72" y="186.3" class="st5" width="66.2" height="5.2"/>
	<rect x="72" y="194" class="st5" width="66.2" height="5.2"/>
	<rect x="255.3" y="56.2" class="st1" width="12.3" height="12.3"/>
	<rect x="255.3" y="76.2" class="st1" width="12.3" height="12.3"/>
	<rect x="255.3" y="96.2" class="st1" width="12.3" height="12.3"/>
	<rect x="255.3" y="116.2" class="st1" width="12.3" height="12.3"/>
	<rect x="255.3" y="136.1" class="st1" width="12.3" height="12.3"/>
	<rect x="271.6" y="56.2" class="st1" width="12.3" height="12.3"/>
	<rect x="271.6" y="76.2" class="st1" width="12.3" height="12.3"/>
	<rect x="271.6" y="96.2" class="st1" width="12.3" height="12.3"/>
	<rect x="271.6" y="116.2" class="st1" width="12.3" height="12.3"/>
	<rect x="271.6" y="136.1" class="st1" width="12.3" height="12.3"/>
	<circle class="st11" cx="362.6" cy="244.3" r="31.9"/>
	<circle class="st12" cx="362.6" cy="244.3" r="16.1"/>
	
		<rect x="344.6" y="249.9" transform="matrix(-0.7071 -0.7071 0.7071 -0.7071 407.6304 689.4639)" class="st12" width="4" height="20.9"/>
	
		<rect x="383.2" y="233.9" transform="matrix(-1.355007e-10 1 -1 -1.355007e-10 629.5118 -140.8483)" class="st12" width="4" height="20.9"/>
	
		<rect x="344.6" y="217.9" transform="matrix(0.7071 -0.7071 0.7071 0.7071 -59.952 311.9723)" class="st12" width="4" height="20.9"/>
	<circle class="st5" cx="289.9" cy="244.3" r="31.9"/>
	<circle class="st12" cx="289.9" cy="244.3" r="16.1"/>
	<rect x="287.9" y="211.3" class="st12" width="4" height="20.9"/>
	
		<rect x="271.9" y="217.9" transform="matrix(0.7071 -0.7071 0.7071 0.7071 -81.2517 260.5503)" class="st12" width="4" height="20.9"/>
	
		<rect x="271.9" y="249.9" transform="matrix(-0.7071 -0.7071 0.7071 -0.7071 283.4868 638.0419)" class="st12" width="4" height="20.9"/>
	
		<rect x="310.5" y="233.9" transform="matrix(-1.327722e-10 1 -1 -1.327722e-10 556.7902 -68.1266)" class="st12" width="4" height="20.9"/>
	<text transform="matrix(1 0 0 1 279.6646 206.5099)" class="st13 st14 st15">A</text>
	<text transform="matrix(1 0 0 1 353.8623 206.5099)" class="st13 st14 st15">B</text>
	<rect x="438.8" y="186.1" class="st12" width="143.9" height="5.1"/>
	<rect x="438.8" y="194.4" class="st12" width="143.9" height="5.1"/>
	<rect x="438.8" y="202.7" class="st12" width="143.9" height="5.1"/>
	<rect x="438.8" y="211" class="st12" width="143.9" height="5.1"/>
	<rect x="438.8" y="219.2" class="st12" width="69.8" height="23.6"/>
	
		<rect x="512.9" y="219.2" transform="matrix(-1 -4.489443e-11 4.489443e-11 -1 1095.6375 462.066)" class="st12" width="69.8" height="23.6"/>
	<rect x="438.8" y="246.3" class="st12" width="143.9" height="5.1"/>
	<rect x="438.8" y="254.6" class="st12" width="143.9" height="5.1"/>
	<rect x="438.8" y="262.9" class="st12" width="143.9" height="5.1"/>
	<rect x="438.8" y="271.2" class="st12" width="143.9" height="5.1"/>
	<rect x="70.2" y="140.9" class="st11" width="143.2" height="5.8"/>
	<rect x="70.2" y="133.1" class="st11" width="143.2" height="5.8"/>
	<rect x="70.2" y="125.3" class="st11" width="143.2" height="5.8"/>
	<rect x="70.2" y="117.6" class="st11" width="143.2" height="5.8"/>
	<rect x="70.2" y="125.3" class="st5" width="34.8" height="5.8"/>
	<rect x="70.2" y="117.6" class="st5" width="34.8" height="5.8"/>
	<rect x="70.2" y="102" class="st5" width="143.2" height="5.8"/>
	<rect x="70.2" y="109.8" class="st5" width="143.2" height="5.8"/>
	<rect x="70.2" y="94.2" class="st5" width="143.2" height="5.8"/>
	<rect x="70.2" y="86.4" class="st5" width="143.2" height="5.8"/>
	<rect x="70.2" y="78.7" class="st5" width="143.2" height="5.8"/>
	<rect x="70.2" y="70.9" class="st5" width="143.2" height="5.8"/>
	<rect x="70.2" y="63.1" class="st5" width="143.2" height="5.8"/>
	<rect x="70.2" y="55.3" class="st5" width="143.2" height="5.8"/>
	<rect x="141.8" y="102" class="st11" width="71.6" height="5.8"/>
	<rect x="141.8" y="109.8" class="st11" width="71.6" height="5.8"/>
	<rect x="141.8" y="94.2" class="st11" width="71.6" height="5.8"/>
	<rect x="141.8" y="86.4" class="st11" width="71.6" height="5.8"/>
	<rect x="177" y="78.7" class="st11" width="36.4" height="5.8"/>
	<rect x="177" y="70.9" class="st11" width="36.4" height="5.8"/>
	<rect x="177" y="63.1" class="st11" width="36.4" height="5.8"/>
	<rect x="177" y="55.3" class="st11" width="36.4" height="5.8"/>
	<rect x="140.6" y="53" class="st12" width="2.5" height="97.7"/>
	<rect x="103.8" y="53" class="st12" width="2.5" height="97.7"/>
	<rect x="175.8" y="53" class="st12" width="2.5" height="97.7"/>
	<circle class="st16" cx="169.7" cy="202.7" r="4.7"/>
	<circle class="st17" cx="198.9" cy="207" r="4.7"/>
	<circle class="st17" cx="174.7" cy="235.8" r="4.7"/>
	<circle class="st18" cx="201.9" cy="240.5" r="4.7"/>
	<circle class="st18" cx="103.8" cy="259.1" r="4.7"/>
	<circle class="st18" cx="168" cy="262.1" r="4.7"/>
	<circle class="st17" cx="112.1" cy="234.7" r="4.7"/>
	<circle class="st16" cx="143.5" cy="271.6" r="4.7"/>
	<circle class="st16" cx="94" cy="225.6" r="4.7"/>
	<rect x="131.8" y="289" class="st3" width="20" height="40.1"/>
	<rect x="316.3" y="289" class="st3" width="20" height="40.1"/>
	<rect x="500.7" y="289" class="st3" width="20" height="40.1"/>
	<g>
		<g>
			<g>
				<line class="st6" x1="615.9" y1="155.3" x2="620.9" y2="155.3"/>
				<line class="st6" x1="623.9" y1="155.3" x2="628.9" y2="155.3"/>
			</g>
		</g>
		<g>
			<g>
				<line class="st6" x1="619.2" y1="160.9" x2="621.7" y2="156.6"/>
				<line class="st6" x1="623.2" y1="154" x2="625.7" y2="149.6"/>
			</g>
		</g>
		<g>
			<g>
				<line class="st6" x1="625.7" y1="160.9" x2="623.2" y2="156.6"/>
				<line class="st6" x1="621.7" y1="154" x2="619.2" y2="149.6"/>
			</g>
		</g>
	</g>
	<g>
		<g>
			<g>
				<line class="st6" x1="632.4" y1="292.6" x2="637.4" y2="292.6"/>
				<line class="st6" x1="640.4" y1="292.6" x2="645.4" y2="292.6"/>
			</g>
		</g>
		<g>
			<g>
				<line class="st6" x1="635.7" y1="298.2" x2="638.2" y2="293.9"/>
				<line class="st6" x1="639.7" y1="291.3" x2="642.2" y2="286.9"/>
			</g>
		</g>
		<g>
			<g>
				<line class="st6" x1="642.2" y1="298.2" x2="639.7" y2="293.9"/>
				<line class="st6" x1="638.2" y1="291.3" x2="635.7" y2="286.9"/>
			</g>
		</g>
	</g>
	<polygon class="st19" points="17.1,292.8 11.8,301.9 22.3,301.9 	"/>
	<circle class="st6" cx="291.9" cy="389.1" r="3.7"/>
	<circle class="st6" cx="638.2" cy="115.6" r="3.7"/>
	<g>
		<line class="st6" x1="332.9" y1="384.8" x2="341.4" y2="384.8"/>
		<line class="st6" x1="337.1" y1="389.1" x2="337.1" y2="380.6"/>
	</g>
	<g>
		<line class="st6" x1="251" y1="21.1" x2="259.5" y2="21.1"/>
		<line class="st6" x1="255.3" y1="25.4" x2="255.3" y2="16.8"/>
	</g>
	<g>
		<line class="st6" x1="118.3" y1="387.7" x2="126.8" y2="387.7"/>
		<line class="st6" x1="122.6" y1="391.9" x2="122.6" y2="383.4"/>
	</g>
	<rect x="498.9" y="367.6" class="st1" width="9.2" height="9.2"/>
	<rect x="388.6" y="16.5" class="st1" width="9.2" height="9.2"/>
	<g>
		<rect x="226.2" y="292.1" class="st20" width="8.9" height="12.9"/>
		<path class="st20" d="M215.3,260c0,0.1,0,0.3,0,0.4v19.7c0,8.4,6.8,15.3,15.3,15.3s15.3-6.8,15.3-15.3v-19.7c0-0.1,0-0.3,0-0.4
			H215.3z"/>
		<g>
			<path class="st11" d="M217.7,297c3.1-3.5,7.8-5.5,12.9-5.5c5.1,0,9.8,2.1,12.9,5.5c3.8-6.7,7.5-10.4,9.8-18.3
				c5.3-14.9-6.3-32.9-27.9-29.6c-2.8,0.5-5.4,1.3-7.8,2.5c-10.3,5.1-12.8,17.2-9.7,27.1C210.2,286.6,213.9,290.4,217.7,297z"/>
			<path class="st6" d="M217.7,297c3.1-3.5,7.8-5.5,12.9-5.5c5.1,0,9.8,2.1,12.9,5.5c3.8-6.7,7.5-10.4,9.8-18.3
				c5.3-14.9-6.3-32.9-27.9-29.6c-2.8,0.5-5.4,1.3-7.8,2.5c-10.3,5.1-12.8,17.2-9.7,27.1C210.2,286.6,213.9,290.4,217.7,297z"/>
		</g>
		<g>
			<polygon class="st20" points="214.7,434.6 222.8,434.6 224.2,407.6 224.2,380.5 213.4,380.5 213.4,407.6 			"/>
			<polygon class="st20" points="246.4,434.6 238.4,434.6 237,407.6 237,380.5 247.8,380.5 247.8,407.6 			"/>
			<path class="st21" d="M220.5,428h-3.4c-1.4,0-2.5,1.1-2.5,2.5v4.1h8.4v-4.1C222.9,429.1,221.8,428,220.5,428z"/>
			<path class="st21" d="M244.1,428h-3.4c-1.4,0-2.5,1.1-2.5,2.5v4.1h8.3v-4.2C246.5,429.1,245.4,428,244.1,428z"/>
		</g>
		<path class="st22" d="M260.8,341.4c-0.5-0.6-13.1-5.5-13.1-5.5l7.8-13.1L260.8,341.4z"/>
		<path class="st22" d="M200.3,341.4c0.5-0.6,13.1-5.5,13.1-5.5l-7.8-13.1L200.3,341.4z"/>
		<path class="st7" d="M268.4,334.7l-19.6-29.3c-1.7-2.5-14-6-18.2-6h0c-4.3,0-16.6,3.4-18.2,6l-19.6,29.3c-1.5,2.3-0.9,5.5,1.3,7.1
			c2.2,1.6,5.2,1.2,6.8-1l10.1-14.1l-3.4,38.1c-0.7,7.8,5.4,14.5,13.2,14.5h19.5c7.8,0,13.9-6.7,13.2-14.5l-3.4-38.1l10.1,14.1
			c1.6,2.2,4.6,2.6,6.8,1C269.3,340.1,269.9,337,268.4,334.7z"/>
		<rect x="213.7" y="389" class="st7" width="34.1" height="6.6"/>
		<g>
			<line class="st3" x1="200.6" y1="432.2" x2="227.3" y2="415.9"/>
			<line class="st3" x1="260.6" y1="432.2" x2="233.9" y2="415.9"/>
			<path class="st4" d="M227.3,421.8v-29.3c0-1,0.8-1.7,1.7-1.7h3.2c1,0,1.7,0.8,1.7,1.7v29.3c0,0.4-0.3,0.7-0.7,0.7H228
				C227.6,422.5,227.3,422.2,227.3,421.8z"/>
			<path class="st4" d="M224.2,400.6v-17.3c0-0.7,0.6-1.3,1.3-1.3h10c0.7,0,1.3,0.6,1.3,1.3v17.3c0,0.7-0.6,1.3-1.3,1.3h-10
				C224.8,401.9,224.2,401.3,224.2,400.6z"/>
			<circle class="st4" cx="200.6" cy="432.2" r="4.7"/>
			<circle class="st4" cx="260.6" cy="432.2" r="4.7"/>
			<line class="st3" x1="230.6" y1="416.3" x2="230.6" y2="432.2"/>
			<circle class="st4" cx="230.6" cy="432.2" r="4.7"/>
			<rect x="207.2" y="384.4" class="st3" width="46.8" height="4.9"/>
			<polyline class="st6" points="266.7,347.1 266.7,359.5 254,379.5 			"/>
			<polyline class="st6" points="194.5,347.1 194.5,359.5 207.2,379.5 			"/>
			<path class="st3" d="M252.9,374.6h-44.6c-2.7,0-4.9,2.2-4.9,4.9l0,0c0,2.7,2.2,4.9,4.9,4.9h44.6c2.7,0,4.9-2.2,4.9-4.9l0,0
				C257.8,376.8,255.6,374.6,252.9,374.6z"/>
			<path class="st3" d="M260.7,345.8v5.6c0,1,0.8,1.9,1.9,1.9h8.2c1,0,1.9-0.8,1.9-1.9v-5.6c0-1-0.8-1.9-1.9-1.9h-8.2
				C261.6,344,260.7,344.8,260.7,345.8z"/>
			<path class="st3" d="M200.5,345.8v5.6c0,1-0.8,1.9-1.9,1.9h-8.2c-1,0-1.9-0.8-1.9-1.9v-5.6c0-1,0.8-1.9,1.9-1.9h8.2
				C199.7,344,200.5,344.8,200.5,345.8z"/>
			<g>
				<path class="st3" d="M220,319.1c7,0,14.1,0,21.1,0c6.3,0,13.4,3.2,13.8,7c0.3,4.2-0.6,8.6-2.4,12.8c-2.2,4.7-10.9,8.2-18.7,8.2
					c-2.2,0-4.4,0-6.6,0c-7.8,0-16.5-3.5-18.7-8.2c-1.7-4.3-2.6-8.6-2.4-12.8C206.6,322.3,213.8,319.1,220,319.1z"/>
			</g>
			<g>
				<path class="st12" d="M237.9,341.6c-4.6,11.6-5.1,23.8-3.2,35.4c0.2,1.3-0.3,2.4-1.3,2.4c-1.8,0-3.6,0-5.5,0
					c-1,0-1.5-1.1-1.3-2.4c1.9-11.6,1.4-23.8-3.2-35.4c-0.6-1.3,0.4-2.4,2.2-2.4c3.4,0,6.8,0,10.1,0
					C237.5,339.2,238.4,340.3,237.9,341.6z"/>
				<path class="st6" d="M237.9,341.6c-4.6,11.6-5.1,23.8-3.2,35.4c0.2,1.3-0.3,2.4-1.3,2.4c-1.8,0-3.6,0-5.5,0
					c-1,0-1.5-1.1-1.3-2.4c1.9-11.6,1.4-23.8-3.2-35.4c-0.6-1.3,0.4-2.4,2.2-2.4c3.4,0,6.8,0,10.1,0
					C237.5,339.2,238.4,340.3,237.9,341.6z"/>
			</g>
		</g>
	</g>
	<g>
		<path class="st7" d="M459.1,327.3c-1.7-8.8-3.4-17.8-5.1-27.1c-0.9-4.8-4.7-9.2-9.4-10.2c-18-3.8-36.4-3.8-54.4,0
			c-4.7,1-8.6,5.4-9.4,10.2c-1.7,9.3-3.4,18.3-5.1,27.1c-1,5,2.4,9.7,7,9.7l4.5,0c1.9,0,3.7-1.3,4.4-3.3l3.1-8.1h45l3.1,8.1
			c0.8,2,2.5,3.3,4.4,3.3l4.8,0C456.7,337.1,460.1,332.4,459.1,327.3z"/>
		<path class="st20" d="M423,285.5v-14.3h-11.1v14.3l-6.9,2.4c0,0,5.6,4.4,12.4,4.4c6.9,0,12.4-4.4,12.4-4.4L423,285.5z"/>
		
			<rect x="423.1" y="372.8" transform="matrix(0.9283 -0.3718 0.3718 0.9283 -117.3608 188.0643)" class="st20" width="11.8" height="51.3"/>
		<path class="st22" d="M433.9,429.8l13.9-7l-1.3-2.6c-1.1-2.2-3.9-3.1-6.1-2l-9.9,5L433.9,429.8z"/>
		
			<rect x="420.1" y="368.8" transform="matrix(0.9283 -0.3718 0.3718 0.9283 -115.4995 186.8675)" class="st23" width="13.5" height="48.2"/>
		
			<rect x="414.5" y="383.1" transform="matrix(0.9659 0.2588 -0.2588 0.9659 120.1236 -94.8734)" class="st20" width="11.8" height="51.3"/>
		<path class="st22" d="M420.3,438.4h-15.6v-2.9c0-2.5,2-4.5,4.5-4.5h11.1V438.4z"/>
		
			<rect x="415.2" y="379" transform="matrix(0.9659 0.2588 -0.2588 0.9659 118.7141 -95.4573)" class="st23" width="13.5" height="48.2"/>
		<g>
			<path class="st23" d="M424.5,280.8c-2.4,0.3-7.1,0.5-7.1,0.5s-4.8-0.2-7.1-0.5c-4.8-0.8-9.7-7.2-11.1-13.1
				c-0.9-4.2-1.8-8.5-2.7-12.7c-1.8-7,3.9-15.6,13.1-16.7c5.2-0.5,10.5-0.5,15.8,0c9.1,1.1,14.9,9.7,13.1,16.7
				c-0.9,4.2-1.8,8.5-2.7,12.7C434.2,273.6,429.3,280,424.5,280.8z"/>
		</g>
		<path class="st23" d="M399.1,374.3c0,0,1.4,17.1,15.1,17.5c13.7,0.4,0-17.5,0-17.5H399.1z"/>
		<polygon class="st7" points="391,341.1 396.1,365.9 438.8,365.9 443.8,341.1 		"/>
		<g>
			<line class="st3" x1="385" y1="431.2" x2="413.2" y2="414.1"/>
			<line class="st3" x1="449.8" y1="431.2" x2="421.7" y2="414.1"/>
			<path class="st4" d="M412.1,419.9v-31.1c0-1.2,1-2.3,2.3-2.3h6.1c1.2,0,2.3,1,2.3,2.3v31.1c0,0.5-0.4,0.9-0.9,0.9H413
				C412.5,420.8,412.1,420.4,412.1,419.9z"/>
			<path class="st4" d="M409.5,397v-18.4c0-0.9,0.7-1.6,1.6-1.6h12.7c0.9,0,1.6,0.7,1.6,1.6V397c0,0.9-0.7,1.6-1.6,1.6h-12.7
				C410.2,398.6,409.5,397.9,409.5,397z"/>
			<circle class="st4" cx="385" cy="431.2" r="5.1"/>
			<circle class="st4" cx="449.8" cy="431.2" r="5.1"/>
			<line class="st3" x1="417.4" y1="414.1" x2="417.4" y2="431.2"/>
			<circle class="st4" cx="417.4" cy="431.2" r="5.1"/>
			<rect x="392.2" y="376.5" class="st3" width="50.5" height="5.3"/>
			<path class="st3" d="M441.5,366h-48.1c-2.9,0-5.3,2.4-5.3,5.3v0c0,2.9,2.4,5.3,5.3,5.3h48.1c2.9,0,5.3-2.4,5.3-5.3v0
				C446.8,368.3,444.4,366,441.5,366z"/>
			<g>
				<path class="st3" d="M428.8,355.6c-7.6,0-15.2,0-22.8,0c-6.8,0-14.5-6-14.9-13c-0.3-7.9,0.7-16,2.6-24
					c2.3-8.8,11.7-15.3,20.2-15.3c2.4,0,4.8,0,7.2,0c8.4,0,17.8,6.5,20.2,15.3c1.9,8,2.9,16,2.6,24
					C443.3,349.6,435.6,355.6,428.8,355.6z"/>
			</g>
			<g>
				<path class="st12" d="M411.4,367.3c2.5-11.9,3.1-23.9,2.5-35.7c-0.1-2.1,1-3.8,2.5-3.8c0.7,0,1.3,0,2,0c1.5,0,2.6,1.7,2.5,3.8
					c-0.6,11.9,0,23.9,2.5,35.7c0.5,2.1-1.3,3.8-4.1,3.8c-1.2,0-2.5,0-3.7,0C412.7,371.2,410.9,369.5,411.4,367.3z"/>
				<path class="st6" d="M411.4,367.3c2.5-11.9,3.1-23.9,2.5-35.7c-0.1-2.1,1-3.8,2.5-3.8c0.7,0,1.3,0,2,0c1.5,0,2.6,1.7,2.5,3.8
					c-0.6,11.9,0,23.9,2.5,35.7c0.5,2.1-1.3,3.8-4.1,3.8c-1.2,0-2.5,0-3.7,0C412.7,371.2,410.9,369.5,411.4,367.3z"/>
			</g>
		</g>
	</g>
	<g>
		<polygon class="st24" points="506.1,333.2 495.4,333.2 494.1,315.3 507.4,315.3 		"/>
		<path class="st2" d="M507.5,315.3H494c-1,0-1.9-0.8-1.9-1.9v0c0-1,0.8-1.9,1.9-1.9h13.4c1,0,1.9,0.8,1.9,1.9v0
			C509.3,314.4,508.5,315.3,507.5,315.3z"/>
	</g>
	<path class="st24" d="M176.3,322.8h-16v2.4c0,4.4,3.6,8,8,8h0c4.4,0,8-3.6,8-8V322.8z"/>
	<path class="st25" d="M177.3,322.8c2.2,0,4,1.8,4,4"/>
</g>
</svg>
