<?xml version="1.0" encoding="utf-8"?>
<!-- Generator: Adobe Illustrator 24.1.3, SVG Export Plug-In . SVG Version: 6.00 Build 0)  -->
<svg version="1.1" id="Layer_1" xmlns="http://www.w3.org/2000/svg" xmlns:xlink="http://www.w3.org/1999/xlink" x="0px" y="0px"
	 viewBox="0 0 90 90" style="enable-background:new 0 0 90 90;" xml:space="preserve">
<style type="text/css">
	.st0{fill:#404041;}
	.st1{fill:#326CE5;}
</style>
<g>
	<g>
		<path class="st0" d="M45,80c-0.28,0-0.57-0.06-0.83-0.18c-1.14-0.52-27.92-12.99-28-29.98l-2-29.96c-0.04-0.55,0.16-1.1,0.54-1.5
			c0.38-0.4,0.91-0.63,1.46-0.63c3.38,0,7.74-2.79,7.74-5.74c0-1.1,0.9-2,2-2h38.17c1.1,0,2,0.9,2,2c0,2.96,4.36,5.74,7.75,5.74
			c0.55,0,1.08,0.23,1.46,0.63c0.38,0.4,0.57,0.95,0.54,1.5l-2,29.96c-0.07,16.99-26.85,29.45-28,29.98C45.57,79.94,45.28,80,45,80z
			 M18.3,21.54l1.87,28.1c0,0.04,0,0.09,0,0.13c0,12.96,20.41,23.81,24.83,26.01c4.42-2.19,24.83-13.04,24.83-26.01
			c0-0.04,0-0.09,0-0.13l1.87-28.1c-4.13-0.78-8.24-3.71-9.34-7.54H27.63C26.54,17.83,22.43,20.76,18.3,21.54z"/>
	</g>
	<g>
		<polygon class="st1" points="41.8,54.95 31.24,44.39 34.07,41.56 41.8,49.29 58.55,32.55 61.38,35.38 		"/>
	</g>
</g>
</svg>
