<?xml version="1.0" encoding="utf-8"?>
<!-- Generator: Adobe Illustrator 24.0.0, SVG Export Plug-In . SVG Version: 6.00 Build 0)  -->
<svg version="1.1" id="Layer_1" xmlns="http://www.w3.org/2000/svg" xmlns:xlink="http://www.w3.org/1999/xlink" x="0px" y="0px"
	 viewBox="0 0 162.1 104.2" style="enable-background:new 0 0 162.1 104.2;" xml:space="preserve">
<style type="text/css">
	.st0{fill-rule:evenodd;clip-rule:evenodd;fill:#E6E7E8;stroke:#404041;stroke-width:0.4593;stroke-miterlimit:10;}
	.st1{fill:#F2F3F3;}
	.st2{fill:#E6E7E8;stroke:#404041;stroke-width:0.4593;stroke-miterlimit:10;}
	.st3{fill:#FFFFFF;stroke:#404041;stroke-width:0.4593;stroke-miterlimit:10;}
	.st4{fill:#E6E7E8;}
	.st5{fill:#FFE1B3;}
	.st6{fill:#8EC2EA;}
	.st7{fill:#FFE1B3;stroke:#404041;stroke-width:0.4293;stroke-miterlimit:10;}
	.st8{fill:#FFE1B3;stroke:#404041;stroke-width:0.4593;stroke-miterlimit:10;}
	.st9{fill:#8EC2EA;stroke:#404041;stroke-width:0.4593;stroke-miterlimit:10;}
	.st10{fill:#1E86D5;stroke:#404041;stroke-width:0.4593;stroke-miterlimit:10;}
	.st11{fill:#8EC2EA;stroke:#404041;stroke-width:0.4593;stroke-linejoin:round;stroke-miterlimit:10;}
	.st12{fill:#1E86D5;stroke:#404041;stroke-width:0.4593;stroke-linejoin:round;stroke-miterlimit:10;}
	.st13{fill:#FFFFFF;}
	.st14{fill:none;stroke:#404041;stroke-width:0.4593;stroke-miterlimit:10;}
	.st15{fill-rule:evenodd;clip-rule:evenodd;fill:#E6E7E8;}
	.st16{fill:#404041;}
	.st17{fill:none;stroke:#404041;stroke-width:0.4593;stroke-linejoin:round;stroke-miterlimit:10;}
	
		.st18{fill-rule:evenodd;clip-rule:evenodd;fill:#FFE1B3;stroke:#404041;stroke-width:0.4593;stroke-linejoin:round;stroke-miterlimit:10;}
	
		.st19{fill-rule:evenodd;clip-rule:evenodd;fill:#E6E7E8;stroke:#404041;stroke-width:0.4593;stroke-linejoin:round;stroke-miterlimit:10;}
	
		.st20{fill-rule:evenodd;clip-rule:evenodd;fill:#1E86D5;stroke:#404041;stroke-width:0.4593;stroke-linejoin:round;stroke-miterlimit:10;}
	
		.st21{fill-rule:evenodd;clip-rule:evenodd;fill:#1E86D5;stroke:#404041;stroke-width:0.4593;stroke-linejoin:round;stroke-miterlimit:10.0002;}
	.st22{fill-rule:evenodd;clip-rule:evenodd;fill:#BBBDBF;}
	.st23{fill:none;stroke:#F2F3F3;stroke-width:0.4593;stroke-miterlimit:10;}
</style>
<g id="Layer_3">
	<g>
		<polygon class="st0" points="43.67,102.33 48.71,77.32 45.87,76.79 42.5,102.33 		"/>
		<g>
			<path class="st1" d="M110.81,102.32c1.53-2.76,2.4-5.94,2.4-9.31c0-10.65-8.63-19.28-19.28-19.28s-19.28,8.63-19.28,19.28
				c0,3.38,0.87,6.55,2.4,9.31L110.81,102.32L110.81,102.32z"/>
			<circle class="st1" cx="61.87" cy="63.06" r="14.33"/>
			<circle class="st1" cx="86.52" cy="50.56" r="6.62"/>
			<circle class="st1" cx="18.43" cy="45.56" r="6.62"/>
			<circle class="st1" cx="118.85" cy="83.49" r="12.27"/>
			<circle class="st1" cx="117.8" cy="79.58" r="3.03"/>
		</g>
		<g>
			<rect x="21.33" y="28.65" class="st2" width="45.47" height="31.07"/>
			<rect x="21.33" y="28.65" class="st3" width="45.47" height="29.26"/>
			<rect x="24.42" y="31.6" class="st4" width="4.79" height="4.79"/>
			
				<rect x="34.65" y="31.73" transform="matrix(0.0549 -0.9985 0.9985 0.0549 0.9415 69.1134)" class="st5" width="4.66" height="4.66"/>
			<rect x="28.49" y="35.73" class="st4" width="4.94" height="4.94"/>
			<rect x="52.83" y="31.23" class="st4" width="11" height="14.82"/>
			<rect x="42.31" y="48.22" class="st6" width="4.67" height="4.67"/>
			<rect x="55.58" y="48.22" class="st6" width="4.67" height="4.67"/>
			
				<rect x="48.71" y="50.68" transform="matrix(0.1679 -0.9858 0.9858 0.1679 -9.7867 94.429)" class="st6" width="4.67" height="4.67"/>
			
				<rect x="24.42" y="43.51" transform="matrix(0.9969 -0.0792 0.0792 0.9969 -3.5623 2.2798)" class="st5" width="5.09" height="5.09"/>
			<rect x="34.64" y="48.22" class="st5" width="4.67" height="4.67"/>
			<rect x="46.83" y="31.23" class="st5" width="4.72" height="4.72"/>
			
				<rect x="41.02" y="36.28" transform="matrix(0.9832 -0.1827 0.1827 0.9832 -6.3296 8.5746)" class="st5" width="4.72" height="4.72"/>
		</g>
		<g>
			<path class="st7" d="M96.32,63.04c-0.16-0.17-0.38-0.23-0.59-0.32c-0.13-0.05-0.29-0.1-0.37-0.22c-0.1-0.16,0.02-0.31,0.12-0.44
				c0.05-0.06,0.09-0.11,0.11-0.18c0.04-0.14-0.03-0.24-0.18-0.23c-0.43,0.04-0.74,0.34-1.11,0.52c-0.22,0.11-0.42,0.14-0.67,0.13
				c-0.28-0.01-0.56-0.07-0.83-0.14c-0.32-0.09-0.65-0.19-0.96-0.32c-0.05,0.16-0.11,0.34-0.21,0.48c-0.04,0.06-0.25,0.18-0.17,0.27
				c0.02,0.02,0.05,0.03,0.08,0.04c0.27,0.08,0.53,0.16,0.81,0.21c0.42,0.08,0.85,0.12,1.27,0.22c0.43,0.1,0.85,0.22,1.26,0.37
				c0.12,0.04,0.25,0.08,0.37,0.12c0.2,0.06,0.41,0.11,0.62,0.12c0.18,0.01,0.38-0.01,0.49-0.17
				C96.47,63.36,96.43,63.16,96.32,63.04z"/>
			<path class="st8" d="M85.87,93.88l3.02,5.96c0,0,0.83-0.42,0.86-0.5c0.03-0.09-2.31-6.4-2.31-6.4L85.87,93.88z"/>
			<polygon class="st9" points="88.86,99.66 89.42,101.97 92.81,101.97 90.54,100.43 89.71,99.17 			"/>
			<path class="st8" d="M74.97,94.33l1.23,5.94c0,0,0.85,0.07,0.82,0c-0.02-0.07-0.29-6.08-0.29-6.08L74.97,94.33z"/>
			<polygon class="st9" points="77.46,102.32 72.22,102.32 75.74,101.05 76.14,99.98 77.02,99.98 			"/>
			<path class="st10" d="M80.57,64.6l1.31,3.54c1.45,3.9,2.33,8,2.61,12.15l0,0c0.23,3.43,0.99,6.8,2.25,10l1.18,3l-2.13,1.13
				l-3.97-9.07l-4.2-9.27c-0.11-0.23-0.45-0.19-0.49,0.07l-0.89,6.11c-0.27,1.84-0.14,3.72,0.37,5.51l0.05,0.19
				c0.27,0.95,0.4,1.92,0.39,2.91l-0.03,4.18l-2.29-0.06l-3.06-16.29c-0.45-2.22-0.55-4.5-0.29-6.75l0.77-6.79L80.57,64.6z"/>
			<path class="st8" d="M74.06,48.48c-0.22,0.1-0.47,0.18-0.62,0.37c-0.19,0.24-0.17,0.58-0.14,0.89c0.05,0.48,0.11,0.99,0.4,1.38
				c0.23,0.31,0.58,0.52,0.95,0.63c0.37,0.11,0.76,0.14,1.15,0.13c0.94,0,1.89-0.15,2.73-0.57c0.84-0.42,1.55-1.14,1.83-2.04
				c0.1-0.32,0.13-0.68-0.06-0.96c-0.17-0.24-0.47-0.34-0.74-0.44c-0.42-0.17-0.84-0.39-1.15-0.72c-0.31-0.34-0.5-0.8-0.43-1.25
				c-0.03,0.16-1.01,0.23-1.15,0.24c-0.2,0.01-0.41,0-0.62-0.03c-0.13-0.02-0.36-0.12-0.48-0.05c-0.22,0.11-0.19,0.62-0.26,0.83
				c-0.1,0.33-0.27,0.63-0.48,0.9C74.73,48.07,74.42,48.32,74.06,48.48z"/>
			<path class="st11" d="M80.22,48.1c0,0-3.11,5.02-6.71,0.62c-0.03,0.06-4.01,1.73-6.21,2.65c-0.84,0.35-1.8,0.07-2.33-0.67
				l-4.88-6.91l-0.93,0.71l4.45,8.39c0.35,0.66,1.04,1.06,1.79,1.03l5.32-0.22l1.16,4.28c0.2,0.76,0.28,1.55,0.21,2.33l-0.48,5.53
				l9.73-0.89l-1.31-2.97c-0.78-1.76-0.76-3.76,0.04-5.51l1.01-2.19L83.17,59c0.22,0.48,0.59,0.87,1.07,1.1l7.66,2.83l0.45-1.05
				L86,58.43c-0.6-0.31-1.03-0.88-1.17-1.55C84.37,54.55,83,49.07,80.22,48.1z"/>
			<path class="st12" d="M73.58,40.38c-0.56,0.51-0.68,1.49-0.71,2.19c-0.04,0.89,0.13,1.79,0.5,2.6c0.13,0.29,0.3,0.59,0.58,0.75
				c0.23,0.13,0.5,0.16,0.76,0.13c0.67-0.07,1.28-0.5,1.66-1.06c0.38-0.56,0.55-1.24,0.57-1.92c0.02-0.63-0.08-1.28-0.42-1.81
				c-0.52-0.84-1.98-1.63-2.87-0.93C73.63,40.34,73.6,40.36,73.58,40.38z"/>
			<ellipse class="st8" cx="76.69" cy="43.5" rx="2.88" ry="4.03"/>
			<path class="st12" d="M80.9,41.1c-0.28-0.78-0.75-1.48-1.38-2.02c-0.67-0.57-1.49-0.74-2.34-0.81c-0.73-0.06-1.46-0.07-2.19-0.06
				c-0.62,0.01-1.38-0.08-1.96,0.19c-0.48,0.22-0.91,0.67-0.88,1.23c0.03,0.41,0.29,0.76,0.56,1.06c1.72,1.87,4.49,2.72,6.97,2.15
				c0.31,0.46,0.08,1.09-0.21,1.56c-0.29,0.47-0.67,0.95-0.66,1.5c0.01,0.56,0.44,1.04,0.93,1.31c0.49,0.27,1.09,0.41,1.41,0.86
				c0.25,0.34,0.28,0.79,0.29,1.21c0.01,1.27-0.18,2.54-0.57,3.74c0.74-1.46,2.16-2.64,2.33-4.27c0.08-0.79-0.14-1.57-0.45-2.3
				c-0.31-0.73-0.7-1.42-0.97-2.16C81.41,43.25,81.27,42.14,80.9,41.1z"/>
			<path class="st8" d="M60.21,41.95c0-0.11,0-0.23-0.08-0.29c-0.14-0.1-0.33,0.07-0.39,0.23c-0.06,0.17-0.11,0.37-0.28,0.42
				c-0.16-0.19-0.24-0.43-0.32-0.66c-0.08-0.23-0.17-0.47-0.33-0.65c-0.22-0.24-0.56-0.26-0.68,0.09c-0.04,0.13-0.04,0.26-0.03,0.39
				c0.03,0.48,0.09,0.96,0.18,1.43c0.09,0.45,0.14,0.83,0.49,1.16c0.19,0.18,0.41,0.34,0.55,0.56c0.01,0.01,0.73-0.8,0.77-0.92
				C60.27,43.18,60.19,42.5,60.21,41.95z"/>
		</g>
		<g>
			<g>
				<rect x="84.81" y="70.34" class="st6" width="3.5" height="5.2"/>
				<polygon class="st5" points="87.98,69.54 85.13,69.54 84.81,70.34 88.31,70.34 				"/>
				<polygon class="st5" points="87.98,76.34 85.13,76.34 84.81,75.54 88.31,75.54 				"/>
				<polygon class="st13" points="87.08,71.52 85.62,73.22 86.48,73.22 86.13,74.36 87.49,72.68 86.65,72.68 				"/>
			</g>
			<polygon class="st14" points="87.98,69.54 85.13,69.54 84.81,70.34 84.81,75.54 85.13,76.34 87.98,76.34 88.31,75.54 
				88.31,70.34 			"/>
		</g>
		<g>
			<path class="st15" d="M120.57,71.04c0.45-0.07,0.9-0.14,1.36-0.22c0.78,4.9,0.78,9.9,0,14.8c-0.45-0.07-0.9-0.14-1.36-0.22
				C121.32,80.65,121.32,75.8,120.57,71.04z"/>
			<path class="st14" d="M120.57,71.04c0.45-0.07,0.9-0.14,1.36-0.22c0.78,4.9,0.78,9.9,0,14.8c-0.45-0.07-0.9-0.14-1.36-0.22
				C121.32,80.65,121.32,75.8,120.57,71.04z"/>
		</g>
		<g>
			<path class="st8" d="M22.32,73.85l0.62,0.58c0.65,0.6,1.68,0.49,2.19-0.24c0.72-1.04,1.46-2.11,2.19-3.17
				c0.72-1.05,1.38-2.18,2.23-3.13c0.33-0.37,0.65-0.73,0.99-1.09c0.24-0.25,0.5-0.49,0.7-0.78c0.17-0.24,0.43-0.72,0.2-1
				c-0.08-0.1-0.24-0.14-0.37-0.11c-0.13,0.03-0.25,0.1-0.37,0.17c-0.23,0.15-0.46,0.31-0.68,0.48c-0.14,0.11-0.35,0.31-0.52,0.11
				c-0.08-0.09-0.06-0.22-0.05-0.33c0.01-0.11-0.03-0.26-0.14-0.29c-0.12-0.03-0.21,0.1-0.27,0.21c-0.18,0.38-0.29,0.79-0.31,1.21
				c-0.01,0.18,0.03,0.34-0.07,0.49c-0.11,0.18-0.25,0.32-0.39,0.48c-0.44,0.53-0.89,1.05-1.35,1.57c-0.92,1.03-1.86,2.05-2.76,3.09
				c-0.17,0.2-0.47,0.22-0.66,0.05c-0.23-0.2-0.58-0.13-0.72,0.13l-0.54,0.99C22.13,73.47,22.16,73.7,22.32,73.85z"/>
			<path class="st8" d="M37.2,100.54l-2.11-18.65l-10.91,4.36l6.85,0.87c0.9,0.11,1.63,0.76,1.86,1.64l3.05,11.79L37.2,100.54
				L37.2,100.54z"/>
			<path class="st8" d="M41.54,93.08l-1.45,1.1l-5.81-9.26c-0.59-0.93-1.8-1.25-2.77-0.72l-3.03,1.66l0.57-6.32l3.91-0.38
				c1.04-0.1,2.03,0.45,2.49,1.39L41.54,93.08z"/>
			<path class="st9" d="M40.41,102.33h-4.47v-1.79h2.71c0.97,0,1.76,0.79,1.76,1.76L40.41,102.33L40.41,102.33z"/>
			<path class="st9" d="M44.72,92.9l-3.6,2.72l-1.03-1.44l2.2-1.66C43.07,91.93,44.16,92.1,44.72,92.9L44.72,92.9z"/>
			<path class="st10" d="M15.7,83.42c0.74,1.26,1.92,2.24,3.28,2.76c1.26,0.48,2.9,0.51,4.24,0.56c1.94,0.08,3.88-0.03,5.81-0.23
				c0,0,0.85-7.5,0.76-7.5c-0.09,0.01-9.94,1.07-9.94,1.07"/>
			<path class="st11" d="M15.14,66.72c-1.13,0.36-2.17,1.07-2.74,2.11c-0.46,0.82-0.24,1.69-0.04,2.56
				c0.55,2.42,1.12,4.84,1.68,7.26c0.2,0.87,0.71,5.86,1.98,5.42c0.55-0.19,1.1-0.68,1.6-0.98c1.36-0.83,2.7-1.9,3.45-3.34
				c0.14,0.27-1.21-4.64,0-7.33c-0.07,0.14,0.74,1.68,0.74,1.68s1.55-2.15,1.55-2.15c0.08-0.11-0.85-1.29-0.92-1.39
				c-0.72-0.99-1.54-1.94-2.49-2.72c-0.92-0.75-2.05-1.42-3.27-1.38C16.16,66.48,15.64,66.56,15.14,66.72z"/>
			<path class="st14" d="M12.72,79.02h10.84c1.07,0,2.03,0.71,2.39,1.76l1.92,5.64"/>
			<path class="st8" d="M17.27,64.44c0.18-0.24,0.58-0.45,0.74-0.64c0.69-0.82,0.92-1.96,0.85-3.01c-0.13-2.02-1.39-3.58-2.8-3.49
				c-1.42,0.09-2.46,1.81-2.33,3.82c0.05,0.82,0.29,1.86,0.9,2.45c0.41,0.4,0.69,0.97,0.63,1.55c-0.06,0.57-0.58,0.99-0.58,1.58
				c0,0.69,0.71,1.08,1.27,1.3c0.64,0.25,1.49,0.25,1.94-0.34c0.37-0.48,0.28-1.09,0.05-1.6c-0.19-0.42-0.8-0.93-0.77-1.42
				C17.18,64.58,17.21,64.51,17.27,64.44z"/>
			<path class="st12" d="M10.51,56.25c-0.2,0.2-0.35,0.46-0.42,0.73c-0.31,1.12,0.57,2.14,1.72,1.93c-0.61,0.11,0.38,3.19,0.5,3.48
				c0.37,0.87,1.57,2.57,2.7,1.78c0.3-0.21,0.42-0.6,0.5-0.96c0.22-0.96,0.36-1.94,0.42-2.92c1.34,0.4,2.77,0.47,4.14,0.2
				c0.16-1.74-0.82-3.53-2.37-4.33c-0.83-0.43-1.74-0.51-2.65-0.36c-0.78,0.13-1.64,0.12-1.96,1.02c-0.06-0.37-0.3-0.71-0.62-0.9
				C11.84,55.56,10.99,55.75,10.51,56.25z"/>
			<path class="st8" d="M14.53,75.69c0.23,0.78,0.96,1.49,1.78,1.59c0.64,0.08,1.3,0.05,1.94,0.07c1.67,0.05,3.35,0.08,5.02,0.27
				c0.68,0.08,1.38,0.18,1.97,0.52c0.17,0.09,0.33,0.21,0.42,0.38c0.11,0.19,0.17,0.44,0.02,0.62c-0.14,0.16-0.36,0.25-0.57,0.26
				c-0.52,0.03-1-0.27-1.5-0.35c-0.73-0.12-1.45-0.05-2.18-0.01c-2.14,0.12-4.28,0.16-6.42,0.2c-0.43,0.01-0.87-0.03-1.26-0.23
				c-0.38-0.19-0.58-0.64-0.76-1.01c-0.2-0.42-0.4-0.85-0.6-1.27"/>
			<path class="st11" d="M12.79,68.25c-0.82,0.99-1.05,2.25-1.12,3.49c-0.09,1.59-0.1,3.19,0.25,4.75c0.16,0.7,0.66,0.72,1.24,0.46
				c0.68-0.3,1.93-0.74,1.68-1.71c-0.06-0.22-0.17-0.42-0.26-0.64c-0.39-0.9-0.29-1.91,0.15-2.78"/>
		</g>
		<g>
			<path class="st14" d="M29.9,102.33c-2.51-2.77-6.14-4.51-10.17-4.51s-7.66,1.74-10.17,4.51"/>
			<line class="st14" x1="19.72" y1="102.12" x2="19.72" y2="88"/>
			<ellipse class="st16" cx="19.72" cy="88.18" rx="3.83" ry="1.29"/>
			<g>
				<path class="st2" d="M29.28,89.94c-0.2,0-0.4-0.04-0.59-0.13c-5.04-2.31-11.08-2.37-16.17-0.15c-0.52,0.23-1.13,0.12-1.55-0.27
					c-0.42-0.39-0.56-1-0.36-1.53c1.14-3.06-0.12-6.7-1.5-9.85l-0.3-0.67c-1.45-3.29-3.1-7.02-2.57-10.91
					c0.11-0.78,0.82-1.33,1.61-1.22c0.78,0.11,1.33,0.82,1.22,1.61c-0.42,3.1,0.99,6.29,2.36,9.38l0.3,0.68
					c1.25,2.86,2.41,6.09,2.16,9.27c5.23-1.56,11.04-1.19,16,1.09c0.72,0.33,1.03,1.18,0.7,1.89
					C30.33,89.63,29.82,89.94,29.28,89.94z"/>
			</g>
		</g>
		<g>
			<path class="st14" d="M69.19,102.33c-2.02-2.23-4.94-3.63-8.19-3.63c-3.25,0-6.17,1.4-8.19,3.63"/>
			<line class="st14" x1="60.99" y1="102.16" x2="60.99" y2="90.79"/>
			<ellipse class="st16" cx="60.99" cy="90.94" rx="3.08" ry="1.04"/>
			<g>
				<path class="st2" d="M68.69,92.35c-0.16,0-0.32-0.03-0.48-0.11c-4.06-1.86-8.93-1.91-13.02-0.12c-0.42,0.18-0.91,0.1-1.25-0.22
					s-0.45-0.8-0.29-1.24c0.92-2.47-0.1-5.39-1.21-7.93L52.2,82.2c-1.17-2.65-2.5-5.65-2.07-8.79c0.08-0.63,0.66-1.07,1.29-0.98
					c0.63,0.08,1.07,0.66,0.98,1.29c-0.34,2.49,0.8,5.07,1.9,7.55l0.24,0.54c1.01,2.3,1.94,4.91,1.74,7.47
					c4.21-1.25,8.89-0.96,12.88,0.87c0.58,0.26,0.83,0.95,0.56,1.52C69.54,92.1,69.12,92.35,68.69,92.35z"/>
			</g>
		</g>
		<polygon class="st0" points="36.86,102.33 41.9,77.32 39.06,76.79 35.69,102.33 		"/>
		<polygon class="st0" points="105.1,102.33 101.74,76.79 98.9,77.32 103.93,102.33 		"/>
		<line class="st14" x1="0.29" y1="102.33" x2="157.37" y2="102.33"/>
		<g>
			<g>
				<g>
					<line class="st14" x1="148.65" y1="19.49" x2="149.8" y2="19.49"/>
					<line class="st14" x1="150.59" y1="19.49" x2="151.74" y2="19.49"/>
				</g>
			</g>
			<g>
				<g>
					<line class="st14" x1="149.43" y1="20.82" x2="150" y2="19.83"/>
					<line class="st14" x1="150.39" y1="19.15" x2="150.97" y2="18.15"/>
				</g>
			</g>
			<g>
				<g>
					<line class="st14" x1="150.97" y1="20.82" x2="150.39" y2="19.83"/>
					<line class="st14" x1="150" y1="19.15" x2="149.43" y2="18.15"/>
				</g>
			</g>
		</g>
		<g>
			<g>
				<g>
					<line class="st14" x1="116.26" y1="53.01" x2="117.41" y2="53.01"/>
					<line class="st14" x1="118.2" y1="53.01" x2="119.34" y2="53.01"/>
				</g>
			</g>
			<g>
				<g>
					<line class="st14" x1="117.03" y1="54.34" x2="117.61" y2="53.35"/>
					<line class="st14" x1="118" y1="52.67" x2="118.57" y2="51.67"/>
				</g>
			</g>
			<g>
				<g>
					<line class="st14" x1="118.57" y1="54.34" x2="118" y2="53.35"/>
					<line class="st14" x1="117.61" y1="52.67" x2="117.03" y2="51.67"/>
				</g>
			</g>
		</g>
		<g>
			<circle class="st14" cx="160" cy="90.79" r="0.87"/>
		</g>
		<circle class="st1" cx="160" cy="80.11" r="0.84"/>
		<circle class="st1" cx="45.61" cy="14.55" r="0.84"/>
		<circle class="st4" cx="133.97" cy="12.52" r="0.84"/>
		<g>
			<line class="st14" x1="4.12" y1="7.62" x2="6.14" y2="7.62"/>
			<line class="st14" x1="5.13" y1="8.63" x2="5.13" y2="6.61"/>
		</g>
		<rect x="102.43" y="37.11" class="st14" width="2.18" height="2.18"/>
		<g>
			<path class="st1" d="M155.15,45.39c-0.01,0-0.03,0-0.04,0c-0.03,0-0.05,0.01-0.07,0.02c-0.09,0.05-0.14,0.16-0.09,0.25l0,0
				l0.44,1.07c0.42-0.27,0.75-0.68,0.91-1.15L155.15,45.39L155.15,45.39z M153.38,45.54c-0.02-0.09-0.1-0.15-0.19-0.15
				c-0.01,0-0.03,0-0.04,0l0,0l-1.13,0.19c0.17,0.47,0.49,0.87,0.91,1.14l0.44-1.06l0,0C153.38,45.62,153.38,45.58,153.38,45.54z
				 M154.32,45.96c-0.05-0.09-0.17-0.13-0.26-0.08c-0.03,0.02-0.06,0.05-0.08,0.08l0,0l-0.56,1.01c0.4,0.14,0.83,0.16,1.24,0.06
				c0.08-0.02,0.15-0.04,0.22-0.06L154.32,45.96L154.32,45.96z M156.09,43.62l-0.86,0.77v0c-0.08,0.07-0.09,0.19-0.02,0.27
				c0.03,0.03,0.06,0.05,0.09,0.06v0l1.11,0.32C156.46,44.55,156.35,44.05,156.09,43.62L156.09,43.62z M154.49,43.71
				c0,0.11,0.1,0.19,0.2,0.18c0.04,0,0.07-0.01,0.11-0.04l0,0l0.94-0.66c-0.36-0.35-0.82-0.57-1.31-0.63L154.49,43.71L154.49,43.71z
				 M153.5,43.86c0.09,0.06,0.21,0.04,0.27-0.04c0.02-0.03,0.03-0.07,0.04-0.11l0,0l0.06-1.15c-0.08,0.01-0.16,0.02-0.23,0.04
				c-0.41,0.09-0.79,0.3-1.09,0.59L153.5,43.86L153.5,43.86z M153,44.73c0.1-0.03,0.16-0.13,0.14-0.24
				c-0.01-0.04-0.03-0.07-0.06-0.09v0l-0.86-0.77c-0.26,0.43-0.37,0.93-0.32,1.43L153,44.73L153,44.73z M153.84,45.06l0.32,0.15
				l0.32-0.15l0.08-0.34l-0.22-0.27h-0.35l-0.22,0.27L153.84,45.06z"/>
			<path class="st1" d="M159.4,45.74l-0.9-3.93c-0.05-0.21-0.19-0.38-0.38-0.47l-3.66-1.75c-0.19-0.09-0.42-0.09-0.61,0l-3.66,1.75
				c-0.19,0.09-0.33,0.26-0.38,0.47l-0.9,3.93c-0.02,0.1-0.02,0.2,0,0.3c0.01,0.03,0.02,0.06,0.03,0.09
				c0.02,0.05,0.04,0.1,0.07,0.14c0.01,0.02,0.03,0.04,0.04,0.06l2.54,3.15c0.01,0.01,0.02,0.03,0.03,0.04
				c0.04,0.04,0.08,0.08,0.13,0.11c0.06,0.04,0.13,0.07,0.2,0.09c0.06,0.02,0.12,0.03,0.18,0.03h0.04h4.03c0.03,0,0.05,0,0.07,0
				c0.03,0,0.07-0.01,0.1-0.02c0.03-0.01,0.05-0.01,0.07-0.02c0.02-0.01,0.04-0.01,0.06-0.02c0.03-0.01,0.05-0.03,0.08-0.04
				c0.06-0.04,0.12-0.09,0.17-0.15l0.08-0.1l2.46-3.06c0.05-0.06,0.08-0.13,0.11-0.2c0.01-0.03,0.02-0.06,0.03-0.09
				C159.42,45.94,159.42,45.84,159.4,45.74L159.4,45.74z M155.6,47.27c0.01,0.03,0.02,0.06,0.04,0.09
				c-0.02,0.04-0.03,0.08-0.02,0.13c0.05,0.12,0.12,0.24,0.2,0.35c0.04,0.06,0.08,0.11,0.12,0.17c0.01,0.02,0.02,0.04,0.03,0.06
				c0.06,0.1,0.03,0.24-0.08,0.3s-0.24,0.03-0.3-0.08c-0.01-0.01-0.01-0.03-0.02-0.04c-0.01-0.02-0.02-0.04-0.03-0.06
				c-0.03-0.07-0.05-0.13-0.06-0.2c-0.04-0.13-0.09-0.25-0.15-0.37c-0.03-0.04-0.07-0.06-0.11-0.07c-0.01-0.01-0.03-0.06-0.05-0.08
				c-0.65,0.25-1.37,0.25-2.02,0l-0.05,0.09c-0.03,0-0.07,0.02-0.09,0.05c-0.08,0.12-0.13,0.25-0.17,0.39
				c-0.02,0.07-0.04,0.14-0.06,0.2c-0.01,0.02-0.02,0.04-0.03,0.06l0,0l0,0c-0.04,0.11-0.17,0.17-0.28,0.13s-0.17-0.17-0.13-0.28
				c0-0.01,0.01-0.03,0.02-0.04c0.01-0.02,0.02-0.04,0.03-0.06c0.04-0.06,0.08-0.12,0.12-0.17c0.08-0.11,0.14-0.23,0.2-0.36
				c0.01-0.04,0-0.08-0.02-0.12l0.04-0.1c-0.6-0.35-1.05-0.92-1.26-1.58l-0.1,0.02c-0.04-0.03-0.08-0.04-0.13-0.04
				c-0.13,0.03-0.26,0.06-0.38,0.11c-0.06,0.03-0.13,0.05-0.2,0.08c-0.02,0-0.04,0.01-0.06,0.01c0,0,0,0,0,0h0
				c-0.11,0.04-0.24-0.03-0.28-0.14c-0.04-0.11,0.03-0.24,0.14-0.28c0.01,0,0.03-0.01,0.04-0.01h0h0c0.02,0,0.04-0.01,0.06-0.01
				c0.07-0.01,0.14-0.02,0.21-0.02c0.13-0.01,0.26-0.03,0.39-0.06c0.04-0.03,0.07-0.06,0.09-0.09l0.09-0.03
				c-0.1-0.69,0.06-1.4,0.45-1.98l-0.07-0.06c0-0.05-0.02-0.09-0.04-0.13c-0.1-0.09-0.21-0.16-0.33-0.23
				c-0.06-0.03-0.12-0.07-0.18-0.11c-0.01-0.01-0.03-0.03-0.05-0.04l0,0c-0.1-0.07-0.13-0.22-0.05-0.32
				c0.04-0.05,0.11-0.08,0.17-0.08c0.06,0,0.11,0.02,0.15,0.06c0.01,0.01,0.03,0.03,0.05,0.04c0.05,0.05,0.1,0.1,0.14,0.15
				c0.09,0.1,0.19,0.19,0.3,0.27c0.04,0.02,0.09,0.03,0.13,0.01c0.03,0.02,0.05,0.04,0.08,0.06c0.39-0.41,0.88-0.69,1.43-0.82
				c0.13-0.03,0.26-0.05,0.4-0.06l0-0.09c0.03-0.03,0.06-0.07,0.07-0.11c0-0.13,0-0.27-0.03-0.4c-0.01-0.07-0.02-0.14-0.03-0.21
				c0-0.02,0-0.04,0-0.06c0,0,0,0,0-0.01c-0.01-0.12,0.08-0.23,0.2-0.24c0.12-0.01,0.23,0.08,0.24,0.2c0,0.01,0,0.03,0,0.04
				c0,0.02,0,0.04,0,0.06c-0.01,0.07-0.02,0.14-0.03,0.21c-0.02,0.13-0.03,0.26-0.03,0.4c0.01,0.04,0.03,0.08,0.07,0.11
				c0,0.02,0,0.07,0,0.1c0.69,0.06,1.34,0.37,1.82,0.88l0.08-0.06c0.05,0.01,0.09,0,0.13-0.01c0.11-0.08,0.21-0.17,0.3-0.27
				c0.05-0.05,0.09-0.11,0.14-0.15c0.01-0.01,0.03-0.03,0.05-0.04c0.09-0.08,0.23-0.08,0.31,0c0.08,0.09,0.08,0.23,0,0.31
				c-0.01,0.01-0.02,0.02-0.04,0.03c-0.01,0.01-0.03,0.03-0.05,0.04c-0.06,0.04-0.12,0.07-0.18,0.11c-0.11,0.07-0.23,0.14-0.33,0.23
				c-0.03,0.03-0.04,0.08-0.04,0.12c-0.01,0.01-0.06,0.05-0.08,0.07c0.39,0.58,0.55,1.28,0.46,1.97l0.09,0.03
				c0.02,0.04,0.06,0.07,0.09,0.09c0.13,0.03,0.26,0.06,0.39,0.06c0.07,0,0.14,0.01,0.21,0.02c0.02,0,0.05,0.01,0.06,0.02
				c0.12,0.02,0.2,0.13,0.19,0.25c-0.02,0.12-0.13,0.2-0.25,0.19c-0.01,0-0.03,0-0.04-0.01h0c0,0,0,0,0,0
				c-0.02,0-0.04-0.01-0.06-0.01c-0.07-0.02-0.13-0.05-0.2-0.08c-0.12-0.05-0.25-0.09-0.38-0.11c-0.05,0-0.09,0.01-0.12,0.05
				c-0.03-0.01-0.06-0.01-0.09-0.02C156.66,46.34,156.2,46.91,155.6,47.27L155.6,47.27z"/>
		</g>
		<g>
			<g>
				<g>
					<line class="st14" x1="19.22" y1="13.36" x2="20.37" y2="13.36"/>
					<line class="st14" x1="21.15" y1="13.36" x2="22.3" y2="13.36"/>
				</g>
			</g>
			<g>
				<g>
					<line class="st14" x1="19.99" y1="14.69" x2="20.56" y2="13.7"/>
					<line class="st14" x1="20.96" y1="13.02" x2="21.53" y2="12.03"/>
				</g>
			</g>
			<g>
				<g>
					<line class="st14" x1="21.53" y1="14.69" x2="20.96" y2="13.7"/>
					<line class="st14" x1="20.56" y1="13.02" x2="19.99" y2="12.03"/>
				</g>
			</g>
		</g>
		<g>
			<g>
				<g>
					<line class="st14" x1="0" y1="44.83" x2="1.15" y2="44.83"/>
					<line class="st14" x1="1.94" y1="44.83" x2="3.08" y2="44.83"/>
				</g>
			</g>
			<g>
				<g>
					<line class="st14" x1="0.77" y1="46.17" x2="1.35" y2="45.17"/>
					<line class="st14" x1="1.74" y1="44.49" x2="2.31" y2="43.5"/>
				</g>
			</g>
			<g>
				<g>
					<line class="st14" x1="2.31" y1="46.17" x2="1.74" y2="45.17"/>
					<line class="st14" x1="1.35" y1="44.49" x2="0.77" y2="43.5"/>
				</g>
			</g>
		</g>
		<polygon class="st17" points="1.54,82.3 0.29,84.47 2.79,84.47 		"/>
		<circle class="st14" cx="60.25" cy="10.18" r="0.87"/>
		<circle class="st14" cx="158.02" cy="7.62" r="0.87"/>
		<g>
			<line class="st14" x1="48.18" y1="19.4" x2="50.2" y2="19.4"/>
			<line class="st14" x1="49.19" y1="20.41" x2="49.19" y2="18.39"/>
		</g>
		<g>
			<line class="st14" x1="118.85" y1="12.52" x2="120.87" y2="12.52"/>
			<line class="st14" x1="119.86" y1="13.53" x2="119.86" y2="11.51"/>
		</g>
		<g>
			<line class="st14" x1="160.08" y1="60.3" x2="162.1" y2="60.3"/>
			<line class="st14" x1="161.09" y1="61.3" x2="161.09" y2="59.28"/>
		</g>
		<rect x="7.37" y="23.82" class="st4" width="2.18" height="2.18"/>
		<rect x="128.31" y="53.48" class="st4" width="2.18" height="2.18"/>
		<g>
			<g>
				<polygon class="st18" points="66.11,76.34 62.34,76.34 61.87,71.2 66.57,71.2 				"/>
			</g>
			<g>
				<polygon class="st18" points="66.11,76.34 62.34,76.34 61.87,71.2 66.57,71.2 				"/>
			</g>
			<g>
				<polygon class="st19" points="66.11,69.78 62.34,69.78 61.87,71.2 66.57,71.2 				"/>
			</g>
		</g>
		<g>
			<rect x="39.63" y="75.07" class="st20" width="12.89" height="1.27"/>
			
				<rect x="47.66" y="69.62" transform="matrix(0.3204 -0.9473 0.9473 0.3204 -29.6193 98.888)" class="st21" width="12.89" height="0.94"/>
		</g>
		<g>
			<rect x="65.53" y="63.97" class="st0" width="13.88" height="11.1"/>
			<rect x="65.53" y="75.08" class="st0" width="13.88" height="1.27"/>
		</g>
		<circle class="st22" cx="71.94" cy="70.09" r="0.88"/>
		<path class="st0" d="M137.52,86.26c-0.17,1.17-0.27,2.4-0.27,3.67c0,5.49,1.74,10.22,4.24,12.4h6.18
			c2.51-2.17,4.24-6.91,4.24-12.4c0-1.27-0.09-2.5-0.27-3.67H137.52z"/>
		<path class="st9" d="M140.1,66c0.01-0.38,0-0.76-0.04-1.15c-0.13-1.28-0.54-2.5-0.8-3.76c-0.25-1.26-0.34-2.6,0.16-3.78
			c0.5-1.18,1.74-2.12,3.01-1.94c1.31,0.19,2.23,1.47,2.51,2.77c0.56,2.57-1.14,8.09,2.48,9.12c0.5,0.14,1.04,0.15,1.55,0.23
			c2.47,0.41,2.06,3.38,1.94,5.23c-0.2,3.12-0.56,7.85-3.17,9.99c-3.84,3.15-7.75-0.45-8.97-4.29
			C137.42,74.21,140.02,70.19,140.1,66z"/>
		<line class="st14" x1="144.59" y1="86.26" x2="144.59" y2="67.56"/>
		<path class="st14" d="M144.59,76.09c-1.99,0-3.6-1.61-3.6-3.6"/>
		<path class="st14" d="M144.59,69.63c-1.71,0-3.09-3.57-3.09-7.97"/>
		<path class="st14" d="M148.19,76.09c0,1.99-1.61,3.6-3.6,3.6"/>
		<path class="st14" d="M147.12,69.51c0,1.4-1.13,2.53-2.53,2.53"/>
		<g>
			<g>
				<rect x="42.56" y="70.34" class="st6" width="3.5" height="5.2"/>
				<polygon class="st5" points="45.73,69.54 42.88,69.54 42.56,70.34 46.05,70.34 				"/>
				<polygon class="st5" points="45.73,76.34 42.88,76.34 42.56,75.54 46.05,75.54 				"/>
				<polygon class="st13" points="44.83,71.52 43.37,73.22 44.23,73.22 43.88,74.36 45.24,72.68 44.4,72.68 				"/>
			</g>
			<polygon class="st14" points="45.73,69.54 42.88,69.54 42.56,70.34 42.56,75.54 42.88,76.34 45.73,76.34 46.05,75.54 
				46.05,70.34 			"/>
		</g>
		<path class="st12" d="M104.44,100.48h-1.47L98.3,84.71c-0.48-1.64,0.43-3.36,2.05-3.88c1.53-0.49,3.13-0.74,4.73-0.74h8.36
			c0,0,1.57,2.82-0.91,4.54c-0.75,0.52-1.66,0.77-2.57,0.77c-1.33,0-2.66,0-3.99,0c-0.59,0-1.18,0-1.77,0
			c-0.43,0-0.9-0.04-1.33,0.05c-0.05,0.01-0.09,0.02-0.13,0.05c-0.19,0.12-0.04,0.39,0.03,0.54c0.86,1.79,1.43,3.72,1.67,5.69
			c0.28,2.31,0.14,4.59,0.14,6.91C104.58,98.64,104.44,100.48,104.44,100.48z"/>
		<polyline class="st14" points="120.57,102.32 120.57,86.43 107.85,86.43 107.85,102.32 		"/>
		<polyline class="st14" points="121.95,102.32 121.95,86.43 106.47,86.43 106.47,102.32 		"/>
		<rect x="107.81" y="85.17" class="st0" width="14.14" height="1.27"/>
		<path class="st12" d="M110.32,100.48h-1.47l-4.68-15.77c-0.48-1.64,0.43-3.36,2.05-3.88c1.53-0.49,3.13-0.74,4.73-0.74h8.36
			c0,0,1.57,2.82-0.91,4.54c-0.75,0.52-1.66,0.77-2.57,0.77c-1.33,0-2.66,0-3.99,0c-0.59,0-1.18,0-1.77,0
			c-0.43,0-0.9-0.04-1.33,0.05c-0.05,0.01-0.09,0.02-0.13,0.05c-0.19,0.12-0.04,0.39,0.03,0.54c0.86,1.79,1.43,3.72,1.67,5.69
			c0.28,2.31,0.14,4.59,0.14,6.91L110.32,100.48z"/>
		<g>
			<circle class="st3" cx="133.97" cy="33.92" r="9"/>
			<circle class="st14" cx="133.97" cy="33.92" r="8.05"/>
			<polyline class="st14" points="139.25,31.01 133.97,33.83 130.16,31.48 			"/>
			<circle class="st2" cx="133.97" cy="33.92" r="0.68"/>
			<line class="st14" x1="129.94" y1="26.95" x2="130.6" y2="28.09"/>
			<line class="st14" x1="126.99" y1="29.89" x2="128.14" y2="30.56"/>
			<line class="st14" x1="126.99" y1="37.94" x2="128.14" y2="37.28"/>
			<line class="st14" x1="129.94" y1="40.89" x2="130.6" y2="39.74"/>
			<line class="st14" x1="137.99" y1="40.89" x2="137.33" y2="39.74"/>
			<line class="st14" x1="140.94" y1="37.94" x2="139.79" y2="37.28"/>
			<line class="st14" x1="140.94" y1="29.89" x2="139.79" y2="30.56"/>
			<line class="st14" x1="137.99" y1="26.95" x2="137.33" y2="28.09"/>
			<line class="st14" x1="133.97" y1="25.87" x2="133.97" y2="28.59"/>
			<line class="st14" x1="133.97" y1="41.97" x2="133.97" y2="39.25"/>
			<line class="st14" x1="125.91" y1="33.92" x2="128.64" y2="33.92"/>
			<line class="st14" x1="142.02" y1="33.92" x2="139.3" y2="33.92"/>
		</g>
		<polygon class="st8" points="104.34,100.39 104.37,101.51 102.97,101.21 103.19,100.24 		"/>
		<polygon class="st8" points="110.23,100.39 110.26,101.51 108.87,101.21 109.08,100.24 		"/>
		<path class="st9" d="M104.74,102.33c-0.14-0.01-5.63,0-5.63,0l3.53-1.24l1.91,0.26L104.74,102.33z"/>
		<path class="st9" d="M110.63,102.33c-0.14-0.01-5.63,0-5.63,0l3.53-1.24l1.91,0.26L110.63,102.33z"/>
		<g>
			<path class="st8" d="M96.47,73.18c-0.13-0.02-0.25-0.04-0.37-0.08c-0.17-0.06-0.33-0.12-0.5-0.18c-0.35-0.12-0.72-0.23-1.1-0.23
				c-0.5,0.01-0.99,0.25-1.31,0.64c-0.08,0.1-0.15,0.21-0.17,0.33s0.02,0.26,0.12,0.34c0.13,0.1,0.33,0.05,0.46-0.04
				c0.14-0.09,0.25-0.22,0.4-0.29c0.16-0.08,0.34-0.09,0.51-0.07c0.35,0.04,0.67,0.23,0.99,0.37c0.01,0,0.01,0,0.02,0.01
				c0.29,0.12,0.7,0.24,1.01,0.1c0.13-0.06,0.23-0.27,0.29-0.38c0.02-0.04,0.19-0.46,0.21-0.46c-0.11-0.01-0.23-0.02-0.35-0.04
				C96.62,73.2,96.55,73.19,96.47,73.18z"/>
			<path class="st9" d="M106.43,61.98c-1.12,0.1-2.21,0.59-3.03,1.36c-0.66,0.62-1.15,1.44-1.4,2.31c-0.5,1.75-0.46,3.7-0.73,5.5
				c-0.02,0.1-0.25,1.91-0.33,1.91c0,0-4.39,0-4.39,0v1.23c0,0,3.92,0.84,5.18,1.2c0.03,0,2.88-2.38,3.48-7.07"/>
			<path class="st9" d="M110.02,76.33c0.79,1.12,0.85,2.53,0.31,3.76c0.72,0,1.45,0,2.17,0c1.4,0,2.8,0,4.21,0
				c0.84,0,1.7,0.07,2.54-0.02c0.71-0.07-0.83-4.85-0.97-5.32c-1.12-3.54-2.49-7.26-4.68-10.29c-1.43-1.98-3.56-3.84-6.17-3.58
				c-0.99,0.1-2.67,0.7-3.16,1.68c-0.37,0.73-2.25,8.27,1.99,10.63C107.67,73.98,109.06,74.98,110.02,76.33z"/>
			<path class="st8" d="M99.06,60.32c0.14,0.6,0.45,1.17,0.93,1.55c0.76,0.59,1.82,0.62,2.78,0.54c0.23-0.02,0.47-0.04,0.66,0.08
				c0.47,0.27,0.33,1.08,0.78,1.39c0.2,0.13,0.46,0.13,0.68,0.05c0.22-0.08,0.41-0.24,0.58-0.39c0.48-0.42,0.94-0.94,0.99-1.58
				c0.02-0.2-0.03-0.43-0.19-0.55c-0.13-0.1-0.31-0.11-0.47-0.14c-0.4-0.09-0.74-0.38-0.99-0.71c-0.38-0.51-0.6-1.11-0.86-1.69
				s-0.59-1.16-1.12-1.51c-0.48-0.32-1.07-0.42-1.64-0.36c-0.7,0.08-1.38,0.42-1.83,0.97C98.86,58.6,98.88,59.55,99.06,60.32z"/>
			<path class="st12" d="M98.04,56.65c-0.31,0.05-0.67,0.11-0.8,0.39c-0.12,0.26,0.04,0.56,0.22,0.78c0.22,0.27,0.48,0.51,0.76,0.7
				c0.3,0.2,0.65,0.35,1.02,0.34c0.4-0.02,0.76-0.24,1.13-0.39c0.37-0.15,0.82-0.24,1.15-0.01c0.38,0.27,0.41,0.83,0.29,1.29
				c-0.06,0.21-0.13,0.45,0,0.62c0.1,0.14,0.31,0.18,0.48,0.16c0.18-0.02,0.35-0.08,0.52-0.09c0.55-0.02,0.79,0.38,1.15,0.7
				c0.4,0.36,1.17,0.38,1.66,0.25c0-0.92-0.01-1.85-0.13-2.76c-0.11-0.78-0.29-1.6-0.66-2.3c-0.29-0.56-1.06-1-1.65-1.17
				c-0.87-0.25-1.83-0.04-2.59,0.42C99.77,56.07,99.01,56.5,98.04,56.65z"/>
		</g>
		<polygon class="st0" points="109.82,77.77 106.93,77.77 111.89,102.33 113.06,102.33 		"/>
		<rect x="37.75" y="76.34" class="st0" width="73.24" height="1.43"/>
		<g>
			<rect x="89.89" y="75.08" class="st20" width="12.89" height="1.27"/>
			
				<rect x="87.84" y="63.64" transform="matrix(0.9473 -0.3204 0.3204 0.9473 -17.7993 31.9872)" class="st21" width="0.94" height="12.89"/>
		</g>
		<path class="st8" d="M98.18,71.37c-0.2,0.06-0.41-0.04-0.54-0.2c-0.13-0.15-0.21-0.35-0.29-0.53c-0.23-0.51-0.56-0.99-1.02-1.3
			c-0.47-0.31-1.08-0.42-1.59-0.19c-0.06,0.21,0.1,0.43,0.29,0.54c0.19,0.12,0.41,0.18,0.58,0.31c0.26,0.2,0.39,0.57,0.31,0.89
			c-0.13,0.06-0.29,0.03-0.43-0.01c-0.14-0.04-0.29-0.09-0.43-0.06c-0.14,0.03-0.28,0.15-0.26,0.3c0.02,0.14,0.17,0.21,0.31,0.26
			c0.96,0.37,1.91,0.75,2.86,1.12L98.18,71.37z"/>
		<path class="st9" d="M109.84,66.15c-1.22,6.6-4.48,9.82-4.55,9.78c-2.2-0.2-7.54-3.26-7.54-3.26l0.51-1.49c0,0,4.42,2.8,6.12,2.36
			c0.43-0.71,1.49-3.18,1.65-7.38"/>
		<line class="st23" x1="76.79" y1="14.91" x2="76.79" y2="2.25"/>
		<line class="st23" x1="90.47" y1="21.98" x2="90.47" y2="2.25"/>
		<line class="st23" x1="104.15" y1="27.36" x2="104.15" y2="2.25"/>
		<polygon class="st1" points="71.04,20.3 76.79,14.55 82.55,20.3 		"/>
		<polygon class="st1" points="84.72,26.23 90.47,20.48 96.22,26.23 		"/>
		<polygon class="st1" points="98.4,32.17 104.15,26.42 109.9,32.17 		"/>
	</g>
</g>
</svg>
