<svg xmlns="http://www.w3.org/2000/svg" width="540" height="80" stroke="none" stroke-linecap="round" stroke-linejoin="round" fill="#326ce5" fill-rule="nonzero"><path d="M23.1477 0c2.8436 0 5.193.239 7.0553.7099s3.4337.9829 4.7207 1.5243l-2.6385 11.8763c-1.0846-.4707-2.286-.8131-3.6037-1.0152s-2.6577-.3025-4.0095-.3025c-1.8284 0-3.3689.2524-4.6218.76s-2.2328 1.2026-2.9425 2.0822-1.219 1.9302-1.5243 3.149-.4576 2.5367-.4576 3.9564v2.6401h18.6808V37.968H15.1258v40.813H0V22.5383C0 15.635 1.9449 10.1542 5.8379 6.0932S15.4962 0 23.1477 0m40.8116 79.7964c-4.3991-.0709-7.9673-.5445-10.7092-1.4227s-4.908-2.1146-6.4988-3.7054-2.6754-3.5179-3.248-5.7876-.8633-4.824-.8633-7.6676V2.4364L57.7673 0v58.1702c0 1.3561.1003 2.5751.3055 3.6568s.5903 1.9965 1.1673 2.7388c.5739.7481 1.4047 1.3546 2.4864 1.8299s2.5383.7747 4.3666.912l-2.1338 12.4887zm33.2-55.837c4.4683 0 8.1869.5076 11.1693 1.5243 2.9751 1.0124 5.3627 2.4703 7.1558 4.3621s3.0605 4.1968 3.8086 6.9077c.7438 2.7049 1.1156 5.7168 1.1156 9.0312v31.4691c-2.1647.475-5.1766 1.0329-9.0355 1.6793-3.8589.6404-8.531.9606-14.0117.9606-3.4501 0-6.58-.2995-9.3913-.9104s-5.2299-1.61-7.2573-2.9957c-2.0336-1.3841-3.5889-3.1963-4.6721-5.432s-1.6234-4.9745-1.6234-8.2209c0-3.1153.6244-5.7553 1.8787-7.9187s2.9263-3.8928 5.0231-5.1811 4.5038-2.2136 7.2087-2.7891 5.5148-.8647 8.4278-.8647c1.9626 0 3.7054.0842 5.2297.2538s2.7553.3926 3.7057.6597v-1.4211c0-2.5722-.7808-4.6322-2.3377-6.1906s-4.2633-2.3375-8.1222-2.3375a51.776 51.776 0 0 0-7.613.5622c-2.5043.3706-4.6675.8959-6.499 1.5687l-1.9286-12.1818c.8795-.2684 1.9834-.5577 3.3011-.8632s2.7552-.5756 4.3162-.8101c1.5541-.2347 3.198-.4414 4.9245-.611 1.7237-.1638 3.4649-.2508 5.227-.2508m1.2174 44.2616c1.4874 0 2.9085-.0324 4.2631-.0987s2.438-.1699 3.2512-.3055V56.3447c-.6111-.1372-1.5231-.2729-2.7435-.4073s-2.3344-.2035-3.3497-.2035c-1.4211 0-2.7595.087-4.0109.2567s-2.3508.4914-3.2967.9606c-.9505.4752-1.6941 1.1156-2.2357 1.9317s-.8132 1.824-.8132 3.0428c0 2.373.797 4.0124 2.3877 4.9245s3.7718 1.3708 6.5477 1.3708m34.4736-41.0152c2.5736-.7438 5.891-1.4373 9.9506-2.0777s8.3273-.9666 12.7898-.9666c4.5362 0 8.3081.5946 11.3244 1.7767 3.0074 1.1849 5.3936 2.8629 7.157 5.0276 1.7576 2.1649 3.0105 4.7386 3.7543 7.7121.7466 2.9823 1.1184 6.2936 1.1184 9.9504v30.1513h-15.1272V50.4538c0-4.8727-.6449-8.3229-1.9287-10.3505s-3.6893-3.0488-7.2102-3.0488c-1.0803 0-2.2357.0531-3.4502.152-1.2174.1049-2.3036.2243-3.251.3572v41.2159h-15.1258V27.2058zm74.2374 17.3497l4.6144-5.0424 4.6146-5.2002 4.21-4.8963 3.4001-4.036h17.9887l-10.51 11.8024c-3.4177 3.7469-7.1615 7.6116-11.2211 11.5975 2.0334 1.8312 4.132 4.0168 6.2983 6.5609s4.2617 5.1678 6.2951 7.8816c2.0276 2.7094 3.8915 5.4232 5.5841 8.1339s3.1122 5.1901 4.2648 7.4228h-17.397l-3.6964-5.8525c-1.3858-2.1368-2.8541-4.2736-4.4066-6.4075-1.5598-2.1397-3.1933-4.1895-4.9154-6.1595s-3.428-3.6272-5.1208-4.9878v23.4058h-15.1272V2.4365L207.0905.0001v44.5554zm58.5139 29.558c3.7867 0 6.918-.6301 9.3884-1.8785s3.7069-3.3691 3.7069-6.3455c0-1.4226-.2169-2.6399-.6597-3.6582s-1.1642-1.9288-2.1825-2.7374-2.3537-1.5908-4.0108-2.3389l-6.1434-2.6387-5.5839-2.4895c-1.7576-.841-3.3131-1.8239-4.6692-2.9395s-2.4349-2.454-3.2464-4.0123-1.216-3.4517-1.216-5.683c0-4.2662 1.6069-7.7162 4.8194-10.3563s7.6309-3.9607 13.2488-3.9607c3.5875 0 6.5491.3055 8.8851.9119 2.3346.6124 3.9757 1.1525 4.9244 1.6277l-1.5243 5.8865c-.8131-.4044-2.1825-.9459-4.1098-1.6232s-4.7591-1.0167-8.4809-1.0167c-1.4874 0-2.8923.1535-4.21.4588s-2.4909.7807-3.5033 1.4256-1.8299 1.4579-2.4364 2.4423-.912 2.1855-.912 3.6094.2686 2.6445.8102 3.6642 1.337 1.914 2.3878 2.6916 2.3329 1.5067 3.8558 2.1811l5.2269 2.2224c2.0321.8101 3.9769 1.6365 5.8363 2.4792 1.8653.8425 3.5033 1.8564 4.9244 3.0413s2.5736 2.6032 3.4547 4.2633 1.3177 3.7379 1.3177 6.2421c0 4.7386-1.7767 8.3244-5.3287 10.7622S271.761 80 265.6061 80c-4.6072 0-8.1222-.3925-10.5572-1.1687s-4.061-1.3665-4.877-1.7767l1.7264-5.9899c.2052.1358.6435.3557 1.3194.6611s1.5908.6434 2.7418 1.0154 2.5204.6964 4.1099.9636 3.4323.4087 5.5322.4087m76.0112-21.5273c0 4.1305-.5931 7.886-1.7812 11.2699-1.1818 3.388-2.842 6.2627-4.973 8.6282-2.1294 2.373-4.6499 4.2145-7.5644 5.5367-2.9085 1.3194-6.1241 1.979-9.6391 1.979-3.5224 0-6.7395-.6596-9.6466-1.979-2.9144-1.3222-5.4335-3.1637-7.5645-5.5367-2.1323-2.3655-3.7924-5.2402-4.9729-8.6282-1.1865-3.3839-1.7783-7.1394-1.7783-11.2699s.5918-7.8816 1.7783-11.2669c1.1805-3.3837 2.8406-6.276 4.9729-8.68s4.6501-4.2633 7.5645-5.581c2.9071-1.3222 6.1242-1.9833 9.6466-1.9833 3.515 0 6.7321.6611 9.6391 1.9833 2.9145 1.3177 5.435 3.1816 7.5644 5.581s3.7912 5.2963 4.973 8.68 1.7812 7.1394 1.7812 11.2669m-7.0066 0c0-6.5639-1.5243-11.7877-4.5686-15.6835s-7.1764-5.8365-12.384-5.8365c-5.2137 0-9.3412 1.9449-12.3898 5.8365s-4.5689 9.1196-4.5689 15.6835 1.5245 11.7759 4.5689 15.6364 7.1761 5.7877 12.3898 5.7877c5.2062 0 9.338-1.9288 12.384-5.7877s4.5686-9.0695 4.5686-15.6364m61.0478 24.3681l-7.9185 1.8239c-3.316.6773-7.3784 1.0167-12.1818 1.0167-3.9254 0-7.2102-.5799-9.8487-1.7265s-4.7695-2.7757-6.3956-4.8772c-1.6234-2.0939-2.7921-4.6337-3.5033-7.6115s-1.0655-6.2584-1.0655-9.8489V26.2924h6.6022v27.309c0 3.7202.2701 6.868.8087 9.4416s1.424 4.6528 2.6401 6.2436 2.7948 2.7404 4.7221 3.453 4.2795 1.0655 7.0553 1.0655c3.1093 0 5.82-.1682 8.1208-.509s3.7555-.6435 4.3665-.9121V26.2924h6.5977v50.6619zm35.6689-51.6772c2.1649 0 4.2117.1742 6.1418.5076 1.9302.3439 3.2643.6773 4.0124 1.0167l-1.3222 5.6844c-.54-.2685-1.6394-.5578-3.2996-.8632s-3.8412-.4546-6.5476-.4546c-2.8437 0-5.128.2023-6.8546.6065-1.7281.4103-2.8599.7483-3.4016 1.0169v45.9882h-6.5948V28.7302c1.6883-.7437 4.0228-1.5037 7.0007-2.2844s6.6008-1.1687 10.8655-1.1687m42.4363 54.618c-4.061 0-7.6514-.6463-10.7607-1.9316s-5.7035-3.127-7.7679-5.5309-3.6377-5.2784-4.7207-8.6283-1.6234-7.0567-1.6234-11.1179c0-4.126.5563-7.886 1.672-11.2669s2.727-6.2952 4.8256-8.733 4.6365-4.3134 7.6144-5.6313 6.3279-1.9817 10.0524-1.9817c2.8408 0 5.4971.239 7.9673.7097s4.3842 1.0861 5.739 1.8299l-1.7266 5.6844c-1.3548-.6775-2.8792-1.2175-4.5703-1.6234s-3.9623-.6108-6.8029-.6108c-5.8215 0-10.2383 1.8801-13.2502 5.6341s-4.5186 9.0858-4.5186 15.989c0 3.1153.338 5.9738 1.0155 8.5812s1.7765 4.8344 3.301 6.6995c1.5243 1.8594 3.4869 3.3175 5.888 4.3623 2.4039 1.0536 5.3301 1.5731 8.7819 1.5731 2.8422 0 5.2297-.3174 7.1585-.9623s3.3334-1.2012 4.213-1.6778l1.4226 5.6887c-1.2188.6774-3.1316 1.3327-5.7403 1.979-2.6034.6433-5.326.965-8.1696.965m22.1677-27.4093c0-4.6027.6568-8.6121 1.979-12.0284s3.0443-6.279 5.1782-8.5796 4.5672-4.0109 7.312-5.1265c2.7359-1.1201 5.5634-1.6778 8.4749-1.6778 6.4266 0 11.5546 2.0984 15.3811 6.2953s5.7376 10.6587 5.7376 19.3889c0 .5417-.0193 1.0832-.0534 1.6248a20.002 20.002 0 0 1-.1473 1.5244h-36.8598c.2079 6.4325 1.7929 11.3672 4.7708 14.8219s7.7164 5.178 14.2154 5.178c3.5858 0 6.428-.3379 8.5309-1.0152 2.0939-.6774 3.6183-1.25 4.5644-1.7267l1.2188 5.6859c-.9474.5401-2.7241 1.1866-5.3287 1.9302s-5.668 1.1158-9.1876 1.1158c-4.6028 0-8.5266-.6775-11.7775-2.0291s-5.9249-3.251-8.0174-5.6844c-2.0999-2.4364-3.6244-5.3332-4.5716-8.6845s-1.4198-7.0183-1.4198-11.013m37.2582-4.163c-.1372-5.4791-1.4209-9.7453-3.8574-12.7898s-5.8866-4.5686-10.3579-4.5686c-2.3671 0-4.4815.4752-6.3454 1.4211-1.8578.9459-3.4869 2.2194-4.8697 3.8043-1.3886 1.5951-2.4718 3.4368-3.2525 5.5367s-1.2336 4.2929-1.3666 6.5948h30.0495z"/></svg>