<?xml version="1.0" encoding="utf-8"?>
<!-- Generator: Adobe Illustrator 16.0.0, SVG Export Plug-In . SVG Version: 6.00 Build 0)  -->
<!DOCTYPE svg PUBLIC "-//W3C//DTD SVG 1.1//EN" "http://www.w3.org/Graphics/SVG/1.1/DTD/svg11.dtd">
<svg version="1.1" id="Layer_1" xmlns="http://www.w3.org/2000/svg" xmlns:xlink="http://www.w3.org/1999/xlink" x="0px" y="0px"
	 width="5.76px" height="5.76px" viewBox="0 0 5.76 5.76" enable-background="new 0 0 5.76 5.76" xml:space="preserve">
<polygon fill-rule="evenodd" clip-rule="evenodd" fill="#FFFFFF" points="2.757,0.534 3.752,1.013 4.748,1.492 4.994,2.57 
	5.24,3.647 4.551,4.511 3.861,5.375 2.757,5.375 1.652,5.375 0.962,4.511 0.273,3.647 0.52,2.57 0.766,1.492 1.761,1.013 "/>
<path fill-rule="evenodd" clip-rule="evenodd" fill="#326CE5" d="M2.864,0.069l2.31,1.112l0.57,2.499L4.146,5.685H1.583
	l-1.598-2.004l0.57-2.499L2.864,0.069L2.864,0.069z M2.313,1.486c0.015,0.023,0.408,0.41,0.441,0.444
	c0.048,0.05,0.037-0.015,0.177,0.011c0.075,0.014,0.135,0.054,0.177,0.101c0.006,0.006,0.017,0.021,0.023,0.031
	c0.016,0.023,0.026,0.046,0.037,0.076C3.198,2.242,3.175,2.282,3.167,2.35l0.418,0.417C3.61,2.792,3.602,2.792,3.646,2.783
	c0.149-0.035,0.303,0.048,0.355,0.19c0.083,0.218-0.087,0.422-0.293,0.419C3.594,3.391,3.506,3.327,3.462,3.263
	C3.438,3.228,3.417,3.183,3.408,3.13C3.396,3.058,3.412,3.028,3.426,2.967L3.012,2.551L3.011,3.64
	c0.003,0.016,0.043,0.024,0.074,0.059c0.023,0.026,0.041,0.04,0.06,0.077C3.26,3.999,3.093,4.242,2.86,4.231
	C2.542,4.218,2.465,3.803,2.713,3.659C2.725,3.653,2.75,3.646,2.756,3.632V2.529C2.653,2.497,2.571,2.376,2.565,2.26
	C2.562,2.182,2.583,2.159,2.587,2.123C2.548,2.089,2.511,2.048,2.474,2.011C2.419,1.957,2.148,1.679,2.128,1.669
	C2.113,1.69,1.072,2.727,1.021,2.777c-0.04,0.04-0.086,0.081-0.12,0.125C0.806,3.029,0.853,3.172,0.938,3.256l1.478,1.478
	c0.083,0.082,0.162,0.162,0.245,0.245c0.036,0.036,0.078,0.076,0.152,0.092C2.971,5.106,3.054,5.003,3.14,4.917l1.6-1.601
	C4.776,3.28,4.825,3.239,4.853,3.184C4.884,3.119,4.89,3.049,4.865,2.978c-0.029-0.083-0.164-0.2-0.227-0.263L3.405,1.482
	C3.351,1.427,3.083,1.154,3.037,1.115C2.929,1.024,2.789,1.023,2.682,1.117C2.641,1.153,2.598,1.2,2.559,1.24
	C2.511,1.287,2.343,1.451,2.313,1.486z"/>
</svg>
